<?xml version="1.0" encoding="utf-8"?>
<!-- Generator: Adobe Illustrator 27.5.0, SVG Export Plug-In . SVG Version: 6.00 Build 0)  -->
<svg version="1.1" id="a" xmlns="http://www.w3.org/2000/svg" xmlns:xlink="http://www.w3.org/1999/xlink" x="0px" y="0px"
	 viewBox="0 0 252.8 20.4" style="enable-background:new 0 0 252.8 20.4;" xml:space="preserve">
<style type="text/css">
	.st0{fill:#111C3C;}
	.st1{fill:none;stroke:#121C3D;stroke-width:0.5;stroke-miterlimit:10;}
</style>
<g>
	<g>
		<path class="st0" d="M20.9,1.9c2-0.2,2.8,0.7,2.1,2.6c-0.6,2.2-3,11.5-3.6,13.5c-0.8-3.5-4.1-12.6-5.2-16.2h-1.1
			c-0.7,3-3.4,13.1-4,15.9C8.6,14.5,6.2,7.3,5.3,4.1C4.7,2.4,5.5,1.7,7.2,1.9V1.7H0.2v0.3c1-0.1,1.9,0.2,2.1,1.3c0,0,5,16.5,5,16.5
			h1.6l3.7-15.1l5,15.1h1.5l4.2-15.8c0.3-1.4,1-2.2,2.4-2V1.7h-4.9V1.9z M39.8,17.2c0,0,0-6.3,0-6.3c0.9-5.1-6.6-7.1-8.2-2.3h-0.1
			c0.1-1.9,0-6.1,0-8h-4.5v0.3c1.6-0.1,2.2,0.8,2.1,2.3c0,0,0,14.1,0,14.1c0.1,1.6-0.7,2.5-2.3,2.3v0.3h6.8v-0.3
			c-1.6,0.1-2.2-0.8-2.1-2.3c0,0,0-6.5,0-6.5c-0.5-3,3-6.1,5.2-3.3c1.2,1.6,0.4,10.5,0.6,12.4h4.4v-0.3
			C40.3,19.6,39.7,18.6,39.8,17.2z M52.9,6.9c-1.6-1.4-5.6-1.4-7.4,0.1c-1.3,1.3-0.4,3.3,1.5,3c0-1.3,0.1-2.3,0.4-2.9
			c0.8-1.5,4.1-1.2,4.1,0.9c0.2,1,0.1,3.1,0.2,4.2c-11-1.1-9.5,9.5-2,7.5c1.1-0.5,1.8-1.4,2.1-2.6h0.1v2.7h3.8v-0.3
			C52,20.1,55.7,8.5,52.9,6.9z M47.2,19.3c-1.5-1.1-1.2-4.7-0.2-5.7c0.7-0.9,3.2-1,4.6-1.1C51.9,15.5,51.7,21.1,47.2,19.3z
			 M61.5,3.1h-0.3c-0.3,2.1-1.9,3.2-4,3.1v0.3h1.9v9.6c-0.2,3.3,2,4.3,4.9,3.8c0.4-0.1,0.8-0.2,1-0.3v-0.3c-1.9,0.8-3.7,0-3.5-2.3
			c0,0,0-10.6,0-10.6h3.5V6.2h-3.5V3.1z M76.1,3.1h-0.3c-0.3,2.1-1.9,3.2-4,3.1v0.3h1.9v9.6c-0.2,3.3,2,4.3,4.9,3.8
			c0.4-0.1,0.8-0.2,1-0.3v-0.3c-1.9,0.8-3.7,0-3.5-2.3c0,0,0-10.6,0-10.6h3.5V6.2h-3.5V3.1z M93.5,17.2c0,0,0-6.3,0-6.3
			c0.9-5.1-6.6-7.1-8.2-2.3h-0.1c0.1-1.9,0-6.1,0-8h-4.5v0.3C82.4,0.6,83,1.5,83,3.1c0,0,0,14.1,0,14.1c0.1,1.6-0.7,2.5-2.3,2.3v0.3
			h6.8v-0.3c-1.6,0.1-2.2-0.8-2.1-2.3c0,0,0-6.5,0-6.5c-0.5-3,3-6.1,5.2-3.3c1.2,1.6,0.4,10.5,0.6,12.4h4.4v-0.3
			C94,19.6,93.5,18.6,93.5,17.2z M99.1,7.7c-3.7,4.8-0.3,14.9,6.9,11.9c1.2-0.4,2.8-2.2,1.3-2.9c-0.2,2.7-3.7,4.1-5.7,2.4
			c-1.5-1.6-1.4-3.8-1.5-6.4h8.4C109.5,6.8,102.8,3.7,99.1,7.7z M106,12.3h-5.9C99.8,4.2,106.6,4,106,12.3z M128.8,17.2
			c0,0,0-6.3,0-6.3c0.9-5.1-6.6-7.1-8.2-2.3h-0.1c0.1-1.9,0-6.1,0-8h-4.5v0.3c1.6-0.1,2.2,0.8,2.1,2.3c0,0,0,14.1,0,14.1
			c0.1,1.6-0.7,2.5-2.3,2.3v0.3h6.8v-0.3c-1.6,0.1-2.2-0.8-2.1-2.3c0,0,0-6.5,0-6.5c-0.5-3,3-6.1,5.2-3.3c1.2,1.6,0.4,10.5,0.6,12.4
			h4.4v-0.3C129.3,19.6,128.7,18.6,128.8,17.2z M134.4,7.7c-3.7,4.8-0.3,14.9,6.9,11.9c1.2-0.4,2.8-2.2,1.3-2.9
			c-0.2,2.7-3.7,4.1-5.7,2.4c-1.5-1.6-1.4-3.8-1.5-6.4h8.4C144.8,6.8,138,3.7,134.4,7.7z M141.2,12.3h-5.9
			C135,4.2,141.9,4,141.2,12.3z M150.1,17.4c0,0,0-16.9,0-16.9h-4.8v0.3c1.4-0.1,2.5,0.4,2.4,2c0,0,0,14.8,0,14.8
			c0.1,1.5-1,2.1-2.4,1.9v0.3h7.2v-0.3C151.1,19.6,150,19,150.1,17.4z M158,17.4c0,0,0-16.9,0-16.9h-4.8v0.3c1.4-0.1,2.5,0.4,2.4,2
			c0,0,0,14.8,0,14.8c0.1,1.5-1,2.1-2.4,1.9v0.3h7.2v-0.3C158.9,19.6,157.9,19,158,17.4z M174.5,11c1.7-1.6,3.3-4.7,5.8-4.5V6.2
			h-5.6v0.3c2.8-0.2,2.7,1.1,1,2.8c0,0-4.3,4.8-4.3,4.8c0.1-2.1,0-11.2,0.1-13.5H167v0.3c1.4-0.1,2.2,0.6,2.1,2c0,0,0,14.8,0,14.8
			c0.1,1.4-0.9,2.1-2.3,1.9v0.3h6.8v-0.3c-2.9,0.4-2-3.4-2.1-5.1l1.5-1.7c0.5,0.7,3.4,5.5,4,6c1.1,1.1,2.8,1,4.3,1v-0.3
			C179,19.4,176,12.6,174.5,11z M186.5,17.4c0,0,0-11.2,0-11.2H182v0.3c1.4-0.1,2.2,0.6,2.1,2c0,0,0,9.1,0,9.1
			c0.1,1.5-1,2.1-2.4,1.9v0.3h7.2v-0.3C187.5,19.6,186.4,19,186.5,17.4z M186,3.4c0.9-1-0.1-3.4-1.6-2.2
			C183.5,2.2,184.5,4.7,186,3.4z M202.8,17.2c0,0,0-6.3,0-6.3c0.9-5.1-6.6-7.1-8.2-2.3h-0.1V6.2h-4.5v0.3c1.6-0.1,2.2,0.8,2.1,2.3
			c0,0,0,8.5,0,8.5c0.1,1.6-0.7,2.5-2.3,2.3v0.3h6.8v-0.3c-1.6,0.1-2.2-0.8-2.1-2.3c0,0,0-6.5,0-6.5c-0.5-3,3-6.1,5.2-3.3
			c1.2,1.6,0.4,10.5,0.6,12.4h4.4v-0.3C203.3,19.6,202.7,18.6,202.8,17.2z M218.3,17.6c0,0,0-17,0-17h-4.5v0.3
			c2.7-0.4,2.1,2.7,2.1,4.4c0,1.4,0,3.1,0.1,4.5H216c-0.3-4.9-7.2-4.9-8.5-0.6c-2.1,4.7,0.9,14.2,7.1,10c0.6-0.6,1.1-1.6,1.3-2.9
			h0.1v3.6h4.6v-0.3C219.3,19.6,218.2,19,218.3,17.6z M210.7,19c-2.2-2.8-2.5-15.9,3.8-11.9C217.2,10.1,216.8,22.5,210.7,19z
			 M229.6,7.7c-4.6,6.3,1.4,16.8,8.8,10.6C243.1,11.9,237.1,1.5,229.6,7.7z M232.1,19.1c-2.1-2.7-2.1-9.5,0-12.2
			C239.6,1.8,239.6,24.1,232.1,19.1z M244.4,6.2h-2.3v0.3h2.3v11.1c0.1,1.5-1,2.1-2.4,1.9v0.3h7.8v-0.3c-1.5,0.1-3.2-0.1-3-2.1
			c0,0,0-11,0-11h3.6V6.2h-3.6c0-1.4,0-4,0.4-4.7c1.4-2.1,3.6-0.4,3.1,2C257.9,1.7,243.3-4.1,244.4,6.2z"/>
	</g>
	<g>
		<path class="st1" d="M20.9,1.9c2-0.2,2.8,0.7,2.1,2.6c-0.6,2.2-3,11.5-3.6,13.5c-0.8-3.5-4.1-12.6-5.2-16.2h-1.1
			c-0.7,3-3.4,13.1-4,15.9C8.6,14.5,6.2,7.3,5.3,4.1C4.7,2.4,5.5,1.7,7.2,1.9V1.7H0.2v0.3c1-0.1,1.9,0.2,2.1,1.3c0,0,5,16.5,5,16.5
			h1.6l3.7-15.1l5,15.1h1.5l4.2-15.8c0.3-1.4,1-2.2,2.4-2V1.7h-4.9V1.9z M39.8,17.2c0,0,0-6.3,0-6.3c0.9-5.1-6.6-7.1-8.2-2.3h-0.1
			c0.1-1.9,0-6.1,0-8h-4.5v0.3c1.6-0.1,2.2,0.8,2.1,2.3c0,0,0,14.1,0,14.1c0.1,1.6-0.7,2.5-2.3,2.3v0.3h6.8v-0.3
			c-1.6,0.1-2.2-0.8-2.1-2.3c0,0,0-6.5,0-6.5c-0.5-3,3-6.1,5.2-3.3c1.2,1.6,0.4,10.5,0.6,12.4h4.4v-0.3
			C40.3,19.6,39.7,18.6,39.8,17.2z M52.9,6.9c-1.6-1.4-5.6-1.4-7.4,0.1c-1.3,1.3-0.4,3.3,1.5,3c0-1.3,0.1-2.3,0.4-2.9
			c0.8-1.5,4.1-1.2,4.1,0.9c0.2,1,0.1,3.1,0.2,4.2c-11-1.1-9.5,9.5-2,7.5c1.1-0.5,1.8-1.4,2.1-2.6h0.1v2.7h3.8v-0.3
			C52,20.1,55.7,8.5,52.9,6.9z M47.2,19.3c-1.5-1.1-1.2-4.7-0.2-5.7c0.7-0.9,3.2-1,4.6-1.1C51.9,15.5,51.7,21.1,47.2,19.3z
			 M61.5,3.1h-0.3c-0.3,2.1-1.9,3.2-4,3.1v0.3h1.9v9.6c-0.2,3.3,2,4.3,4.9,3.8c0.4-0.1,0.8-0.2,1-0.3v-0.3c-1.9,0.8-3.7,0-3.5-2.3
			c0,0,0-10.6,0-10.6h3.5V6.2h-3.5V3.1z M76.1,3.1h-0.3c-0.3,2.1-1.9,3.2-4,3.1v0.3h1.9v9.6c-0.2,3.3,2,4.3,4.9,3.8
			c0.4-0.1,0.8-0.2,1-0.3v-0.3c-1.9,0.8-3.7,0-3.5-2.3c0,0,0-10.6,0-10.6h3.5V6.2h-3.5V3.1z M93.5,17.2c0,0,0-6.3,0-6.3
			c0.9-5.1-6.6-7.1-8.2-2.3h-0.1c0.1-1.9,0-6.1,0-8h-4.5v0.3C82.4,0.6,83,1.5,83,3.1c0,0,0,14.1,0,14.1c0.1,1.6-0.7,2.5-2.3,2.3v0.3
			h6.8v-0.3c-1.6,0.1-2.2-0.8-2.1-2.3c0,0,0-6.5,0-6.5c-0.5-3,3-6.1,5.2-3.3c1.2,1.6,0.4,10.5,0.6,12.4h4.4v-0.3
			C94,19.6,93.5,18.6,93.5,17.2z M99.1,7.7c-3.7,4.8-0.3,14.9,6.9,11.9c1.2-0.4,2.8-2.2,1.3-2.9c-0.2,2.7-3.7,4.1-5.7,2.4
			c-1.5-1.6-1.4-3.8-1.5-6.4h8.4C109.5,6.8,102.8,3.7,99.1,7.7z M106,12.3h-5.9C99.8,4.2,106.6,4,106,12.3z M128.8,17.2
			c0,0,0-6.3,0-6.3c0.9-5.1-6.6-7.1-8.2-2.3h-0.1c0.1-1.9,0-6.1,0-8h-4.5v0.3c1.6-0.1,2.2,0.8,2.1,2.3c0,0,0,14.1,0,14.1
			c0.1,1.6-0.7,2.5-2.3,2.3v0.3h6.8v-0.3c-1.6,0.1-2.2-0.8-2.1-2.3c0,0,0-6.5,0-6.5c-0.5-3,3-6.1,5.2-3.3c1.2,1.6,0.4,10.5,0.6,12.4
			h4.4v-0.3C129.3,19.6,128.7,18.6,128.8,17.2z M134.4,7.7c-3.7,4.8-0.3,14.9,6.9,11.9c1.2-0.4,2.8-2.2,1.3-2.9
			c-0.2,2.7-3.7,4.1-5.7,2.4c-1.5-1.6-1.4-3.8-1.5-6.4h8.4C144.8,6.8,138,3.7,134.4,7.7z M141.2,12.3h-5.9
			C135,4.2,141.9,4,141.2,12.3z M150.1,17.4c0,0,0-16.9,0-16.9h-4.8v0.3c1.4-0.1,2.5,0.4,2.4,2c0,0,0,14.8,0,14.8
			c0.1,1.5-1,2.1-2.4,1.9v0.3h7.2v-0.3C151.1,19.6,150,19,150.1,17.4z M158,17.4c0,0,0-16.9,0-16.9h-4.8v0.3c1.4-0.1,2.5,0.4,2.4,2
			c0,0,0,14.8,0,14.8c0.1,1.5-1,2.1-2.4,1.9v0.3h7.2v-0.3C158.9,19.6,157.9,19,158,17.4z M174.5,11c1.7-1.6,3.3-4.7,5.8-4.5V6.2
			h-5.6v0.3c2.8-0.2,2.7,1.1,1,2.8c0,0-4.3,4.8-4.3,4.8c0.1-2.1,0-11.2,0.1-13.5H167v0.3c1.4-0.1,2.2,0.6,2.1,2c0,0,0,14.8,0,14.8
			c0.1,1.4-0.9,2.1-2.3,1.9v0.3h6.8v-0.3c-2.9,0.4-2-3.4-2.1-5.1l1.5-1.7c0.5,0.7,3.4,5.5,4,6c1.1,1.1,2.8,1,4.3,1v-0.3
			C179,19.4,176,12.6,174.5,11z M186.5,17.4c0,0,0-11.2,0-11.2H182v0.3c1.4-0.1,2.2,0.6,2.1,2c0,0,0,9.1,0,9.1
			c0.1,1.5-1,2.1-2.4,1.9v0.3h7.2v-0.3C187.5,19.6,186.4,19,186.5,17.4z M186,3.4c0.9-1-0.1-3.4-1.6-2.2
			C183.5,2.2,184.5,4.7,186,3.4z M202.8,17.2c0,0,0-6.3,0-6.3c0.9-5.1-6.6-7.1-8.2-2.3h-0.1V6.2h-4.5v0.3c1.6-0.1,2.2,0.8,2.1,2.3
			c0,0,0,8.5,0,8.5c0.1,1.6-0.7,2.5-2.3,2.3v0.3h6.8v-0.3c-1.6,0.1-2.2-0.8-2.1-2.3c0,0,0-6.5,0-6.5c-0.5-3,3-6.1,5.2-3.3
			c1.2,1.6,0.4,10.5,0.6,12.4h4.4v-0.3C203.3,19.6,202.7,18.6,202.8,17.2z M218.3,17.6c0,0,0-17,0-17h-4.5v0.3
			c2.7-0.4,2.1,2.7,2.1,4.4c0,1.4,0,3.1,0.1,4.5H216c-0.3-4.9-7.2-4.9-8.5-0.6c-2.1,4.7,0.9,14.2,7.1,10c0.6-0.6,1.1-1.6,1.3-2.9
			h0.1v3.6h4.6v-0.3C219.3,19.6,218.2,19,218.3,17.6z M210.7,19c-2.2-2.8-2.5-15.9,3.8-11.9C217.2,10.1,216.8,22.5,210.7,19z
			 M229.6,7.7c-4.6,6.3,1.4,16.8,8.8,10.6C243.1,11.9,237.1,1.5,229.6,7.7z M232.1,19.1c-2.1-2.7-2.1-9.5,0-12.2
			C239.6,1.8,239.6,24.1,232.1,19.1z M244.4,6.2h-2.3v0.3h2.3v11.1c0.1,1.5-1,2.1-2.4,1.9v0.3h7.8v-0.3c-1.5,0.1-3.2-0.1-3-2.1
			c0,0,0-11,0-11h3.6V6.2h-3.6c0-1.4,0-4,0.4-4.7c1.4-2.1,3.6-0.4,3.1,2C257.9,1.7,243.3-4.1,244.4,6.2z"/>
	</g>
</g>
</svg>
