<?xml version="1.0" encoding="utf-8"?>
<!-- Generator: Adobe Illustrator 27.5.0, SVG Export Plug-In . SVG Version: 6.00 Build 0)  -->
<svg version="1.1" id="a" xmlns="http://www.w3.org/2000/svg" xmlns:xlink="http://www.w3.org/1999/xlink" x="0px" y="0px"
	 viewBox="0 0 227.1 25.9" style="enable-background:new 0 0 227.1 25.9;" xml:space="preserve">
<style type="text/css">
	.st0{fill:#111C3C;}
	.st1{fill:none;stroke:#121C3D;stroke-width:0.5;stroke-miterlimit:10;}
</style>
<g>
	<g>
		<path class="st0" d="M16.6,6.2c2-0.1,3.3,0.1,2.5,2.3c-0.7,2.6-1.9,7.6-2.6,10.1h-0.1c-0.9-2.7-3.3-9.8-4.2-12.6h-1.6
			c-0.7,2.8-2.5,9.7-3.2,12.4H7.4c-0.7-2.4-2.1-7.5-2.8-10C4,6.6,4.7,6,6.5,6.2V5.9H0.2v0.3C1.2,6.1,1.8,6.6,2,7.5
			c0,0,3.5,12,3.5,12h1.9l3.1-12l4,12h2l2.9-11.3c0.3-1.5,1.2-2.2,2.6-2V5.9h-5.4V6.2z M32.4,6.7c-1.6-1.4-5.6-1.4-7.4,0.1
			c-1.3,1.3-0.4,3.3,1.5,3c0-1.3,0.1-2.3,0.4-2.9C27.7,5.3,31,5.7,31,7.7c0.2,1,0.1,3.1,0.2,4.2c-11-1.1-9.5,9.5-2,7.5
			c1.1-0.5,1.8-1.4,2.1-2.6h0.1v2.7h3.8v-0.3C31.4,19.8,35.2,8.3,32.4,6.7z M26.7,19c-1.5-1.1-1.2-4.7-0.2-5.7
			c0.7-0.9,3.2-1,4.6-1.1C31.4,15.2,31.2,20.8,26.7,19z M44.7,6.2c1.8-0.2,3.4,0.2,2.5,2.3c-0.7,2.4-2.2,6.9-3,9.2
			c-0.8-2.5-2.7-6.8-3.7-9.4c-0.7-1.2-0.2-2.3,1.3-2.2V5.9h-6.1v0.3c1-0.1,1.6,0.4,1.9,1.4c0,0,5.5,13,5.5,13c-1,3.4-3,5-6.6,4.7
			v0.3c4.3,0.5,6.3-2,7.3-6c0,0,3.7-11.4,3.7-11.4c0.4-1.3,1-2.1,2.4-2V5.9h-5.3V6.2z M61,17.2c0,0,0-11.2,0-11.2h-4.5v0.3
			c1.4-0.1,2.2,0.6,2.1,2c0,0,0,9.1,0,9.1c0.1,1.5-1,2.1-2.4,1.9v0.3h7.2v-0.3C62,19.4,60.9,18.7,61,17.2z M60.5,3.2
			c0.9-1-0.1-3.4-1.6-2.2C58,2,59.1,4.4,60.5,3.2z M67,8.4c0.2-3.9,5.5-2.9,4.8,1.2c1.6,0.1,2.4-1.5,1.4-2.7
			c-1.5-1.6-5.2-1.4-6.8-0.2c-3.7,3.6,1.3,6.6,4.5,7.8c5,4.5-5.1,8.3-4.3,0.9c-0.9,0-1.6,0.7-1.6,1.7c0.2,3.4,5.9,3.2,7.8,1.7
			C78.2,11.6,66.7,12.4,67,8.4z M85.6,2.8h-0.3c-0.3,2.1-1.9,3.2-4,3.1v0.3h1.9v9.6c-0.2,3.3,2,4.3,4.9,3.8c0.4-0.1,0.8-0.2,1-0.3
			v-0.3c-1.9,0.8-3.7,0-3.5-2.3c0,0,0-10.6,0-10.6h3.5V5.9h-3.5V2.8z M103.1,16.9c0,0,0-6.3,0-6.3c0.9-5.1-6.6-7.1-8.2-2.3h-0.1
			c0.1-1.9,0-6.1,0-8h-4.5v0.3c1.6-0.1,2.2,0.8,2.1,2.3c0,0,0,14.1,0,14.1c0.1,1.6-0.7,2.5-2.3,2.3v0.3H97v-0.3
			c-1.6,0.1-2.2-0.8-2.1-2.3c0,0,0-6.5,0-6.5c-0.5-3,3-6.1,5.2-3.3c1.2,1.6,0.4,10.5,0.6,12.4h4.4v-0.3
			C103.6,19.4,103,18.4,103.1,16.9z M116.1,6.7c-1.6-1.4-5.6-1.4-7.4,0.1c-1.3,1.3-0.4,3.3,1.5,3c0-1.3,0.1-2.3,0.4-2.9
			c0.8-1.5,4.1-1.2,4.1,0.9c0.2,1,0.1,3.1,0.2,4.2c-11-1.1-9.5,9.5-2,7.5c1.1-0.5,1.8-1.4,2.1-2.6h0.1v2.7h3.8v-0.3
			C115.2,19.8,119,8.3,116.1,6.7z M110.5,19c-1.5-1.1-1.2-4.7-0.2-5.7c0.7-0.9,3.2-1,4.6-1.1C115.2,15.2,115,20.8,110.5,19z
			 M124.8,2.8h-0.3c-0.3,2.1-1.9,3.2-4,3.1v0.3h1.9v9.6c-0.2,3.3,2,4.3,4.9,3.8c0.4-0.1,0.8-0.2,1-0.3v-0.3c-1.9,0.8-3.7,0-3.5-2.3
			c0,0,0-10.6,0-10.6h3.5V5.9h-3.5V2.8z M139.4,2.8h-0.3c-0.3,2.1-1.9,3.2-4,3.1v0.3h1.9v9.6c-0.2,3.3,2,4.3,4.9,3.8
			c0.4-0.1,0.8-0.2,1-0.3v-0.3c-1.9,0.8-3.7,0-3.5-2.3c0,0,0-10.6,0-10.6h3.5V5.9h-3.5V2.8z M146.4,7.4c-4.6,6.3,1.4,16.8,8.8,10.6
			C159.8,11.6,153.9,1.2,146.4,7.4z M148.8,18.8c-2.1-2.7-2.1-9.5,0-12.2C156.3,1.5,156.3,23.9,148.8,18.8z M174.6,6.2
			c-2-1.3-5.1-0.2-5.5,2.3h-0.1V5.9h-4.5v0.3c1.4-0.1,2.2,0.6,2.1,2c0,0,0,9.1,0,9.1c0.1,1.5-1,2.1-2.4,1.9v0.3h7.2v-0.3
			c-1.4,0.1-2.5-0.5-2.4-2.1c0,0,0-5.4,0-5.4c0-1.5,0-3.4,0.9-4.6c1.5-1.4,3.1,0.2,2.9,2.2C175,9.6,176.1,7.4,174.6,6.2z M189,17
			c0,0,0-11.1,0-11.1h-4.5v0.3c1.5-0.1,2.2,0.8,2.1,2.3c0,0,0,5.8,0,5.8c0.7,3.6-4,7.7-5.6,3.2c-0.4-1.6-0.1-9.8-0.2-11.6h-4.5v0.3
			c5.8-0.2-2.7,15.1,7.7,13.4c1.7-0.3,2.6-1.8,2.8-3.6h0.1v3.5h4.3v-0.3C189.6,19.3,188.9,18.5,189,17z M205.3,16.9c0,0,0-6.3,0-6.3
			c0.9-5.1-6.6-7.1-8.2-2.3H197V5.9h-4.5v0.3c1.6-0.1,2.2,0.8,2.1,2.3c0,0,0,8.5,0,8.5c0.1,1.6-0.7,2.5-2.3,2.3v0.3h6.8v-0.3
			c-1.6,0.1-2.2-0.8-2.1-2.3c0,0,0-6.5,0-6.5c-0.5-3,3-6.1,5.2-3.3c1.2,1.6,0.4,10.5,0.6,12.4h4.4v-0.3
			C205.8,19.4,205.2,18.4,205.3,16.9z M224,6.7c-1.6-1.4-5.6-1.4-7.4,0.1c-1.3,1.3-0.4,3.3,1.5,3c0-1.3,0.1-2.3,0.4-2.9
			c0.8-1.5,4.1-1.2,4.1,0.9c0.2,1,0.1,3.1,0.2,4.2c-11-1.1-9.5,9.5-2,7.5c1.1-0.5,1.8-1.4,2.1-2.6h0.1v2.7h3.8v-0.3
			C223.1,19.8,226.9,8.3,224,6.7z M218.4,19c-1.5-1.1-1.2-4.7-0.2-5.7c0.7-0.9,3.2-1,4.6-1.1C223.1,15.2,222.9,20.8,218.4,19z"/>
	</g>
	<g>
		<path class="st1" d="M16.6,6.2c2-0.1,3.3,0.1,2.5,2.3c-0.7,2.6-1.9,7.6-2.6,10.1h-0.1c-0.9-2.7-3.3-9.8-4.2-12.6h-1.6
			c-0.7,2.8-2.5,9.7-3.2,12.4H7.4c-0.7-2.4-2.1-7.5-2.8-10C4,6.6,4.7,6,6.5,6.2V5.9H0.2v0.3C1.2,6.1,1.8,6.6,2,7.5
			c0,0,3.5,12,3.5,12h1.9l3.1-12l4,12h2l2.9-11.3c0.3-1.5,1.2-2.2,2.6-2V5.9h-5.4V6.2z M32.4,6.7c-1.6-1.4-5.6-1.4-7.4,0.1
			c-1.3,1.3-0.4,3.3,1.5,3c0-1.3,0.1-2.3,0.4-2.9C27.7,5.3,31,5.7,31,7.7c0.2,1,0.1,3.1,0.2,4.2c-11-1.1-9.5,9.5-2,7.5
			c1.1-0.5,1.8-1.4,2.1-2.6h0.1v2.7h3.8v-0.3C31.4,19.8,35.2,8.3,32.4,6.7z M26.7,19c-1.5-1.1-1.2-4.7-0.2-5.7
			c0.7-0.9,3.2-1,4.6-1.1C31.4,15.2,31.2,20.8,26.7,19z M44.7,6.2c1.8-0.2,3.4,0.2,2.5,2.3c-0.7,2.4-2.2,6.9-3,9.2
			c-0.8-2.5-2.7-6.8-3.7-9.4c-0.7-1.2-0.2-2.3,1.3-2.2V5.9h-6.1v0.3c1-0.1,1.6,0.4,1.9,1.4c0,0,5.5,13,5.5,13c-1,3.4-3,5-6.6,4.7
			v0.3c4.3,0.5,6.3-2,7.3-6c0,0,3.7-11.4,3.7-11.4c0.4-1.3,1-2.1,2.4-2V5.9h-5.3V6.2z M61,17.2c0,0,0-11.2,0-11.2h-4.5v0.3
			c1.4-0.1,2.2,0.6,2.1,2c0,0,0,9.1,0,9.1c0.1,1.5-1,2.1-2.4,1.9v0.3h7.2v-0.3C62,19.4,60.9,18.7,61,17.2z M60.5,3.2
			c0.9-1-0.1-3.4-1.6-2.2C58,2,59.1,4.4,60.5,3.2z M67,8.4c0.2-3.9,5.5-2.9,4.8,1.2c1.6,0.1,2.4-1.5,1.4-2.7
			c-1.5-1.6-5.2-1.4-6.8-0.2c-3.7,3.6,1.3,6.6,4.5,7.8c5,4.5-5.1,8.3-4.3,0.9c-0.9,0-1.6,0.7-1.6,1.7c0.2,3.4,5.9,3.2,7.8,1.7
			C78.2,11.6,66.7,12.4,67,8.4z M85.6,2.8h-0.3c-0.3,2.1-1.9,3.2-4,3.1v0.3h1.9v9.6c-0.2,3.3,2,4.3,4.9,3.8c0.4-0.1,0.8-0.2,1-0.3
			v-0.3c-1.9,0.8-3.7,0-3.5-2.3c0,0,0-10.6,0-10.6h3.5V5.9h-3.5V2.8z M103.1,16.9c0,0,0-6.3,0-6.3c0.9-5.1-6.6-7.1-8.2-2.3h-0.1
			c0.1-1.9,0-6.1,0-8h-4.5v0.3c1.6-0.1,2.2,0.8,2.1,2.3c0,0,0,14.1,0,14.1c0.1,1.6-0.7,2.5-2.3,2.3v0.3H97v-0.3
			c-1.6,0.1-2.2-0.8-2.1-2.3c0,0,0-6.5,0-6.5c-0.5-3,3-6.1,5.2-3.3c1.2,1.6,0.4,10.5,0.6,12.4h4.4v-0.3
			C103.6,19.4,103,18.4,103.1,16.9z M116.1,6.7c-1.6-1.4-5.6-1.4-7.4,0.1c-1.3,1.3-0.4,3.3,1.5,3c0-1.3,0.1-2.3,0.4-2.9
			c0.8-1.5,4.1-1.2,4.1,0.9c0.2,1,0.1,3.1,0.2,4.2c-11-1.1-9.5,9.5-2,7.5c1.1-0.5,1.8-1.4,2.1-2.6h0.1v2.7h3.8v-0.3
			C115.2,19.8,119,8.3,116.1,6.7z M110.5,19c-1.5-1.1-1.2-4.7-0.2-5.7c0.7-0.9,3.2-1,4.6-1.1C115.2,15.2,115,20.8,110.5,19z
			 M124.8,2.8h-0.3c-0.3,2.1-1.9,3.2-4,3.1v0.3h1.9v9.6c-0.2,3.3,2,4.3,4.9,3.8c0.4-0.1,0.8-0.2,1-0.3v-0.3c-1.9,0.8-3.7,0-3.5-2.3
			c0,0,0-10.6,0-10.6h3.5V5.9h-3.5V2.8z M139.4,2.8h-0.3c-0.3,2.1-1.9,3.2-4,3.1v0.3h1.9v9.6c-0.2,3.3,2,4.3,4.9,3.8
			c0.4-0.1,0.8-0.2,1-0.3v-0.3c-1.9,0.8-3.7,0-3.5-2.3c0,0,0-10.6,0-10.6h3.5V5.9h-3.5V2.8z M146.4,7.4c-4.6,6.3,1.4,16.8,8.8,10.6
			C159.8,11.6,153.9,1.2,146.4,7.4z M148.8,18.8c-2.1-2.7-2.1-9.5,0-12.2C156.3,1.5,156.3,23.9,148.8,18.8z M174.6,6.2
			c-2-1.3-5.1-0.2-5.5,2.3h-0.1V5.9h-4.5v0.3c1.4-0.1,2.2,0.6,2.1,2c0,0,0,9.1,0,9.1c0.1,1.5-1,2.1-2.4,1.9v0.3h7.2v-0.3
			c-1.4,0.1-2.5-0.5-2.4-2.1c0,0,0-5.4,0-5.4c0-1.5,0-3.4,0.9-4.6c1.5-1.4,3.1,0.2,2.9,2.2C175,9.6,176.1,7.4,174.6,6.2z M189,17
			c0,0,0-11.1,0-11.1h-4.5v0.3c1.5-0.1,2.2,0.8,2.1,2.3c0,0,0,5.8,0,5.8c0.7,3.6-4,7.7-5.6,3.2c-0.4-1.6-0.1-9.8-0.2-11.6h-4.5v0.3
			c5.8-0.2-2.7,15.1,7.7,13.4c1.7-0.3,2.6-1.8,2.8-3.6h0.1v3.5h4.3v-0.3C189.6,19.3,188.9,18.5,189,17z M205.3,16.9c0,0,0-6.3,0-6.3
			c0.9-5.1-6.6-7.1-8.2-2.3H197V5.9h-4.5v0.3c1.6-0.1,2.2,0.8,2.1,2.3c0,0,0,8.5,0,8.5c0.1,1.6-0.7,2.5-2.3,2.3v0.3h6.8v-0.3
			c-1.6,0.1-2.2-0.8-2.1-2.3c0,0,0-6.5,0-6.5c-0.5-3,3-6.1,5.2-3.3c1.2,1.6,0.4,10.5,0.6,12.4h4.4v-0.3
			C205.8,19.4,205.2,18.4,205.3,16.9z M224,6.7c-1.6-1.4-5.6-1.4-7.4,0.1c-1.3,1.3-0.4,3.3,1.5,3c0-1.3,0.1-2.3,0.4-2.9
			c0.8-1.5,4.1-1.2,4.1,0.9c0.2,1,0.1,3.1,0.2,4.2c-11-1.1-9.5,9.5-2,7.5c1.1-0.5,1.8-1.4,2.1-2.6h0.1v2.7h3.8v-0.3
			C223.1,19.8,226.9,8.3,224,6.7z M218.4,19c-1.5-1.1-1.2-4.7-0.2-5.7c0.7-0.9,3.2-1,4.6-1.1C223.1,15.2,222.9,20.8,218.4,19z"/>
	</g>
</g>
</svg>
