<?xml version="1.0" encoding="utf-8"?>
<!-- Generator: Adobe Illustrator 27.5.0, SVG Export Plug-In . SVG Version: 6.00 Build 0)  -->
<svg version="1.1" id="a" xmlns="http://www.w3.org/2000/svg" xmlns:xlink="http://www.w3.org/1999/xlink" x="0px" y="0px"
	 viewBox="0 0 202.7 25.9" style="enable-background:new 0 0 202.7 25.9;" xml:space="preserve">
<style type="text/css">
	.st0{fill:#111C3C;}
	.st1{fill:none;stroke:#121C3D;stroke-width:0.5;stroke-miterlimit:10;}
</style>
<g>
	<g>
		<path class="st0" d="M20.7,17.2c0,0,0-6.5,0-6.5c0.9-5.3-6.9-7.3-8-1.9h-0.1C12,4.8,5.9,4.5,4.9,8.3H4.9V5.9H0.4v0.3
			c1.4-0.1,2.2,0.6,2.1,2c0,0,0,9.1,0,9.1c0.1,1.4-0.9,2.1-2.3,1.9v0.3H7v-0.3c-1.4,0.1-2.2-0.6-2.1-2.1c0,0,0-6.4,0-6.4
			c-0.5-3,2.6-6.3,5-3.6c1.1,1.6,0.4,10.3,0.6,12.3H15v-0.3c-1.4,0.1-2.2-0.6-2.1-2.1c0,0,0-6.8,0-6.8c-0.5-2.9,2.8-5.9,4.9-3.2
			c1.1,1.6,0.4,10.3,0.6,12.3h4.5v-0.3C21.4,19.3,20.6,18.6,20.7,17.2z M26.3,7.5c-3.7,4.8-0.3,14.9,6.9,11.9
			c1.2-0.4,2.8-2.2,1.3-2.9c-0.2,2.7-3.7,4.1-5.7,2.4c-1.5-1.6-1.4-3.8-1.5-6.4h8.4C36.7,6.6,29.9,3.4,26.3,7.5z M33.1,12.1h-5.9
			C26.9,3.9,33.8,3.8,33.1,12.1z M49.7,17.3c0,0,0-17,0-17h-4.5v0.3c2.7-0.4,2.1,2.7,2.1,4.4c0,1.4,0,3.1,0.1,4.5h-0.1
			c-0.3-4.9-7.2-4.9-8.5-0.6c-2.1,4.7,0.9,14.2,7.1,10c0.6-0.6,1.1-1.6,1.3-2.9h0.1v3.6H52v-0.3C50.7,19.3,49.6,18.7,49.7,17.3z
			 M42.1,18.7c-2.2-2.8-2.5-15.9,3.8-11.9C48.5,9.8,48.2,22.2,42.1,18.7z M57.8,17.2c0,0,0-11.2,0-11.2h-4.5v0.3
			c1.4-0.1,2.2,0.6,2.1,2c0,0,0,9.1,0,9.1c0.1,1.5-1,2.1-2.4,1.9v0.3h7.2v-0.3C58.8,19.4,57.7,18.7,57.8,17.2z M57.3,3.2
			c0.9-1-0.1-3.4-1.6-2.2C54.8,2,55.8,4.4,57.3,3.2z M70.9,6.7c-1.6-1.4-5.6-1.4-7.4,0.1C62.2,8,63,10,65,9.7c0-1.3,0.1-2.3,0.4-2.9
			c0.8-1.5,4.1-1.2,4.1,0.9c0.2,1,0.1,3.1,0.2,4.2c-11-1.1-9.5,9.5-2,7.5c1.1-0.5,1.8-1.4,2.1-2.6h0.1v2.7h3.8v-0.3
			C70,19.8,73.8,8.3,70.9,6.7z M65.2,19c-1.5-1.1-1.2-4.7-0.2-5.7c0.7-0.9,3.2-1,4.6-1.1C69.9,15.2,69.8,20.8,65.2,19z M91.5,16.3
			c-0.3,2.8-3.5,4.1-5.6,2.5c-2.2-2-1.7-7.7-1.2-10.3c1.1-4.3,5.7-2.8,4.9,1.3c4.9-0.4,1-4.8-2.2-4.2c-9.2,0-6.5,17.7,2.6,13.7
			C91.3,19,92.9,17.1,91.5,16.3z M95.8,7.4c-4.6,6.3,1.4,16.8,8.8,10.6C109.2,11.6,103.2,1.2,95.8,7.4z M98.2,18.8
			c-2.1-2.7-2.1-9.5,0-12.2C105.7,1.5,105.7,23.9,98.2,18.8z M128.6,17.2c0,0,0-6.5,0-6.5c0.9-5.3-6.9-7.3-8-1.9h-0.1
			c-0.7-3.9-6.8-4.2-7.8-0.4h-0.1V5.9h-4.5v0.3c1.4-0.1,2.2,0.6,2.1,2c0,0,0,9.1,0,9.1c0.1,1.4-0.9,2.1-2.3,1.9v0.3h6.8v-0.3
			c-1.4,0.1-2.2-0.6-2.1-2.1c0,0,0-6.4,0-6.4c-0.5-3,2.6-6.3,5-3.6c1.1,1.6,0.4,10.3,0.6,12.3h4.5v-0.3c-1.4,0.1-2.2-0.6-2.1-2.1
			c0,0,0-6.8,0-6.8c-0.5-2.9,2.8-5.9,4.9-3.2c1.1,1.6,0.4,10.3,0.6,12.3h4.5v-0.3C129.4,19.3,128.5,18.6,128.6,17.2z M136.4,9.4
			L136.4,9.4l-0.1-3.5h-4.7v0.3c1.4-0.1,2.5,0.4,2.4,2c0,0,0,15.2,0,15.2c0.1,1.4-0.9,2.1-2.3,1.9v0.3h6.8v-0.3
			c-1.4,0.1-2.2-0.7-2.1-2.1c0-1.8,0-5.6,0-7.3h0.1c1.5,7.3,10.1,3.2,9-3.2C146.5,6.2,137.9,2.3,136.4,9.4z M138,18.6
			c-2.2-2.7-2.8-12.3,1.9-12.6C144.9,5.6,144.2,23.5,138,18.6z M157.2,6.7c-1.6-1.4-5.6-1.4-7.4,0.1c-1.3,1.3-0.4,3.3,1.5,3
			c0-1.3,0.1-2.3,0.4-2.9c0.8-1.5,4.1-1.2,4.1,0.9c0.2,1,0.1,3.1,0.2,4.2c-11-1.1-9.5,9.5-2,7.5c1.1-0.5,1.8-1.4,2.1-2.6h0.1v2.7
			h3.8v-0.3C156.3,19.8,160.1,8.3,157.2,6.7z M151.6,19c-1.5-1.1-1.2-4.7-0.2-5.7c0.7-0.9,3.2-1,4.6-1.1
			C156.2,15.2,156.1,20.8,151.6,19z M174.7,16.9c0,0,0-6.3,0-6.3c0.9-5.1-6.6-7.1-8.2-2.3h-0.1V5.9h-4.5v0.3
			c1.6-0.1,2.2,0.8,2.1,2.3c0,0,0,8.5,0,8.5c0.1,1.6-0.7,2.5-2.3,2.3v0.3h6.8v-0.3c-1.6,0.1-2.2-0.8-2.1-2.3c0,0,0-6.5,0-6.5
			c-0.5-3,3-6.1,5.2-3.3c1.2,1.6,0.4,10.5,0.6,12.4h4.4v-0.3C175.1,19.4,174.6,18.4,174.7,16.9z M185.9,6.2c1.8-0.2,3.4,0.2,2.5,2.3
			c-0.7,2.4-2.2,6.9-3,9.2c-0.8-2.5-2.7-6.8-3.7-9.4c-0.7-1.2-0.2-2.3,1.3-2.2V5.9H177v0.3c1-0.1,1.6,0.4,1.9,1.4c0,0,5.5,13,5.5,13
			c-1,3.4-3,5-6.6,4.7v0.3c4.3,0.5,6.3-2,7.3-6c0,0,3.7-11.4,3.7-11.4c0.4-1.3,1-2.1,2.4-2V5.9h-5.3V6.2z M195.8,16.6
			c-1.1,1.4,0.4,4.2,2,2.6C198.9,17.8,197.5,15.1,195.8,16.6z M196.9,1.2c-3.3-0.7-7.4,3.7-2.6,4.5c-0.4-2.8,1.8-5.4,4.4-3.7
			c2.1,2.5,1.9,9.1-2.5,9.1l0.4,3.4h0.4l0.4-3.4C204.2,10.1,204.2,0.7,196.9,1.2z"/>
	</g>
	<g>
		<path class="st1" d="M20.7,17.2c0,0,0-6.5,0-6.5c0.9-5.3-6.9-7.3-8-1.9h-0.1C12,4.8,5.9,4.5,4.9,8.3H4.9V5.9H0.4v0.3
			c1.4-0.1,2.2,0.6,2.1,2c0,0,0,9.1,0,9.1c0.1,1.4-0.9,2.1-2.3,1.9v0.3H7v-0.3c-1.4,0.1-2.2-0.6-2.1-2.1c0,0,0-6.4,0-6.4
			c-0.5-3,2.6-6.3,5-3.6c1.1,1.6,0.4,10.3,0.6,12.3H15v-0.3c-1.4,0.1-2.2-0.6-2.1-2.1c0,0,0-6.8,0-6.8c-0.5-2.9,2.8-5.9,4.9-3.2
			c1.1,1.6,0.4,10.3,0.6,12.3h4.5v-0.3C21.4,19.3,20.6,18.6,20.7,17.2z M26.3,7.5c-3.7,4.8-0.3,14.9,6.9,11.9
			c1.2-0.4,2.8-2.2,1.3-2.9c-0.2,2.7-3.7,4.1-5.7,2.4c-1.5-1.6-1.4-3.8-1.5-6.4h8.4C36.7,6.6,29.9,3.4,26.3,7.5z M33.1,12.1h-5.9
			C26.9,3.9,33.8,3.8,33.1,12.1z M49.7,17.3c0,0,0-17,0-17h-4.5v0.3c2.7-0.4,2.1,2.7,2.1,4.4c0,1.4,0,3.1,0.1,4.5h-0.1
			c-0.3-4.9-7.2-4.9-8.5-0.6c-2.1,4.7,0.9,14.2,7.1,10c0.6-0.6,1.1-1.6,1.3-2.9h0.1v3.6H52v-0.3C50.7,19.3,49.6,18.7,49.7,17.3z
			 M42.1,18.7c-2.2-2.8-2.5-15.9,3.8-11.9C48.5,9.8,48.2,22.2,42.1,18.7z M57.8,17.2c0,0,0-11.2,0-11.2h-4.5v0.3
			c1.4-0.1,2.2,0.6,2.1,2c0,0,0,9.1,0,9.1c0.1,1.5-1,2.1-2.4,1.9v0.3h7.2v-0.3C58.8,19.4,57.7,18.7,57.8,17.2z M57.3,3.2
			c0.9-1-0.1-3.4-1.6-2.2C54.8,2,55.8,4.4,57.3,3.2z M70.9,6.7c-1.6-1.4-5.6-1.4-7.4,0.1C62.2,8,63,10,65,9.7c0-1.3,0.1-2.3,0.4-2.9
			c0.8-1.5,4.1-1.2,4.1,0.9c0.2,1,0.1,3.1,0.2,4.2c-11-1.1-9.5,9.5-2,7.5c1.1-0.5,1.8-1.4,2.1-2.6h0.1v2.7h3.8v-0.3
			C70,19.8,73.8,8.3,70.9,6.7z M65.2,19c-1.5-1.1-1.2-4.7-0.2-5.7c0.7-0.9,3.2-1,4.6-1.1C69.9,15.2,69.8,20.8,65.2,19z M91.5,16.3
			c-0.3,2.8-3.5,4.1-5.6,2.5c-2.2-2-1.7-7.7-1.2-10.3c1.1-4.3,5.7-2.8,4.9,1.3c4.9-0.4,1-4.8-2.2-4.2c-9.2,0-6.5,17.7,2.6,13.7
			C91.3,19,92.9,17.1,91.5,16.3z M95.8,7.4c-4.6,6.3,1.4,16.8,8.8,10.6C109.2,11.6,103.2,1.2,95.8,7.4z M98.2,18.8
			c-2.1-2.7-2.1-9.5,0-12.2C105.7,1.5,105.7,23.9,98.2,18.8z M128.6,17.2c0,0,0-6.5,0-6.5c0.9-5.3-6.9-7.3-8-1.9h-0.1
			c-0.7-3.9-6.8-4.2-7.8-0.4h-0.1V5.9h-4.5v0.3c1.4-0.1,2.2,0.6,2.1,2c0,0,0,9.1,0,9.1c0.1,1.4-0.9,2.1-2.3,1.9v0.3h6.8v-0.3
			c-1.4,0.1-2.2-0.6-2.1-2.1c0,0,0-6.4,0-6.4c-0.5-3,2.6-6.3,5-3.6c1.1,1.6,0.4,10.3,0.6,12.3h4.5v-0.3c-1.4,0.1-2.2-0.6-2.1-2.1
			c0,0,0-6.8,0-6.8c-0.5-2.9,2.8-5.9,4.9-3.2c1.1,1.6,0.4,10.3,0.6,12.3h4.5v-0.3C129.4,19.3,128.5,18.6,128.6,17.2z M136.4,9.4
			L136.4,9.4l-0.1-3.5h-4.7v0.3c1.4-0.1,2.5,0.4,2.4,2c0,0,0,15.2,0,15.2c0.1,1.4-0.9,2.1-2.3,1.9v0.3h6.8v-0.3
			c-1.4,0.1-2.2-0.7-2.1-2.1c0-1.8,0-5.6,0-7.3h0.1c1.5,7.3,10.1,3.2,9-3.2C146.5,6.2,137.9,2.3,136.4,9.4z M138,18.6
			c-2.2-2.7-2.8-12.3,1.9-12.6C144.9,5.6,144.2,23.5,138,18.6z M157.2,6.7c-1.6-1.4-5.6-1.4-7.4,0.1c-1.3,1.3-0.4,3.3,1.5,3
			c0-1.3,0.1-2.3,0.4-2.9c0.8-1.5,4.1-1.2,4.1,0.9c0.2,1,0.1,3.1,0.2,4.2c-11-1.1-9.5,9.5-2,7.5c1.1-0.5,1.8-1.4,2.1-2.6h0.1v2.7
			h3.8v-0.3C156.3,19.8,160.1,8.3,157.2,6.7z M151.6,19c-1.5-1.1-1.2-4.7-0.2-5.7c0.7-0.9,3.2-1,4.6-1.1
			C156.2,15.2,156.1,20.8,151.6,19z M174.7,16.9c0,0,0-6.3,0-6.3c0.9-5.1-6.6-7.1-8.2-2.3h-0.1V5.9h-4.5v0.3
			c1.6-0.1,2.2,0.8,2.1,2.3c0,0,0,8.5,0,8.5c0.1,1.6-0.7,2.5-2.3,2.3v0.3h6.8v-0.3c-1.6,0.1-2.2-0.8-2.1-2.3c0,0,0-6.5,0-6.5
			c-0.5-3,3-6.1,5.2-3.3c1.2,1.6,0.4,10.5,0.6,12.4h4.4v-0.3C175.1,19.4,174.6,18.4,174.7,16.9z M185.9,6.2c1.8-0.2,3.4,0.2,2.5,2.3
			c-0.7,2.4-2.2,6.9-3,9.2c-0.8-2.5-2.7-6.8-3.7-9.4c-0.7-1.2-0.2-2.3,1.3-2.2V5.9H177v0.3c1-0.1,1.6,0.4,1.9,1.4c0,0,5.5,13,5.5,13
			c-1,3.4-3,5-6.6,4.7v0.3c4.3,0.5,6.3-2,7.3-6c0,0,3.7-11.4,3.7-11.4c0.4-1.3,1-2.1,2.4-2V5.9h-5.3V6.2z M195.8,16.6
			c-1.1,1.4,0.4,4.2,2,2.6C198.9,17.8,197.5,15.1,195.8,16.6z M196.9,1.2c-3.3-0.7-7.4,3.7-2.6,4.5c-0.4-2.8,1.8-5.4,4.4-3.7
			c2.1,2.5,1.9,9.1-2.5,9.1l0.4,3.4h0.4l0.4-3.4C204.2,10.1,204.2,0.7,196.9,1.2z"/>
	</g>
</g>
</svg>
