<?xml version="1.0" encoding="utf-8"?>
<!-- Generator: Adobe Illustrator 27.5.0, SVG Export Plug-In . SVG Version: 6.00 Build 0)  -->
<svg version="1.1" id="a" xmlns="http://www.w3.org/2000/svg" xmlns:xlink="http://www.w3.org/1999/xlink" x="0px" y="0px"
	 viewBox="0 0 426 35.6" style="enable-background:new 0 0 426 35.6;" xml:space="preserve">
<style type="text/css">
	.st0{fill:#111C3C;}
</style>
<g>
	<g>
		<path class="st0" d="M15,26.6v0.3h9.6v-0.3c-1.3,0.2-2.1-0.6-2.5-1.9c0,0-8.8-22.8-8.8-22.8h-1.8L3.9,23.9c-0.5,2.1-1.9,3-3.9,2.7
			v0.3h8.5v-0.3c-7.4,0.9-3-5-2.1-8.7h9.5C16.5,20.6,21.4,27.6,15,26.6z M6.5,17.5l2.6-7.4c0.7-2,1.3-3.7,1.9-5.7
			c1.1,3.7,3.3,9.4,4.7,13.1H6.5z M36.8,9c-7.6-5.5-15.5,7-6.8,10.8c-3.6,0.9-3.7,5.8-0.1,6.7c-12.1,1.7-1.4,13.7,9.1,7.1
			c4.1-3.1,2.5-10.6-3.5-10c-1.2-0.1-4.9,0.3-5.9-0.4c-1.2-0.9-0.7-2.8,0.8-3.3c6.9,2.5,11.8-5.9,6.7-10.7c1.4-1.4,3.6-0.9,3.4,1.4
			C45.3,9.4,40.1,4.5,36.8,9z M38.7,30.2c0.2,4.6-5.5,5.5-9.1,4.3c-3.7-1.4-2.8-8.2,1.4-7.8C34,26.8,39,25.9,38.7,30.2z M31,19.3
			c-2.6-2.7-2-13.8,3.6-10.4C36.9,11.6,36.8,22.5,31,19.3z M46.7,10.3c-5.2,6.6-0.5,20.6,9.6,16.4c1.6-0.5,3.9-3.1,1.8-4.1
			c-0.3,3.7-5.2,5.6-7.9,3.3c-2.1-2.2-1.9-5.3-2.1-8.9h11.6C61,9.1,51.7,4.7,46.7,10.3z M56.1,16.7H48C47.4,5.5,57.2,5.3,56.1,16.7z
			 M80.2,14.7c1.2-7.1-9.2-9.8-11.3-3.2h-0.1V8.2h-6.2v0.3c2.1-0.2,3.1,1,3,3.2c0,0,0,11.7,0,11.7c0.2,2.2-0.9,3.4-3.1,3.2v0.3h9.4
			v-0.3c-2.2,0.2-3.1-1.1-3-3.2c0,0,0-9,0-9c-0.7-4.1,4.2-8.5,7.2-4.6c1.6,2.1,0.6,14.5,0.8,17.1H83v-0.3
			C78.3,27.5,80.8,17.2,80.2,14.7z M101.6,23.9c0,0,0-23.6,0-23.6h-6.3v0.3c3.7-0.5,2.9,3.8,3,6.1c0,1.9,0,4.2,0.1,6.3h-0.1
			c-0.3-5-5.7-6.5-9.3-4.1C82.3,14,86.4,32.6,96.5,26c0.9-0.9,1.5-2.2,1.8-4h0.1v4.9h6.4v-0.3C102.9,26.7,101.5,25.9,101.6,23.9z
			 M91,25.8c-3.1-4-3.4-21.8,5.2-16.5C100,13.6,99.5,30.7,91,25.8z M119.7,9.2c-2.2-1.9-7.8-1.9-10.2,0.1c-1.8,1.7-0.6,4.5,2.1,4.1
			c-1-5.1,4.8-7.6,6.2-2.7c0.3,1.3,0.2,4.2,0.2,5.8c-14.7-1.6-13.6,13-2.7,10.4c1.6-0.6,2.5-1.9,3-3.6h0.1v3.7h5.3v-0.3
			C118.4,27.2,123.7,11.4,119.7,9.2z M111.9,26.3c-2.1-1.5-1.6-6.5-0.2-7.9c0.9-1.3,4.4-1.4,6.3-1.5C118.4,20.9,118,28.9,111.9,26.3
			z M129.5,11.6c0.2-5.3,7.8-4,6.6,1.6c2.2,0.2,3.3-2.1,1.9-3.7c-4-3.9-13.6-0.7-10.5,5.6c1.2,2.4,5.2,3.5,7.5,4.8
			c6.9,6.3-7.2,11.4-6,1.3c-1.2,0-2.3,1-2.2,2.4c0.3,4.7,8.2,4.4,10.8,2.3C145,16.2,129.4,17.4,129.5,11.6z M163,9.2
			c-2.2-1.9-7.8-1.9-10.2,0.1c-1.8,1.7-0.6,4.5,2.1,4.1c-1-5.1,4.8-7.6,6.2-2.7c0.3,1.3,0.2,4.2,0.2,5.8c-14.7-1.6-13.6,13-2.7,10.4
			c1.6-0.6,2.5-1.9,3-3.6h0.1v3.7h5.3v-0.3C161.6,27.2,167,11.4,163,9.2z M155.2,26.3c-2.1-1.5-1.6-6.5-0.2-7.9
			c0.9-1.3,4.4-1.4,6.3-1.5C161.7,20.9,161.3,28.9,155.2,26.3z M175.8,11.7L175.8,11.7l-0.1-3.5h-6.2v0.3c1.9-0.1,3.1,0.8,3,2.7
			c0,0,0,12.6,0,12.6c0.2,2.1-1.4,2.9-3.3,2.7v0.3h9.9v-0.3c-5.3,1-2.8-7.7-3.3-10.4c0.1-2,0-4.8,1.3-6.4c2-1.9,4.3,0.3,4,3.1
			C190.4,11,177.9,3.1,175.8,11.7z M188.7,10.3c-5.2,6.6-0.5,20.6,9.6,16.4c1.6-0.5,3.9-3.1,1.8-4.1c-0.3,3.7-5.2,5.6-7.9,3.3
			c-2.1-2.2-1.9-5.3-2.1-8.9h11.6C203.1,9.1,193.8,4.7,188.7,10.3z M198.2,16.7h-8.1C189.5,5.5,199.3,5.3,198.2,16.7z M215.6,8.2
			h-3.2v0.3h3.2v15.4c0.2,2.1-1.4,2.9-3.3,2.7v0.3h10.8v-0.3c-2.1,0.2-4.5-0.2-4.2-2.9c0,0,0-15.2,0-15.2h4.9V8.2h-4.9
			c0-1.9,0-5.6,0.6-6.6c1.9-2.9,4.9-0.6,4.3,2.8C234.3,1.7,213.8-5.7,215.6,8.2z M228.2,10.2c-6.5,8.6,2,23.3,12.2,14.6
			C246.9,16.3,238.4,1.6,228.2,10.2z M231.6,26c-2.9-3.8-2.9-13.1,0-16.9C242,2.3,242,32.9,231.6,26z M251.8,11.7L251.8,11.7
			l-0.1-3.5h-6.2v0.3c1.9-0.1,3.1,0.8,3,2.7c0,0,0,12.6,0,12.6c0.2,2.1-1.4,2.9-3.3,2.7v0.3h9.9v-0.3c-5.3,1-2.8-7.7-3.3-10.4
			c0.1-2,0-4.8,1.3-6.4c2-1.9,4.3,0.3,4,3.1C266.4,11,253.9,3.1,251.8,11.7z M297.9,14.8c1.2-7.3-9.5-10-11-2.7h-0.1
			c-1-5.4-9.3-5.9-10.7-0.6h-0.1V8.2h-6.2v0.3c1.9-0.1,3.1,0.8,3,2.7c0,0,0,12.6,0,12.6c0.1,2-1.3,2.9-3.1,2.7v0.3h9.4v-0.3
			c-5,0.8-2.4-9.2-3-11.8c-0.7-4.2,3.6-8.7,6.9-5c1.6,2.2,0.5,14.2,0.8,17.1h6.3v-0.3c-1.9,0.1-3.1-0.9-3-2.9c0,0,0-9.4,0-9.4
			c-0.7-4,3.8-8.1,6.7-4.5c1.5,2.2,0.5,14.2,0.8,17.1h6.3v-0.3C296,27.4,298.5,17.4,297.9,14.8z M305.7,10.3
			c-5.2,6.6-0.5,20.6,9.6,16.4c1.6-0.5,3.9-3.1,1.8-4.1c-0.3,3.7-5.2,5.6-7.9,3.3c-2.1-2.2-1.9-5.3-2.1-8.9h11.6
			C320,9.1,310.7,4.7,305.7,10.3z M315.1,16.7H307C306.4,5.5,316.2,5.3,315.1,16.7z M324.4,10.3c-5.2,6.6-0.5,20.6,9.6,16.4
			c1.6-0.5,3.9-3.1,1.8-4.1c-0.3,3.7-5.2,5.6-7.9,3.3c-2.1-2.2-1.9-5.3-2.1-8.9h11.6C338.7,9.1,329.4,4.7,324.4,10.3z M333.8,16.7
			h-8.1C325.1,5.5,334.9,5.3,333.8,16.7z M345.7,3.9h-0.3c-0.4,3-2.7,4.5-5.6,4.3v0.3h2.7v13.3c-0.3,4.6,2.8,6,6.8,5.2
			c0.6-0.1,1.1-0.2,1.4-0.4v-0.4c-2.6,1.1-5.1,0-4.9-3.2c0,0,0-14.6,0-14.6h4.9V8.2h-4.9V3.9z M358.1,4.4c1.3-1.4-0.2-4.8-2.2-3.1
			C354.6,2.7,356.1,6.1,358.1,4.4z M358.8,23.7c0,0,0-15.5,0-15.5h-6.3v0.3c1.9-0.1,3.1,0.8,3,2.7c0,0,0,12.6,0,12.6
			c0.2,2.1-1.4,2.9-3.3,2.7v0.3h9.9v-0.3C360.1,26.8,358.6,25.9,358.8,23.7z M381.3,14.7c1.2-7.1-9.2-9.8-11.3-3.2h-0.1V8.2h-6.2
			v0.3c2.1-0.2,3.1,1,3,3.2c0,0,0,11.7,0,11.7c0.2,2.2-0.9,3.4-3.1,3.2v0.3h9.4v-0.3c-2.2,0.2-3.1-1.1-3-3.2c0,0,0-9,0-9
			c-0.7-4.1,4.2-8.5,7.2-4.6c1.6,2.1,0.6,14.5,0.8,17.1h6.1v-0.3C379.4,27.5,381.9,17.2,381.3,14.7z M398,9
			c-7.6-5.5-15.5,7-6.8,10.8c-3.6,0.9-3.7,5.8-0.1,6.7c-12.1,1.7-1.4,13.7,9.1,7.1c4.1-3.1,2.5-10.6-3.5-10
			c-1.2-0.1-4.9,0.3-5.9-0.4c-1.2-0.9-0.7-2.8,0.8-3.3c6.9,2.5,11.8-5.9,6.7-10.7c1.4-1.4,3.6-0.9,3.4,1.4
			C406.5,9.4,401.2,4.5,398,9z M399.9,30.2c0.2,4.6-5.5,5.5-9.1,4.3c-3.7-1.4-2.8-8.2,1.4-7.8C395.1,26.8,400.2,25.9,399.9,30.2z
			 M392.1,19.3c-2.6-2.7-2-13.8,3.6-10.4C398.1,11.6,397.9,22.5,392.1,19.3z M408.3,11.6c0.2-5.3,7.8-4,6.6,1.6
			c2.2,0.2,3.3-2.1,1.9-3.7c-4-3.9-13.6-0.7-10.5,5.6c1.2,2.4,5.2,3.5,7.5,4.8c6.9,6.3-7.2,11.4-6,1.3c-1.2,0-2.3,1-2.2,2.4
			c0.3,4.7,8.2,4.4,10.8,2.3C423.8,16.2,408.3,17.4,408.3,11.6z M422.6,23c-1.5,1.9,0.5,5.8,2.8,3.6C426.9,24.7,424.9,20.8,422.6,23
			z"/>
	</g>
</g>
</svg>
