<?xml version="1.0" encoding="utf-8"?>
<!-- Generator: Adobe Illustrator 27.5.0, SVG Export Plug-In . SVG Version: 6.00 Build 0)  -->
<svg version="1.1" id="a" xmlns="http://www.w3.org/2000/svg" xmlns:xlink="http://www.w3.org/1999/xlink" x="0px" y="0px"
	 viewBox="0 0 228.3 33.4" style="enable-background:new 0 0 228.3 33.4;" xml:space="preserve">
<style type="text/css">
	.st0{fill:#111C3C;}
</style>
<g>
	<g>
		<path class="st0" d="M16.3,0.4c1.8-0.2,4,0.3,3.8,2.5c0,0,0,17.1,0,17.1L6.8,0H0v0.4c1.7-0.1,4,0.2,3.9,2.4c0,0,0,19.4,0,19.4
			C4,24.4,1.8,24.8,0,24.6V25h8.1v-0.3c-1.8,0.2-4-0.3-3.8-2.5c0,0,0-19.9,0-19.9L19.4,25h1V2.9c-0.1-2.2,2.1-2.7,3.9-2.5V0h-8.1
			V0.4z M29.3,8.3c-6.5,8.6,2,23.3,12.2,14.6C48,14.3,39.5-0.3,29.3,8.3z M32.6,24c-2.9-3.8-2.9-13.1,0-16.9
			C43.1,0.3,43.1,30.9,32.6,24z M52.1,1.9h-0.3c-0.4,3-2.7,4.5-5.6,4.3v0.3h2.7v13.3c-0.3,4.6,2.8,6,6.8,5.2
			c0.6-0.1,1.1-0.2,1.4-0.4v-0.4c-2.6,1.1-5.1,0-4.9-3.2c0,0,0-14.6,0-14.6H57V6.2h-4.9V1.9z M73.1,9.7L73.1,9.7L73,6.2h-6.2v0.3
			c1.9-0.1,3.1,0.8,3,2.7c0,0,0,12.6,0,12.6c0.2,2.1-1.4,2.9-3.3,2.7V25h9.9v-0.3c-5.3,1-2.8-7.7-3.3-10.4c0.1-2,0-4.8,1.3-6.4
			c2-1.9,4.3,0.3,4,3.1C87.7,9.1,75.1,1.2,73.1,9.7z M86,8.4c-5.2,6.6-0.5,20.6,9.6,16.4c1.6-0.5,3.9-3.1,1.8-4.1
			c-0.3,3.7-5.2,5.6-7.9,3.3c-2.1-2.2-1.9-5.3-2.1-8.9H99C100.4,7.1,91.1,2.7,86,8.4z M95.5,14.7h-8.1C86.8,3.6,96.6,3.4,95.5,14.7z
			 M107.8,11.1L107.8,11.1l-0.1-4.9h-6.5v0.3c1.9-0.2,3.5,0.6,3.3,2.7c0,0,0,21,0,21c0.1,2-1.3,2.9-3.1,2.7v0.3h9.4V33
			c-5.1,0.8-2.2-9.9-3-13h0.1c1.9,9.9,14.1,4.4,12.4-4.5C122,6.6,109.8,1.3,107.8,11.1z M110,23.8c-3-3.9-4-16.7,2.7-17.4
			C119.6,6.1,118.5,30.3,110,23.8z M126.2,8.3c-6.5,8.6,2,23.3,12.2,14.6C144.9,14.3,136.4-0.3,126.2,8.3z M129.6,24
			c-2.9-3.8-2.9-13.1,0-16.9C140,0.3,140,30.9,129.6,24z M149.8,9.7L149.8,9.7l-0.1-3.5h-6.2v0.3c1.9-0.1,3.1,0.8,3,2.7
			c0,0,0,12.6,0,12.6c0.2,2.1-1.4,2.9-3.3,2.7V25h9.9v-0.3c-5.3,1-2.8-7.7-3.3-10.4c0.1-2,0-4.8,1.3-6.4c2-1.9,4.3,0.3,4,3.1
			C164.4,9.1,151.9,1.2,149.8,9.7z M165.4,1.9h-0.3c-0.4,3-2.7,4.5-5.6,4.3v0.3h2.7v13.3c-0.3,4.6,2.8,6,6.8,5.2
			c0.6-0.1,1.1-0.2,1.4-0.4v-0.4c-2.6,1.1-5.1,0-4.9-3.2c0,0,0-14.6,0-14.6h4.9V6.2h-4.9V1.9z M175.1,8.4
			c-5.2,6.6-0.5,20.6,9.6,16.4c1.6-0.5,3.9-3.1,1.8-4.1c-0.3,3.7-5.2,5.6-7.9,3.3c-2.1-2.2-1.9-5.3-2.1-8.9h11.6
			C189.5,7.1,180.1,2.7,175.1,8.4z M184.6,14.7h-8.1C175.8,3.6,185.6,3.4,184.6,14.7z M197.3,9.7L197.3,9.7l-0.1-3.5H191v0.3
			c1.9-0.1,3.1,0.8,3,2.7c0,0,0,12.6,0,12.6c0.2,2.1-1.4,2.9-3.3,2.7V25h9.9v-0.3c-5.3,1-2.8-7.7-3.3-10.4c0.1-2,0-4.8,1.3-6.4
			c2-1.9,4.3,0.3,4,3.1C211.9,9.1,199.3,1.2,197.3,9.7z M210.7,9.6c0.2-5.3,7.8-4,6.6,1.6c2.2,0.2,3.3-2.1,1.9-3.7
			c-4-3.9-13.6-0.7-10.5,5.6c1.2,2.4,5.2,3.5,7.5,4.8c6.9,6.3-7.2,11.4-6,1.3c-1.2,0-2.3,1-2.2,2.4c0.3,4.7,8.2,4.4,10.8,2.3
			C226.2,14.2,210.7,15.4,210.7,9.6z M225,21.1c-1.5,1.9,0.5,5.8,2.8,3.6C229.3,22.7,227.3,18.9,225,21.1z"/>
	</g>
</g>
</svg>
