<?xml version="1.0" encoding="utf-8"?>
<!-- Generator: Adobe Illustrator 27.5.0, SVG Export Plug-In . SVG Version: 6.00 Build 0)  -->
<svg version="1.1" id="a" xmlns="http://www.w3.org/2000/svg" xmlns:xlink="http://www.w3.org/1999/xlink" x="0px" y="0px"
	 viewBox="0 0 117.9 25.8" style="enable-background:new 0 0 117.9 25.8;" xml:space="preserve">
<style type="text/css">
	.st0{fill:#111C3C;}
	.st1{fill:none;stroke:#121C3D;stroke-width:0.5;stroke-miterlimit:10;}
</style>
<g>
	<g>
		<path class="st0" d="M0.2,1.7C1.5,1.6,2.7,2,2.7,3.4c0,0,0,14,0,14c0.1,1.4-1.2,1.9-2.4,1.8v0.3h7.4v-0.3
			c-1.2,0.1-2.5-0.4-2.4-1.8c0,0,0-13.9,0-13.9C5.1,2.1,6.4,1.6,7.6,1.7V1.4H0.2V1.7z M29.7,17.2c0,0,0-6.5,0-6.5
			c0.9-5.3-6.9-7.3-8-1.9h-0.1c-0.7-3.9-6.8-4.2-7.8-0.4h-0.1V5.9H9.4v0.3c1.4-0.1,2.2,0.6,2.1,2c0,0,0,9.1,0,9.1
			c0.1,1.4-0.9,2.1-2.3,1.9v0.3h6.8v-0.3c-1.4,0.1-2.2-0.6-2.1-2.1c0,0,0-6.4,0-6.4c-0.5-3,2.6-6.3,5-3.6c1.1,1.6,0.4,10.3,0.6,12.3
			H24v-0.3c-1.4,0.1-2.2-0.6-2.1-2.1c0,0,0-6.8,0-6.8c-0.5-2.9,2.8-5.9,4.9-3.2c1.1,1.6,0.4,10.3,0.6,12.3h4.5v-0.3
			C30.5,19.3,29.6,18.6,29.7,17.2z M37.5,9.4L37.5,9.4l-0.1-3.5h-4.7v0.3c1.4-0.1,2.5,0.4,2.4,2c0,0,0,15.2,0,15.2
			c0.1,1.4-0.9,2.1-2.3,1.9v0.3h6.8v-0.3c-1.4,0.1-2.2-0.7-2.1-2.1c0-1.8,0-5.6,0-7.3h0.1c1.5,7.3,10.1,3.2,9-3.2
			C47.6,6.2,39,2.3,37.5,9.4z M39.1,18.6C36.9,16,36.2,6.4,41,6C46,5.6,45.3,23.5,39.1,18.6z M58.3,6.7c-1.6-1.4-5.6-1.4-7.4,0.1
			c-1.3,1.3-0.4,3.3,1.5,3c0-1.3,0.1-2.3,0.4-2.9c0.8-1.5,4.1-1.2,4.1,0.9c0.2,1,0.1,3.1,0.2,4.2c-11-1.1-9.5,9.5-2,7.5
			c1.1-0.5,1.8-1.4,2.1-2.6h0.1v2.7h3.8v-0.3C57.4,19.8,61.2,8.3,58.3,6.7z M52.7,19c-1.5-1.1-1.2-4.7-0.2-5.7
			c0.7-0.9,3.2-1,4.6-1.1C57.3,15.2,57.2,20.8,52.7,19z M73,6.2c-2-1.3-5.1-0.2-5.5,2.3h-0.1V5.9H63v0.3c1.4-0.1,2.2,0.6,2.1,2
			c0,0,0,9.1,0,9.1c0.1,1.5-1,2.1-2.4,1.9v0.3h7.2v-0.3c-1.4,0.1-2.5-0.5-2.4-2.1c0,0,0-5.4,0-5.4c0-1.5,0-3.4,0.9-4.6
			c1.5-1.4,3.1,0.2,2.9,2.2C73.4,9.6,74.5,7.4,73,6.2z M78.9,2.8h-0.3c-0.3,2.1-1.9,3.2-4,3.1v0.3h1.9v9.6c-0.2,3.3,2,4.3,4.9,3.8
			c0.4-0.1,0.8-0.2,1-0.3v-0.3c-1.9,0.8-3.7,0-3.5-2.3c0,0,0-10.6,0-10.6h3.5V5.9h-3.5V2.8z M87.8,3.2c0.9-1-0.1-3.4-1.6-2.2
			C85.3,2,86.3,4.4,87.8,3.2z M88.3,17.2c0,0,0-11.2,0-11.2h-4.5v0.3c1.4-0.1,2.2,0.6,2.1,2c0,0,0,9.1,0,9.1c0.1,1.5-1,2.1-2.4,1.9
			v0.3h7.2v-0.3C89.3,19.4,88.2,18.7,88.3,17.2z M101.4,6.7c-1.6-1.4-5.6-1.4-7.4,0.1c-1.3,1.3-0.4,3.3,1.5,3c0-1.3,0.1-2.3,0.4-2.9
			c0.8-1.5,4.1-1.2,4.1,0.9c0.2,1,0.1,3.1,0.2,4.2c-11-1.1-9.5,9.5-2,7.5c1.1-0.5,1.8-1.4,2.1-2.6h0.1v2.7h3.8v-0.3
			C100.5,19.8,104.3,8.3,101.4,6.7z M95.8,19c-1.5-1.1-1.2-4.7-0.2-5.7c0.7-0.9,3.2-1,4.6-1.1C100.4,15.2,100.3,20.8,95.8,19z
			 M110.4,17.2c0,0,0-16.9,0-16.9h-4.8v0.3c1.4-0.1,2.5,0.4,2.4,2c0,0,0,14.8,0,14.8c0.1,1.5-1,2.1-2.4,1.9v0.3h7.2v-0.3
			C111.3,19.4,110.3,18.7,110.4,17.2z M115.3,16.6c-1.1,1.4,0.4,4.2,2,2.6C118.4,17.8,116.9,15.1,115.3,16.6z"/>
	</g>
	<g>
		<path class="st1" d="M0.2,1.7C1.5,1.6,2.7,2,2.7,3.4c0,0,0,14,0,14c0.1,1.4-1.2,1.9-2.4,1.8v0.3h7.4v-0.3
			c-1.2,0.1-2.5-0.4-2.4-1.8c0,0,0-13.9,0-13.9C5.1,2.1,6.4,1.6,7.6,1.7V1.4H0.2V1.7z M29.7,17.2c0,0,0-6.5,0-6.5
			c0.9-5.3-6.9-7.3-8-1.9h-0.1c-0.7-3.9-6.8-4.2-7.8-0.4h-0.1V5.9H9.4v0.3c1.4-0.1,2.2,0.6,2.1,2c0,0,0,9.1,0,9.1
			c0.1,1.4-0.9,2.1-2.3,1.9v0.3h6.8v-0.3c-1.4,0.1-2.2-0.6-2.1-2.1c0,0,0-6.4,0-6.4c-0.5-3,2.6-6.3,5-3.6c1.1,1.6,0.4,10.3,0.6,12.3
			H24v-0.3c-1.4,0.1-2.2-0.6-2.1-2.1c0,0,0-6.8,0-6.8c-0.5-2.9,2.8-5.9,4.9-3.2c1.1,1.6,0.4,10.3,0.6,12.3h4.5v-0.3
			C30.5,19.3,29.6,18.6,29.7,17.2z M37.5,9.4L37.5,9.4l-0.1-3.5h-4.7v0.3c1.4-0.1,2.5,0.4,2.4,2c0,0,0,15.2,0,15.2
			c0.1,1.4-0.9,2.1-2.3,1.9v0.3h6.8v-0.3c-1.4,0.1-2.2-0.7-2.1-2.1c0-1.8,0-5.6,0-7.3h0.1c1.5,7.3,10.1,3.2,9-3.2
			C47.6,6.2,39,2.3,37.5,9.4z M39.1,18.6C36.9,16,36.2,6.4,41,6C46,5.6,45.3,23.5,39.1,18.6z M58.3,6.7c-1.6-1.4-5.6-1.4-7.4,0.1
			c-1.3,1.3-0.4,3.3,1.5,3c0-1.3,0.1-2.3,0.4-2.9c0.8-1.5,4.1-1.2,4.1,0.9c0.2,1,0.1,3.1,0.2,4.2c-11-1.1-9.5,9.5-2,7.5
			c1.1-0.5,1.8-1.4,2.1-2.6h0.1v2.7h3.8v-0.3C57.4,19.8,61.2,8.3,58.3,6.7z M52.7,19c-1.5-1.1-1.2-4.7-0.2-5.7
			c0.7-0.9,3.2-1,4.6-1.1C57.3,15.2,57.2,20.8,52.7,19z M73,6.2c-2-1.3-5.1-0.2-5.5,2.3h-0.1V5.9H63v0.3c1.4-0.1,2.2,0.6,2.1,2
			c0,0,0,9.1,0,9.1c0.1,1.5-1,2.1-2.4,1.9v0.3h7.2v-0.3c-1.4,0.1-2.5-0.5-2.4-2.1c0,0,0-5.4,0-5.4c0-1.5,0-3.4,0.9-4.6
			c1.5-1.4,3.1,0.2,2.9,2.2C73.4,9.6,74.5,7.4,73,6.2z M78.9,2.8h-0.3c-0.3,2.1-1.9,3.2-4,3.1v0.3h1.9v9.6c-0.2,3.3,2,4.3,4.9,3.8
			c0.4-0.1,0.8-0.2,1-0.3v-0.3c-1.9,0.8-3.7,0-3.5-2.3c0,0,0-10.6,0-10.6h3.5V5.9h-3.5V2.8z M87.8,3.2c0.9-1-0.1-3.4-1.6-2.2
			C85.3,2,86.3,4.4,87.8,3.2z M88.3,17.2c0,0,0-11.2,0-11.2h-4.5v0.3c1.4-0.1,2.2,0.6,2.1,2c0,0,0,9.1,0,9.1c0.1,1.5-1,2.1-2.4,1.9
			v0.3h7.2v-0.3C89.3,19.4,88.2,18.7,88.3,17.2z M101.4,6.7c-1.6-1.4-5.6-1.4-7.4,0.1c-1.3,1.3-0.4,3.3,1.5,3c0-1.3,0.1-2.3,0.4-2.9
			c0.8-1.5,4.1-1.2,4.1,0.9c0.2,1,0.1,3.1,0.2,4.2c-11-1.1-9.5,9.5-2,7.5c1.1-0.5,1.8-1.4,2.1-2.6h0.1v2.7h3.8v-0.3
			C100.5,19.8,104.3,8.3,101.4,6.7z M95.8,19c-1.5-1.1-1.2-4.7-0.2-5.7c0.7-0.9,3.2-1,4.6-1.1C100.4,15.2,100.3,20.8,95.8,19z
			 M110.4,17.2c0,0,0-16.9,0-16.9h-4.8v0.3c1.4-0.1,2.5,0.4,2.4,2c0,0,0,14.8,0,14.8c0.1,1.5-1,2.1-2.4,1.9v0.3h7.2v-0.3
			C111.3,19.4,110.3,18.7,110.4,17.2z M115.3,16.6c-1.1,1.4,0.4,4.2,2,2.6C118.4,17.8,116.9,15.1,115.3,16.6z"/>
	</g>
</g>
</svg>
