<?xml version="1.0" encoding="utf-8"?>
<!-- Generator: Adobe Illustrator 27.5.0, SVG Export Plug-In . SVG Version: 6.00 Build 0)  -->
<svg version="1.1" id="a" xmlns="http://www.w3.org/2000/svg" xmlns:xlink="http://www.w3.org/1999/xlink" x="0px" y="0px"
	 viewBox="0 0 158.3 25.8" style="enable-background:new 0 0 158.3 25.8;" xml:space="preserve">
<style type="text/css">
	.st0{fill:#111C3C;}
	.st1{fill:none;stroke:#121C3D;stroke-width:0.5;stroke-miterlimit:10;}
</style>
<g>
	<g>
		<path class="st0" d="M0.2,1.7C1.5,1.6,2.7,2,2.7,3.4c0,0,0,14,0,14c0.1,1.4-1.2,1.9-2.4,1.8v0.3h7.4v-0.3
			c-1.2,0.1-2.5-0.4-2.4-1.8c0,0,0-13.9,0-13.9C5.1,2.1,6.4,1.6,7.6,1.7V1.4H0.2V1.7z M22.1,16.9c0,0,0-6.3,0-6.3
			c0.9-5.1-6.6-7.1-8.2-2.3h-0.1V5.9H9.4v0.3c1.6-0.1,2.2,0.8,2.1,2.3c0,0,0,8.5,0,8.5c0.1,1.6-0.7,2.5-2.3,2.3v0.3h6.8v-0.3
			c-1.6,0.1-2.2-0.8-2.1-2.3c0,0,0-6.5,0-6.5c-0.5-3,3-6.1,5.2-3.3c1.2,1.6,0.4,10.5,0.6,12.4h4.4v-0.3
			C22.6,19.4,22.1,18.4,22.1,16.9z M37.6,17.3c0,0,0-17,0-17h-4.5v0.3c2.7-0.4,2.1,2.7,2.1,4.4c0,1.4,0,3.1,0.1,4.5h-0.1
			c-0.3-4.9-7.2-4.9-8.5-0.6c-2.1,4.7,0.9,14.2,7.1,10c0.6-0.6,1.1-1.6,1.3-2.9h0.1v3.6h4.6v-0.3C38.6,19.3,37.5,18.7,37.6,17.3z
			 M30,18.7c-2.2-2.8-2.5-15.9,3.8-11.9C36.5,9.8,36.1,22.2,30,18.7z M43.2,7.5c-3.7,4.8-0.3,14.9,6.9,11.9c1.2-0.4,2.8-2.2,1.3-2.9
			c-0.2,2.7-3.7,4.1-5.7,2.4c-1.5-1.6-1.4-3.8-1.5-6.4h8.4C53.6,6.6,46.9,3.4,43.2,7.5z M50.1,12.1h-5.9
			C43.9,3.9,50.7,3.8,50.1,12.1z M59,9.4L59,9.4l-0.1-3.5h-4.7v0.3c1.4-0.1,2.5,0.4,2.4,2c0,0,0,15.2,0,15.2
			c0.1,1.4-0.9,2.1-2.3,1.9v0.3h6.8v-0.3c-1.4,0.1-2.2-0.7-2.1-2.1c0-1.8,0-5.6,0-7.3H59c1.5,7.3,10.1,3.2,9-3.2
			C69.1,6.2,60.5,2.3,59,9.4z M60.5,18.6C58.3,16,57.7,6.4,62.5,6C67.4,5.6,66.7,23.5,60.5,18.6z M72.3,7.5
			c-3.7,4.8-0.3,14.9,6.9,11.9c1.2-0.4,2.8-2.2,1.3-2.9c-0.2,2.7-3.7,4.1-5.7,2.4c-1.5-1.6-1.4-3.8-1.5-6.4h8.4
			C82.7,6.6,75.9,3.4,72.3,7.5z M79.1,12.1h-5.9C72.9,3.9,79.8,3.8,79.1,12.1z M96.5,16.9c0,0,0-6.3,0-6.3c0.9-5.1-6.6-7.1-8.2-2.3
			h-0.1V5.9h-4.5v0.3C85.3,6,86,6.9,85.9,8.4c0,0,0,8.5,0,8.5c0.1,1.6-0.7,2.5-2.3,2.3v0.3h6.8v-0.3c-1.6,0.1-2.2-0.8-2.1-2.3
			c0,0,0-6.5,0-6.5c-0.5-3,3-6.1,5.2-3.3c1.2,1.6,0.4,10.5,0.6,12.4h4.4v-0.3C97,19.4,96.4,18.4,96.5,16.9z M112,17.3c0,0,0-17,0-17
			h-4.5v0.3c2.7-0.4,2.1,2.7,2.1,4.4c0,1.4,0,3.1,0.1,4.5h-0.1c-0.3-4.9-7.2-4.9-8.5-0.6c-2.1,4.7,0.9,14.2,7.1,10
			c0.6-0.6,1.1-1.6,1.3-2.9h0.1v3.6h4.6v-0.3C112.9,19.3,111.9,18.7,112,17.3z M104.4,18.7c-2.2-2.8-2.5-15.9,3.8-11.9
			C110.8,9.8,110.5,22.2,104.4,18.7z M117.6,7.5c-3.7,4.8-0.3,14.9,6.9,11.9c1.2-0.4,2.8-2.2,1.3-2.9c-0.2,2.7-3.7,4.1-5.7,2.4
			c-1.5-1.6-1.4-3.8-1.5-6.4h8.4C128,6.6,121.2,3.4,117.6,7.5z M124.4,12.1h-5.9C118.2,3.9,125.1,3.8,124.4,12.1z M141.8,16.9
			c0,0,0-6.3,0-6.3c0.9-5.1-6.6-7.1-8.2-2.3h-0.1V5.9h-4.5v0.3c1.6-0.1,2.2,0.8,2.1,2.3c0,0,0,8.5,0,8.5c0.1,1.6-0.7,2.5-2.3,2.3
			v0.3h6.8v-0.3c-1.6,0.1-2.2-0.8-2.1-2.3c0,0,0-6.5,0-6.5c-0.5-3,3-6.1,5.2-3.3c1.2,1.6,0.4,10.5,0.6,12.4h4.4v-0.3
			C142.3,19.4,141.8,18.4,141.8,16.9z M149.3,2.8h-0.3c-0.3,2.1-1.9,3.2-4,3.1v0.3h1.9v9.6c-0.2,3.3,2,4.3,4.9,3.8
			c0.4-0.1,0.8-0.2,1-0.3v-0.3c-1.9,0.8-3.7,0-3.5-2.3c0,0,0-10.6,0-10.6h3.5V5.9h-3.5V2.8z M155.6,16.6c-1.1,1.4,0.4,4.2,2,2.6
			C158.7,17.8,157.3,15.1,155.6,16.6z"/>
	</g>
	<g>
		<path class="st1" d="M0.2,1.7C1.5,1.6,2.7,2,2.7,3.4c0,0,0,14,0,14c0.1,1.4-1.2,1.9-2.4,1.8v0.3h7.4v-0.3
			c-1.2,0.1-2.5-0.4-2.4-1.8c0,0,0-13.9,0-13.9C5.1,2.1,6.4,1.6,7.6,1.7V1.4H0.2V1.7z M22.1,16.9c0,0,0-6.3,0-6.3
			c0.9-5.1-6.6-7.1-8.2-2.3h-0.1V5.9H9.4v0.3c1.6-0.1,2.2,0.8,2.1,2.3c0,0,0,8.5,0,8.5c0.1,1.6-0.7,2.5-2.3,2.3v0.3h6.8v-0.3
			c-1.6,0.1-2.2-0.8-2.1-2.3c0,0,0-6.5,0-6.5c-0.5-3,3-6.1,5.2-3.3c1.2,1.6,0.4,10.5,0.6,12.4h4.4v-0.3
			C22.6,19.4,22.1,18.4,22.1,16.9z M37.6,17.3c0,0,0-17,0-17h-4.5v0.3c2.7-0.4,2.1,2.7,2.1,4.4c0,1.4,0,3.1,0.1,4.5h-0.1
			c-0.3-4.9-7.2-4.9-8.5-0.6c-2.1,4.7,0.9,14.2,7.1,10c0.6-0.6,1.1-1.6,1.3-2.9h0.1v3.6h4.6v-0.3C38.6,19.3,37.5,18.7,37.6,17.3z
			 M30,18.7c-2.2-2.8-2.5-15.9,3.8-11.9C36.5,9.8,36.1,22.2,30,18.7z M43.2,7.5c-3.7,4.8-0.3,14.9,6.9,11.9c1.2-0.4,2.8-2.2,1.3-2.9
			c-0.2,2.7-3.7,4.1-5.7,2.4c-1.5-1.6-1.4-3.8-1.5-6.4h8.4C53.6,6.6,46.9,3.4,43.2,7.5z M50.1,12.1h-5.9
			C43.9,3.9,50.7,3.8,50.1,12.1z M59,9.4L59,9.4l-0.1-3.5h-4.7v0.3c1.4-0.1,2.5,0.4,2.4,2c0,0,0,15.2,0,15.2
			c0.1,1.4-0.9,2.1-2.3,1.9v0.3h6.8v-0.3c-1.4,0.1-2.2-0.7-2.1-2.1c0-1.8,0-5.6,0-7.3H59c1.5,7.3,10.1,3.2,9-3.2
			C69.1,6.2,60.5,2.3,59,9.4z M60.5,18.6C58.3,16,57.7,6.4,62.5,6C67.4,5.6,66.7,23.5,60.5,18.6z M72.3,7.5
			c-3.7,4.8-0.3,14.9,6.9,11.9c1.2-0.4,2.8-2.2,1.3-2.9c-0.2,2.7-3.7,4.1-5.7,2.4c-1.5-1.6-1.4-3.8-1.5-6.4h8.4
			C82.7,6.6,75.9,3.4,72.3,7.5z M79.1,12.1h-5.9C72.9,3.9,79.8,3.8,79.1,12.1z M96.5,16.9c0,0,0-6.3,0-6.3c0.9-5.1-6.6-7.1-8.2-2.3
			h-0.1V5.9h-4.5v0.3C85.3,6,86,6.9,85.9,8.4c0,0,0,8.5,0,8.5c0.1,1.6-0.7,2.5-2.3,2.3v0.3h6.8v-0.3c-1.6,0.1-2.2-0.8-2.1-2.3
			c0,0,0-6.5,0-6.5c-0.5-3,3-6.1,5.2-3.3c1.2,1.6,0.4,10.5,0.6,12.4h4.4v-0.3C97,19.4,96.4,18.4,96.5,16.9z M112,17.3c0,0,0-17,0-17
			h-4.5v0.3c2.7-0.4,2.1,2.7,2.1,4.4c0,1.4,0,3.1,0.1,4.5h-0.1c-0.3-4.9-7.2-4.9-8.5-0.6c-2.1,4.7,0.9,14.2,7.1,10
			c0.6-0.6,1.1-1.6,1.3-2.9h0.1v3.6h4.6v-0.3C112.9,19.3,111.9,18.7,112,17.3z M104.4,18.7c-2.2-2.8-2.5-15.9,3.8-11.9
			C110.8,9.8,110.5,22.2,104.4,18.7z M117.6,7.5c-3.7,4.8-0.3,14.9,6.9,11.9c1.2-0.4,2.8-2.2,1.3-2.9c-0.2,2.7-3.7,4.1-5.7,2.4
			c-1.5-1.6-1.4-3.8-1.5-6.4h8.4C128,6.6,121.2,3.4,117.6,7.5z M124.4,12.1h-5.9C118.2,3.9,125.1,3.8,124.4,12.1z M141.8,16.9
			c0,0,0-6.3,0-6.3c0.9-5.1-6.6-7.1-8.2-2.3h-0.1V5.9h-4.5v0.3c1.6-0.1,2.2,0.8,2.1,2.3c0,0,0,8.5,0,8.5c0.1,1.6-0.7,2.5-2.3,2.3
			v0.3h6.8v-0.3c-1.6,0.1-2.2-0.8-2.1-2.3c0,0,0-6.5,0-6.5c-0.5-3,3-6.1,5.2-3.3c1.2,1.6,0.4,10.5,0.6,12.4h4.4v-0.3
			C142.3,19.4,141.8,18.4,141.8,16.9z M149.3,2.8h-0.3c-0.3,2.1-1.9,3.2-4,3.1v0.3h1.9v9.6c-0.2,3.3,2,4.3,4.9,3.8
			c0.4-0.1,0.8-0.2,1-0.3v-0.3c-1.9,0.8-3.7,0-3.5-2.3c0,0,0-10.6,0-10.6h3.5V5.9h-3.5V2.8z M155.6,16.6c-1.1,1.4,0.4,4.2,2,2.6
			C158.7,17.8,157.3,15.1,155.6,16.6z"/>
	</g>
</g>
</svg>
