<?xml version="1.0" encoding="utf-8"?>
<!-- Generator: Adobe Illustrator 27.5.0, SVG Export Plug-In . SVG Version: 6.00 Build 0)  -->
<svg version="1.1" id="a" xmlns="http://www.w3.org/2000/svg" xmlns:xlink="http://www.w3.org/1999/xlink" x="0px" y="0px"
	 viewBox="0 0 154.1 20.2" style="enable-background:new 0 0 154.1 20.2;" xml:space="preserve">
<style type="text/css">
	.st0{fill:#111C3C;}
	.st1{fill:none;stroke:#121C3D;stroke-width:0.5;stroke-miterlimit:10;}
</style>
<g>
	<g>
		<path class="st0" d="M16.2,17.9c0,0-6.3-16.5-6.3-16.5H8.6L3.1,17.3c-0.4,1.5-1.4,2.2-2.9,2v0.3h6.2v-0.3
			c-5.5,0.5-2.1-3.5-1.5-6.3h6.8l1.5,4.1c0.8,1.8-0.5,2.3-2.2,2.2v0.3h6.9v-0.3C17.1,19.3,16.6,18.8,16.2,17.9z M5,12.7l1.9-5.4
			c0.5-1.5,0.9-2.7,1.4-4.1c0.8,2.7,2.4,6.8,3.4,9.5H5z M28.6,16.3c-0.3,2.8-3.5,4.1-5.6,2.5c-2.2-2-1.7-7.7-1.2-10.3
			c1.1-4.3,5.7-2.8,4.9,1.3c4.9-0.4,1-4.8-2.2-4.2c-9.2,0-6.5,17.7,2.6,13.7C28.4,19,30,17.1,28.6,16.3z M41,16.3
			c-0.3,2.8-3.5,4.1-5.6,2.5c-2.2-2-1.7-7.7-1.2-10.3c1.1-4.3,5.7-2.8,4.9,1.3c4.9-0.4,1-4.8-2.2-4.2c-9.2,0-6.5,17.7,2.6,13.7
			C40.8,19,42.4,17.1,41,16.3z M45.3,7.4c-4.6,6.3,1.4,16.8,8.8,10.6C58.7,11.6,52.8,1.2,45.3,7.4z M47.7,18.8
			c-2.1-2.7-2.1-9.5,0-12.2C55.3,1.5,55.2,23.9,47.7,18.8z M70.3,17c0,0,0-11.1,0-11.1h-4.5v0.3c1.5-0.1,2.2,0.8,2.1,2.3
			c0,0,0,5.8,0,5.8c0.7,3.6-4,7.7-5.6,3.2c-0.4-1.6-0.1-9.8-0.2-11.6h-4.5v0.3c5.8-0.2-2.7,15.1,7.7,13.4c1.7-0.3,2.6-1.8,2.8-3.6
			h0.1v3.5h4.3v-0.3C70.9,19.3,70.2,18.5,70.3,17z M86.6,16.9c0,0,0-6.3,0-6.3c0.9-5.1-6.6-7.1-8.2-2.3h-0.1V5.9h-4.5v0.3
			C75.4,6,76.1,6.9,76,8.4c0,0,0,8.5,0,8.5c0.1,1.6-0.7,2.5-2.3,2.3v0.3h6.8v-0.3c-1.6,0.1-2.2-0.8-2.1-2.3c0,0,0-6.5,0-6.5
			c-0.5-3,3-6.1,5.2-3.3c1.2,1.6,0.4,10.5,0.6,12.4h4.4v-0.3C87.1,19.4,86.5,18.4,86.6,16.9z M94.1,2.8h-0.3c-0.3,2.1-1.9,3.2-4,3.1
			v0.3h1.9v9.6c-0.2,3.3,2,4.3,4.9,3.8c0.4-0.1,0.8-0.2,1-0.3v-0.3c-1.9,0.8-3.7,0-3.5-2.3c0,0,0-10.6,0-10.6h3.5V5.9h-3.5V2.8z
			 M108.6,6.7c-1.6-1.4-5.6-1.4-7.4,0.1c-1.3,1.3-0.4,3.3,1.5,3c0-1.3,0.1-2.3,0.4-2.9c0.8-1.5,4.1-1.2,4.1,0.9
			c0.2,1,0.1,3.1,0.2,4.2c-11-1.1-9.5,9.5-2,7.5c1.1-0.5,1.8-1.4,2.1-2.6h0.1v2.7h3.8v-0.3C107.7,19.8,111.5,8.3,108.6,6.7z
			 M102.9,19c-1.5-1.1-1.2-4.7-0.2-5.7c0.7-0.9,3.2-1,4.6-1.1C107.6,15.2,107.5,20.8,102.9,19z M117.6,9.4L117.6,9.4
			c0-2.8,0-6.5,0-9.2H113v0.3c1.4-0.1,2.2,0.6,2.1,2c0,0,0,14.8,0,14.8c0.1,1.4-0.9,2.1-2.3,1.9v0.3h4.6v-3.6h0.1
			c0.3,3.6,4.1,4.8,6.7,3c3-2.2,2.8-8.9,1-11.5C123.2,4.5,117.8,5.3,117.6,9.4z M118.4,17.7c-1.6-3-1.6-14.5,4.4-11
			C125.6,9.7,124.5,24.4,118.4,17.7z M133.1,17.2c0,0,0-16.9,0-16.9h-4.8v0.3c1.4-0.1,2.5,0.4,2.4,2c0,0,0,14.8,0,14.8
			c0.1,1.5-1,2.1-2.4,1.9v0.3h7.2v-0.3C134,19.4,133,18.7,133.1,17.2z M138.7,7.5c-3.7,4.8-0.3,14.9,6.9,11.9
			c1.2-0.4,2.8-2.2,1.3-2.9c-0.2,2.7-3.7,4.1-5.7,2.4c-1.5-1.6-1.4-3.8-1.5-6.4h8.4C149.1,6.6,142.3,3.4,138.7,7.5z M145.5,12.1
			h-5.9C139.3,3.9,146.2,3.8,145.5,12.1z M151.5,16.6c-1.1,1.4,0.4,4.2,2,2.6C154.6,17.8,153.2,15.1,151.5,16.6z"/>
	</g>
	<g>
		<path class="st1" d="M16.2,17.9c0,0-6.3-16.5-6.3-16.5H8.6L3.1,17.3c-0.4,1.5-1.4,2.2-2.9,2v0.3h6.2v-0.3
			c-5.5,0.5-2.1-3.5-1.5-6.3h6.8l1.5,4.1c0.8,1.8-0.5,2.3-2.2,2.2v0.3h6.9v-0.3C17.1,19.3,16.6,18.8,16.2,17.9z M5,12.7l1.9-5.4
			c0.5-1.5,0.9-2.7,1.4-4.1c0.8,2.7,2.4,6.8,3.4,9.5H5z M28.6,16.3c-0.3,2.8-3.5,4.1-5.6,2.5c-2.2-2-1.7-7.7-1.2-10.3
			c1.1-4.3,5.7-2.8,4.9,1.3c4.9-0.4,1-4.8-2.2-4.2c-9.2,0-6.5,17.7,2.6,13.7C28.4,19,30,17.1,28.6,16.3z M41,16.3
			c-0.3,2.8-3.5,4.1-5.6,2.5c-2.2-2-1.7-7.7-1.2-10.3c1.1-4.3,5.7-2.8,4.9,1.3c4.9-0.4,1-4.8-2.2-4.2c-9.2,0-6.5,17.7,2.6,13.7
			C40.8,19,42.4,17.1,41,16.3z M45.3,7.4c-4.6,6.3,1.4,16.8,8.8,10.6C58.7,11.6,52.8,1.2,45.3,7.4z M47.7,18.8
			c-2.1-2.7-2.1-9.5,0-12.2C55.3,1.5,55.2,23.9,47.7,18.8z M70.3,17c0,0,0-11.1,0-11.1h-4.5v0.3c1.5-0.1,2.2,0.8,2.1,2.3
			c0,0,0,5.8,0,5.8c0.7,3.6-4,7.7-5.6,3.2c-0.4-1.6-0.1-9.8-0.2-11.6h-4.5v0.3c5.8-0.2-2.7,15.1,7.7,13.4c1.7-0.3,2.6-1.8,2.8-3.6
			h0.1v3.5h4.3v-0.3C70.9,19.3,70.2,18.5,70.3,17z M86.6,16.9c0,0,0-6.3,0-6.3c0.9-5.1-6.6-7.1-8.2-2.3h-0.1V5.9h-4.5v0.3
			C75.4,6,76.1,6.9,76,8.4c0,0,0,8.5,0,8.5c0.1,1.6-0.7,2.5-2.3,2.3v0.3h6.8v-0.3c-1.6,0.1-2.2-0.8-2.1-2.3c0,0,0-6.5,0-6.5
			c-0.5-3,3-6.1,5.2-3.3c1.2,1.6,0.4,10.5,0.6,12.4h4.4v-0.3C87.1,19.4,86.5,18.4,86.6,16.9z M94.1,2.8h-0.3c-0.3,2.1-1.9,3.2-4,3.1
			v0.3h1.9v9.6c-0.2,3.3,2,4.3,4.9,3.8c0.4-0.1,0.8-0.2,1-0.3v-0.3c-1.9,0.8-3.7,0-3.5-2.3c0,0,0-10.6,0-10.6h3.5V5.9h-3.5V2.8z
			 M108.6,6.7c-1.6-1.4-5.6-1.4-7.4,0.1c-1.3,1.3-0.4,3.3,1.5,3c0-1.3,0.1-2.3,0.4-2.9c0.8-1.5,4.1-1.2,4.1,0.9
			c0.2,1,0.1,3.1,0.2,4.2c-11-1.1-9.5,9.5-2,7.5c1.1-0.5,1.8-1.4,2.1-2.6h0.1v2.7h3.8v-0.3C107.7,19.8,111.5,8.3,108.6,6.7z
			 M102.9,19c-1.5-1.1-1.2-4.7-0.2-5.7c0.7-0.9,3.2-1,4.6-1.1C107.6,15.2,107.5,20.8,102.9,19z M117.6,9.4L117.6,9.4
			c0-2.8,0-6.5,0-9.2H113v0.3c1.4-0.1,2.2,0.6,2.1,2c0,0,0,14.8,0,14.8c0.1,1.4-0.9,2.1-2.3,1.9v0.3h4.6v-3.6h0.1
			c0.3,3.6,4.1,4.8,6.7,3c3-2.2,2.8-8.9,1-11.5C123.2,4.5,117.8,5.3,117.6,9.4z M118.4,17.7c-1.6-3-1.6-14.5,4.4-11
			C125.6,9.7,124.5,24.4,118.4,17.7z M133.1,17.2c0,0,0-16.9,0-16.9h-4.8v0.3c1.4-0.1,2.5,0.4,2.4,2c0,0,0,14.8,0,14.8
			c0.1,1.5-1,2.1-2.4,1.9v0.3h7.2v-0.3C134,19.4,133,18.7,133.1,17.2z M138.7,7.5c-3.7,4.8-0.3,14.9,6.9,11.9
			c1.2-0.4,2.8-2.2,1.3-2.9c-0.2,2.7-3.7,4.1-5.7,2.4c-1.5-1.6-1.4-3.8-1.5-6.4h8.4C149.1,6.6,142.3,3.4,138.7,7.5z M145.5,12.1
			h-5.9C139.3,3.9,146.2,3.8,145.5,12.1z M151.5,16.6c-1.1,1.4,0.4,4.2,2,2.6C154.6,17.8,153.2,15.1,151.5,16.6z"/>
	</g>
</g>
</svg>
