<?xml version="1.0" encoding="utf-8"?>
<!-- Generator: Adobe Illustrator 27.5.0, SVG Export Plug-In . SVG Version: 6.00 Build 0)  -->
<svg version="1.1" id="a" xmlns="http://www.w3.org/2000/svg" xmlns:xlink="http://www.w3.org/1999/xlink" x="0px" y="0px"
	 viewBox="0 0 155 28.5" style="enable-background:new 0 0 155 28.5;" xml:space="preserve">
<style type="text/css">
	.st0{fill:#111C3C;}
	.st1{fill:none;stroke:#111C3C;stroke-width:0.5;stroke-miterlimit:10;}
</style>
<g>
	<g>
		<path class="st0" d="M29.7,2.3c2.8-0.3,3.9,1,3,3.6c-0.8,3.1-4.3,16.4-5.1,19.3c-1.1-5-5.8-17.9-7.4-23h-1.5
			c-1.1,4.2-4.8,18.6-5.7,22.6C12.2,20.2,8.8,9.9,7.5,5.3C6.6,3,7.7,2,10.2,2.3V1.9H0.2v0.4c1.5-0.1,2.7,0.3,3,1.9
			c0,0,7.1,23.5,7.1,23.5h2.2L18,6.1l7.1,21.5h2.2l6-22.6c0.4-2,1.4-3.1,3.4-2.8V1.9h-7V2.3z M56.6,24c0,0,0-8.9,0-8.9
			c1.2-7.3-9.5-10.1-11.7-3.3h-0.1c0.1-2.8,0-8.6,0-11.5h-6.4v0.4c2.2-0.2,3.2,1.1,3.1,3.2c0,0,0,20.1,0,20.1c0.2,2.3-1,3.5-3.2,3.3
			v0.4H48v-0.4c-2.2,0.2-3.2-1.1-3.1-3.3c0,0,0-9.3,0-9.3c-0.7-4.2,4.3-8.7,7.5-4.7c1.7,2.2,0.6,14.9,0.9,17.7h6.3v-0.4
			C57.3,27.5,56.5,26.1,56.6,24z M75.3,9.4c-5.9-4.7-17.2,2.8-8.4,4.3c-1-5.3,4.9-7.8,6.4-2.8c0.3,1.4,0.2,4.3,0.2,6
			c-15.3-1.6-14,13.4-2.8,10.7c1.6-0.6,2.6-1.9,3-3.7h0.1v3.8h5.4v-0.4C73.9,27.9,79.4,11.7,75.3,9.4z M67.2,27
			c-2.1-1.6-1.6-6.7-0.2-8.2c0.9-1.3,4.5-1.5,6.5-1.5C73.9,21.4,73.5,29.7,67.2,27z M87.6,3.9h-0.4c-0.4,3.1-2.8,4.6-5.8,4.4v0.4
			h2.7v13.7c-0.3,4.8,2.9,6.2,7,5.4c0.6-0.1,1.1-0.3,1.4-0.4v-0.4c-2.7,1.2-5.3,0-5-3.3c0,0,0-15.1,0-15.1h5V8.3h-5V3.9z M108.4,3.9
			H108c-0.4,3.1-2.8,4.6-5.8,4.4v0.4h2.7v13.7c-0.3,4.8,2.9,6.2,7,5.4c0.6-0.1,1.1-0.3,1.4-0.4v-0.4c-2.7,1.2-5.3,0-5-3.3
			c0,0,0-15.1,0-15.1h5V8.3h-5V3.9z M133.2,24c0,0,0-8.9,0-8.9c1.2-7.3-9.5-10.1-11.7-3.3h-0.1c0.1-2.8,0-8.6,0-11.5h-6.4v0.4
			c2.2-0.2,3.2,1.1,3.1,3.2c0,0,0,20.1,0,20.1c0.2,2.3-1,3.5-3.2,3.3v0.4h9.7v-0.4c-2.2,0.2-3.2-1.1-3.1-3.3c0,0,0-9.3,0-9.3
			c-0.7-4.2,4.3-8.7,7.5-4.7c1.7,2.2,0.6,14.9,0.9,17.7h6.3v-0.4C133.9,27.5,133.1,26.1,133.2,24z M141.2,10.5
			c-5.3,6.8-0.5,21.2,9.9,16.9c1.7-0.6,4-3.2,1.9-4.2c-0.3,3.9-5.3,5.8-8.2,3.4c-2.1-2.3-2-5.5-2.2-9.2h12
			C156,9.2,146.4,4.7,141.2,10.5z M150.9,17.1h-8.4C142.1,5.5,151.9,5.3,150.9,17.1z"/>
	</g>
	<g>
		<path class="st1" d="M29.7,2.3c2.8-0.3,3.9,1,3,3.6c-0.8,3.1-4.3,16.4-5.1,19.3c-1.1-5-5.8-17.9-7.4-23h-1.5
			c-1.1,4.2-4.8,18.6-5.7,22.6C12.2,20.2,8.8,9.9,7.5,5.3C6.6,3,7.7,2,10.2,2.3V1.9H0.2v0.4c1.5-0.1,2.7,0.3,3,1.9
			c0,0,7.1,23.5,7.1,23.5h2.2L18,6.1l7.1,21.5h2.2l6-22.6c0.4-2,1.4-3.1,3.4-2.8V1.9h-7V2.3z M56.6,24c0,0,0-8.9,0-8.9
			c1.2-7.3-9.5-10.1-11.7-3.3h-0.1c0.1-2.8,0-8.6,0-11.5h-6.4v0.4c2.2-0.2,3.2,1.1,3.1,3.2c0,0,0,20.1,0,20.1c0.2,2.3-1,3.5-3.2,3.3
			v0.4H48v-0.4c-2.2,0.2-3.2-1.1-3.1-3.3c0,0,0-9.3,0-9.3c-0.7-4.2,4.3-8.7,7.5-4.7c1.7,2.2,0.6,14.9,0.9,17.7h6.3v-0.4
			C57.3,27.5,56.5,26.1,56.6,24z M75.3,9.4c-5.9-4.7-17.2,2.8-8.4,4.3c-1-5.3,4.9-7.8,6.4-2.8c0.3,1.4,0.2,4.3,0.2,6
			c-15.3-1.6-14,13.4-2.8,10.7c1.6-0.6,2.6-1.9,3-3.7h0.1v3.8h5.4v-0.4C73.9,27.9,79.4,11.7,75.3,9.4z M67.2,27
			c-2.1-1.6-1.6-6.7-0.2-8.2c0.9-1.3,4.5-1.5,6.5-1.5C73.9,21.4,73.5,29.7,67.2,27z M87.6,3.9h-0.4c-0.4,3.1-2.8,4.6-5.8,4.4v0.4
			h2.7v13.7c-0.3,4.8,2.9,6.2,7,5.4c0.6-0.1,1.1-0.3,1.4-0.4v-0.4c-2.7,1.2-5.3,0-5-3.3c0,0,0-15.1,0-15.1h5V8.3h-5V3.9z M108.4,3.9
			H108c-0.4,3.1-2.8,4.6-5.8,4.4v0.4h2.7v13.7c-0.3,4.8,2.9,6.2,7,5.4c0.6-0.1,1.1-0.3,1.4-0.4v-0.4c-2.7,1.2-5.3,0-5-3.3
			c0,0,0-15.1,0-15.1h5V8.3h-5V3.9z M133.2,24c0,0,0-8.9,0-8.9c1.2-7.3-9.5-10.1-11.7-3.3h-0.1c0.1-2.8,0-8.6,0-11.5h-6.4v0.4
			c2.2-0.2,3.2,1.1,3.1,3.2c0,0,0,20.1,0,20.1c0.2,2.3-1,3.5-3.2,3.3v0.4h9.7v-0.4c-2.2,0.2-3.2-1.1-3.1-3.3c0,0,0-9.3,0-9.3
			c-0.7-4.2,4.3-8.7,7.5-4.7c1.7,2.2,0.6,14.9,0.9,17.7h6.3v-0.4C133.9,27.5,133.1,26.1,133.2,24z M141.2,10.5
			c-5.3,6.8-0.5,21.2,9.9,16.9c1.7-0.6,4-3.2,1.9-4.2c-0.3,3.9-5.3,5.8-8.2,3.4c-2.1-2.3-2-5.5-2.2-9.2h12
			C156,9.2,146.4,4.7,141.2,10.5z M150.9,17.1h-8.4C142.1,5.5,151.9,5.3,150.9,17.1z"/>
	</g>
</g>
</svg>
