<?xml version="1.0" encoding="utf-8"?>
<!-- Generator: Adobe Illustrator 27.5.0, SVG Export Plug-In . SVG Version: 6.00 Build 0)  -->
<svg version="1.1" id="a" xmlns="http://www.w3.org/2000/svg" xmlns:xlink="http://www.w3.org/1999/xlink" x="0px" y="0px"
	 viewBox="0 0 195.2 28.9" style="enable-background:new 0 0 195.2 28.9;" xml:space="preserve">
<style type="text/css">
	.st0{fill:#111C3C;}
	.st1{fill:none;stroke:#111C3C;stroke-width:0.5;stroke-miterlimit:10;}
</style>
<g>
	<g>
		<path class="st0" d="M18.6,24.3c0,0,0-8.9,0-8.9c1.2-7.3-9.5-10.1-11.7-3.3H6.8c0.1-2.8,0-8.6,0-11.5H0.4V1
			c2.2-0.2,3.2,1.1,3.1,3.2c0,0,0,20.1,0,20.1c0.2,2.3-1,3.5-3.2,3.3V28h9.7v-0.4c-2.2,0.2-3.2-1.1-3.1-3.3c0,0,0-9.3,0-9.3
			c-0.7-4.2,4.3-8.7,7.5-4.7c1.7,2.2,0.6,14.9,0.9,17.7h6.3v-0.4C19.3,27.9,18.5,26.4,18.6,24.3z M26.5,10.9
			c-5.3,6.8-0.5,21.2,9.9,16.9c1.7-0.6,4-3.2,1.9-4.2c-0.3,3.9-5.3,5.8-8.2,3.4c-2.1-2.3-2-5.5-2.2-9.2h12
			C41.4,9.6,31.7,5.1,26.5,10.9z M36.3,17.5h-8.4C27.5,5.9,37.3,5.6,36.3,17.5z M49,24.7c0,0,0-24.1,0-24.1h-6.8V1
			c2-0.2,3.6,0.6,3.4,2.8c0,0,0,21.1,0,21.1c0.2,2.2-1.5,3-3.4,2.8V28h10.2v-0.4C50.4,27.9,48.8,27,49,24.7z M60.2,24.7
			c0,0,0-24.1,0-24.1h-6.8V1c2-0.2,3.6,0.6,3.4,2.8c0,0,0,21.1,0,21.1c0.2,2.2-1.5,3-3.4,2.8V28h10.2v-0.4
			C61.5,27.9,60,27,60.2,24.7z M83.8,15.5c2.4-2.3,4.7-6.7,8.2-6.5V8.7h-8v0.4c3.9-0.3,3.8,1.7,1.5,3.9c0,0-6.1,6.9-6.1,6.9
			c0.2-3,0-16,0.1-19.2H73V1c1.9-0.1,3.2,0.8,3.1,2.8c0,0,0,21.1,0,21.1c0.1,2.1-1.3,2.9-3.2,2.8V28h9.7v-0.4
			c-4.2,0.6-2.9-4.8-3.1-7.3l2.1-2.4c3.2,4.3,4.9,11.3,11.7,10v-0.4C89.8,27.3,86,18,83.8,15.5z M100.1,4.8c1.3-1.5-0.2-4.9-2.3-3.2
			C96.6,3.1,98,6.6,100.1,4.8z M100.9,24.7c0,0,0-16,0-16h-6.4v0.4c1.9-0.1,3.2,0.8,3.1,2.8c0,0,0,13,0,13c0.2,2.2-1.5,3-3.4,2.8V28
			h10.2v-0.4C102.2,27.9,100.7,26.9,100.9,24.7z M124.1,24.3c0,0,0-8.9,0-8.9c1.2-7.3-9.5-10.1-11.7-3.3h-0.1V8.7H106v0.4
			c2.2-0.2,3.2,1.1,3.1,3.2c0,0,0,12,0,12c0.2,2.3-1,3.5-3.2,3.3V28h9.7v-0.4c-2.2,0.2-3.2-1.1-3.1-3.3c0,0,0-9.3,0-9.3
			c-0.7-4.2,4.3-8.7,7.5-4.7c1.7,2.2,0.6,14.9,0.9,17.7h6.3v-0.4C124.8,27.9,124,26.4,124.1,24.3z M146.2,24.9c0,0,0-24.3,0-24.3
			h-6.4V1c3.8-0.5,3,3.9,3.1,6.3c0,2,0,4.4,0.1,6.5h-0.1c-0.4-7-10.3-7-12-0.9c-3,6.7,1.3,20.2,10.2,14.3c0.9-0.9,1.5-2.3,1.9-4.1
			h0.1V28h6.6v-0.4C147.5,27.8,146.1,26.9,146.2,24.9z M135.3,26.9c-3.2-4.1-3.5-22.4,5.4-16.9C144.5,14.3,144,31.9,135.3,26.9z
			 M162.3,10.8c-6.7,8.9,2.1,24,12.5,15.1C181.5,17,172.8,1.9,162.3,10.8z M165.8,27.1c-3-3.9-3-13.5,0-17.4
			C176.5,2.6,176.5,34.1,165.8,27.1z M183.4,8.7h-3.3v0.4h3.3v15.8c0.2,2.2-1.5,3-3.4,2.8V28h11.1v-0.4c-2.2,0.2-4.6-0.2-4.3-3
			c0,0,0-15.6,0-15.6h5.1V8.7h-5.1c0-2,0-5.8,0.6-6.8c2-3,5.1-0.6,4.5,2.9C202.6,2.1,181.6-5.7,183.4,8.7z"/>
	</g>
	<g>
		<path class="st1" d="M18.6,24.3c0,0,0-8.9,0-8.9c1.2-7.3-9.5-10.1-11.7-3.3H6.8c0.1-2.8,0-8.6,0-11.5H0.4V1
			c2.2-0.2,3.2,1.1,3.1,3.2c0,0,0,20.1,0,20.1c0.2,2.3-1,3.5-3.2,3.3V28h9.7v-0.4c-2.2,0.2-3.2-1.1-3.1-3.3c0,0,0-9.3,0-9.3
			c-0.7-4.2,4.3-8.7,7.5-4.7c1.7,2.2,0.6,14.9,0.9,17.7h6.3v-0.4C19.3,27.9,18.5,26.4,18.6,24.3z M26.5,10.9
			c-5.3,6.8-0.5,21.2,9.9,16.9c1.7-0.6,4-3.2,1.9-4.2c-0.3,3.9-5.3,5.8-8.2,3.4c-2.1-2.3-2-5.5-2.2-9.2h12
			C41.4,9.6,31.7,5.1,26.5,10.9z M36.3,17.5h-8.4C27.5,5.9,37.3,5.6,36.3,17.5z M49,24.7c0,0,0-24.1,0-24.1h-6.8V1
			c2-0.2,3.6,0.6,3.4,2.8c0,0,0,21.1,0,21.1c0.2,2.2-1.5,3-3.4,2.8V28h10.2v-0.4C50.4,27.9,48.8,27,49,24.7z M60.2,24.7
			c0,0,0-24.1,0-24.1h-6.8V1c2-0.2,3.6,0.6,3.4,2.8c0,0,0,21.1,0,21.1c0.2,2.2-1.5,3-3.4,2.8V28h10.2v-0.4
			C61.5,27.9,60,27,60.2,24.7z M83.8,15.5c2.4-2.3,4.7-6.7,8.2-6.5V8.7h-8v0.4c3.9-0.3,3.8,1.7,1.5,3.9c0,0-6.1,6.9-6.1,6.9
			c0.2-3,0-16,0.1-19.2H73V1c1.9-0.1,3.2,0.8,3.1,2.8c0,0,0,21.1,0,21.1c0.1,2.1-1.3,2.9-3.2,2.8V28h9.7v-0.4
			c-4.2,0.6-2.9-4.8-3.1-7.3l2.1-2.4c3.2,4.3,4.9,11.3,11.7,10v-0.4C89.8,27.3,86,18,83.8,15.5z M100.1,4.8c1.3-1.5-0.2-4.9-2.3-3.2
			C96.6,3.1,98,6.6,100.1,4.8z M100.9,24.7c0,0,0-16,0-16h-6.4v0.4c1.9-0.1,3.2,0.8,3.1,2.8c0,0,0,13,0,13c0.2,2.2-1.5,3-3.4,2.8V28
			h10.2v-0.4C102.2,27.9,100.7,26.9,100.9,24.7z M124.1,24.3c0,0,0-8.9,0-8.9c1.2-7.3-9.5-10.1-11.7-3.3h-0.1V8.7H106v0.4
			c2.2-0.2,3.2,1.1,3.1,3.2c0,0,0,12,0,12c0.2,2.3-1,3.5-3.2,3.3V28h9.7v-0.4c-2.2,0.2-3.2-1.1-3.1-3.3c0,0,0-9.3,0-9.3
			c-0.7-4.2,4.3-8.7,7.5-4.7c1.7,2.2,0.6,14.9,0.9,17.7h6.3v-0.4C124.8,27.9,124,26.4,124.1,24.3z M146.2,24.9c0,0,0-24.3,0-24.3
			h-6.4V1c3.8-0.5,3,3.9,3.1,6.3c0,2,0,4.4,0.1,6.5h-0.1c-0.4-7-10.3-7-12-0.9c-3,6.7,1.3,20.2,10.2,14.3c0.9-0.9,1.5-2.3,1.9-4.1
			h0.1V28h6.6v-0.4C147.5,27.8,146.1,26.9,146.2,24.9z M135.3,26.9c-3.2-4.1-3.5-22.4,5.4-16.9C144.5,14.3,144,31.9,135.3,26.9z
			 M162.3,10.8c-6.7,8.9,2.1,24,12.5,15.1C181.5,17,172.8,1.9,162.3,10.8z M165.8,27.1c-3-3.9-3-13.5,0-17.4
			C176.5,2.6,176.5,34.1,165.8,27.1z M183.4,8.7h-3.3v0.4h3.3v15.8c0.2,2.2-1.5,3-3.4,2.8V28h11.1v-0.4c-2.2,0.2-4.6-0.2-4.3-3
			c0,0,0-15.6,0-15.6h5.1V8.7h-5.1c0-2,0-5.8,0.6-6.8c2-3,5.1-0.6,4.5,2.9C202.6,2.1,181.6-5.7,183.4,8.7z"/>
	</g>
</g>
</svg>
