<?xml version="1.0" encoding="utf-8"?>
<!-- Generator: Adobe Illustrator 27.5.0, SVG Export Plug-In . SVG Version: 6.00 Build 0)  -->
<svg version="1.1" id="a" xmlns="http://www.w3.org/2000/svg" xmlns:xlink="http://www.w3.org/1999/xlink" x="0px" y="0px"
	 viewBox="0 0 223.7 36.6" style="enable-background:new 0 0 223.7 36.6;" xml:space="preserve">
<style type="text/css">
	.st0{fill:#111C3C;}
	.st1{fill:none;stroke:#111C3C;stroke-width:0.5;stroke-miterlimit:10;}
</style>
<g>
	<g>
		<path class="st0" d="M23.5,8.7c2.7-0.2,4.7,0.2,3.5,3.3c-0.9,3.6-2.8,10.9-3.7,14.4h-0.1c-1.2-3.8-4.7-14-5.9-18h-2.3
			c-1,3.9-3.6,13.8-4.6,17.6h-0.1c-1-3.5-2.9-10.7-3.9-14.3C5.5,9.4,6.6,8.4,9.1,8.7V8.3H0.2v0.4c1.3-0.1,2.3,0.6,2.5,1.9
			c0,0,5,17.1,5,17.1h2.7l4.5-17.1l5.7,17.1h2.8l4.1-16.2c0.4-2.1,1.7-3.1,3.7-2.8V8.3h-7.7V8.7z M46,9.4c-5.9-4.7-17.2,2.8-8.4,4.3
			c-1-5.3,4.9-7.8,6.4-2.8c0.3,1.4,0.2,4.3,0.2,6c-15.3-1.6-14,13.4-2.8,10.7c1.6-0.6,2.6-1.9,3-3.7h0.1v3.8H50v-0.4
			C44.6,27.9,50.1,11.7,46,9.4z M38,27c-2.1-1.6-1.6-6.7-0.2-8.2c0.9-1.3,4.5-1.5,6.5-1.5C44.7,21.4,44.2,29.7,38,27z M63.7,8.7
			c2.5-0.3,4.8,0.3,3.6,3.3c-1.1,3.4-3.1,9.8-4.2,13.1c-1.2-3.6-3.8-9.7-5.3-13.3c-1-1.7-0.3-3.3,1.9-3.1V8.3H51v0.4
			c1.5-0.2,2.3,0.6,2.8,2c0,0,7.9,18.6,7.9,18.6c-1.4,4.8-4.2,7.1-9.4,6.7v0.4c6.1,0.6,9-2.9,10.3-8.5c0,0,5.3-16.3,5.3-16.3
			c0.6-1.9,1.4-3,3.4-2.8V8.3h-7.5V8.7z M86.9,24.3c0,0,0-16,0-16h-6.4v0.4c1.9-0.1,3.2,0.8,3.1,2.8c0,0,0,13,0,13
			c0.2,2.2-1.5,3-3.4,2.8v0.4h10.2v-0.4C88.3,27.5,86.7,26.6,86.9,24.3z M86.1,4.4c1.3-1.5-0.2-4.9-2.3-3.2
			C82.6,2.7,84.1,6.2,86.1,4.4z M95.3,11.8c0.2-5.5,8-4.1,6.8,1.7c2.3,0.2,3.4-2.2,1.9-3.8c-4.1-4-14-0.7-10.9,5.8
			c1.2,2.5,5.4,3.6,7.7,4.9c7.1,6.5-7.4,11.7-6.2,1.3c-1.3,0-2.4,1-2.3,2.5c0.3,4.8,8.4,4.5,11.2,2.4
			C111.3,16.5,95.2,17.8,95.3,11.8z M121.9,3.9h-0.4c-0.4,3.1-2.8,4.6-5.8,4.4v0.4h2.7v13.7c-0.3,4.8,2.9,6.2,7,5.4
			c0.6-0.1,1.1-0.3,1.4-0.4v-0.4c-2.7,1.2-5.3,0-5-3.3c0,0,0-15.1,0-15.1h5V8.3h-5V3.9z M146.8,24c0,0,0-8.9,0-8.9
			c1.2-7.3-9.5-10.1-11.7-3.3h-0.1c0.1-2.8,0-8.6,0-11.5h-6.4v0.4c2.2-0.2,3.2,1.1,3.1,3.2c0,0,0,20.1,0,20.1c0.2,2.3-1,3.5-3.2,3.3
			v0.4h9.7v-0.4c-2.2,0.2-3.2-1.1-3.1-3.3c0,0,0-9.3,0-9.3c-0.7-4.2,4.3-8.7,7.5-4.7c1.7,2.2,0.6,14.9,0.9,17.7h6.3v-0.4
			C147.5,27.5,146.7,26.1,146.8,24z M165.4,9.4c-5.9-4.7-17.2,2.8-8.4,4.3c-1-5.3,4.9-7.8,6.4-2.8c0.3,1.4,0.2,4.3,0.2,6
			c-15.3-1.6-14,13.4-2.8,10.7c1.6-0.6,2.6-1.9,3-3.7h0.1v3.8h5.4v-0.4C164.1,27.9,169.6,11.7,165.4,9.4z M157.4,27
			c-2.1-1.6-1.6-6.7-0.2-8.2c0.9-1.3,4.5-1.5,6.5-1.5C164.1,21.4,163.6,29.7,157.4,27z M177.8,3.9h-0.4c-0.4,3.1-2.8,4.6-5.8,4.4
			v0.4h2.7v13.7c-0.3,4.8,2.9,6.2,7,5.4c0.6-0.1,1.1-0.3,1.4-0.4v-0.4c-2.7,1.2-5.3,0-5-3.3c0,0,0-15.1,0-15.1h5V8.3h-5V3.9z
			 M198.5,3.9h-0.4c-0.4,3.1-2.8,4.6-5.8,4.4v0.4h2.7v13.7c-0.3,4.8,2.9,6.2,7,5.4c0.6-0.1,1.1-0.3,1.4-0.4v-0.4
			c-2.7,1.2-5.3,0-5-3.3c0,0,0-15.1,0-15.1h5V8.3h-5V3.9z M208.5,10.4c-6.7,8.9,2.1,24,12.5,15.1C227.7,16.6,219,1.6,208.5,10.4z
			 M212,26.7c-3-3.9-3-13.5,0-17.4C222.8,2.2,222.7,33.8,212,26.7z"/>
	</g>
	<g>
		<path class="st1" d="M23.5,8.7c2.7-0.2,4.7,0.2,3.5,3.3c-0.9,3.6-2.8,10.9-3.7,14.4h-0.1c-1.2-3.8-4.7-14-5.9-18h-2.3
			c-1,3.9-3.6,13.8-4.6,17.6h-0.1c-1-3.5-2.9-10.7-3.9-14.3C5.5,9.4,6.6,8.4,9.1,8.7V8.3H0.2v0.4c1.3-0.1,2.3,0.6,2.5,1.9
			c0,0,5,17.1,5,17.1h2.7l4.5-17.1l5.7,17.1h2.8l4.1-16.2c0.4-2.1,1.7-3.1,3.7-2.8V8.3h-7.7V8.7z M46,9.4c-5.9-4.7-17.2,2.8-8.4,4.3
			c-1-5.3,4.9-7.8,6.4-2.8c0.3,1.4,0.2,4.3,0.2,6c-15.3-1.6-14,13.4-2.8,10.7c1.6-0.6,2.6-1.9,3-3.7h0.1v3.8H50v-0.4
			C44.6,27.9,50.1,11.7,46,9.4z M38,27c-2.1-1.6-1.6-6.7-0.2-8.2c0.9-1.3,4.5-1.5,6.5-1.5C44.7,21.4,44.2,29.7,38,27z M63.7,8.7
			c2.5-0.3,4.8,0.3,3.6,3.3c-1.1,3.4-3.1,9.8-4.2,13.1c-1.2-3.6-3.8-9.7-5.3-13.3c-1-1.7-0.3-3.3,1.9-3.1V8.3H51v0.4
			c1.5-0.2,2.3,0.6,2.8,2c0,0,7.9,18.6,7.9,18.6c-1.4,4.8-4.2,7.1-9.4,6.7v0.4c6.1,0.6,9-2.9,10.3-8.5c0,0,5.3-16.3,5.3-16.3
			c0.6-1.9,1.4-3,3.4-2.8V8.3h-7.5V8.7z M86.9,24.3c0,0,0-16,0-16h-6.4v0.4c1.9-0.1,3.2,0.8,3.1,2.8c0,0,0,13,0,13
			c0.2,2.2-1.5,3-3.4,2.8v0.4h10.2v-0.4C88.3,27.5,86.7,26.6,86.9,24.3z M86.1,4.4c1.3-1.5-0.2-4.9-2.3-3.2
			C82.6,2.7,84.1,6.2,86.1,4.4z M95.3,11.8c0.2-5.5,8-4.1,6.8,1.7c2.3,0.2,3.4-2.2,1.9-3.8c-4.1-4-14-0.7-10.9,5.8
			c1.2,2.5,5.4,3.6,7.7,4.9c7.1,6.5-7.4,11.7-6.2,1.3c-1.3,0-2.4,1-2.3,2.5c0.3,4.8,8.4,4.5,11.2,2.4
			C111.3,16.5,95.2,17.8,95.3,11.8z M121.9,3.9h-0.4c-0.4,3.1-2.8,4.6-5.8,4.4v0.4h2.7v13.7c-0.3,4.8,2.9,6.2,7,5.4
			c0.6-0.1,1.1-0.3,1.4-0.4v-0.4c-2.7,1.2-5.3,0-5-3.3c0,0,0-15.1,0-15.1h5V8.3h-5V3.9z M146.8,24c0,0,0-8.9,0-8.9
			c1.2-7.3-9.5-10.1-11.7-3.3h-0.1c0.1-2.8,0-8.6,0-11.5h-6.4v0.4c2.2-0.2,3.2,1.1,3.1,3.2c0,0,0,20.1,0,20.1c0.2,2.3-1,3.5-3.2,3.3
			v0.4h9.7v-0.4c-2.2,0.2-3.2-1.1-3.1-3.3c0,0,0-9.3,0-9.3c-0.7-4.2,4.3-8.7,7.5-4.7c1.7,2.2,0.6,14.9,0.9,17.7h6.3v-0.4
			C147.5,27.5,146.7,26.1,146.8,24z M165.4,9.4c-5.9-4.7-17.2,2.8-8.4,4.3c-1-5.3,4.9-7.8,6.4-2.8c0.3,1.4,0.2,4.3,0.2,6
			c-15.3-1.6-14,13.4-2.8,10.7c1.6-0.6,2.6-1.9,3-3.7h0.1v3.8h5.4v-0.4C164.1,27.9,169.6,11.7,165.4,9.4z M157.4,27
			c-2.1-1.6-1.6-6.7-0.2-8.2c0.9-1.3,4.5-1.5,6.5-1.5C164.1,21.4,163.6,29.7,157.4,27z M177.8,3.9h-0.4c-0.4,3.1-2.8,4.6-5.8,4.4
			v0.4h2.7v13.7c-0.3,4.8,2.9,6.2,7,5.4c0.6-0.1,1.1-0.3,1.4-0.4v-0.4c-2.7,1.2-5.3,0-5-3.3c0,0,0-15.1,0-15.1h5V8.3h-5V3.9z
			 M198.5,3.9h-0.4c-0.4,3.1-2.8,4.6-5.8,4.4v0.4h2.7v13.7c-0.3,4.8,2.9,6.2,7,5.4c0.6-0.1,1.1-0.3,1.4-0.4v-0.4
			c-2.7,1.2-5.3,0-5-3.3c0,0,0-15.1,0-15.1h5V8.3h-5V3.9z M208.5,10.4c-6.7,8.9,2.1,24,12.5,15.1C227.7,16.6,219,1.6,208.5,10.4z
			 M212,26.7c-3-3.9-3-13.5,0-17.4C222.8,2.2,222.7,33.8,212,26.7z"/>
	</g>
</g>
</svg>
