<?xml version="1.0" encoding="utf-8"?>
<!-- Generator: Adobe Illustrator 27.5.0, SVG Export Plug-In . SVG Version: 6.00 Build 0)  -->
<svg version="1.1" id="a" xmlns="http://www.w3.org/2000/svg" xmlns:xlink="http://www.w3.org/1999/xlink" x="0px" y="0px"
	 viewBox="0 0 204.9 28.5" style="enable-background:new 0 0 204.9 28.5;" xml:space="preserve">
<style type="text/css">
	.st0{fill:#111C3C;}
	.st1{fill:none;stroke:#111C3C;stroke-width:0.5;stroke-miterlimit:10;}
</style>
<g>
	<g>
		<path class="st0" d="M7.1,11.9L7.1,11.9L7,8.3H0.6v0.4c1.9-0.1,3.2,0.8,3.1,2.8c0,0,0,13,0,13c0.2,2.2-1.5,3-3.4,2.8v0.4h10.2
			v-0.4c-5.4,1-2.9-7.9-3.4-10.7c0.1-2.1,0-4.9,1.3-6.6c2.1-2,4.4,0.3,4.1,3.2C22.1,11.3,9.3,3.1,7.1,11.9z M35.4,24.1
			c0,0,0-15.8,0-15.8h-6.4v0.4c5.1-0.8,2.5,8.8,3.1,11.5c1.2,5.1-5.7,10.9-8,4.6c-0.6-2.2-0.2-13.9-0.3-16.5h-6.4v0.4
			c8.3,0-3.8,21.5,10.9,19.2c2.5-0.5,3.7-2.5,4-5.1h0.1v4.9h6.2v-0.4C36.2,27.5,35.2,26.3,35.4,24.1z M58.6,24c0,0,0-8.9,0-8.9
			c1.2-7.3-9.5-10.1-11.7-3.3h-0.1V8.3h-6.4v0.4c2.2-0.2,3.2,1.1,3.1,3.2c0,0,0,12,0,12c0.2,2.3-1,3.5-3.2,3.3v0.4H50v-0.4
			c-2.2,0.2-3.2-1.1-3.1-3.3c0,0,0-9.3,0-9.3c-0.7-4.2,4.3-8.7,7.5-4.7c1.7,2.2,0.6,14.9,0.9,17.7h6.3v-0.4
			C59.3,27.5,58.5,26.1,58.6,24z M85.3,9.4c-5.9-4.7-17.2,2.8-8.4,4.3c-1-5.3,4.9-7.8,6.4-2.8c0.3,1.4,0.2,4.3,0.2,6
			c-15.3-1.6-14,13.4-2.8,10.7c1.6-0.6,2.6-1.9,3-3.7h0.1v3.8h5.4v-0.4C84,27.9,89.5,11.7,85.3,9.4z M77.3,27
			c-2.1-1.6-1.6-6.7-0.2-8.2c0.9-1.3,4.5-1.5,6.5-1.5C84,21.4,83.5,29.7,77.3,27z M129.1,24.3c0,0,0-9.2,0-9.2
			c1.2-7.5-9.8-10.3-11.3-2.8h-0.1c-1-5.6-9.6-6-11.1-0.6h-0.1V8.3h-6.4v0.4c1.9-0.1,3.2,0.8,3.1,2.8c0,0,0,13,0,13
			c0.1,2.1-1.3,2.9-3.2,2.8v0.4h9.7v-0.4c-2,0.1-3.2-0.9-3.1-3c0,0,0-9.2,0-9.2c-0.8-4.3,3.8-9,7.1-5.1c1.6,2.3,0.6,14.7,0.8,17.6
			h6.4v-0.4c-2,0.1-3.2-0.9-3.1-3c0,0,0-9.7,0-9.7c-0.7-4.1,3.9-8.3,7-4.6c1.6,2.3,0.5,14.7,0.8,17.6h6.4v-0.4
			C130.2,27.4,129,26.4,129.1,24.3z M137.1,10.5c-5.3,6.8-0.5,21.2,9.9,16.9c1.7-0.6,4-3.2,1.9-4.2c-0.3,3.9-5.3,5.8-8.2,3.4
			c-2.1-2.3-2-5.5-2.2-9.2h12C151.9,9.2,142.3,4.7,137.1,10.5z M146.8,17.1h-8.4C138,5.5,147.8,5.3,146.8,17.1z M170.5,24.5
			c0,0,0-24.3,0-24.3H164v0.4c3.8-0.5,3,3.9,3.1,6.3c0,2,0,4.4,0.1,6.5h-0.1c-0.4-7-10.3-7-12-0.9c-3,6.7,1.3,20.2,10.2,14.3
			c0.9-0.9,1.5-2.3,1.9-4.1h0.1v5.1h6.6v-0.4C171.8,27.5,170.3,26.6,170.5,24.5z M159.6,26.5c-3.2-4.1-3.5-22.4,5.4-16.9
			C168.8,13.9,168.3,31.5,159.6,26.5z M181.3,4.4c1.3-1.5-0.2-4.9-2.3-3.2C177.7,2.7,179.2,6.2,181.3,4.4z M182,24.3c0,0,0-16,0-16
			h-6.4v0.4c1.9-0.1,3.2,0.8,3.1,2.8c0,0,0,13,0,13c0.2,2.2-1.5,3-3.4,2.8v0.4h10.2v-0.4C183.4,27.5,181.8,26.6,182,24.3z
			 M200.7,9.4c-5.9-4.7-17.2,2.8-8.4,4.3c-1-5.3,4.9-7.8,6.4-2.8c0.3,1.4,0.2,4.3,0.2,6c-15.3-1.6-14,13.4-2.8,10.7
			c1.6-0.6,2.6-1.9,3-3.7h0.1v3.8h5.4v-0.4C199.3,27.9,204.8,11.7,200.7,9.4z M192.6,27c-2.1-1.6-1.6-6.7-0.2-8.2
			c0.9-1.3,4.5-1.5,6.5-1.5C199.3,21.4,198.9,29.7,192.6,27z"/>
	</g>
	<g>
		<path class="st1" d="M7.1,11.9L7.1,11.9L7,8.3H0.6v0.4c1.9-0.1,3.2,0.8,3.1,2.8c0,0,0,13,0,13c0.2,2.2-1.5,3-3.4,2.8v0.4h10.2
			v-0.4c-5.4,1-2.9-7.9-3.4-10.7c0.1-2.1,0-4.9,1.3-6.6c2.1-2,4.4,0.3,4.1,3.2C22.1,11.3,9.3,3.1,7.1,11.9z M35.4,24.1
			c0,0,0-15.8,0-15.8h-6.4v0.4c5.1-0.8,2.5,8.8,3.1,11.5c1.2,5.1-5.7,10.9-8,4.6c-0.6-2.2-0.2-13.9-0.3-16.5h-6.4v0.4
			c8.3,0-3.8,21.5,10.9,19.2c2.5-0.5,3.7-2.5,4-5.1h0.1v4.9h6.2v-0.4C36.2,27.5,35.2,26.3,35.4,24.1z M58.6,24c0,0,0-8.9,0-8.9
			c1.2-7.3-9.5-10.1-11.7-3.3h-0.1V8.3h-6.4v0.4c2.2-0.2,3.2,1.1,3.1,3.2c0,0,0,12,0,12c0.2,2.3-1,3.5-3.2,3.3v0.4H50v-0.4
			c-2.2,0.2-3.2-1.1-3.1-3.3c0,0,0-9.3,0-9.3c-0.7-4.2,4.3-8.7,7.5-4.7c1.7,2.2,0.6,14.9,0.9,17.7h6.3v-0.4
			C59.3,27.5,58.5,26.1,58.6,24z M85.3,9.4c-5.9-4.7-17.2,2.8-8.4,4.3c-1-5.3,4.9-7.8,6.4-2.8c0.3,1.4,0.2,4.3,0.2,6
			c-15.3-1.6-14,13.4-2.8,10.7c1.6-0.6,2.6-1.9,3-3.7h0.1v3.8h5.4v-0.4C84,27.9,89.5,11.7,85.3,9.4z M77.3,27
			c-2.1-1.6-1.6-6.7-0.2-8.2c0.9-1.3,4.5-1.5,6.5-1.5C84,21.4,83.5,29.7,77.3,27z M129.1,24.3c0,0,0-9.2,0-9.2
			c1.2-7.5-9.8-10.3-11.3-2.8h-0.1c-1-5.6-9.6-6-11.1-0.6h-0.1V8.3h-6.4v0.4c1.9-0.1,3.2,0.8,3.1,2.8c0,0,0,13,0,13
			c0.1,2.1-1.3,2.9-3.2,2.8v0.4h9.7v-0.4c-2,0.1-3.2-0.9-3.1-3c0,0,0-9.2,0-9.2c-0.8-4.3,3.8-9,7.1-5.1c1.6,2.3,0.6,14.7,0.8,17.6
			h6.4v-0.4c-2,0.1-3.2-0.9-3.1-3c0,0,0-9.7,0-9.7c-0.7-4.1,3.9-8.3,7-4.6c1.6,2.3,0.5,14.7,0.8,17.6h6.4v-0.4
			C130.2,27.4,129,26.4,129.1,24.3z M137.1,10.5c-5.3,6.8-0.5,21.2,9.9,16.9c1.7-0.6,4-3.2,1.9-4.2c-0.3,3.9-5.3,5.8-8.2,3.4
			c-2.1-2.3-2-5.5-2.2-9.2h12C151.9,9.2,142.3,4.7,137.1,10.5z M146.8,17.1h-8.4C138,5.5,147.8,5.3,146.8,17.1z M170.5,24.5
			c0,0,0-24.3,0-24.3H164v0.4c3.8-0.5,3,3.9,3.1,6.3c0,2,0,4.4,0.1,6.5h-0.1c-0.4-7-10.3-7-12-0.9c-3,6.7,1.3,20.2,10.2,14.3
			c0.9-0.9,1.5-2.3,1.9-4.1h0.1v5.1h6.6v-0.4C171.8,27.5,170.3,26.6,170.5,24.5z M159.6,26.5c-3.2-4.1-3.5-22.4,5.4-16.9
			C168.8,13.9,168.3,31.5,159.6,26.5z M181.3,4.4c1.3-1.5-0.2-4.9-2.3-3.2C177.7,2.7,179.2,6.2,181.3,4.4z M182,24.3c0,0,0-16,0-16
			h-6.4v0.4c1.9-0.1,3.2,0.8,3.1,2.8c0,0,0,13,0,13c0.2,2.2-1.5,3-3.4,2.8v0.4h10.2v-0.4C183.4,27.5,181.8,26.6,182,24.3z
			 M200.7,9.4c-5.9-4.7-17.2,2.8-8.4,4.3c-1-5.3,4.9-7.8,6.4-2.8c0.3,1.4,0.2,4.3,0.2,6c-15.3-1.6-14,13.4-2.8,10.7
			c1.6-0.6,2.6-1.9,3-3.7h0.1v3.8h5.4v-0.4C199.3,27.9,204.8,11.7,200.7,9.4z M192.6,27c-2.1-1.6-1.6-6.7-0.2-8.2
			c0.9-1.3,4.5-1.5,6.5-1.5C199.3,21.4,198.9,29.7,192.6,27z"/>
	</g>
</g>
</svg>
