<?xml version="1.0" encoding="utf-8"?>
<!-- Generator: Adobe Illustrator 27.5.0, SVG Export Plug-In . SVG Version: 6.00 Build 0)  -->
<svg version="1.1" id="a" xmlns="http://www.w3.org/2000/svg" xmlns:xlink="http://www.w3.org/1999/xlink" x="0px" y="0px"
	 viewBox="0 0 172.5 35.4" style="enable-background:new 0 0 172.5 35.4;" xml:space="preserve">
<style type="text/css">
	.st0{fill:#111C3C;}
	.st1{fill:none;stroke:#111C3C;stroke-width:0.5;stroke-miterlimit:10;}
</style>
<g>
	<g>
		<path class="st0" d="M14.1,22c-0.4,4-4.9,5.8-8,3.6c-3.1-2.9-2.4-11-1.7-14.7c1.5-6.1,8.1-4,7,1.9c7-0.5,1.3-6.9-3.1-5.9
			c-13.1-0.1-9.3,25.2,3.7,19.5C13.9,25.7,16.1,23.1,14.1,22z M20.3,9.2c-6.7,8.9,2.1,24,12.5,15.1C39.5,15.5,30.7,0.4,20.3,9.2z
			 M23.7,25.5c-3-3.9-3-13.5,0-17.4C34.5,1,34.4,32.6,23.7,25.5z M67.1,23.1c0,0,0-9.2,0-9.2c1.2-7.5-9.8-10.3-11.3-2.8h-0.1
			c-1-5.6-9.6-6-11.1-0.6h-0.1V7.1h-6.4v0.4c1.9-0.1,3.2,0.8,3.1,2.8c0,0,0,13,0,13c0.1,2.1-1.3,2.9-3.2,2.8v0.4h9.7v-0.4
			c-2,0.1-3.2-0.9-3.1-3c0,0,0-9.2,0-9.2c-0.8-4.3,3.8-9,7.1-5.1c1.6,2.3,0.6,14.7,0.8,17.6H59v-0.4c-2,0.1-3.2-0.9-3.1-3
			c0,0,0-9.7,0-9.7c-0.7-4.1,3.9-8.3,7-4.6c1.6,2.3,0.5,14.7,0.8,17.6h6.4v-0.4C68.1,26.2,66.9,25.2,67.1,23.1z M78.2,12.1
			L78.2,12.1l-0.1-5h-6.7v0.4c2-0.2,3.6,0.6,3.4,2.8c0,0,0,21.7,0,21.7c0.1,2.1-1.3,2.9-3.2,2.8v0.4h9.7v-0.4
			C76,35.6,79,24.5,78.2,21.4h0.1c1.9,10.2,14.5,4.6,12.8-4.6C92.8,7.6,80.2,2.1,78.2,12.1z M80.4,25.3c-3.1-4-4.2-17.2,2.8-17.9
			C90.3,6.9,89.2,32.1,80.4,25.3z M107.8,8.2c-5.9-4.7-17.2,2.8-8.4,4.3c-1-5.3,4.9-7.8,6.4-2.8c0.3,1.4,0.2,4.3,0.2,6
			c-15.3-1.6-14,13.4-2.8,10.7c1.6-0.6,2.6-1.9,3-3.7h0.1v3.8h5.4v-0.4C106.4,26.7,111.9,10.5,107.8,8.2z M99.8,25.8
			c-2.1-1.6-1.6-6.7-0.2-8.2c0.9-1.3,4.5-1.5,6.5-1.5C106.5,20.2,106,28.5,99.8,25.8z M132.7,22.8c0,0,0-8.9,0-8.9
			c1.2-7.3-9.5-10.1-11.7-3.3h-0.1V7.1h-6.4v0.4c2.2-0.2,3.2,1.1,3.1,3.2c0,0,0,12,0,12c0.2,2.3-1,3.5-3.2,3.3v0.4h9.7v-0.4
			c-2.2,0.2-3.2-1.1-3.1-3.3c0,0,0-9.3,0-9.3c-0.7-4.2,4.3-8.7,7.5-4.7c1.7,2.2,0.6,14.9,0.9,17.7h6.3v-0.4
			C133.4,26.3,132.6,24.9,132.7,22.8z M148.7,7.5c2.5-0.3,4.8,0.3,3.6,3.3c-1.1,3.4-3.1,9.8-4.2,13.1c-1.2-3.6-3.8-9.7-5.3-13.3
			c-1-1.7-0.3-3.3,1.9-3.1V7.1H136v0.4c1.5-0.2,2.3,0.6,2.8,2c0,0,7.9,18.6,7.9,18.6c-1.4,4.8-4.2,7.1-9.4,6.7v0.4
			c6.1,0.6,9-2.9,10.3-8.5c0,0,5.3-16.3,5.3-16.3c0.6-1.9,1.4-3,3.4-2.8V7.1h-7.5V7.5z M164.4,0.4c-4.6-1-10.5,5.4-3.7,6.4
			c-0.5-4,2.5-7.8,6.2-5.3c3,3.5,2.6,12.9-3.5,12.9l0.5,4.9h0.5l0.5-4.8C174.8,13.3,174.7-0.4,164.4,0.4z M162.8,22.4
			c-1.6,2,0.5,5.9,2.9,3.7C167.2,24.1,165.2,20.2,162.8,22.4z"/>
	</g>
	<g>
		<path class="st1" d="M14.1,22c-0.4,4-4.9,5.8-8,3.6c-3.1-2.9-2.4-11-1.7-14.7c1.5-6.1,8.1-4,7,1.9c7-0.5,1.3-6.9-3.1-5.9
			c-13.1-0.1-9.3,25.2,3.7,19.5C13.9,25.7,16.1,23.1,14.1,22z M20.3,9.2c-6.7,8.9,2.1,24,12.5,15.1C39.5,15.5,30.7,0.4,20.3,9.2z
			 M23.7,25.5c-3-3.9-3-13.5,0-17.4C34.5,1,34.4,32.6,23.7,25.5z M67.1,23.1c0,0,0-9.2,0-9.2c1.2-7.5-9.8-10.3-11.3-2.8h-0.1
			c-1-5.6-9.6-6-11.1-0.6h-0.1V7.1h-6.4v0.4c1.9-0.1,3.2,0.8,3.1,2.8c0,0,0,13,0,13c0.1,2.1-1.3,2.9-3.2,2.8v0.4h9.7v-0.4
			c-2,0.1-3.2-0.9-3.1-3c0,0,0-9.2,0-9.2c-0.8-4.3,3.8-9,7.1-5.1c1.6,2.3,0.6,14.7,0.8,17.6H59v-0.4c-2,0.1-3.2-0.9-3.1-3
			c0,0,0-9.7,0-9.7c-0.7-4.1,3.9-8.3,7-4.6c1.6,2.3,0.5,14.7,0.8,17.6h6.4v-0.4C68.1,26.2,66.9,25.2,67.1,23.1z M78.2,12.1
			L78.2,12.1l-0.1-5h-6.7v0.4c2-0.2,3.6,0.6,3.4,2.8c0,0,0,21.7,0,21.7c0.1,2.1-1.3,2.9-3.2,2.8v0.4h9.7v-0.4
			C76,35.6,79,24.5,78.2,21.4h0.1c1.9,10.2,14.5,4.6,12.8-4.6C92.8,7.6,80.2,2.1,78.2,12.1z M80.4,25.3c-3.1-4-4.2-17.2,2.8-17.9
			C90.3,6.9,89.2,32.1,80.4,25.3z M107.8,8.2c-5.9-4.7-17.2,2.8-8.4,4.3c-1-5.3,4.9-7.8,6.4-2.8c0.3,1.4,0.2,4.3,0.2,6
			c-15.3-1.6-14,13.4-2.8,10.7c1.6-0.6,2.6-1.9,3-3.7h0.1v3.8h5.4v-0.4C106.4,26.7,111.9,10.5,107.8,8.2z M99.8,25.8
			c-2.1-1.6-1.6-6.7-0.2-8.2c0.9-1.3,4.5-1.5,6.5-1.5C106.5,20.2,106,28.5,99.8,25.8z M132.7,22.8c0,0,0-8.9,0-8.9
			c1.2-7.3-9.5-10.1-11.7-3.3h-0.1V7.1h-6.4v0.4c2.2-0.2,3.2,1.1,3.1,3.2c0,0,0,12,0,12c0.2,2.3-1,3.5-3.2,3.3v0.4h9.7v-0.4
			c-2.2,0.2-3.2-1.1-3.1-3.3c0,0,0-9.3,0-9.3c-0.7-4.2,4.3-8.7,7.5-4.7c1.7,2.2,0.6,14.9,0.9,17.7h6.3v-0.4
			C133.4,26.3,132.6,24.9,132.7,22.8z M148.7,7.5c2.5-0.3,4.8,0.3,3.6,3.3c-1.1,3.4-3.1,9.8-4.2,13.1c-1.2-3.6-3.8-9.7-5.3-13.3
			c-1-1.7-0.3-3.3,1.9-3.1V7.1H136v0.4c1.5-0.2,2.3,0.6,2.8,2c0,0,7.9,18.6,7.9,18.6c-1.4,4.8-4.2,7.1-9.4,6.7v0.4
			c6.1,0.6,9-2.9,10.3-8.5c0,0,5.3-16.3,5.3-16.3c0.6-1.9,1.4-3,3.4-2.8V7.1h-7.5V7.5z M164.4,0.4c-4.6-1-10.5,5.4-3.7,6.4
			c-0.5-4,2.5-7.8,6.2-5.3c3,3.5,2.6,12.9-3.5,12.9l0.5,4.9h0.5l0.5-4.8C174.8,13.3,174.7-0.4,164.4,0.4z M162.8,22.4
			c-1.6,2,0.5,5.9,2.9,3.7C167.2,24.1,165.2,20.2,162.8,22.4z"/>
	</g>
</g>
</svg>
