<?xml version="1.0" encoding="utf-8"?>
<!-- Generator: Adobe Illustrator 27.5.0, SVG Export Plug-In . SVG Version: 6.00 Build 0)  -->
<svg version="1.1" id="a" xmlns="http://www.w3.org/2000/svg" xmlns:xlink="http://www.w3.org/1999/xlink" x="0px" y="0px"
	 viewBox="0 0 134.7 21.9" style="enable-background:new 0 0 134.7 21.9;" xml:space="preserve">
<style type="text/css">
	.st0{fill:#111C3C;}
	.st1{fill:none;stroke:#121C3D;stroke-width:0.5;stroke-miterlimit:10;}
</style>
<g>
	<g>
		<path class="st0" d="M13.8,15.2c0,0-5.4-14-5.4-14H7.3L2.7,14.7c-0.3,1.3-1.2,1.8-2.4,1.7v0.2h5.2v-0.2c-4.6,0.4-1.8-3-1.3-5.3
			c0,0,5.8,0,5.8,0l1.3,3.5c0.7,1.5-0.4,2-1.8,1.8v0.2h5.9v-0.2C14.5,16.4,14.1,16,13.8,15.2z M4.3,10.8l1.6-4.5C6.3,5,6.6,4,7,2.7
			c0.7,2.3,2.1,5.7,2.9,8H4.3z M31,13.9c0,0-3-4.7-3-4.7c3.8-0.5,4.8-6.2,1-7.5c-1.7-0.8-6.9-0.4-8.8-0.5v0.2c1-0.1,2.1,0.3,2,1.5
			c0,0,0,11.9,0,11.9c0.1,1.2-1,1.6-2,1.5v0.2h6.2v-0.2c-1.1,0.1-2.1-0.4-2-1.5c0,0,0-5.4,0-5.4h1.3c0.5,0.7,3.5,5.7,4,6.2
			c1,1.1,2.4,0.9,3.8,0.9v-0.2C32.2,16.2,31.7,14.9,31,13.9z M24.3,9.2V1.5c3-0.3,5,0.6,4.8,3.9C29.3,8.8,27.2,9.4,24.3,9.2z
			 M35.3,6.4c-3.2,4.1-0.3,12.6,5.9,10c1-0.3,2.4-1.9,1.1-2.5c-0.2,2.3-3.2,3.5-4.8,2c-1.3-1.4-1.2-3.2-1.3-5.5h7.1
			C44.1,5.6,38.4,2.9,35.3,6.4z M41.1,10.3h-5C35.9,3.4,41.7,3.2,41.1,10.3z M48.2,8v-3h-4v0.2c1.2-0.1,2.1,0.4,2,1.7
			c0,0,0,12.9,0,12.9c0.1,1.2-0.8,1.7-1.9,1.7v0.2h5.8v-0.2c-1.2,0.1-1.9-0.6-1.8-1.8c0-1.5,0-4.8,0-6.2c1.3,6.1,8.5,2.8,7.7-2.7
			C56.8,5.2,49.6,2,48.2,8z M49.6,15.8c-1.9-2.3-2.4-10.4,1.6-10.7C55.3,4.7,54.8,20,49.6,15.8z M67.9,14.4c0,0,0-9.4,0-9.4h-3.8
			v0.2c1.3-0.1,1.9,0.6,1.8,1.9c0,0,0,4.9,0,4.9c0.6,3.2-3.3,6.5-4.8,2.7C60.8,13.5,61,6.6,61,5.1h-3.8v0.2
			c4.9-0.2-2.3,12.8,6.5,11.4c1.5-0.3,2.2-1.5,2.4-3.1h0v2.9h3.7v-0.2C68.4,16.4,67.8,15.7,67.9,14.4z M74.1,8c0.1-2.4,0-5.5,0-7.8
			h-3.8v0.2c1.1-0.1,1.9,0.5,1.8,1.7c0,0,0,12.5,0,12.5c0.1,1.2-0.8,1.7-1.9,1.7v0.2h3.9v-3c0.3,3,3.4,4.1,5.7,2.6
			c2.5-1.9,2.4-7.5,0.9-9.7C78.8,3.8,74.4,4.6,74.1,8z M74.9,15c-1-1.6-1-6.8,0-8.5c0.6-1.5,2.7-1.9,3.8-0.9c1.1,1.3,1,3,1.1,5
			C80.1,14.3,78,19,74.9,15z M86.8,14.6c0,0,0-14.3,0-14.3h-4v0.2c1.2-0.1,2.1,0.4,2,1.7c0,0,0,12.5,0,12.5c0.1,1.3-0.9,1.8-2,1.7
			v0.2h6.1v-0.2C87.6,16.4,86.7,15.9,86.8,14.6z M92.8,2.7c0.8-0.9-0.1-2.9-1.3-1.9C90.7,1.7,91.6,3.8,92.8,2.7z M93.3,14.6
			c0,0,0-9.5,0-9.5h-3.8v0.2c1.1-0.1,1.9,0.5,1.8,1.7c0,0,0,7.7,0,7.7c0.1,1.3-0.9,1.8-2,1.7v0.2h6.1v-0.2
			C94.1,16.4,93.2,15.9,93.3,14.6z M104.5,13.9c-0.2,2.4-2.9,3.4-4.7,2.1c-1.9-1.7-1.4-6.5-1-8.7c1-3.7,4.7-2.5,4.2,1.1
			c4.2-0.3,0.8-4.1-1.8-3.5c-7.8,0-5.5,15,2.2,11.6C104.3,16.1,105.7,14.5,104.5,13.9z M114,5.7c-1.3-1.2-4.8-1.1-6.3,0.1
			c-1.1,1.1-0.4,2.8,1.3,2.5c0-1.1,0.1-1.9,0.4-2.4c0.6-1.3,3.4-1,3.5,0.8c0.2,0.8,0.1,2.6,0.1,3.6c-1.7,0-4.4,0.1-5.4,1
			c-3.2,2.4,0.3,7,3.8,5.4c1-0.4,1.5-1.3,1.9-2.2v2.3h3.2v-0.2C113.3,16.9,116.4,7,114,5.7z M109.2,16.2c-1.3-0.9-1-4-0.1-4.9
			c0.6-0.8,2.7-0.9,3.9-0.9C113.2,12.9,113.1,17.7,109.2,16.2z M128.4,14.4c0,0,0-5.3,0-5.3c0.7-4.4-5.6-5.9-7-2v-2h-3.8v0.2
			c1.3-0.1,1.9,0.6,1.8,1.9c0,0,0,7.2,0,7.2c0.1,1.4-0.6,2.1-1.9,2v0.2h5.8v-0.2c-1.3,0.1-1.9-0.7-1.8-2c0,0,0-5.5,0-5.5
			C121,6.3,124,3.7,125.8,6c1,1.3,0.3,8.9,0.5,10.5h3.7v-0.2C128.8,16.4,128.3,15.6,128.4,14.4z M133.9,14.2
			c-1.8-1.6-3.9,1.3-1.4,2.1c1.1,0.6,0.6,2.3-0.5,2.7c-0.3,0.3-1.2,0.3-1.2,0.7C133.5,19.3,135.4,16.3,133.9,14.2z"/>
	</g>
	<g>
		<path class="st1" d="M13.8,15.2c0,0-5.4-14-5.4-14H7.3L2.7,14.7c-0.3,1.3-1.2,1.8-2.4,1.7v0.2h5.2v-0.2c-4.6,0.4-1.8-3-1.3-5.3
			c0,0,5.8,0,5.8,0l1.3,3.5c0.7,1.5-0.4,2-1.8,1.8v0.2h5.9v-0.2C14.5,16.4,14.1,16,13.8,15.2z M4.3,10.8l1.6-4.5C6.3,5,6.6,4,7,2.7
			c0.7,2.3,2.1,5.7,2.9,8H4.3z M31,13.9c0,0-3-4.7-3-4.7c3.8-0.5,4.8-6.2,1-7.5c-1.7-0.8-6.9-0.4-8.8-0.5v0.2c1-0.1,2.1,0.3,2,1.5
			c0,0,0,11.9,0,11.9c0.1,1.2-1,1.6-2,1.5v0.2h6.2v-0.2c-1.1,0.1-2.1-0.4-2-1.5c0,0,0-5.4,0-5.4h1.3c0.5,0.7,3.5,5.7,4,6.2
			c1,1.1,2.4,0.9,3.8,0.9v-0.2C32.2,16.2,31.7,14.9,31,13.9z M24.3,9.2V1.5c3-0.3,5,0.6,4.8,3.9C29.3,8.8,27.2,9.4,24.3,9.2z
			 M35.3,6.4c-3.2,4.1-0.3,12.6,5.9,10c1-0.3,2.4-1.9,1.1-2.5c-0.2,2.3-3.2,3.5-4.8,2c-1.3-1.4-1.2-3.2-1.3-5.5h7.1
			C44.1,5.6,38.4,2.9,35.3,6.4z M41.1,10.3h-5C35.9,3.4,41.7,3.2,41.1,10.3z M48.2,8v-3h-4v0.2c1.2-0.1,2.1,0.4,2,1.7
			c0,0,0,12.9,0,12.9c0.1,1.2-0.8,1.7-1.9,1.7v0.2h5.8v-0.2c-1.2,0.1-1.9-0.6-1.8-1.8c0-1.5,0-4.8,0-6.2c1.3,6.1,8.5,2.8,7.7-2.7
			C56.8,5.2,49.6,2,48.2,8z M49.6,15.8c-1.9-2.3-2.4-10.4,1.6-10.7C55.3,4.7,54.8,20,49.6,15.8z M67.9,14.4c0,0,0-9.4,0-9.4h-3.8
			v0.2c1.3-0.1,1.9,0.6,1.8,1.9c0,0,0,4.9,0,4.9c0.6,3.2-3.3,6.5-4.8,2.7C60.8,13.5,61,6.6,61,5.1h-3.8v0.2
			c4.9-0.2-2.3,12.8,6.5,11.4c1.5-0.3,2.2-1.5,2.4-3.1h0v2.9h3.7v-0.2C68.4,16.4,67.8,15.7,67.9,14.4z M74.1,8c0.1-2.4,0-5.5,0-7.8
			h-3.8v0.2c1.1-0.1,1.9,0.5,1.8,1.7c0,0,0,12.5,0,12.5c0.1,1.2-0.8,1.7-1.9,1.7v0.2h3.9v-3c0.3,3,3.4,4.1,5.7,2.6
			c2.5-1.9,2.4-7.5,0.9-9.7C78.8,3.8,74.4,4.6,74.1,8z M74.9,15c-1-1.6-1-6.8,0-8.5c0.6-1.5,2.7-1.9,3.8-0.9c1.1,1.3,1,3,1.1,5
			C80.1,14.3,78,19,74.9,15z M86.8,14.6c0,0,0-14.3,0-14.3h-4v0.2c1.2-0.1,2.1,0.4,2,1.7c0,0,0,12.5,0,12.5c0.1,1.3-0.9,1.8-2,1.7
			v0.2h6.1v-0.2C87.6,16.4,86.7,15.9,86.8,14.6z M92.8,2.7c0.8-0.9-0.1-2.9-1.3-1.9C90.7,1.7,91.6,3.8,92.8,2.7z M93.3,14.6
			c0,0,0-9.5,0-9.5h-3.8v0.2c1.1-0.1,1.9,0.5,1.8,1.7c0,0,0,7.7,0,7.7c0.1,1.3-0.9,1.8-2,1.7v0.2h6.1v-0.2
			C94.1,16.4,93.2,15.9,93.3,14.6z M104.5,13.9c-0.2,2.4-2.9,3.4-4.7,2.1c-1.9-1.7-1.4-6.5-1-8.7c1-3.7,4.7-2.5,4.2,1.1
			c4.2-0.3,0.8-4.1-1.8-3.5c-7.8,0-5.5,15,2.2,11.6C104.3,16.1,105.7,14.5,104.5,13.9z M114,5.7c-1.3-1.2-4.8-1.1-6.3,0.1
			c-1.1,1.1-0.4,2.8,1.3,2.5c0-1.1,0.1-1.9,0.4-2.4c0.6-1.3,3.4-1,3.5,0.8c0.2,0.8,0.1,2.6,0.1,3.6c-1.7,0-4.4,0.1-5.4,1
			c-3.2,2.4,0.3,7,3.8,5.4c1-0.4,1.5-1.3,1.9-2.2v2.3h3.2v-0.2C113.3,16.9,116.4,7,114,5.7z M109.2,16.2c-1.3-0.9-1-4-0.1-4.9
			c0.6-0.8,2.7-0.9,3.9-0.9C113.2,12.9,113.1,17.7,109.2,16.2z M128.4,14.4c0,0,0-5.3,0-5.3c0.7-4.4-5.6-5.9-7-2v-2h-3.8v0.2
			c1.3-0.1,1.9,0.6,1.8,1.9c0,0,0,7.2,0,7.2c0.1,1.4-0.6,2.1-1.9,2v0.2h5.8v-0.2c-1.3,0.1-1.9-0.7-1.8-2c0,0,0-5.5,0-5.5
			C121,6.3,124,3.7,125.8,6c1,1.3,0.3,8.9,0.5,10.5h3.7v-0.2C128.8,16.4,128.3,15.6,128.4,14.4z M133.9,14.2
			c-1.8-1.6-3.9,1.3-1.4,2.1c1.1,0.6,0.6,2.3-0.5,2.7c-0.3,0.3-1.2,0.3-1.2,0.7C133.5,19.3,135.4,16.3,133.9,14.2z"/>
	</g>
</g>
</svg>
