<?xml version="1.0" encoding="utf-8"?>
<!-- Generator: Adobe Illustrator 27.5.0, SVG Export Plug-In . SVG Version: 6.00 Build 0)  -->
<svg version="1.1" id="a" xmlns="http://www.w3.org/2000/svg" xmlns:xlink="http://www.w3.org/1999/xlink" x="0px" y="0px"
	 viewBox="0 0 91 17.1" style="enable-background:new 0 0 91 17.1;" xml:space="preserve">
<style type="text/css">
	.st0{fill:#111C3C;}
	.st1{fill:none;stroke:#121C3D;stroke-width:0.5;stroke-miterlimit:10;}
</style>
<g>
	<g>
		<path class="st0" d="M14.1,5.3c1.7-0.1,2.8,0,2.1,2c0,0-1.4,5.4-1.4,5.4c-0.8,2.6-0.5,4.7-1.7,0.7c-0.1-0.2-2.5-7.7-2.7-8.2
			c0,0-1.4,0-1.4,0c-0.2,0.8-2,7.7-2.2,8.3c-0.6,2.5-0.5,2.7-1.2,0C5.5,12.8,4.2,7.9,4,7.1c-0.5-1.5,0-2,1.6-1.8V5.1H0.2v0.2
			C1,5.2,1.6,5.6,1.7,6.4c0,0,3,10.1,3,10.1h1.6L9,6.4l3.4,10.2H14l2.5-9.6c0.2-1.2,1-1.8,2.2-1.7V5.1h-4.6V5.3z M27,5.7
			c-1.3-1.2-4.8-1.1-6.3,0.1c-1.1,1.1-0.4,2.8,1.3,2.5c0-1.1,0.1-1.9,0.4-2.4c0.6-1.3,3.4-1,3.5,0.8C26,7.4,26,9.2,26,10.2
			c-1.7,0-4.4,0.1-5.4,1c-3.2,2.4,0.3,7,3.8,5.4c1-0.4,1.5-1.3,1.9-2.2v2.3h3.2v-0.2C26.3,16.9,29.4,7,27,5.7z M22.2,16.2
			c-1.3-0.9-1-4-0.1-4.9c0.6-0.8,2.7-0.9,3.9-0.9C26.2,12.9,26.1,17.7,22.2,16.2z M34.2,14.6c0,0,0-14.3,0-14.3h-4v0.2
			c1.2-0.1,2.1,0.4,2,1.7c0,0,0,12.5,0,12.5c0.1,1.3-0.9,1.8-2,1.7v0.2h6.1v-0.2C35,16.4,34.1,15.9,34.2,14.6z M46.3,14.2
			c0,0-3.3-5.1-3.3-5.1c1.4-1.4,2.8-4,4.9-3.8V5.1h-4.7v0.2c2.4-0.1,2.3,0.9,0.9,2.3c0,0-3.6,4.1-3.6,4.1c0.1-1.8,0-9.5,0-11.4h-3.8
			v0.2c1.1-0.1,1.9,0.5,1.8,1.7c0,0,0,12.5,0,12.5c0.1,1.2-0.8,1.7-1.9,1.7v0.2h5.8v-0.2c-2.5,0.3-1.7-2.9-1.8-4.3
			c0,0,1.3-1.4,1.3-1.4c0.4,0.6,2.9,4.7,3.3,5.1c0.9,1,2.4,0.8,3.6,0.8v-0.2C47.4,16.3,47.1,15.3,46.3,14.2z M56.6,2.7
			c0.8-0.9-0.1-2.9-1.3-1.9C54.5,1.7,55.4,3.8,56.6,2.7z M57.1,14.6c0,0,0-9.5,0-9.5h-3.8v0.2c1.1-0.1,1.9,0.5,1.8,1.7
			c0,0,0,7.7,0,7.7c0.1,1.3-0.9,1.8-2,1.7v0.2h6.1v-0.2C57.9,16.4,57,15.9,57.1,14.6z M70.5,14.4c0,0,0-5.3,0-5.3
			c0.7-4.4-5.6-5.9-7-2v-2h-3.8v0.2c1.3-0.1,1.9,0.6,1.8,1.9c0,0,0,7.2,0,7.2c0.1,1.4-0.6,2.1-1.9,2v0.2h5.8v-0.2
			c-1.3,0.1-1.9-0.7-1.8-2c0,0,0-5.5,0-5.5c-0.4-2.5,2.6-5.2,4.4-2.8c1,1.3,0.3,8.9,0.5,10.5h3.7v-0.2
			C70.9,16.4,70.4,15.6,70.5,14.4z M76.4,2.4h-0.2c-0.2,1.8-1.6,2.7-3.4,2.6v0.2h1.6v8.2c-0.2,2.8,1.7,3.7,4.2,3.2
			c0.4-0.1,0.9-0.1,0.8-0.5c-1.6,0.7-3.2,0-3-2c0,0,0-9,0-9h3V5.1h-3V2.4z M81.9,6.3c-3.9,5.4,1.1,14.2,7.4,9
			C93.3,9.9,88.2,1.1,81.9,6.3z M83.9,16c-1.8-2.3-1.8-8,0-10.3c3.5-2.2,4.9,2,4.6,5.2C88.9,13.9,87.4,18.2,83.9,16z"/>
	</g>
	<g>
		<path class="st1" d="M14.1,5.3c1.7-0.1,2.8,0,2.1,2c0,0-1.4,5.4-1.4,5.4c-0.8,2.6-0.5,4.7-1.7,0.7c-0.1-0.2-2.5-7.7-2.7-8.2
			c0,0-1.4,0-1.4,0c-0.2,0.8-2,7.7-2.2,8.3c-0.6,2.5-0.5,2.7-1.2,0C5.5,12.8,4.2,7.9,4,7.1c-0.5-1.5,0-2,1.6-1.8V5.1H0.2v0.2
			C1,5.2,1.6,5.6,1.7,6.4c0,0,3,10.1,3,10.1h1.6L9,6.4l3.4,10.2H14l2.5-9.6c0.2-1.2,1-1.8,2.2-1.7V5.1h-4.6V5.3z M27,5.7
			c-1.3-1.2-4.8-1.1-6.3,0.1c-1.1,1.1-0.4,2.8,1.3,2.5c0-1.1,0.1-1.9,0.4-2.4c0.6-1.3,3.4-1,3.5,0.8C26,7.4,26,9.2,26,10.2
			c-1.7,0-4.4,0.1-5.4,1c-3.2,2.4,0.3,7,3.8,5.4c1-0.4,1.5-1.3,1.9-2.2v2.3h3.2v-0.2C26.3,16.9,29.4,7,27,5.7z M22.2,16.2
			c-1.3-0.9-1-4-0.1-4.9c0.6-0.8,2.7-0.9,3.9-0.9C26.2,12.9,26.1,17.7,22.2,16.2z M34.2,14.6c0,0,0-14.3,0-14.3h-4v0.2
			c1.2-0.1,2.1,0.4,2,1.7c0,0,0,12.5,0,12.5c0.1,1.3-0.9,1.8-2,1.7v0.2h6.1v-0.2C35,16.4,34.1,15.9,34.2,14.6z M46.3,14.2
			c0,0-3.3-5.1-3.3-5.1c1.4-1.4,2.8-4,4.9-3.8V5.1h-4.7v0.2c2.4-0.1,2.3,0.9,0.9,2.3c0,0-3.6,4.1-3.6,4.1c0.1-1.8,0-9.5,0-11.4h-3.8
			v0.2c1.1-0.1,1.9,0.5,1.8,1.7c0,0,0,12.5,0,12.5c0.1,1.2-0.8,1.7-1.9,1.7v0.2h5.8v-0.2c-2.5,0.3-1.7-2.9-1.8-4.3
			c0,0,1.3-1.4,1.3-1.4c0.4,0.6,2.9,4.7,3.3,5.1c0.9,1,2.4,0.8,3.6,0.8v-0.2C47.4,16.3,47.1,15.3,46.3,14.2z M56.6,2.7
			c0.8-0.9-0.1-2.9-1.3-1.9C54.5,1.7,55.4,3.8,56.6,2.7z M57.1,14.6c0,0,0-9.5,0-9.5h-3.8v0.2c1.1-0.1,1.9,0.5,1.8,1.7
			c0,0,0,7.7,0,7.7c0.1,1.3-0.9,1.8-2,1.7v0.2h6.1v-0.2C57.9,16.4,57,15.9,57.1,14.6z M70.5,14.4c0,0,0-5.3,0-5.3
			c0.7-4.4-5.6-5.9-7-2v-2h-3.8v0.2c1.3-0.1,1.9,0.6,1.8,1.9c0,0,0,7.2,0,7.2c0.1,1.4-0.6,2.1-1.9,2v0.2h5.8v-0.2
			c-1.3,0.1-1.9-0.7-1.8-2c0,0,0-5.5,0-5.5c-0.4-2.5,2.6-5.2,4.4-2.8c1,1.3,0.3,8.9,0.5,10.5h3.7v-0.2
			C70.9,16.4,70.4,15.6,70.5,14.4z M76.4,2.4h-0.2c-0.2,1.8-1.6,2.7-3.4,2.6v0.2h1.6v8.2c-0.2,2.8,1.7,3.7,4.2,3.2
			c0.4-0.1,0.9-0.1,0.8-0.5c-1.6,0.7-3.2,0-3-2c0,0,0-9,0-9h3V5.1h-3V2.4z M81.9,6.3c-3.9,5.4,1.1,14.2,7.4,9
			C93.3,9.9,88.2,1.1,81.9,6.3z M83.9,16c-1.8-2.3-1.8-8,0-10.3c3.5-2.2,4.9,2,4.6,5.2C88.9,13.9,87.4,18.2,83.9,16z"/>
	</g>
</g>
</svg>
