<?xml version="1.0" encoding="utf-8"?>
<!-- Generator: Adobe Illustrator 27.5.0, SVG Export Plug-In . SVG Version: 6.00 Build 0)  -->
<svg version="1.1" id="a" xmlns="http://www.w3.org/2000/svg" xmlns:xlink="http://www.w3.org/1999/xlink" x="0px" y="0px"
	 viewBox="0 0 49.9 17.1" style="enable-background:new 0 0 49.9 17.1;" xml:space="preserve">
<style type="text/css">
	.st0{fill:#111C3C;}
	.st1{fill:none;stroke:#121C3D;stroke-width:0.5;stroke-miterlimit:10;}
</style>
<g>
	<g>
		<path class="st0" d="M8,5.7C6.6,4.5,3.2,4.5,1.7,5.7C0.6,6.8,1.3,8.5,3,8.2c0-1.1,0.1-1.9,0.4-2.4c0.6-1.3,3.4-1,3.5,0.8
			C7,7.4,6.9,9.2,6.9,10.2c-1.7,0-4.4,0.1-5.4,1c-3.2,2.4,0.3,7,3.8,5.4c1-0.4,1.5-1.3,1.9-2.2v2.3h3.2v-0.2C7.2,16.9,10.4,7,8,5.7z
			 M3.2,16.2c-1.3-0.9-1-4-0.1-4.9c0.6-0.8,2.7-0.9,3.9-0.9C7.1,12.9,7.1,17.7,3.2,16.2z M19.5,8c0.1-2.4,0-5.5,0-7.8h-3.8v0.2
			c1.1-0.1,1.9,0.5,1.8,1.7c0,0,0,12.5,0,12.5c0.1,1.2-0.8,1.7-1.9,1.7v0.2h3.9v-3c0.3,3,3.4,4.1,5.7,2.6c2.5-1.9,2.4-7.5,0.9-9.7
			C24.3,3.8,19.8,4.6,19.5,8z M20.3,15c-1-1.6-1-6.8,0-8.5c0.6-1.5,2.7-1.9,3.8-0.9c1.1,1.3,1,3,1.1,5C25.6,14.3,23.4,19,20.3,15z
			 M36.7,5.7c-1.3-1.2-4.8-1.1-6.3,0.1c-1.1,1.1-0.4,2.8,1.3,2.5c0-1.1,0.1-1.9,0.4-2.4c0.6-1.3,3.4-1,3.5,0.8
			c0.2,0.8,0.1,2.6,0.1,3.6c-1.7,0-4.4,0.1-5.4,1c-3.2,2.4,0.3,7,3.8,5.4c1-0.4,1.5-1.3,1.9-2.2v2.3h3.2v-0.2
			C35.9,16.9,39.1,7,36.7,5.7z M31.9,16.2c-1.3-0.9-1-4-0.1-4.9c0.6-0.8,2.7-0.9,3.9-0.9C35.9,12.9,35.8,17.7,31.9,16.2z M47.3,7.9
			c1.7,0.2,2.7-1.6,1.4-2.7c-1.7-1.1-4.3,0-4.7,1.9V5.1h-3.8v0.2c1.1-0.1,1.9,0.5,1.8,1.7c0,0,0,7.7,0,7.7c0.1,1.3-0.9,1.8-2,1.7
			v0.2h6.1v-0.2c-1.2,0.1-2.1-0.4-2-1.8c0,0,0-4.6,0-4.6c0-1.2,0-2.9,0.8-3.9C46.1,4.8,47.5,6.2,47.3,7.9z M47.6,14.1
			c-0.9,1.2,0.3,3.5,1.7,2.2C50.3,15.2,49,12.8,47.6,14.1z"/>
	</g>
	<g>
		<path class="st1" d="M8,5.7C6.6,4.5,3.2,4.5,1.7,5.7C0.6,6.8,1.3,8.5,3,8.2c0-1.1,0.1-1.9,0.4-2.4c0.6-1.3,3.4-1,3.5,0.8
			C7,7.4,6.9,9.2,6.9,10.2c-1.7,0-4.4,0.1-5.4,1c-3.2,2.4,0.3,7,3.8,5.4c1-0.4,1.5-1.3,1.9-2.2v2.3h3.2v-0.2C7.2,16.9,10.4,7,8,5.7z
			 M3.2,16.2c-1.3-0.9-1-4-0.1-4.9c0.6-0.8,2.7-0.9,3.9-0.9C7.1,12.9,7.1,17.7,3.2,16.2z M19.5,8c0.1-2.4,0-5.5,0-7.8h-3.8v0.2
			c1.1-0.1,1.9,0.5,1.8,1.7c0,0,0,12.5,0,12.5c0.1,1.2-0.8,1.7-1.9,1.7v0.2h3.9v-3c0.3,3,3.4,4.1,5.7,2.6c2.5-1.9,2.4-7.5,0.9-9.7
			C24.3,3.8,19.8,4.6,19.5,8z M20.3,15c-1-1.6-1-6.8,0-8.5c0.6-1.5,2.7-1.9,3.8-0.9c1.1,1.3,1,3,1.1,5C25.6,14.3,23.4,19,20.3,15z
			 M36.7,5.7c-1.3-1.2-4.8-1.1-6.3,0.1c-1.1,1.1-0.4,2.8,1.3,2.5c0-1.1,0.1-1.9,0.4-2.4c0.6-1.3,3.4-1,3.5,0.8
			c0.2,0.8,0.1,2.6,0.1,3.6c-1.7,0-4.4,0.1-5.4,1c-3.2,2.4,0.3,7,3.8,5.4c1-0.4,1.5-1.3,1.9-2.2v2.3h3.2v-0.2
			C35.9,16.9,39.1,7,36.7,5.7z M31.9,16.2c-1.3-0.9-1-4-0.1-4.9c0.6-0.8,2.7-0.9,3.9-0.9C35.9,12.9,35.8,17.7,31.9,16.2z M47.3,7.9
			c1.7,0.2,2.7-1.6,1.4-2.7c-1.7-1.1-4.3,0-4.7,1.9V5.1h-3.8v0.2c1.1-0.1,1.9,0.5,1.8,1.7c0,0,0,7.7,0,7.7c0.1,1.3-0.9,1.8-2,1.7
			v0.2h6.1v-0.2c-1.2,0.1-2.1-0.4-2-1.8c0,0,0-4.6,0-4.6c0-1.2,0-2.9,0.8-3.9C46.1,4.8,47.5,6.2,47.3,7.9z M47.6,14.1
			c-0.9,1.2,0.3,3.5,1.7,2.2C50.3,15.2,49,12.8,47.6,14.1z"/>
	</g>
</g>
</svg>
