<?xml version="1.0" encoding="utf-8"?>
<!-- Generator: Adobe Illustrator 27.5.0, SVG Export Plug-In . SVG Version: 6.00 Build 0)  -->
<svg version="1.1" id="a" xmlns="http://www.w3.org/2000/svg" xmlns:xlink="http://www.w3.org/1999/xlink" x="0px" y="0px"
	 viewBox="0 0 51.8 21.6" style="enable-background:new 0 0 51.8 21.6;" xml:space="preserve">
<style type="text/css">
	.st0{fill:#111C3C;}
	.st1{fill:none;stroke:#121C3D;stroke-width:0.5;stroke-miterlimit:10;}
</style>
<g>
	<g>
		<path class="st0" d="M4.4,2.4C5.2,1.5,4.3-0.5,3,0.5C2.3,1.4,3.1,3.5,4.4,2.4z M1,5c1.1-0.1,1.9,0.5,1.8,1.7c0,0,0,9.8,0,9.8
			c-0.1,2.3,0,4.8-2.6,4.7v0.2h0.3c2.9,0.1,4.4-2,4.2-5c0,0,0-11.7,0-11.7H1V5z M17.8,14.1c0,0,0-9.4,0-9.4h-3.8V5
			c1.3-0.1,1.9,0.6,1.8,1.9c0,0,0,4.9,0,4.9c0.6,3.2-3.3,6.5-4.8,2.7c-0.4-1.3-0.1-8.3-0.2-9.8H7V5c4.9-0.2-2.3,12.8,6.5,11.4
			c1.5-0.3,2.2-1.5,2.4-3.1h0v2.9h3.7V16C18.3,16.1,17.7,15.4,17.8,14.1z M27.1,10.5c-1.4-1.2-4.8-1.3-4.7-3.7c0.2-3.3,4.7-2.5,4,1
			c1.3,0.1,2-1.3,1.2-2.3c-1.3-1.4-4.4-1.2-5.7-0.2c-3.2,3.2,1.1,5.5,3.8,6.6c4.2,3.8-4.3,7-3.7,0.8c-0.8,0-1.4,0.6-1.3,1.5
			c0.2,2.9,5,2.7,6.6,1.4C28.8,14.5,28.8,11.6,27.1,10.5z M32.9,2.1h-0.2c-0.2,1.8-1.6,2.7-3.4,2.6V5h1.6v8.2
			c-0.2,2.8,1.7,3.7,4.2,3.2c0.4-0.1,0.9-0.1,0.8-0.5c-1.6,0.7-3.2,0-3-2c0,0,0-9,0-9h3V4.7h-3V2.1z M49.1,5.4
			c-1.3-1.2-4.8-1.1-6.3,0.1c-1.1,1.1-0.4,2.8,1.3,2.5c0-1.1,0.1-1.9,0.4-2.4c0.6-1.3,3.4-1,3.5,0.8c0.2,0.8,0.1,2.6,0.1,3.6
			c-1.7,0-4.4,0.1-5.4,1c-3.2,2.4,0.3,7,3.8,5.4c1-0.4,1.5-1.3,1.9-2.2v2.3h3.2V16C48.4,16.6,51.6,6.7,49.1,5.4z M44.4,15.8
			c-1.3-0.9-1-4-0.1-4.9c0.6-0.8,2.7-0.9,3.9-0.9C48.3,12.6,48.2,17.4,44.4,15.8z"/>
	</g>
	<g>
		<path class="st1" d="M4.4,2.4C5.2,1.5,4.3-0.5,3,0.5C2.3,1.4,3.1,3.5,4.4,2.4z M1,5c1.1-0.1,1.9,0.5,1.8,1.7c0,0,0,9.8,0,9.8
			c-0.1,2.3,0,4.8-2.6,4.7v0.2h0.3c2.9,0.1,4.4-2,4.2-5c0,0,0-11.7,0-11.7H1V5z M17.8,14.1c0,0,0-9.4,0-9.4h-3.8V5
			c1.3-0.1,1.9,0.6,1.8,1.9c0,0,0,4.9,0,4.9c0.6,3.2-3.3,6.5-4.8,2.7c-0.4-1.3-0.1-8.3-0.2-9.8H7V5c4.9-0.2-2.3,12.8,6.5,11.4
			c1.5-0.3,2.2-1.5,2.4-3.1h0v2.9h3.7V16C18.3,16.1,17.7,15.4,17.8,14.1z M27.1,10.5c-1.4-1.2-4.8-1.3-4.7-3.7c0.2-3.3,4.7-2.5,4,1
			c1.3,0.1,2-1.3,1.2-2.3c-1.3-1.4-4.4-1.2-5.7-0.2c-3.2,3.2,1.1,5.5,3.8,6.6c4.2,3.8-4.3,7-3.7,0.8c-0.8,0-1.4,0.6-1.3,1.5
			c0.2,2.9,5,2.7,6.6,1.4C28.8,14.5,28.8,11.6,27.1,10.5z M32.9,2.1h-0.2c-0.2,1.8-1.6,2.7-3.4,2.6V5h1.6v8.2
			c-0.2,2.8,1.7,3.7,4.2,3.2c0.4-0.1,0.9-0.1,0.8-0.5c-1.6,0.7-3.2,0-3-2c0,0,0-9,0-9h3V4.7h-3V2.1z M49.1,5.4
			c-1.3-1.2-4.8-1.1-6.3,0.1c-1.1,1.1-0.4,2.8,1.3,2.5c0-1.1,0.1-1.9,0.4-2.4c0.6-1.3,3.4-1,3.5,0.8c0.2,0.8,0.1,2.6,0.1,3.6
			c-1.7,0-4.4,0.1-5.4,1c-3.2,2.4,0.3,7,3.8,5.4c1-0.4,1.5-1.3,1.9-2.2v2.3h3.2V16C48.4,16.6,51.6,6.7,49.1,5.4z M44.4,15.8
			c-1.3-0.9-1-4-0.1-4.9c0.6-0.8,2.7-0.9,3.9-0.9C48.3,12.6,48.2,17.4,44.4,15.8z"/>
	</g>
</g>
</svg>
