<?xml version="1.0" encoding="utf-8"?>
<!-- Generator: Adobe Illustrator 27.5.0, SVG Export Plug-In . SVG Version: 6.00 Build 0)  -->
<svg version="1.1" id="a" xmlns="http://www.w3.org/2000/svg" xmlns:xlink="http://www.w3.org/1999/xlink" x="0px" y="0px"
	 viewBox="0 0 469.5 33.2" style="enable-background:new 0 0 469.5 33.2;" xml:space="preserve">
<style type="text/css">
	.st0{fill:#121C3D;stroke:#121C3D;stroke-width:0.5;stroke-miterlimit:10;}
</style>
<g>
	<path class="st0" d="M9.8,30.1c-0.2-0.3-0.4-0.9-0.4-1.7c0-0.8,0-1.6,0-2.5V11.2c0-0.7,0-1.4,0-2.2c0-0.7,0-1.4,0-2.2
		c0-0.7,0-1.4,0.1-2.2s0.2-1.4,0.4-1.9c0.4-0.7,0.9-1.2,1.6-1.4c0.7-0.2,1.4-0.4,2-0.5V0.5H0.4V1c0.8,0.1,1.4,0.2,2,0.5
		C3,1.6,3.5,2,3.9,2.5C4.1,2.7,4.2,3,4.3,3.4c0.1,0.4,0.2,0.8,0.2,1.2C4.6,5,4.6,5.5,4.6,6v12.7c0,0.9,0,1.7,0,2.6
		c0,0.8,0,1.6,0,2.3c0,0.7,0,1.3,0,1.7c0,0.5,0,1,0,1.4c0,0.5,0,0.9-0.1,1.4c0,0.4-0.1,0.8-0.2,1.1C4.2,29.6,4,29.8,3.9,30
		c-0.4,0.5-1,0.9-1.6,1.1s-1.3,0.5-2,0.6v0.4h13.3v-0.4c-0.6-0.1-1.3-0.2-2.1-0.5S10.2,30.6,9.8,30.1z"/>
	<path class="st0" d="M31.1,11.4H23V7.5h-0.3l-6.3,6V14h3.2c0,1.9,0,4.1,0,6.6c0,2.5,0,5.1,0,7.8c0,0.5,0.1,0.9,0.4,1.4
		c0.3,0.5,0.6,0.9,1.1,1.2c0.4,0.4,0.9,0.6,1.5,0.8c0.6,0.2,1.2,0.3,1.8,0.3c0.9,0,1.8-0.1,2.4-0.3c0.7-0.2,1.3-0.5,1.8-0.9
		c0.5-0.4,0.9-0.8,1.2-1.3c0.3-0.5,0.5-0.9,0.7-1.4l-0.3-0.1c-0.4,0.6-0.9,1-1.5,1.3c-0.6,0.3-1.3,0.4-2.1,0.4c-1,0-1.9-0.3-2.5-1
		c-0.6-0.7-1-1.8-1-3.2V14h6.7v0L31.1,11.4z"/>
	<path class="st0" d="M35.4,1.5c-0.6-0.7-1.5-1-2.4-1c-0.7,0-1.3,0.2-1.8,0.6c-0.5,0.4-0.8,0.9-0.8,1.7c0,0.4,0.2,0.9,0.5,1.2
		s0.8,0.6,1.3,0.6c0.2,0,0.5,0,0.8-0.1c0.3-0.1,0.6-0.2,0.9-0.4c0.1,0.2,0.1,0.3,0.2,0.5c0.1,0.2,0.1,0.5,0.1,0.7
		c0,0.9-0.3,1.6-0.9,2.1c-0.6,0.5-1.4,0.8-2.4,1v0.4c0.7,0,1.4-0.1,2.1-0.3c0.7-0.2,1.3-0.6,1.8-1c0.5-0.4,0.9-0.9,1.2-1.5h0
		c0.3-0.6,0.5-1.2,0.5-2C36.3,3,36,2.2,35.4,1.5z"/>
	<path class="st0" d="M47,19.9c-0.6-0.2-1.2-0.3-2-0.5s-1.5-0.3-2.1-0.5c-0.9-0.2-1.7-0.6-2.3-1c-0.6-0.5-0.9-1.2-0.9-2.3
		c0-0.7,0.1-1.3,0.3-1.8s0.5-0.9,0.9-1.3c0.4-0.3,0.8-0.6,1.3-0.8c0.5-0.2,1-0.3,1.5-0.3c0.8,0,1.5,0.1,2.2,0.4
		c0.6,0.3,1.2,0.7,1.7,1.2c0.5,0.5,1,1.2,1.4,1.9c0.4,0.8,0.8,1.6,1.2,2.4l0.3-0.1L49.9,12c-0.8-0.3-1.7-0.6-2.7-0.8
		c-0.9-0.2-2-0.3-3.2-0.3c-1,0-1.9,0.1-2.7,0.4c-0.9,0.3-1.6,0.7-2.2,1.2c-0.7,0.5-1.2,1.2-1.5,1.9c-0.4,0.7-0.6,1.5-0.6,2.5
		c0,1.3,0.4,2.4,1,3.4c0.7,0.9,1.6,1.6,2.7,2c0.6,0.2,1.2,0.4,2,0.6c0.7,0.2,1.5,0.3,2.3,0.5c1,0.2,1.8,0.6,2.3,1.2
		c0.6,0.6,0.8,1.3,0.8,2.3c0,1.7-0.4,2.9-1.2,3.7c-0.8,0.8-1.9,1.2-3.3,1.2c-1,0-1.8-0.2-2.5-0.6c-0.7-0.4-1.3-1-1.8-1.6
		c-0.5-0.7-0.9-1.4-1.3-2.1c-0.4-0.8-0.6-1.5-0.9-2.2h-0.3v5.8c1,0.4,2,0.8,3.2,1c1.1,0.2,2.4,0.4,3.6,0.4c1.1,0,2.1-0.1,3.1-0.4
		c1-0.2,1.8-0.6,2.6-1.1c0.8-0.5,1.4-1.2,1.8-2l0,0c0.5-0.8,0.7-1.8,0.7-3c0-1.5-0.5-2.8-1.4-3.8C49.4,20.9,48.3,20.2,47,19.9z"/>
	<path class="st0" d="M74.4,29.4c-0.6,0.3-1.3,0.4-2.1,0.4c-1,0-1.9-0.3-2.5-1c-0.6-0.7-1-1.8-1-3.2V14h6.7l0,0l1.4-2.7h-8.1V7.5
		h-0.3l-6.3,6V14h3.2c0,1.9,0,4.1,0,6.6c0,2.5,0,5.1,0,7.8c0,0.5,0.1,0.9,0.4,1.4c0.3,0.5,0.6,0.9,1.1,1.2c0.4,0.4,0.9,0.6,1.5,0.8
		c0.6,0.2,1.2,0.3,1.8,0.3c0.9,0,1.8-0.1,2.4-0.3c0.7-0.2,1.3-0.5,1.8-0.9c0.5-0.4,0.9-0.8,1.2-1.3c0.3-0.5,0.5-0.9,0.7-1.4
		l-0.3-0.1C75.4,28.7,75,29.2,74.4,29.4z"/>
	<path class="st0" d="M81.1,6.4c0.7,0,1.2-0.2,1.7-0.7c0.5-0.5,0.7-1,0.7-1.7c0-0.7-0.2-1.2-0.7-1.7c-0.4-0.4-1-0.7-1.7-0.7
		c-0.7,0-1.2,0.2-1.7,0.7c-0.4,0.4-0.7,1-0.7,1.7c0,0.7,0.2,1.2,0.7,1.7C79.9,6.1,80.4,6.4,81.1,6.4z"/>
	<path class="st0" d="M84.2,31.5c-0.3-0.1-0.5-0.1-0.7-0.3s-0.3-0.3-0.4-0.6V10.9h-0.3l-5.9,1.9v0.3c0.4,0.1,0.8,0.3,1.2,0.5
		c0.4,0.2,0.7,0.4,0.9,0.5c0.2,0.1,0.3,0.3,0.4,0.5c0,0.2,0.1,0.4,0.1,0.6v15.1c0,0.3-0.1,0.5-0.3,0.7s-0.4,0.3-0.7,0.4
		c-0.3,0.1-0.6,0.2-0.9,0.2c-0.3,0-0.7,0.1-1,0.1v0.4v0h9.4v-0.4c-0.3-0.1-0.6-0.1-0.9-0.1C84.7,31.6,84.4,31.5,84.2,31.5z"/>
	<path class="st0" d="M119.5,31.4c-0.2-0.1-0.5-0.2-0.6-0.3c-0.2-0.1-0.3-0.3-0.3-0.5V17.5c0-1.9-0.4-3.5-1.3-4.7
		c-0.9-1.2-2.1-1.8-3.8-1.8c-0.8,0-1.5,0.2-2.3,0.5s-1.4,0.7-2,1.2c-0.6,0.5-1.1,1.1-1.6,1.7c-0.5,0.6-0.8,1.2-1.1,1.7h-0.1
		c-0.2-1.5-0.7-2.8-1.6-3.7c-0.9-0.9-2-1.4-3.4-1.4c-0.8,0-1.5,0.2-2.2,0.5c-0.7,0.3-1.4,0.7-2,1.1c-0.6,0.5-1.2,1-1.6,1.5
		c-0.5,0.6-0.9,1.1-1.1,1.7l-0.1,0v-4.7h-0.3L88.2,13v0.4c0.4,0.1,0.7,0.3,1.1,0.5c0.3,0.2,0.7,0.3,0.9,0.5c0.2,0.1,0.3,0.3,0.4,0.4
		s0.1,0.3,0.1,0.5v15c0,0.5-0.2,0.8-0.7,1c-0.5,0.2-1.1,0.3-1.7,0.4v0.4h8.5v-0.4c-0.3-0.1-0.6-0.1-0.8-0.1c-0.3,0-0.5,0-0.7-0.1
		c-0.2-0.1-0.4-0.2-0.5-0.3c-0.1-0.1-0.2-0.3-0.3-0.6V16.1c0.8-0.8,1.5-1.4,2.1-1.8c0.6-0.4,1.4-0.6,2.4-0.6c1.5,0,2.6,0.5,3.2,1.5
		c0.6,1,0.9,2.3,0.9,4.1v11.2c0,0.5-0.2,0.8-0.7,0.9c-0.5,0.1-1.1,0.2-1.9,0.3v0.5h8.6v-0.4c-0.3,0-0.5-0.1-0.8-0.1
		c-0.3,0-0.5-0.1-0.8-0.2c-0.2-0.1-0.4-0.2-0.6-0.3c-0.1-0.1-0.2-0.3-0.2-0.5V16.4c0.7-0.8,1.4-1.4,2-1.9c0.7-0.5,1.5-0.8,2.4-0.8
		c1.5,0,2.6,0.5,3.2,1.5c0.6,1,0.9,2.4,0.9,4.1v11.2c0,0.5-0.2,0.8-0.6,0.9c-0.4,0.1-1,0.2-1.8,0.3v0.5h8.6v-0.4
		c-0.3,0-0.5-0.1-0.8-0.1C120,31.6,119.7,31.5,119.5,31.4z"/>
	<polygon class="st0" points="112.5,32.1 112.5,32.1 112.5,32.1 	"/>
	<path class="st0" d="M138.2,28.1c-1.1,0.8-2.4,1.1-3.8,1.1c-1.3,0-2.5-0.2-3.6-0.8c-1-0.5-1.9-1.2-2.5-2c-0.7-0.9-1.2-1.9-1.5-3
		c-0.4-1.1-0.5-2.3-0.5-3.5c0-0.3,0-0.6,0-0.9c0-0.3,0-0.6,0-0.8h14.1c-0.1-1.2-0.4-2.3-0.8-3.2c-0.5-0.9-1.1-1.7-1.8-2.3
		c-0.7-0.6-1.6-1-2.6-1.3c-1-0.3-2.1-0.4-3.2-0.4c-1.4,0-2.7,0.3-3.8,0.9c-1.2,0.6-2.1,1.4-2.9,2.3c-0.8,1-1.4,2.1-1.9,3.3
		c-0.4,1.2-0.7,2.4-0.7,3.7c0,1.5,0.2,3,0.7,4.3c0.5,1.4,1.1,2.5,2,3.6s1.9,1.8,3.1,2.4c1.2,0.5,2.6,0.8,4.1,0.8
		c1.2,0,2.3-0.2,3.3-0.7c1-0.4,1.8-1,2.5-1.7c0.7-0.7,1.3-1.4,1.7-2.2l0,0c0.4-0.8,0.7-1.5,0.8-2.2l-0.3-0.1
		C140,26.5,139.3,27.4,138.2,28.1z M126.8,16c0.3-0.7,0.6-1.3,1.1-2c0.5-0.6,1-1.2,1.7-1.7c0.7-0.5,1.4-0.7,2.2-0.7
		c1.3,0,2.3,0.4,3,1.2h0c0.8,0.8,1.1,1.7,1.1,2.8c0,0.4,0,0.7-0.2,0.9c-0.1,0.2-0.3,0.4-0.5,0.7c-0.3,0.1-0.6,0.2-1,0.2
		c-0.4,0-0.8,0-1.2,0c-0.7,0-1.3,0-1.8,0c-0.5,0-1.1,0-1.6,0c-0.5,0-1,0-1.6,0h-1.8C126.4,17.2,126.6,16.7,126.8,16z"/>
	<path class="st0" d="M162.9,29.4c-0.6,0.3-1.3,0.4-2.1,0.4c-1,0-1.9-0.3-2.5-1c-0.7-0.7-1-1.8-1-3.2V14h6.7l0,0l1.4-2.7h-8.1V7.5
		h-0.3l-6.3,6V14h3.2c0,1.9,0,4.1,0,6.6c0,2.5,0,5.1,0,7.8c0,0.5,0.1,0.9,0.4,1.4c0.3,0.5,0.6,0.9,1.1,1.2c0.4,0.4,0.9,0.6,1.5,0.8
		s1.2,0.3,1.8,0.3c0.9,0,1.8-0.1,2.4-0.3c0.7-0.2,1.3-0.5,1.8-0.9c0.5-0.4,0.9-0.8,1.2-1.3c0.3-0.5,0.5-0.9,0.7-1.4l-0.3-0.1
		C164,28.7,163.5,29.2,162.9,29.4z"/>
	<path class="st0" d="M182.5,13.5c-1-0.9-2.1-1.5-3.3-1.9c-1.2-0.4-2.4-0.7-3.6-0.7c-1.6,0-3,0.3-4.3,0.9c-1.3,0.6-2.4,1.4-3.3,2.3
		c-0.9,1-1.6,2.1-2.1,3.3c-0.5,1.3-0.8,2.6-0.8,3.9c0,1.9,0.3,3.5,1,4.9c0.7,1.4,1.5,2.5,2.5,3.4c1,0.9,2.2,1.5,3.4,2
		c1.2,0.4,2.4,0.6,3.6,0.6c1.4,0,2.7-0.3,3.9-0.8s2.3-1.3,3.3-2.3c0.9-1,1.7-2.2,2.2-3.5v0c0.5-1.3,0.8-2.8,0.8-4.2
		c0-1.8-0.3-3.3-0.9-4.6C184.3,15.5,183.5,14.4,182.5,13.5z M181.4,24.7c-0.2,1.2-0.6,2.3-1.1,3.4c-0.5,1-1.1,1.9-1.9,2.6
		c-0.8,0.7-1.7,1-2.9,1c-1.1,0-2.1-0.3-2.9-0.8s-1.5-1.3-2-2.2c-0.5-0.9-0.9-2-1.1-3.2c-0.2-1.2-0.3-2.5-0.3-3.8
		c0-1.2,0.1-2.4,0.4-3.6c0.3-1.2,0.7-2.2,1.2-3.2s1.2-1.7,2-2.3c0.8-0.6,1.6-0.9,2.6-0.9c1.2,0,2.2,0.3,3,0.9c0.8,0.6,1.5,1.4,2,2.4
		c0.5,1,0.9,2,1.1,3.2l0,0c0.2,1.1,0.3,2.2,0.3,3.2S181.7,23.5,181.4,24.7z"/>
	<path class="st0" d="M218.1,17.5c-0.4-1.3-0.9-2.4-1.7-3.4c-0.7-1-1.6-1.8-2.7-2.4c-1.1-0.6-2.3-0.9-3.6-0.9
		c-0.8,0-1.6,0.2-2.5,0.4c-0.8,0.3-1.6,0.7-2.2,1.2c-0.7,0.5-1.3,1-1.8,1.6c-0.5,0.6-0.9,1.2-1.2,1.8l-0.1,0l0.1-15.6h-0.3l-5.9,2.7
		v0.3c0.5,0.3,1,0.5,1.5,0.8c0.5,0.3,0.8,0.5,1.1,0.7V32h0.3l1-2.4h0.2c0.9,0.8,2.1,1.4,3.5,1.9s2.9,0.7,4.6,0.7
		c1.5,0,2.9-0.3,4.1-0.8c1.3-0.5,2.4-1.3,3.3-2.3c0.9-1,1.6-2.1,2.2-3.4h0c0.5-1.3,0.8-2.7,0.8-4.2
		C218.7,20.1,218.5,18.8,218.1,17.5z M214.2,25.9c-0.3,1.2-0.7,2.2-1.2,3c-0.5,0.8-1.2,1.5-1.9,2c-0.7,0.5-1.6,0.7-2.5,0.7
		c-1.1,0-2-0.2-2.8-0.7s-1.4-1-1.9-1.8c-0.5-0.8-0.8-1.6-1.1-2.6c-0.2-1-0.4-1.9-0.4-2.9c0-0.6,0-1.1,0-1.7v-3.3c0-0.7,0-1.2,0-1.5
		c0-0.2,0.1-0.4,0.3-0.8c0.2-0.4,0.5-0.8,1-1.1c0.4-0.4,1-0.7,1.6-1c0.7-0.3,1.4-0.4,2.3-0.4c1.2,0,2.2,0.2,3.1,0.7
		c0.9,0.5,1.6,1.1,2.2,1.9c0.6,0.8,1,1.7,1.3,2.7l0,0c0.3,1,0.4,2.1,0.4,3.2C214.6,23.5,214.5,24.7,214.2,25.9z"/>
	<path class="st0" d="M233,10.9c-0.9,0-1.7,0.2-2.4,0.8s-1.3,1.1-1.8,1.8s-0.9,1.4-1.2,2c-0.3,0.7-0.5,1.2-0.7,1.5h-0.1l0.1-6.1
		h-0.3l-5.8,2.2v0.3c0.3,0.2,0.7,0.3,1,0.5c0.3,0.2,0.7,0.4,0.9,0.6c0.2,0.1,0.3,0.3,0.4,0.4c0.1,0.1,0.1,0.3,0.1,0.5v14.8
		c0,0.5-0.2,0.8-0.7,1c-0.5,0.2-1.1,0.3-1.7,0.4v0.4h9.8v-0.4c-0.3-0.1-0.6-0.1-1-0.1c-0.4,0-0.8,0-1.1-0.1s-0.7-0.2-1-0.3
		c-0.3-0.1-0.5-0.4-0.6-0.6V17.9c0.2-0.4,0.4-0.9,0.6-1.4s0.5-0.9,0.8-1.3c0.3-0.4,0.6-0.7,0.9-0.9c0.3-0.2,0.7-0.4,1-0.4
		c0.4,0,0.7,0.1,1,0.2c0.2,0.2,0.5,0.3,0.7,0.5c0.2,0.2,0.4,0.4,0.7,0.5c0.3,0.2,0.7,0.2,1.1,0.2c0.5,0,0.9-0.2,1.3-0.6l0,0
		c0.4-0.4,0.6-0.9,0.6-1.6s-0.3-1.2-0.8-1.7C234.3,11.1,233.7,10.9,233,10.9z"/>
	<path class="st0" d="M251.7,28.1c-1.1,0.8-2.4,1.1-3.8,1.1c-1.4,0-2.5-0.2-3.6-0.8c-1-0.5-1.9-1.2-2.6-2c-0.7-0.9-1.2-1.9-1.5-3
		c-0.3-1.1-0.5-2.3-0.5-3.5c0-0.3,0-0.6,0-0.9c0-0.3,0-0.6,0-0.8h14.1c-0.1-1.2-0.4-2.3-0.8-3.2c-0.5-0.9-1.1-1.7-1.8-2.3
		c-0.7-0.6-1.6-1-2.6-1.3c-1-0.3-2.1-0.4-3.2-0.4c-1.4,0-2.7,0.3-3.8,0.9c-1.2,0.6-2.1,1.4-2.9,2.3c-0.8,1-1.4,2.1-1.9,3.3
		c-0.4,1.2-0.7,2.4-0.7,3.7c0,1.5,0.2,3,0.7,4.3c0.5,1.4,1.1,2.5,2,3.6c0.9,1,1.9,1.8,3.1,2.4c1.2,0.5,2.6,0.8,4.1,0.8
		c1.2,0,2.3-0.2,3.3-0.7c1-0.4,1.8-1,2.5-1.7c0.7-0.7,1.3-1.4,1.7-2.2l0,0c0.4-0.8,0.7-1.5,0.8-2.2l-0.4-0.1
		C253.5,26.5,252.8,27.4,251.7,28.1z M240.3,16c0.3-0.7,0.6-1.3,1.1-2c0.5-0.6,1-1.2,1.7-1.7c0.7-0.5,1.4-0.7,2.2-0.7
		c1.3,0,2.3,0.4,3,1.2h0c0.8,0.8,1.1,1.7,1.1,2.8c0,0.4,0,0.7-0.1,0.9c-0.1,0.2-0.3,0.4-0.5,0.7c-0.3,0.1-0.6,0.2-1,0.2
		c-0.4,0-0.8,0-1.2,0c-0.7,0-1.3,0-1.8,0c-0.6,0-1.1,0-1.6,0c-0.5,0-1,0-1.6,0h-1.8C239.9,17.2,240,16.7,240.3,16z"/>
	<path class="st0" d="M273.8,28.9c-0.3,0.3-0.8,0.4-1.5,0.4c-0.6,0-1.1-0.2-1.6-0.6c-0.5-0.4-0.7-1.3-0.7-2.6c0-1,0-1.9,0-2.7
		c0-0.8,0-1.6,0-2.4c0-0.8,0-1.6,0-2.5c0-0.9,0-1.8,0-2.9c0-0.5,0-1,0-1.5c0-0.5-0.1-0.9-0.2-1.1c-0.3-0.6-0.8-1.1-1.5-1.5
		S267,11,266.3,11c-0.4,0-0.9,0.1-1.5,0.3c-0.6,0.2-1.3,0.4-2,0.7c-0.7,0.3-1.5,0.6-2.3,1c-0.8,0.4-1.6,0.8-2.3,1.3
		c-0.2,0.1-0.5,0.3-0.8,0.5c-0.3,0.2-0.6,0.4-0.9,0.6c-0.3,0.2-0.5,0.5-0.7,0.8c-0.2,0.3-0.3,0.6-0.3,1c0,0.4,0.2,0.8,0.5,1.2
		c0.3,0.3,0.7,0.5,1.2,0.5c0.5,0,1-0.2,1.4-0.5c0.4-0.3,0.6-0.7,0.6-1.1v-2c0-0.2,0.1-0.4,0.3-0.6c0.2-0.2,0.5-0.5,0.8-0.8
		c0.3-0.2,0.8-0.5,1.2-0.6c0.5-0.2,0.9-0.2,1.4-0.2c0.7,0,1.3,0.1,1.7,0.3s0.8,0.4,1,0.6s0.4,0.5,0.5,0.7c0.1,0.2,0.1,0.4,0.1,0.4
		v4.5c-0.3,0.2-0.7,0.4-1.1,0.6c-0.4,0.2-0.9,0.5-1.5,0.8c-0.5,0.3-1.2,0.7-2,1.1s-1.6,1-2.6,1.6c-1,0.6-1.8,1.3-2.4,2.1
		c-0.7,0.8-1,1.5-1,2.4c0,0.8,0.1,1.4,0.4,1.9c0.2,0.5,0.6,1,1,1.3c0.4,0.3,0.8,0.6,1.3,0.7c0.5,0.1,1,0.2,1.4,0.2
		c0.8,0,1.5-0.1,2.2-0.4s1.2-0.6,1.8-1c0.6-0.4,1-0.9,1.4-1.3c0.4-0.5,0.7-0.9,0.9-1.3l0.1,0c0,1.5,0.4,2.5,1.2,3.1
		c0.8,0.6,1.7,0.9,2.7,0.9c0.6,0,1.2-0.1,1.7-0.3c0.5-0.2,1-0.6,1.3-1c0.4-0.4,0.7-0.9,0.9-1.4l0,0c0.2-0.5,0.4-1.1,0.4-1.6h-0.3
		C274.3,28.3,274.1,28.7,273.8,28.9z M266.5,27c0,0.5-0.2,0.9-0.5,1.2c-0.5,0.5-1,0.8-1.6,1c-0.6,0.2-1.3,0.3-2,0.3
		c-0.9,0-1.5-0.3-2.1-0.9c-0.5-0.6-0.8-1.3-0.8-2.1c0-0.8,0.3-1.4,0.8-2c0.5-0.6,1.2-1.1,1.9-1.6c0.7-0.5,1.5-1,2.3-1.4
		c0.8-0.4,1.5-0.8,2-1.2V27z"/>
	<path class="st0" d="M294.4,31.5c-0.7-0.5-1.6-1.5-2.6-2.8c-0.8-1.1-1.8-2.5-3-4.2c-1.1-1.7-2.4-3.5-3.6-5.5
		c0.8-0.7,1.6-1.5,2.5-2.3c0.9-0.8,1.8-1.7,2.8-2.4c0.6-0.5,1.3-0.9,2-1.2c0.7-0.3,1.4-0.5,2-0.7c0.6-0.2,1.2-0.3,1.6-0.3
		c0.5,0,0.7-0.1,0.8-0.1v-0.4h-10.8v0.4c0.3,0,0.7,0,1.1,0.1c0.4,0.1,0.8,0.1,1.1,0.2c0.3,0.1,0.6,0.2,0.9,0.3
		c0.2,0.1,0.3,0.3,0.3,0.5s-0.3,0.6-0.8,1.2c-0.6,0.6-1.3,1.4-2.1,2.2s-1.8,1.7-2.8,2.6c-1,0.9-1.9,1.7-2.8,2.4v-21H281l-5.8,2.7
		v0.3c0.4,0.2,0.8,0.4,1.2,0.6c0.4,0.2,0.7,0.4,0.9,0.5c0.2,0.2,0.3,0.3,0.3,0.4c0,0.1,0,0.3,0,0.5v24.8c0,0.6-0.3,0.9-0.8,1.1
		c-0.5,0.2-1.2,0.3-1.8,0.3v0.4h8.7v-0.4c-0.3-0.1-0.6-0.1-0.9-0.1c-0.3,0-0.6-0.1-0.8-0.2c-0.2-0.1-0.4-0.2-0.6-0.3
		c-0.1-0.1-0.2-0.3-0.2-0.6v-8.6c0.1-0.1,0.2-0.1,0.3-0.1c0.1,0,0.2,0,0.4,0c0.4,0,0.8,0.3,1.3,1c0.4,0.6,1,1.3,1.6,2.2
		c0.6,0.9,1.2,1.7,1.7,2.5c0.6,0.8,1,1.5,1.4,2.2c0.4,0.6,0.6,1,0.6,1.2c0,0.4-0.2,0.7-0.6,0.8s-0.9,0.2-1.5,0.2v0.4l0,0h10.6v-0.4
		c-0.6,0-1.1,0-1.6-0.1S294.7,31.5,294.4,31.5z"/>
	<path class="st0" d="M317.5,29.4c-0.6,0.3-1.3,0.4-2.1,0.4c-1,0-1.9-0.3-2.5-1c-0.7-0.7-1-1.8-1-3.2V14h6.7l0,0l1.4-2.7h-8.1V7.5
		h-0.4l-6.3,6V14h3.2c0,1.9,0,4.1,0,6.6c0,2.5,0,5.1,0,7.8c0,0.5,0.1,0.9,0.4,1.4c0.3,0.5,0.6,0.9,1.1,1.2c0.4,0.4,0.9,0.6,1.5,0.8
		c0.6,0.2,1.2,0.3,1.8,0.3c0.9,0,1.8-0.1,2.4-0.3c0.7-0.2,1.3-0.5,1.8-0.9c0.5-0.4,0.9-0.8,1.2-1.3c0.3-0.5,0.5-0.9,0.7-1.4
		l-0.3-0.1C318.5,28.7,318.1,29.2,317.5,29.4z"/>
	<path class="st0" d="M339.7,31.4c-0.3-0.1-0.5-0.2-0.7-0.3c-0.2-0.2-0.3-0.3-0.3-0.5v-13c0-1-0.1-1.9-0.2-2.7
		c-0.2-0.8-0.4-1.5-0.8-2.1c-0.4-0.6-0.9-1.1-1.6-1.4c-0.7-0.3-1.4-0.5-2.4-0.5c-1,0-1.9,0.2-2.7,0.5c-0.8,0.3-1.6,0.7-2.2,1.2
		c-0.6,0.5-1.2,1-1.6,1.5c-0.4,0.5-0.7,1-0.9,1.4l-0.1,0l0.1-15.2h-0.4L320,2.9v0.3c0.4,0.2,0.8,0.5,1.2,0.6s0.7,0.4,0.9,0.6
		c0.2,0.2,0.3,0.3,0.4,0.4c0,0.1,0.1,0.3,0.1,0.5v24.9c0,0.6-0.3,0.9-0.8,1.1c-0.5,0.2-1.2,0.3-1.8,0.3v0.4h8.7v-0.4
		c-0.3-0.1-0.6-0.1-0.9-0.1c-0.3,0-0.6-0.1-0.8-0.1c-0.2-0.1-0.4-0.2-0.6-0.3c-0.1-0.1-0.2-0.4-0.2-0.6V17c0-0.2,0-0.5,0.1-0.8
		c0.1-0.3,0.2-0.5,0.2-0.6c0.4-0.6,1-1.2,1.8-1.5s1.6-0.6,2.7-0.6c0.8,0,1.5,0.2,2,0.4c0.5,0.3,0.9,0.7,1.2,1.2
		c0.3,0.5,0.5,1.2,0.6,1.9c0.1,0.7,0.2,1.5,0.2,2.4v11c0,0.5-0.3,0.8-0.8,0.9c-0.5,0.1-1.2,0.2-2,0.3v0.5h9v-0.4
		c-0.3,0-0.5-0.1-0.8-0.1C340.2,31.6,339.9,31.5,339.7,31.4z"/>
	<polygon class="st0" points="332.3,32.1 332.3,32.1 332.3,32.1 	"/>
	<path class="st0" d="M358.3,28.1c-1.1,0.8-2.4,1.1-3.8,1.1c-1.3,0-2.5-0.2-3.6-0.8c-1-0.5-1.9-1.2-2.5-2c-0.7-0.9-1.2-1.9-1.5-3
		c-0.4-1.1-0.5-2.3-0.5-3.5c0-0.3,0-0.6,0-0.9c0-0.3,0-0.6,0-0.8h14.1c-0.1-1.2-0.4-2.3-0.8-3.2c-0.5-0.9-1.1-1.7-1.8-2.3
		c-0.7-0.6-1.6-1-2.6-1.3c-1-0.3-2.1-0.4-3.2-0.4c-1.4,0-2.7,0.3-3.8,0.9c-1.1,0.6-2.1,1.4-2.9,2.3c-0.8,1-1.4,2.1-1.9,3.3
		c-0.4,1.2-0.7,2.4-0.7,3.7c0,1.5,0.2,3,0.7,4.3c0.5,1.4,1.1,2.5,2,3.6s1.9,1.8,3.1,2.4c1.2,0.5,2.6,0.8,4.1,0.8
		c1.2,0,2.3-0.2,3.3-0.7c1-0.4,1.8-1,2.5-1.7c0.7-0.7,1.3-1.4,1.7-2.2l0,0c0.4-0.8,0.7-1.5,0.8-2.2l-0.4-0.1
		C360.1,26.5,359.4,27.4,358.3,28.1z M346.9,16c0.3-0.7,0.6-1.3,1.1-2s1-1.2,1.7-1.7c0.7-0.5,1.4-0.7,2.2-0.7c1.3,0,2.3,0.4,3,1.2h0
		c0.8,0.8,1.1,1.7,1.1,2.8c0,0.4,0,0.7-0.1,0.9c-0.1,0.2-0.3,0.4-0.5,0.7c-0.3,0.1-0.6,0.2-1,0.2c-0.4,0-0.8,0-1.2,0
		c-0.7,0-1.3,0-1.8,0s-1.1,0-1.6,0c-0.5,0-1,0-1.6,0h-1.8C346.5,17.2,346.7,16.7,346.9,16z"/>
	<path class="st0" d="M390.8,31.5c-0.3-0.1-0.5-0.2-0.7-0.3c-0.2-0.2-0.3-0.3-0.3-0.5V17.7c0-2-0.5-3.6-1.4-4.9
		c-0.9-1.3-2.2-1.9-3.9-1.9c-0.8,0-1.5,0.2-2.3,0.5c-0.7,0.3-1.4,0.7-2,1.2c-0.6,0.5-1.2,1-1.6,1.6c-0.5,0.6-0.9,1.1-1.2,1.6l-0.1,0
		v-4.7h-0.3l-5.8,2.1v0.3c0.3,0.1,0.7,0.3,1,0.5c0.3,0.2,0.7,0.4,0.9,0.5c0.2,0.2,0.3,0.3,0.4,0.4c0.1,0.1,0.1,0.3,0.1,0.5v15.1
		c0,0.5-0.2,0.8-0.7,1c-0.5,0.2-1.1,0.3-1.7,0.4v0.4h8.5v-0.4c-0.3-0.1-0.6-0.1-0.8-0.1c-0.3,0-0.5-0.1-0.7-0.1
		c-0.2-0.1-0.4-0.2-0.5-0.3c-0.2-0.1-0.2-0.3-0.3-0.6V16.2c0.8-0.8,1.5-1.4,2.1-1.8c0.6-0.4,1.4-0.6,2.4-0.6c1.5,0,2.6,0.5,3.2,1.6
		c0.6,1,1,2.4,1,4.1v11.1c0,0.5-0.2,0.8-0.7,0.9c-0.5,0.1-1.1,0.2-1.9,0.3v0.5h0h8.9v-0.4c-0.3,0-0.5-0.1-0.9-0.1
		S391.1,31.5,390.8,31.5z"/>
	<path class="st0" d="M409.5,28.1c-1.1,0.8-2.4,1.1-3.8,1.1c-1.3,0-2.5-0.2-3.6-0.8c-1-0.5-1.9-1.2-2.5-2c-0.7-0.9-1.2-1.9-1.5-3
		c-0.4-1.1-0.5-2.3-0.5-3.5c0-0.3,0-0.6,0-0.9c0-0.3,0-0.6,0-0.8h14.1c-0.1-1.2-0.4-2.3-0.8-3.2c-0.5-0.9-1.1-1.7-1.8-2.3
		c-0.7-0.6-1.6-1-2.6-1.3c-1-0.3-2.1-0.4-3.2-0.4c-1.4,0-2.7,0.3-3.8,0.9c-1.2,0.6-2.1,1.4-2.9,2.3c-0.8,1-1.4,2.1-1.9,3.3
		c-0.4,1.2-0.7,2.4-0.7,3.7c0,1.5,0.2,3,0.7,4.3c0.5,1.4,1.1,2.5,2,3.6c0.9,1,1.9,1.8,3.1,2.4c1.2,0.5,2.6,0.8,4.1,0.8
		c1.2,0,2.3-0.2,3.3-0.7c1-0.4,1.8-1,2.5-1.7c0.7-0.7,1.3-1.4,1.7-2.2l0,0c0.4-0.8,0.7-1.5,0.8-2.2l-0.4-0.1
		C411.3,26.5,410.6,27.4,409.5,28.1z M398.1,16c0.3-0.7,0.6-1.3,1.1-2s1-1.2,1.7-1.7c0.7-0.5,1.4-0.7,2.2-0.7c1.3,0,2.3,0.4,3,1.2h0
		c0.8,0.8,1.1,1.7,1.1,2.8c0,0.4,0,0.7-0.1,0.9c-0.1,0.2-0.3,0.4-0.5,0.7c-0.3,0.1-0.6,0.2-1,0.2c-0.4,0-0.8,0-1.2,0
		c-0.7,0-1.3,0-1.8,0c-0.5,0-1.1,0-1.6,0c-0.5,0-1,0-1.6,0h-1.8C397.7,17.2,397.9,16.7,398.1,16z"/>
	<path class="st0" d="M437.6,11.9c0.3,0,0.6,0.1,0.9,0.1c0.3,0,0.6,0.1,0.9,0.2c0.3,0.1,0.5,0.3,0.7,0.5c0.2,0.2,0.3,0.5,0.3,0.9
		c0,0.3-0.1,0.7-0.3,1.4c-0.2,0.7-0.5,1.4-0.8,2.3c-0.3,0.9-0.7,1.8-1,2.8c-0.4,1-0.8,1.9-1.1,2.9c-0.4,0.9-0.7,1.8-1,2.5
		c-0.3,0.8-0.6,1.3-0.8,1.7c-0.3-0.7-0.6-1.5-0.9-2.4c-0.3-0.9-0.7-1.9-1-2.8c-0.4-1-0.7-1.9-1-2.9c-0.3-1-0.6-1.8-0.9-2.6
		c-0.3-0.8-0.5-1.5-0.6-2c-0.2-0.5-0.2-0.9-0.2-1c0-0.3,0.1-0.6,0.4-0.7c0.2-0.2,0.5-0.3,0.9-0.4c0.3-0.1,0.7-0.2,1-0.2
		c0.4,0,0.7-0.1,0.9-0.1v-0.5h-10v0.5c0.5,0,0.9,0.1,1.2,0.2c0.3,0.1,0.5,0.2,0.7,0.3c0.2,0.1,0.3,0.2,0.3,0.3
		c0.1,0.1,0.2,0.2,0.2,0.3c0.3,0.5,0.6,1.1,0.8,1.6c0.2,0.5,0.5,1.1,0.7,1.7c-0.4,1.1-0.8,2.1-1.2,3.2c-0.4,1.1-0.8,2.1-1.2,3.1
		c-0.4,1-0.7,1.9-1,2.7c-0.3,0.8-0.6,1.5-0.8,2.1c-0.5-1.3-1.2-2.8-1.8-4.4c-0.7-1.6-1.3-3.1-1.9-4.6c-0.6-1.4-1.1-2.7-1.5-3.7
		c-0.4-1-0.6-1.7-0.7-1.9c0.1-0.1,0.3-0.3,0.6-0.3c0.2-0.1,0.5-0.2,0.8-0.2c0.3-0.1,0.6-0.1,0.8-0.1c0.3,0,0.5-0.1,0.7-0.1v-0.5
		h-9.9v0.5c1,0,1.6,0.2,2,0.4c0.3,0.2,0.6,0.4,0.8,0.6c0.2,0.4,0.5,0.8,0.7,1.3c0.2,0.5,0.4,0.9,0.6,1.3c1.2,3,2.4,5.8,3.5,8.4
		c1.1,2.6,2.2,5.3,3.3,8.1c0.1,0.2,0.2,0.3,0.4,0.3c0.2,0,0.3-0.1,0.4-0.3c0.3-0.6,0.5-1.2,0.8-1.8c0.2-0.6,0.5-1.2,0.9-2l4.2-10.9
		c0.6,1.7,1.1,3.2,1.5,4.5c0.4,1.3,0.9,2.5,1.2,3.6s0.8,2.2,1.1,3.2c0.4,1,0.7,2.1,1.1,3.3c0,0.1,0.1,0.2,0.1,0.2
		c0,0.1,0.1,0.1,0.3,0.1c0.2,0,0.3-0.1,0.4-0.3c0.2-0.4,0.3-0.7,0.5-1s0.3-0.6,0.4-0.9c0.1-0.3,0.3-0.6,0.5-1
		c0.2-0.4,0.4-0.9,0.7-1.4c0.4-1,0.9-2.1,1.4-3.3c0.5-1.2,1-2.4,1.5-3.6c0.5-1.2,1-2.3,1.5-3.4c0.5-1.1,0.9-2.1,1.2-2.9
		c0.3-0.6,0.6-1.1,0.9-1.4c0.3-0.3,0.7-0.6,1-0.8c0.4-0.2,0.7-0.3,1.1-0.3l0,0c0.4,0,0.7-0.1,1.1-0.1v-0.5h-8V11.9z"/>
	<path class="st0" d="M456,19.9c-0.6-0.2-1.2-0.3-2-0.5s-1.5-0.3-2.1-0.5c-0.9-0.2-1.7-0.6-2.3-1c-0.6-0.5-0.9-1.2-0.9-2.3
		c0-0.7,0.1-1.3,0.3-1.8s0.5-0.9,0.9-1.3c0.4-0.3,0.8-0.6,1.3-0.8c0.5-0.2,1-0.3,1.5-0.3c0.8,0,1.5,0.1,2.2,0.4
		c0.6,0.3,1.2,0.7,1.7,1.2c0.5,0.5,1,1.2,1.4,1.9c0.4,0.8,0.8,1.6,1.2,2.4l0.3-0.1l-0.5-5.4c-0.9-0.3-1.7-0.6-2.7-0.8
		c-0.9-0.2-2-0.3-3.2-0.3c-1,0-1.9,0.1-2.7,0.4c-0.8,0.3-1.6,0.7-2.2,1.2c-0.6,0.5-1.2,1.2-1.5,1.9c-0.4,0.7-0.6,1.5-0.6,2.5
		c0,1.3,0.3,2.4,1,3.4s1.6,1.6,2.7,2c0.6,0.2,1.2,0.4,2,0.6c0.7,0.2,1.5,0.3,2.3,0.5c1,0.2,1.8,0.6,2.3,1.2s0.8,1.3,0.8,2.3
		c0,1.7-0.4,2.9-1.2,3.7c-0.8,0.8-1.9,1.2-3.3,1.2c-1,0-1.8-0.2-2.5-0.6c-0.7-0.4-1.3-1-1.8-1.6c-0.5-0.7-0.9-1.4-1.3-2.1
		c-0.4-0.8-0.6-1.5-0.9-2.2h-0.4v5.8c1,0.4,2,0.8,3.2,1c1.1,0.2,2.3,0.4,3.6,0.4c1.1,0,2.1-0.1,3.1-0.4c1-0.2,1.8-0.6,2.6-1.1
		c0.8-0.5,1.4-1.2,1.8-2l0,0c0.5-0.8,0.7-1.8,0.7-3c0-1.5-0.5-2.8-1.4-3.8C458.5,20.9,457.3,20.2,456,19.9z"/>
	<path class="st0" d="M468.6,27.8c-0.5-0.5-1.1-0.8-1.8-0.8s-1.4,0.3-1.9,0.8s-0.8,1.1-0.8,1.9s0.2,1.4,0.8,1.8s1.1,0.7,1.9,0.7
		s1.4-0.2,1.8-0.6c0.5-0.4,0.7-1,0.7-1.8S469.1,28.4,468.6,27.8z"/>
</g>
</svg>
