<?xml version="1.0" encoding="utf-8"?>
<!-- Generator: Adobe Illustrator 27.5.0, SVG Export Plug-In . SVG Version: 6.00 Build 0)  -->
<svg version="1.1" id="a" xmlns="http://www.w3.org/2000/svg" xmlns:xlink="http://www.w3.org/1999/xlink" x="0px" y="0px"
	 viewBox="0 0 336.8 32.7" style="enable-background:new 0 0 336.8 32.7;" xml:space="preserve">
<style type="text/css">
	.st0{fill:#111C3C;}
	.st1{fill:none;stroke:#111C3C;stroke-width:0.5;stroke-miterlimit:10;}
</style>
<g>
	<g>
		<path class="st0" d="M15.3,2c1.7-0.1,3.7,0.2,3.5,2.3c0,0,0,15.6,0,15.6L6.5,1.7H0.2V2c1.6-0.1,3.7,0.1,3.6,2.2c0,0,0,17.7,0,17.7
			C4,24,1.9,24.4,0.2,24.2v0.3h7.4v-0.3C6,24.4,4,24,4.1,21.9c0,0,0-18.2,0-18.2l14,20.9h1V4.3C19,2.3,21,1.9,22.7,2V1.7h-7.4V2z
			 M27.3,9.3c-6.1,7.8,2.2,21.4,11.2,13.4C44.5,14.7,36.6,1.4,27.3,9.3z M30.4,23.7C27,19.8,27.1,3.6,35.5,8.3
			C38.8,12.1,38.7,28.4,30.4,23.7z M63.5,20.6c-0.4,3.6-4.4,5.1-7.1,3.2c-2.8-2.6-2.2-9.7-1.5-13c1.4-5.4,7.2-3.6,6.3,1.7
			c6.2-0.4,1.2-6.1-2.8-5.3C46.7,7,50.1,29.4,61.7,24.4C63.3,23.9,65.3,21.6,63.5,20.6z M71.8,21.6c0,0,0-21.4,0-21.4h-6.1v0.3
			c1.8-0.2,3.2,0.5,3.1,2.5c0,0,0,18.7,0,18.7c0.1,1.9-1.3,2.6-3.1,2.5v0.3h9.2v-0.3C73,24.4,71.7,23.6,71.8,21.6z M79,9.3
			c-6.1,7.8,2.2,21.4,11.2,13.4C96.2,14.7,88.3,1.4,79,9.3z M82.1,23.7c-3.3-3.9-3.2-20.1,5.1-15.4C90.5,12.1,90.4,28.4,82.1,23.7z
			 M107.1,8.3c-2-1.7-7.2-1.7-9.4,0.1c-1.7,1.6-0.5,4.1,1.9,3.8c-0.9-4.7,4.4-7,5.7-2.5c0.2,1.2,0.2,3.9,0.2,5.3
			C92,13.5,92.9,26.9,103,24.5c1.4-0.6,2.3-1.7,2.7-3.3h0.1v3.4h4.9v-0.3C105.8,24.7,110.8,10.4,107.1,8.3z M99.9,24
			c-1.9-1.4-1.5-5.9-0.2-7.3c0.8-1.2,4.1-1.3,5.8-1.3C105.9,19.1,105.5,26.4,99.9,24z M122.4,13.5c2.1-2,4.2-5.9,7.3-5.7V7.4h-7.1
			v0.3c7.8-0.6-3.2,7.6-4.2,9.6c0.1-2.6,0-14.2,0.1-17.1h-5.8v0.3c1.7-0.1,2.8,0.7,2.7,2.5c0,0,0,18.7,0,18.7
			c0.1,1.8-1.2,2.6-2.9,2.5v0.3h8.7v-0.3c-3.7,0.5-2.6-4.3-2.7-6.5l1.9-2.1c2.8,3.8,4.5,10,10.5,8.9v-0.3
			C127.8,23.9,124.4,15.7,122.4,13.5z M135.4,12.3c-2.6-5.6,6.6-7.1,5.6-0.3c9.5-3.4-11.6-9.7-8,1.8c1.1,2.2,4.8,3.2,6.9,4.4
			c6.4,5.8-6.6,10.4-5.5,1.2c-1.1,0-2.1,0.9-2,2.2c0.3,4.3,7.6,4,10,2.1C148,16.9,139.3,15.4,135.4,12.3z M148.1,21
			c-1.4,1.8,0.5,5.3,2.6,3.3C152.2,22.5,150.3,19,148.1,21z M177,2c1.7-0.1,3.7,0.2,3.5,2.3c0,0,0,15.6,0,15.6L168.2,1.7H162V2
			c1.6-0.1,3.7,0.1,3.6,2.2c0,0,0,17.7,0,17.7c0.1,2.1-1.9,2.5-3.6,2.3v0.3h7.4v-0.3c-1.7,0.1-3.7-0.3-3.5-2.3c0,0,0-18.2,0-18.2
			l14,20.9h1V4.3c-0.1-2,1.9-2.5,3.6-2.3V1.7H177V2z M189,9.3c-6.1,7.8,2.2,21.4,11.2,13.4C206.2,14.7,198.3,1.4,189,9.3z
			 M192.1,23.7c-3.3-3.9-3.2-20.1,5.1-15.4C200.5,12.1,200.4,28.4,192.1,23.7z M227.5,21.8c0,0,0-21.5,0-21.5h-5.8v0.3
			c3.4-0.5,2.7,3.4,2.7,5.6c0,1.7,0,3.9,0.1,5.7h-0.1c-0.4-6.2-9.2-6.2-10.8-0.8c-2.7,6,1.2,17.9,9.1,12.7c0.8-0.8,1.4-2,1.7-3.6
			h0.1v4.5h5.9v-0.3C228.7,24.4,227.3,23.6,227.5,21.8z M217.7,23.6c-2.8-3.7-3.1-19.9,4.8-15C226,12.4,225.5,28,217.7,23.6z
			 M244.1,8.3c-2-1.7-7.2-1.7-9.4,0.1c-1.7,1.6-0.5,4.1,1.9,3.8c-0.9-4.7,4.4-7,5.7-2.5c0.2,1.2,0.2,3.9,0.2,5.3
			c-13.5-1.5-12.7,11.9-2.5,9.5c1.4-0.6,2.3-1.7,2.7-3.3h0.1v3.4h4.9v-0.3C242.9,24.7,247.9,10.4,244.1,8.3z M236.9,24
			c-1.9-1.4-1.5-5.9-0.2-7.3c0.8-1.2,4.1-1.3,5.8-1.3C243,19.1,242.5,26.4,236.9,24z M261,8.2c-7-5-14.3,6.4-6.3,9.9
			c-3.3,0.8-3.4,5.3-0.1,6.1c-11.4,1.7-1,12.5,8.4,6.5c3.8-2.9,2.3-9.7-3.2-9.1c-1.1-0.1-4.5,0.3-5.4-0.4c-1.1-0.8-0.6-2.6,0.8-3
			c6.4,2.3,10.9-5.4,6.2-9.8c1.3-1.3,3.3-0.8,3.1,1.2C268.8,8.5,263.9,4.1,261,8.2z M261.9,25.1c3.5,4.7-3.2,8.3-7.5,6.4
			c-2.7-1-2.9-5.8-0.3-6.8C256.1,24.2,260.2,23.9,261.9,25.1z M255.6,17.6c-2.4-2.5-1.8-12.7,3.3-9.6
			C261.1,10.6,260.9,20.6,255.6,17.6z M278.3,8.2c-7-5-14.3,6.4-6.3,9.9c-3.3,0.8-3.4,5.3-0.1,6.1c-11.4,1.7-1,12.5,8.4,6.5
			c3.8-2.9,2.3-9.7-3.2-9.1c-1.1-0.1-4.5,0.3-5.4-0.4c-1.1-0.8-0.6-2.6,0.8-3c6.4,2.3,10.9-5.4,6.2-9.8c1.3-1.3,3.3-0.8,3.1,1.2
			C286.2,8.5,281.2,4.1,278.3,8.2z M279.2,25.1c3.5,4.7-3.2,8.3-7.5,6.4c-2.7-1-2.9-5.8-0.3-6.8C273.4,24.2,277.5,23.9,279.2,25.1z
			 M272.9,17.6c-2.4-2.5-1.8-12.7,3.3-9.6C278.4,10.6,278.3,20.6,272.9,17.6z M287.4,9.4c-4.8,6.1-0.4,18.8,8.8,15
			c1.5-0.5,3.6-2.8,1.7-3.7c-0.3,3.4-4.8,5.2-7.3,3c-1.9-2-1.8-4.8-1.9-8.1h10.7C300.7,8.2,292,4.2,287.4,9.4z M296.1,15.2h-7.5
			C288.1,5,297.1,4.8,296.1,15.2z M307.9,10.6L307.9,10.6l-0.1-3.2h-5.7v0.3c1.7-0.1,2.8,0.7,2.7,2.5c0,0,0,11.6,0,11.6
			c0.1,1.9-1.3,2.6-3.1,2.5v0.3h9.2v-0.3c-4.9,1-2.6-7-3.1-9.5c0-1.8,0-4.4,1.2-5.9c1.9-1.8,4,0.3,3.7,2.8
			C321.3,10,309.8,2.8,307.9,10.6z M320.7,12.3c-2.6-5.6,6.6-7.1,5.6-0.3c9.5-3.4-11.6-9.7-8,1.8c1.1,2.2,4.8,3.2,6.9,4.4
			c6.4,5.8-6.6,10.4-5.5,1.2c-1.1,0-2.1,0.9-2,2.2c0.3,4.3,7.6,4,10,2.1C333.3,16.9,324.6,15.4,320.7,12.3z M333.4,21
			c-1.4,1.8,0.5,5.3,2.6,3.3C337.4,22.5,335.6,19,333.4,21z"/>
	</g>
	<g>
		<path class="st1" d="M15.3,2c1.7-0.1,3.7,0.2,3.5,2.3c0,0,0,15.6,0,15.6L6.5,1.7H0.2V2c1.6-0.1,3.7,0.1,3.6,2.2c0,0,0,17.7,0,17.7
			C4,24,1.9,24.4,0.2,24.2v0.3h7.4v-0.3C6,24.4,4,24,4.1,21.9c0,0,0-18.2,0-18.2l14,20.9h1V4.3C19,2.3,21,1.9,22.7,2V1.7h-7.4V2z
			 M27.3,9.3c-6.1,7.8,2.2,21.4,11.2,13.4C44.5,14.7,36.6,1.4,27.3,9.3z M30.4,23.7C27,19.8,27.1,3.6,35.5,8.3
			C38.8,12.1,38.7,28.4,30.4,23.7z M63.5,20.6c-0.4,3.6-4.4,5.1-7.1,3.2c-2.8-2.6-2.2-9.7-1.5-13c1.4-5.4,7.2-3.6,6.3,1.7
			c6.2-0.4,1.2-6.1-2.8-5.3C46.7,7,50.1,29.4,61.7,24.4C63.3,23.9,65.3,21.6,63.5,20.6z M71.8,21.6c0,0,0-21.4,0-21.4h-6.1v0.3
			c1.8-0.2,3.2,0.5,3.1,2.5c0,0,0,18.7,0,18.7c0.1,1.9-1.3,2.6-3.1,2.5v0.3h9.2v-0.3C73,24.4,71.7,23.6,71.8,21.6z M79,9.3
			c-6.1,7.8,2.2,21.4,11.2,13.4C96.2,14.7,88.3,1.4,79,9.3z M82.1,23.7c-3.3-3.9-3.2-20.1,5.1-15.4C90.5,12.1,90.4,28.4,82.1,23.7z
			 M107.1,8.3c-2-1.7-7.2-1.7-9.4,0.1c-1.7,1.6-0.5,4.1,1.9,3.8c-0.9-4.7,4.4-7,5.7-2.5c0.2,1.2,0.2,3.9,0.2,5.3
			C92,13.5,92.9,26.9,103,24.5c1.4-0.6,2.3-1.7,2.7-3.3h0.1v3.4h4.9v-0.3C105.8,24.7,110.8,10.4,107.1,8.3z M99.9,24
			c-1.9-1.4-1.5-5.9-0.2-7.3c0.8-1.2,4.1-1.3,5.8-1.3C105.9,19.1,105.5,26.4,99.9,24z M122.4,13.5c2.1-2,4.2-5.9,7.3-5.7V7.4h-7.1
			v0.3c7.8-0.6-3.2,7.6-4.2,9.6c0.1-2.6,0-14.2,0.1-17.1h-5.8v0.3c1.7-0.1,2.8,0.7,2.7,2.5c0,0,0,18.7,0,18.7
			c0.1,1.8-1.2,2.6-2.9,2.5v0.3h8.7v-0.3c-3.7,0.5-2.6-4.3-2.7-6.5l1.9-2.1c2.8,3.8,4.5,10,10.5,8.9v-0.3
			C127.8,23.9,124.4,15.7,122.4,13.5z M135.4,12.3c-2.6-5.6,6.6-7.1,5.6-0.3c9.5-3.4-11.6-9.7-8,1.8c1.1,2.2,4.8,3.2,6.9,4.4
			c6.4,5.8-6.6,10.4-5.5,1.2c-1.1,0-2.1,0.9-2,2.2c0.3,4.3,7.6,4,10,2.1C148,16.9,139.3,15.4,135.4,12.3z M148.1,21
			c-1.4,1.8,0.5,5.3,2.6,3.3C152.2,22.5,150.3,19,148.1,21z M177,2c1.7-0.1,3.7,0.2,3.5,2.3c0,0,0,15.6,0,15.6L168.2,1.7H162V2
			c1.6-0.1,3.7,0.1,3.6,2.2c0,0,0,17.7,0,17.7c0.1,2.1-1.9,2.5-3.6,2.3v0.3h7.4v-0.3c-1.7,0.1-3.7-0.3-3.5-2.3c0,0,0-18.2,0-18.2
			l14,20.9h1V4.3c-0.1-2,1.9-2.5,3.6-2.3V1.7H177V2z M189,9.3c-6.1,7.8,2.2,21.4,11.2,13.4C206.2,14.7,198.3,1.4,189,9.3z
			 M192.1,23.7c-3.3-3.9-3.2-20.1,5.1-15.4C200.5,12.1,200.4,28.4,192.1,23.7z M227.5,21.8c0,0,0-21.5,0-21.5h-5.8v0.3
			c3.4-0.5,2.7,3.4,2.7,5.6c0,1.7,0,3.9,0.1,5.7h-0.1c-0.4-6.2-9.2-6.2-10.8-0.8c-2.7,6,1.2,17.9,9.1,12.7c0.8-0.8,1.4-2,1.7-3.6
			h0.1v4.5h5.9v-0.3C228.7,24.4,227.3,23.6,227.5,21.8z M217.7,23.6c-2.8-3.7-3.1-19.9,4.8-15C226,12.4,225.5,28,217.7,23.6z
			 M244.1,8.3c-2-1.7-7.2-1.7-9.4,0.1c-1.7,1.6-0.5,4.1,1.9,3.8c-0.9-4.7,4.4-7,5.7-2.5c0.2,1.2,0.2,3.9,0.2,5.3
			c-13.5-1.5-12.7,11.9-2.5,9.5c1.4-0.6,2.3-1.7,2.7-3.3h0.1v3.4h4.9v-0.3C242.9,24.7,247.9,10.4,244.1,8.3z M236.9,24
			c-1.9-1.4-1.5-5.9-0.2-7.3c0.8-1.2,4.1-1.3,5.8-1.3C243,19.1,242.5,26.4,236.9,24z M261,8.2c-7-5-14.3,6.4-6.3,9.9
			c-3.3,0.8-3.4,5.3-0.1,6.1c-11.4,1.7-1,12.5,8.4,6.5c3.8-2.9,2.3-9.7-3.2-9.1c-1.1-0.1-4.5,0.3-5.4-0.4c-1.1-0.8-0.6-2.6,0.8-3
			c6.4,2.3,10.9-5.4,6.2-9.8c1.3-1.3,3.3-0.8,3.1,1.2C268.8,8.5,263.9,4.1,261,8.2z M261.9,25.1c3.5,4.7-3.2,8.3-7.5,6.4
			c-2.7-1-2.9-5.8-0.3-6.8C256.1,24.2,260.2,23.9,261.9,25.1z M255.6,17.6c-2.4-2.5-1.8-12.7,3.3-9.6
			C261.1,10.6,260.9,20.6,255.6,17.6z M278.3,8.2c-7-5-14.3,6.4-6.3,9.9c-3.3,0.8-3.4,5.3-0.1,6.1c-11.4,1.7-1,12.5,8.4,6.5
			c3.8-2.9,2.3-9.7-3.2-9.1c-1.1-0.1-4.5,0.3-5.4-0.4c-1.1-0.8-0.6-2.6,0.8-3c6.4,2.3,10.9-5.4,6.2-9.8c1.3-1.3,3.3-0.8,3.1,1.2
			C286.2,8.5,281.2,4.1,278.3,8.2z M279.2,25.1c3.5,4.7-3.2,8.3-7.5,6.4c-2.7-1-2.9-5.8-0.3-6.8C273.4,24.2,277.5,23.9,279.2,25.1z
			 M272.9,17.6c-2.4-2.5-1.8-12.7,3.3-9.6C278.4,10.6,278.3,20.6,272.9,17.6z M287.4,9.4c-4.8,6.1-0.4,18.8,8.8,15
			c1.5-0.5,3.6-2.8,1.7-3.7c-0.3,3.4-4.8,5.2-7.3,3c-1.9-2-1.8-4.8-1.9-8.1h10.7C300.7,8.2,292,4.2,287.4,9.4z M296.1,15.2h-7.5
			C288.1,5,297.1,4.8,296.1,15.2z M307.9,10.6L307.9,10.6l-0.1-3.2h-5.7v0.3c1.7-0.1,2.8,0.7,2.7,2.5c0,0,0,11.6,0,11.6
			c0.1,1.9-1.3,2.6-3.1,2.5v0.3h9.2v-0.3c-4.9,1-2.6-7-3.1-9.5c0-1.8,0-4.4,1.2-5.9c1.9-1.8,4,0.3,3.7,2.8
			C321.3,10,309.8,2.8,307.9,10.6z M320.7,12.3c-2.6-5.6,6.6-7.1,5.6-0.3c9.5-3.4-11.6-9.7-8,1.8c1.1,2.2,4.8,3.2,6.9,4.4
			c6.4,5.8-6.6,10.4-5.5,1.2c-1.1,0-2.1,0.9-2,2.2c0.3,4.3,7.6,4,10,2.1C333.3,16.9,324.6,15.4,320.7,12.3z M333.4,21
			c-1.4,1.8,0.5,5.3,2.6,3.3C337.4,22.5,335.6,19,333.4,21z"/>
	</g>
</g>
</svg>
