<?xml version="1.0" encoding="utf-8"?>
<!-- Generator: Adobe Illustrator 27.5.0, SVG Export Plug-In . SVG Version: 6.00 Build 0)  -->
<svg version="1.1" id="a" xmlns="http://www.w3.org/2000/svg" xmlns:xlink="http://www.w3.org/1999/xlink" x="0px" y="0px"
	 viewBox="0 0 152.1 31" style="enable-background:new 0 0 152.1 31;" xml:space="preserve">
<style type="text/css">
	.st0{fill:#111C3C;}
	.st1{fill:none;stroke:#111C3C;stroke-width:0.5;stroke-miterlimit:10;}
</style>
<g>
	<g>
		<path class="st0" d="M1.8,0.6C3.4,0.5,5,1,4.9,2.7c0,0,0,21.8,0,21.8c0.1,3.4-1.1,6.2-4.6,5.9v0.3h0.5C5.2,31,8.5,28,8.1,23.4
			c0,0,0-20.5,0-20.5C8,1.1,9.6,0.4,11.2,0.6V0.2H1.8V0.6z M29.1,19.9c0,0,0-14,0-14h-5.8v0.3c4.6-0.7,2.2,7.8,2.7,10.2
			c1,4.5-5.1,9.7-7.2,4.1c-0.6-2-0.2-12.4-0.3-14.6h-5.8v0.3c7.4,0.1-3.4,19.1,9.8,17c2.2-0.4,3.3-2.3,3.6-4.6h0.1v4.4h5.5v-0.3
			C29.9,22.9,29,21.9,29.1,19.9z M37.1,10.8c-2.6-5.6,6.6-7.1,5.6-0.3c9.5-3.4-11.6-9.7-8,1.8c1.1,2.2,4.8,3.2,6.9,4.4
			c6.4,5.8-6.6,10.4-5.5,1.2c-1.1,0-2.1,0.9-2,2.2c0.3,4.3,7.6,4,10,2.1C49.7,15.4,41,14,37.1,10.8z M53.2,2h-0.3
			c-0.4,2.7-2.5,4.1-5.2,3.9v0.3h2.4v12.2c-0.2,4.2,2.6,5.5,6.3,4.8c0.6-0.1,1-0.2,1.3-0.4v-0.3c-2.4,1-4.7,0-4.5-2.9
			c0,0,0-13.4,0-13.4h4.5V5.9h-4.5V2z M83,11.9C84.1,5.4,74.5,3,72.6,9h-0.1v-3h-5.7v0.3c2-0.2,2.8,0.9,2.7,2.9c0,0,0,10.7,0,10.7
			c0.1,2-0.9,3.1-2.9,2.9v0.3h8.7v-0.3c-4.6,0.8-2.2-8.8-2.7-11.2c-0.7-3.8,3.9-7.7,6.7-4.2c1.5,2,0.5,13.2,0.8,15.7h5.6v-0.3
			C81.2,23.5,83.5,14.2,83,11.9z M90.1,7.9c-4.8,6.1-0.4,18.8,8.8,15c1.5-0.5,3.6-2.8,1.7-3.7c-0.3,3.4-4.8,5.2-7.3,3
			c-1.9-2-1.8-4.8-1.9-8.1h10.7C103.4,6.7,94.7,2.8,90.1,7.9z M98.9,13.7h-7.5C90.8,3.5,99.8,3.3,98.9,13.7z M124.6,6.3
			c2.4-0.2,4.2,0.2,3.2,2.9c-0.8,3.2-2.5,9.7-3.3,12.8h-0.1c-1.1-3.4-4.2-12.4-5.3-15.9H117c-0.9,3.5-3.2,12.3-4.1,15.6h-0.1
			c-0.9-3.1-2.6-9.5-3.5-12.7c-0.8-2.1,0.2-3,2.4-2.7V5.9h-8v0.3c1.2-0.1,2,0.5,2.3,1.7c0,0,4.4,15.1,4.4,15.1h2.4l4-15.2l5.1,15.2
			h2.5l3.7-14.3c0.3-1.9,1.5-2.8,3.3-2.5V5.9h-6.9V6.3z M136,10.8c-2.6-5.6,6.6-7.1,5.6-0.3c9.5-3.4-11.6-9.7-8,1.8
			c1.1,2.2,4.8,3.2,6.9,4.4c6.4,5.8-6.6,10.4-5.5,1.2c-1.1,0-2.1,0.9-2,2.2c0.3,4.3,7.6,4,10,2.1C148.6,15.4,139.9,14,136,10.8z
			 M148.8,19.5c-1.4,1.8,0.5,5.3,2.6,3.3C152.8,21,150.9,17.5,148.8,19.5z"/>
	</g>
	<g>
		<path class="st1" d="M1.8,0.6C3.4,0.5,5,1,4.9,2.7c0,0,0,21.8,0,21.8c0.1,3.4-1.1,6.2-4.6,5.9v0.3h0.5C5.2,31,8.5,28,8.1,23.4
			c0,0,0-20.5,0-20.5C8,1.1,9.6,0.4,11.2,0.6V0.2H1.8V0.6z M29.1,19.9c0,0,0-14,0-14h-5.8v0.3c4.6-0.7,2.2,7.8,2.7,10.2
			c1,4.5-5.1,9.7-7.2,4.1c-0.6-2-0.2-12.4-0.3-14.6h-5.8v0.3c7.4,0.1-3.4,19.1,9.8,17c2.2-0.4,3.3-2.3,3.6-4.6h0.1v4.4h5.5v-0.3
			C29.9,22.9,29,21.9,29.1,19.9z M37.1,10.8c-2.6-5.6,6.6-7.1,5.6-0.3c9.5-3.4-11.6-9.7-8,1.8c1.1,2.2,4.8,3.2,6.9,4.4
			c6.4,5.8-6.6,10.4-5.5,1.2c-1.1,0-2.1,0.9-2,2.2c0.3,4.3,7.6,4,10,2.1C49.7,15.4,41,14,37.1,10.8z M53.2,2h-0.3
			c-0.4,2.7-2.5,4.1-5.2,3.9v0.3h2.4v12.2c-0.2,4.2,2.6,5.5,6.3,4.8c0.6-0.1,1-0.2,1.3-0.4v-0.3c-2.4,1-4.7,0-4.5-2.9
			c0,0,0-13.4,0-13.4h4.5V5.9h-4.5V2z M83,11.9C84.1,5.4,74.5,3,72.6,9h-0.1v-3h-5.7v0.3c2-0.2,2.8,0.9,2.7,2.9c0,0,0,10.7,0,10.7
			c0.1,2-0.9,3.1-2.9,2.9v0.3h8.7v-0.3c-4.6,0.8-2.2-8.8-2.7-11.2c-0.7-3.8,3.9-7.7,6.7-4.2c1.5,2,0.5,13.2,0.8,15.7h5.6v-0.3
			C81.2,23.5,83.5,14.2,83,11.9z M90.1,7.9c-4.8,6.1-0.4,18.8,8.8,15c1.5-0.5,3.6-2.8,1.7-3.7c-0.3,3.4-4.8,5.2-7.3,3
			c-1.9-2-1.8-4.8-1.9-8.1h10.7C103.4,6.7,94.7,2.8,90.1,7.9z M98.9,13.7h-7.5C90.8,3.5,99.8,3.3,98.9,13.7z M124.6,6.3
			c2.4-0.2,4.2,0.2,3.2,2.9c-0.8,3.2-2.5,9.7-3.3,12.8h-0.1c-1.1-3.4-4.2-12.4-5.3-15.9H117c-0.9,3.5-3.2,12.3-4.1,15.6h-0.1
			c-0.9-3.1-2.6-9.5-3.5-12.7c-0.8-2.1,0.2-3,2.4-2.7V5.9h-8v0.3c1.2-0.1,2,0.5,2.3,1.7c0,0,4.4,15.1,4.4,15.1h2.4l4-15.2l5.1,15.2
			h2.5l3.7-14.3c0.3-1.9,1.5-2.8,3.3-2.5V5.9h-6.9V6.3z M136,10.8c-2.6-5.6,6.6-7.1,5.6-0.3c9.5-3.4-11.6-9.7-8,1.8
			c1.1,2.2,4.8,3.2,6.9,4.4c6.4,5.8-6.6,10.4-5.5,1.2c-1.1,0-2.1,0.9-2,2.2c0.3,4.3,7.6,4,10,2.1C148.6,15.4,139.9,14,136,10.8z
			 M148.8,19.5c-1.4,1.8,0.5,5.3,2.6,3.3C152.8,21,150.9,17.5,148.8,19.5z"/>
	</g>
</g>
</svg>
