<?xml version="1.0" encoding="utf-8"?>
<!-- Generator: Adobe Illustrator 27.5.0, SVG Export Plug-In . SVG Version: 6.00 Build 0)  -->
<svg version="1.1" id="a" xmlns="http://www.w3.org/2000/svg" xmlns:xlink="http://www.w3.org/1999/xlink" x="0px" y="0px"
	 viewBox="0 0 433.7 72.2" style="enable-background:new 0 0 433.7 72.2;" xml:space="preserve">
<style type="text/css">
	.st0{fill:#111C3C;}
	.st1{fill:none;stroke:#111C3C;stroke-width:0.5;stroke-miterlimit:10;}
</style>
<g>
	<g>
		<path class="st0" d="M43.3,5.4c4.9-0.4,10.5,0.8,10.2,6.7c0,0,0,45.4,0,45.4l-35.2-53h-18v0.9c4.6-0.3,10.6,0.5,10.3,6.3
			c0,0,0,51.4,0,51.4c0.4,5.9-5.4,7.1-10.3,6.7v0.9h21.4v-0.9c-4.8,0.4-10.6-0.8-10.2-6.7c0,0,0-52.9,0-52.9l40.2,60.5h2.8V12.1
			C54.1,6.2,59.9,5,64.7,5.4V4.5H43.3V5.4z M77.9,26.5c-7.4,7.5-7.4,31.4,0.2,38.8c6.9,8.7,25.4,8.4,31.9,0
			c7.3-7.5,7.4-31.4-0.2-38.8C102.9,17.9,84.5,18.1,77.9,26.5z M86.6,68.3c-5.3-5.6-5-13.3-5.3-22.5c-1-13.9,4.3-31.9,20-22.3
			c5.2,5.5,4.9,13.3,5.3,22.3C107.7,59.6,102.1,78,86.6,68.3z M181.7,59.2c-1.1,10.4-12.6,14.9-20.4,9.2c-5.7-5.4-5.5-13.3-5.8-22.5
			c0.3-9.7,0.1-17.1,5.5-22.7c9.6-6.7,15.1,2.6,14.1,12.3c19.9-1.5,1.4-22.8-18.4-12.9c-8,4.6-10,12.9-10.1,23.2
			c-1.6,18.8,13.1,30.8,30.1,24.5C181.1,68.9,186.9,62,181.7,59.2z M205.6,62.2c0,0,0-62,0-62h-17.5v0.9c5.1-0.5,9.2,1.6,8.8,7.2
			c0,0,0,54.3,0,54.3c0.4,5.5-3.7,7.6-8.8,7.1v0.9h26.3v-0.9C209,70.4,205.1,68,205.6,62.2z M226.2,26.5c-7.4,7.5-7.4,31.4,0.2,38.8
			c6.9,8.7,25.3,8.4,31.9,0c7.3-7.5,7.4-31.4-0.2-38.8C251.2,17.9,232.8,18.1,226.2,26.5z M234.9,68.3c-5.3-5.6-5-13.3-5.3-22.5
			c-1-13.9,4.3-31.9,20-22.3c5.2,5.5,4.9,13.3,5.3,22.3C256,59.6,250.4,78,234.9,68.3z M311,63.9c0,0,0-27.7,0-27.7
			c1.1-15.5-13.2-17.9-25.2-15.1c-9.6,1.1-12.2,14.6-0.5,13.8c0-4.8,0.5-8.3,1.5-10.5c2.8-5.5,14.9-4.3,14.9,3.2
			c0.7,3.6,0.5,11.2,0.6,15.5c-7.3,0.1-19.2,0.6-23.5,4.2c-13.6,11.2,0.7,29.8,16.3,23.3c4.1-1.7,6.7-5,7.8-9.6h0.2v9.7h14v-0.9
			C313,70.1,310.7,68,311,63.9z M300.8,63.9c-2.4,5.3-9.6,8.5-14.7,5.2c-5.4-4-4.2-17.3-0.6-21.1c2.4-3.4,11.6-3.8,16.8-3.9
			C302,48.7,303.3,59.9,300.8,63.9z M350.7,38.6c6.1-5.9,12-17.2,21.1-16.6V21h-20.4V22c10.6-0.4,9.8,3.9,3.8,10.1
			c0,0-15.7,17.6-15.7,17.6c0.4-7.6,0.1-41.3,0.2-49.5h-16.5v0.9c5-0.3,8.2,2.1,7.9,7.2c0,0,0,54.3,0,54.3c0.4,5.3-3.3,7.6-8.3,7.1
			v0.9h24.9v-0.9c-10.8,1.5-7.3-12.4-7.9-18.7l5.5-6.1c1.9,2.6,12.4,20.3,14.5,22.1c3.9,4.1,10.2,3.7,15.6,3.7v-0.9
			C367.7,70.3,355.6,44,350.7,38.6z M386.7,30c0.4-13.1,19.5-12.4,17.4,4.3c5.8,0.5,8.7-5.7,5-9.8c-5.4-6-19.1-5.3-24.8-0.9
			c-4.6,3.1-5.6,10.9-3.1,15.8c3.2,6.4,13.9,9.2,19.7,12.7c18,15.8-18,31.2-15.9,3.3c-5.9-0.2-7.6,8.1-3.8,11.8
			c6.1,6.2,20.4,5.5,26.7,0.7c4.8-3.2,6.1-11.8,3.6-17.2C407.2,40.6,386.9,42.8,386.7,30z M424.6,60.4c-3.9,5.2,1.1,15.3,7.5,9.5
			C435.9,64.6,431,54.6,424.6,60.4z"/>
	</g>
	<g>
		<path class="st1" d="M43.3,5.4c4.9-0.4,10.5,0.8,10.2,6.7c0,0,0,45.4,0,45.4l-35.2-53h-18v0.9c4.6-0.3,10.6,0.5,10.3,6.3
			c0,0,0,51.4,0,51.4c0.4,5.9-5.4,7.1-10.3,6.7v0.9h21.4v-0.9c-4.8,0.4-10.6-0.8-10.2-6.7c0,0,0-52.9,0-52.9l40.2,60.5h2.8V12.1
			C54.1,6.2,59.9,5,64.7,5.4V4.5H43.3V5.4z M77.9,26.5c-7.4,7.5-7.4,31.4,0.2,38.8c6.9,8.7,25.4,8.4,31.9,0
			c7.3-7.5,7.4-31.4-0.2-38.8C102.9,17.9,84.5,18.1,77.9,26.5z M86.6,68.3c-5.3-5.6-5-13.3-5.3-22.5c-1-13.9,4.3-31.9,20-22.3
			c5.2,5.5,4.9,13.3,5.3,22.3C107.7,59.6,102.1,78,86.6,68.3z M181.7,59.2c-1.1,10.4-12.6,14.9-20.4,9.2c-5.7-5.4-5.5-13.3-5.8-22.5
			c0.3-9.7,0.1-17.1,5.5-22.7c9.6-6.7,15.1,2.6,14.1,12.3c19.9-1.5,1.4-22.8-18.4-12.9c-8,4.6-10,12.9-10.1,23.2
			c-1.6,18.8,13.1,30.8,30.1,24.5C181.1,68.9,186.9,62,181.7,59.2z M205.6,62.2c0,0,0-62,0-62h-17.5v0.9c5.1-0.5,9.2,1.6,8.8,7.2
			c0,0,0,54.3,0,54.3c0.4,5.5-3.7,7.6-8.8,7.1v0.9h26.3v-0.9C209,70.4,205.1,68,205.6,62.2z M226.2,26.5c-7.4,7.5-7.4,31.4,0.2,38.8
			c6.9,8.7,25.3,8.4,31.9,0c7.3-7.5,7.4-31.4-0.2-38.8C251.2,17.9,232.8,18.1,226.2,26.5z M234.9,68.3c-5.3-5.6-5-13.3-5.3-22.5
			c-1-13.9,4.3-31.9,20-22.3c5.2,5.5,4.9,13.3,5.3,22.3C256,59.6,250.4,78,234.9,68.3z M311,63.9c0,0,0-27.7,0-27.7
			c1.1-15.5-13.2-17.9-25.2-15.1c-9.6,1.1-12.2,14.6-0.5,13.8c0-4.8,0.5-8.3,1.5-10.5c2.8-5.5,14.9-4.3,14.9,3.2
			c0.7,3.6,0.5,11.2,0.6,15.5c-7.3,0.1-19.2,0.6-23.5,4.2c-13.6,11.2,0.7,29.8,16.3,23.3c4.1-1.7,6.7-5,7.8-9.6h0.2v9.7h14v-0.9
			C313,70.1,310.7,68,311,63.9z M300.8,63.9c-2.4,5.3-9.6,8.5-14.7,5.2c-5.4-4-4.2-17.3-0.6-21.1c2.4-3.4,11.6-3.8,16.8-3.9
			C302,48.7,303.3,59.9,300.8,63.9z M350.7,38.6c6.1-5.9,12-17.2,21.1-16.6V21h-20.4V22c10.6-0.4,9.8,3.9,3.8,10.1
			c0,0-15.7,17.6-15.7,17.6c0.4-7.6,0.1-41.3,0.2-49.5h-16.5v0.9c5-0.3,8.2,2.1,7.9,7.2c0,0,0,54.3,0,54.3c0.4,5.3-3.3,7.6-8.3,7.1
			v0.9h24.9v-0.9c-10.8,1.5-7.3-12.4-7.9-18.7l5.5-6.1c1.9,2.6,12.4,20.3,14.5,22.1c3.9,4.1,10.2,3.7,15.6,3.7v-0.9
			C367.7,70.3,355.6,44,350.7,38.6z M386.7,30c0.4-13.1,19.5-12.4,17.4,4.3c5.8,0.5,8.7-5.7,5-9.8c-5.4-6-19.1-5.3-24.8-0.9
			c-4.6,3.1-5.6,10.9-3.1,15.8c3.2,6.4,13.9,9.2,19.7,12.7c18,15.8-18,31.2-15.9,3.3c-5.9-0.2-7.6,8.1-3.8,11.8
			c6.1,6.2,20.4,5.5,26.7,0.7c4.8-3.2,6.1-11.8,3.6-17.2C407.2,40.6,386.9,42.8,386.7,30z M424.6,60.4c-3.9,5.2,1.1,15.3,7.5,9.5
			C435.9,64.6,431,54.6,424.6,60.4z"/>
	</g>
</g>
</svg>
