<?xml version="1.0" encoding="utf-8"?>
<!-- Generator: Adobe Illustrator 27.5.0, SVG Export Plug-In . SVG Version: 6.00 Build 0)  -->
<svg version="1.1" id="a" xmlns="http://www.w3.org/2000/svg" xmlns:xlink="http://www.w3.org/1999/xlink" x="0px" y="0px"
	 viewBox="0 0 501.4 93.3" style="enable-background:new 0 0 501.4 93.3;" xml:space="preserve">
<style type="text/css">
	.st0{fill:#111C3C;}
	.st1{fill:none;stroke:#111C3C;stroke-width:0.5;stroke-miterlimit:10;}
</style>
<g>
	<g>
		<path class="st0" d="M43.3,5.4c4.9-0.4,10.5,0.8,10.2,6.7c0,0,0,45.4,0,45.4l-35.2-53h-18v0.9c4.6-0.3,10.6,0.5,10.3,6.3
			c0,0,0,51.4,0,51.4c0.4,5.9-5.4,7.1-10.3,6.7v0.9h21.4v-0.9c-4.8,0.4-10.6-0.8-10.2-6.7c0,0,0-52.9,0-52.9l40.2,60.5h2.8V12.1
			C54.1,6.2,59.9,5,64.7,5.4V4.5H43.3V5.4z M77.9,26.5c-7.4,7.5-7.4,31.4,0.2,38.8c6.9,8.7,25.4,8.4,31.9,0
			c7.3-7.5,7.4-31.4-0.2-38.8C102.9,17.9,84.5,18.1,77.9,26.5z M86.6,68.3c-5.3-5.6-5-13.3-5.3-22.5c-1-13.9,4.3-31.9,20-22.3
			c5.2,5.5,4.9,13.3,5.3,22.3C107.7,59.6,102.1,78,86.6,68.3z M188.2,62.7c0,0,0-62.5,0-62.5h-16.5v0.9c9.8-1.3,7.7,10,7.9,16.1
			c0,5,0,11.2,0.2,16.6h-0.2c-1.1-17.9-26.3-18.1-30.9-2.4c-6.8,18.2,1.7,51.4,26.1,36.7c2.4-2.3,4-5.8,4.8-10.6h0.2v13.1h16.9v-0.9
			C191.6,70.2,187.8,68,188.2,62.7z M160.2,67.9c-6.7-8.3-6.8-35.6,0-43.9c14.1-9.4,20.5,9.4,19.3,21.9
			C180.5,59.9,174.1,76.8,160.2,67.9z M240.3,63.9c0,0,0-27.7,0-27.7c1.1-15.5-13.2-17.9-25.2-15.1c-9.6,1.1-12.2,14.6-0.5,13.8
			c0-4.8,0.5-8.3,1.5-10.5c2.8-5.5,14.9-4.3,14.9,3.2c0.7,3.6,0.5,11.2,0.6,15.5c-7.3,0.1-19.2,0.6-23.5,4.2
			c-13.6,11.2,0.7,29.8,16.3,23.3c4.1-1.7,6.7-5,7.8-9.6h0.2v9.7h14v-0.9C242.3,70.1,240,68,240.3,63.9z M230.1,63.9
			c-2.4,5.3-9.6,8.5-14.7,5.2c-5.4-4-4.2-17.3-0.6-21.1c2.4-3.4,11.6-3.8,16.8-3.9C231.3,48.7,232.6,59.9,230.1,63.9z M284.4,23.2
			c-6.3-4.8-18.8-3.8-23.5,1.5c-7,7.2-5.8,23.9,5.4,27.1c-9.5,2.4-9.7,15.4-0.2,17.8c-12-1.6-18.9,12.8-8.9,20
			c6.9,5.5,27.2,4.1,33-1.2c10.7-8.2,6.7-28.1-9.3-26.5c-3.3-0.2-13,0.8-15.6-1.1c-3.2-2.3-1.7-7.5,2.2-8.6
			c19,6.2,31-15.1,17.7-28.4c3.8-3.8,9.5-2.4,8.9,3.6C305.8,25.5,294.7,10.5,284.4,23.2z M286.9,72.4c9.9,14.2-8.5,23.7-21.6,18.5
			c-7.7-2.8-8.3-16.7-0.9-19.8C269.2,69.6,283.3,69,286.9,72.4z M268.8,50.5c-6.7-6.8-5.4-37,9.6-27.7
			C284.5,29.9,284.3,59.4,268.8,50.5z M334.1,23.2c-6.3-4.8-18.8-3.8-23.5,1.5c-7,7.2-5.8,23.9,5.4,27.1c-9.5,2.4-9.7,15.4-0.2,17.8
			c-12-1.6-18.9,12.8-8.9,20c6.9,5.5,27.2,4.1,33-1.2c10.7-8.2,6.7-28.1-9.3-26.5c-3.3-0.2-13,0.8-15.6-1.1
			c-3.2-2.3-1.7-7.5,2.2-8.6c19,6.2,31-15.1,17.7-28.4c3.8-3.8,9.5-2.4,8.9,3.6C355.6,25.5,344.4,10.5,334.1,23.2z M336.6,72.4
			c9.9,14.2-8.5,23.7-21.6,18.5c-7.7-2.8-8.3-16.7-0.9-19.8C319,69.6,333,69,336.6,72.4z M318.6,50.5c-6.7-6.8-5.4-37,9.6-27.7
			C334.2,29.9,334,59.4,318.6,50.5z M360.2,26.7c-13.1,18.9-2.8,53.5,25.4,43.5c4.3-1.5,10.4-8.2,4.8-10.8
			c-0.9,9.9-13.7,15-20.9,8.8c-5.5-5.9-5.1-14-5.6-23.6h30.8c0.3-7.4-1.3-15-5.1-18.8C382.8,17.8,366.3,18.3,360.2,26.7z
			 M363.8,43.6c0.9-9.8,0.3-21.9,11.4-22.6c10.7,0.9,9.5,13,10.1,22.6H363.8z M438.9,21.9c-7.2-4.6-18.8-0.5-20,8.4h-0.2V21h-16.5
			V22c5-0.3,8.2,2.1,7.9,7.2c0,0,0,33.5,0,33.5c0.4,5.5-3.7,7.6-8.8,7.1v0.9h26.3v-0.9c-5.3,0.5-9.3-1.8-8.8-7.6c0,0,0-20,0-20
			c0.1-5.3,0-12.6,3.4-17c5.4-5.1,11.4,0.8,10.5,8.2C440.2,34.4,444.4,26.4,438.9,21.9z M454.4,30c0.4-13.1,19.5-12.4,17.4,4.3
			c5.8,0.5,8.7-5.7,5-9.8c-5.4-6-19.1-5.3-24.8-0.9c-4.6,3.1-5.6,10.9-3.1,15.8c3.2,6.4,13.9,9.2,19.7,12.7
			c18,15.8-18,31.2-15.9,3.3c-5.9-0.2-7.6,8.1-3.8,11.8c6.1,6.2,20.4,5.5,26.7,0.7c4.8-3.2,6.1-11.8,3.6-17.2
			C474.9,40.6,454.6,42.8,454.4,30z M492.2,60.4c-3.9,5.2,1.1,15.3,7.5,9.5C503.6,64.6,498.7,54.6,492.2,60.4z"/>
	</g>
	<g>
		<path class="st1" d="M43.3,5.4c4.9-0.4,10.5,0.8,10.2,6.7c0,0,0,45.4,0,45.4l-35.2-53h-18v0.9c4.6-0.3,10.6,0.5,10.3,6.3
			c0,0,0,51.4,0,51.4c0.4,5.9-5.4,7.1-10.3,6.7v0.9h21.4v-0.9c-4.8,0.4-10.6-0.8-10.2-6.7c0,0,0-52.9,0-52.9l40.2,60.5h2.8V12.1
			C54.1,6.2,59.9,5,64.7,5.4V4.5H43.3V5.4z M77.9,26.5c-7.4,7.5-7.4,31.4,0.2,38.8c6.9,8.7,25.4,8.4,31.9,0
			c7.3-7.5,7.4-31.4-0.2-38.8C102.9,17.9,84.5,18.1,77.9,26.5z M86.6,68.3c-5.3-5.6-5-13.3-5.3-22.5c-1-13.9,4.3-31.9,20-22.3
			c5.2,5.5,4.9,13.3,5.3,22.3C107.7,59.6,102.1,78,86.6,68.3z M188.2,62.7c0,0,0-62.5,0-62.5h-16.5v0.9c9.8-1.3,7.7,10,7.9,16.1
			c0,5,0,11.2,0.2,16.6h-0.2c-1.1-17.9-26.3-18.1-30.9-2.4c-6.8,18.2,1.7,51.4,26.1,36.7c2.4-2.3,4-5.8,4.8-10.6h0.2v13.1h16.9v-0.9
			C191.6,70.2,187.8,68,188.2,62.7z M160.2,67.9c-6.7-8.3-6.8-35.6,0-43.9c14.1-9.4,20.5,9.4,19.3,21.9
			C180.5,59.9,174.1,76.8,160.2,67.9z M240.3,63.9c0,0,0-27.7,0-27.7c1.1-15.5-13.2-17.9-25.2-15.1c-9.6,1.1-12.2,14.6-0.5,13.8
			c0-4.8,0.5-8.3,1.5-10.5c2.8-5.5,14.9-4.3,14.9,3.2c0.7,3.6,0.5,11.2,0.6,15.5c-7.3,0.1-19.2,0.6-23.5,4.2
			c-13.6,11.2,0.7,29.8,16.3,23.3c4.1-1.7,6.7-5,7.8-9.6h0.2v9.7h14v-0.9C242.3,70.1,240,68,240.3,63.9z M230.1,63.9
			c-2.4,5.3-9.6,8.5-14.7,5.2c-5.4-4-4.2-17.3-0.6-21.1c2.4-3.4,11.6-3.8,16.8-3.9C231.3,48.7,232.6,59.9,230.1,63.9z M284.4,23.2
			c-6.3-4.8-18.8-3.8-23.5,1.5c-7,7.2-5.8,23.9,5.4,27.1c-9.5,2.4-9.7,15.4-0.2,17.8c-12-1.6-18.9,12.8-8.9,20
			c6.9,5.5,27.2,4.1,33-1.2c10.7-8.2,6.7-28.1-9.3-26.5c-3.3-0.2-13,0.8-15.6-1.1c-3.2-2.3-1.7-7.5,2.2-8.6
			c19,6.2,31-15.1,17.7-28.4c3.8-3.8,9.5-2.4,8.9,3.6C305.8,25.5,294.7,10.5,284.4,23.2z M286.9,72.4c9.9,14.2-8.5,23.7-21.6,18.5
			c-7.7-2.8-8.3-16.7-0.9-19.8C269.2,69.6,283.3,69,286.9,72.4z M268.8,50.5c-6.7-6.8-5.4-37,9.6-27.7
			C284.5,29.9,284.3,59.4,268.8,50.5z M334.1,23.2c-6.3-4.8-18.8-3.8-23.5,1.5c-7,7.2-5.8,23.9,5.4,27.1c-9.5,2.4-9.7,15.4-0.2,17.8
			c-12-1.6-18.9,12.8-8.9,20c6.9,5.5,27.2,4.1,33-1.2c10.7-8.2,6.7-28.1-9.3-26.5c-3.3-0.2-13,0.8-15.6-1.1
			c-3.2-2.3-1.7-7.5,2.2-8.6c19,6.2,31-15.1,17.7-28.4c3.8-3.8,9.5-2.4,8.9,3.6C355.6,25.5,344.4,10.5,334.1,23.2z M336.6,72.4
			c9.9,14.2-8.5,23.7-21.6,18.5c-7.7-2.8-8.3-16.7-0.9-19.8C319,69.6,333,69,336.6,72.4z M318.6,50.5c-6.7-6.8-5.4-37,9.6-27.7
			C334.2,29.9,334,59.4,318.6,50.5z M360.2,26.7c-13.1,18.9-2.8,53.5,25.4,43.5c4.3-1.5,10.4-8.2,4.8-10.8
			c-0.9,9.9-13.7,15-20.9,8.8c-5.5-5.9-5.1-14-5.6-23.6h30.8c0.3-7.4-1.3-15-5.1-18.8C382.8,17.8,366.3,18.3,360.2,26.7z
			 M363.8,43.6c0.9-9.8,0.3-21.9,11.4-22.6c10.7,0.9,9.5,13,10.1,22.6H363.8z M438.9,21.9c-7.2-4.6-18.8-0.5-20,8.4h-0.2V21h-16.5
			V22c5-0.3,8.2,2.1,7.9,7.2c0,0,0,33.5,0,33.5c0.4,5.5-3.7,7.6-8.8,7.1v0.9h26.3v-0.9c-5.3,0.5-9.3-1.8-8.8-7.6c0,0,0-20,0-20
			c0.1-5.3,0-12.6,3.4-17c5.4-5.1,11.4,0.8,10.5,8.2C440.2,34.4,444.4,26.4,438.9,21.9z M454.4,30c0.4-13.1,19.5-12.4,17.4,4.3
			c5.8,0.5,8.7-5.7,5-9.8c-5.4-6-19.1-5.3-24.8-0.9c-4.6,3.1-5.6,10.9-3.1,15.8c3.2,6.4,13.9,9.2,19.7,12.7
			c18,15.8-18,31.2-15.9,3.3c-5.9-0.2-7.6,8.1-3.8,11.8c6.1,6.2,20.4,5.5,26.7,0.7c4.8-3.2,6.1-11.8,3.6-17.2
			C474.9,40.6,454.6,42.8,454.4,30z M492.2,60.4c-3.9,5.2,1.1,15.3,7.5,9.5C503.6,64.6,498.7,54.6,492.2,60.4z"/>
	</g>
</g>
</svg>
