<?xml version="1.0" encoding="utf-8"?>
<!-- Generator: Adobe Illustrator 27.5.0, SVG Export Plug-In . SVG Version: 6.00 Build 0)  -->
<svg version="1.1" id="a" xmlns="http://www.w3.org/2000/svg" xmlns:xlink="http://www.w3.org/1999/xlink" x="0px" y="0px"
	 viewBox="0 0 435.4 89.1" style="enable-background:new 0 0 435.4 89.1;" xml:space="preserve">
<style type="text/css">
	.st0{fill:#111C3C;}
	.st1{fill:none;stroke:#111C3C;stroke-width:0.5;stroke-miterlimit:10;}
</style>
<g>
	<g>
		<path class="st0" d="M4.8,1.2c4.4-0.3,9.1,1.2,8.8,6.3c0,0,0,63.3,0,63.3c0.4,9.7-3.1,17.9-13.3,17.1v0.9h1.6
			c12.8,0.8,22-8.3,21.1-21.5c0,0,0-59.4,0-59.4c-0.3-5.1,4.2-7.1,8.8-6.7V0.2H4.8V1.2z M83,57.3c0,0,0-40.6,0-40.6H66.4v0.9
			c5.7-0.4,8.2,2.8,7.9,8.4c0,0,0,21.3,0,21.3c1.1,10.6-6.6,23.7-17.7,17.1c-7-7.5-2.4-37.9-3.7-47.7H36.4v0.9
			c21.2-1.5-9.9,55.1,28.1,49.3c6.3-1.2,9.4-6.6,10.3-13.2H75v12.7h15.9v-0.9C85.2,66,82.7,62.9,83,57.3z M104.6,25.8
			C105,12.6,124.1,13.3,122,30c5.8,0.5,8.7-5.7,5-9.8c-5.4-6-19.1-5.3-24.8-0.9c-4.6,3.1-5.6,10.9-3.1,15.8
			c3.2,6.4,13.9,9.2,19.7,12.7c18,15.8-18,31.2-15.9,3.3C97,51,95.4,59.3,99.1,63c6.1,6.2,20.4,5.5,26.7,0.7
			c4.8-3.2,6.1-11.8,3.6-17.2C125.1,36.3,104.8,38.5,104.6,25.8z M152.2,5.4h-0.9c-1,7.9-7.1,11.9-14.8,11.4v0.9h7v35.4
			c-0.7,12.2,7.3,15.9,18,13.9c1.6-0.3,2.8-0.6,3.6-1V65c-6.9,3-13.6-0.1-12.9-8.5c0,0,0-38.8,0-38.8h12.9v-0.9h-12.9V5.4z
			 M233.7,20.2c-6.3-6.6-23.6-6.5-25.9,5.3h-0.2v-8.7h-16.5v0.9c5.7-0.5,8.2,2.8,7.9,8.4c0,0,0,31,0,31c0.4,5.9-2.5,9.1-8.3,8.5v0.9
			h24.9v-0.9c-5.7,0.5-8.2-2.9-7.9-8.5c0,0,0-23.8,0-23.8C206.3,21.9,218,10.7,226.8,21c4.3,5.7,1.5,38.4,2.2,45.5h16.1v-0.9
			C229.8,68.2,243.8,28.4,233.7,20.2z M258.1,22.4c-13.1,18.9-2.8,53.5,25.4,43.5c4.3-1.5,10.4-8.2,4.8-10.8
			c-0.9,9.9-13.7,15-20.9,8.8c-5.5-5.9-5.1-14-5.6-23.6h30.8c0.3-7.4-1.3-15-5.1-18.8C280.7,13.6,264.2,14.1,258.1,22.4z
			 M261.7,39.3c0.9-9.8,0.3-21.9,11.4-22.6c10.7,0.9,9.5,13,10.1,22.6H261.7z M356.9,17.7c7.4-0.3,11.9,0,9.1,8.4
			c-2.4,9.4-7.1,28-9.4,37.1h-0.2c-3.2-9.9-11.9-36-15.3-46.2h-5.9c-2.6,10.2-9.3,35.6-11.7,45.4h-0.2c-2.5-9-7.5-27.6-10.1-36.8
			c-2.3-6.6,0.1-8.4,6.8-7.9v-0.9h-22.8v0.9c3.4-0.4,5.8,1.5,6.5,4.9c0,0,12.8,43.9,12.8,43.9h6.9l11.5-44.1l14.5,44.1h7.3
			l10.6-41.6c1-5.3,4.3-8,9.4-7.2v-0.9h-19.8V17.7z M388.5,25.8c0.4-13.1,19.5-12.4,17.4,4.3c5.8,0.5,8.7-5.7,5-9.8
			c-5.4-6-19.1-5.3-24.8-0.9c-4.6,3.1-5.6,10.9-3.1,15.8c3.2,6.4,13.9,9.2,19.7,12.7c18,15.8-18,31.2-15.9,3.3
			c-5.9-0.2-7.6,8.1-3.8,11.8c6.1,6.2,20.4,5.5,26.7,0.7c4.8-3.2,6.1-11.8,3.6-17.2C409,36.3,388.6,38.5,388.5,25.8z M426.3,56.1
			c-3.9,5.2,1.1,15.3,7.5,9.5C437.7,60.4,432.7,50.3,426.3,56.1z"/>
	</g>
	<g>
		<path class="st1" d="M4.8,1.2c4.4-0.3,9.1,1.2,8.8,6.3c0,0,0,63.3,0,63.3c0.4,9.7-3.1,17.9-13.3,17.1v0.9h1.6
			c12.8,0.8,22-8.3,21.1-21.5c0,0,0-59.4,0-59.4c-0.3-5.1,4.2-7.1,8.8-6.7V0.2H4.8V1.2z M83,57.3c0,0,0-40.6,0-40.6H66.4v0.9
			c5.7-0.4,8.2,2.8,7.9,8.4c0,0,0,21.3,0,21.3c1.1,10.6-6.6,23.7-17.7,17.1c-7-7.5-2.4-37.9-3.7-47.7H36.4v0.9
			c21.2-1.5-9.9,55.1,28.1,49.3c6.3-1.2,9.4-6.6,10.3-13.2H75v12.7h15.9v-0.9C85.2,66,82.7,62.9,83,57.3z M104.6,25.8
			C105,12.6,124.1,13.3,122,30c5.8,0.5,8.7-5.7,5-9.8c-5.4-6-19.1-5.3-24.8-0.9c-4.6,3.1-5.6,10.9-3.1,15.8
			c3.2,6.4,13.9,9.2,19.7,12.7c18,15.8-18,31.2-15.9,3.3C97,51,95.4,59.3,99.1,63c6.1,6.2,20.4,5.5,26.7,0.7
			c4.8-3.2,6.1-11.8,3.6-17.2C125.1,36.3,104.8,38.5,104.6,25.8z M152.2,5.4h-0.9c-1,7.9-7.1,11.9-14.8,11.4v0.9h7v35.4
			c-0.7,12.2,7.3,15.9,18,13.9c1.6-0.3,2.8-0.6,3.6-1V65c-6.9,3-13.6-0.1-12.9-8.5c0,0,0-38.8,0-38.8h12.9v-0.9h-12.9V5.4z
			 M233.7,20.2c-6.3-6.6-23.6-6.5-25.9,5.3h-0.2v-8.7h-16.5v0.9c5.7-0.5,8.2,2.8,7.9,8.4c0,0,0,31,0,31c0.4,5.9-2.5,9.1-8.3,8.5v0.9
			h24.9v-0.9c-5.7,0.5-8.2-2.9-7.9-8.5c0,0,0-23.8,0-23.8C206.3,21.9,218,10.7,226.8,21c4.3,5.7,1.5,38.4,2.2,45.5h16.1v-0.9
			C229.8,68.2,243.8,28.4,233.7,20.2z M258.1,22.4c-13.1,18.9-2.8,53.5,25.4,43.5c4.3-1.5,10.4-8.2,4.8-10.8
			c-0.9,9.9-13.7,15-20.9,8.8c-5.5-5.9-5.1-14-5.6-23.6h30.8c0.3-7.4-1.3-15-5.1-18.8C280.7,13.6,264.2,14.1,258.1,22.4z
			 M261.7,39.3c0.9-9.8,0.3-21.9,11.4-22.6c10.7,0.9,9.5,13,10.1,22.6H261.7z M356.9,17.7c7.4-0.3,11.9,0,9.1,8.4
			c-2.4,9.4-7.1,28-9.4,37.1h-0.2c-3.2-9.9-11.9-36-15.3-46.2h-5.9c-2.6,10.2-9.3,35.6-11.7,45.4h-0.2c-2.5-9-7.5-27.6-10.1-36.8
			c-2.3-6.6,0.1-8.4,6.8-7.9v-0.9h-22.8v0.9c3.4-0.4,5.8,1.5,6.5,4.9c0,0,12.8,43.9,12.8,43.9h6.9l11.5-44.1l14.5,44.1h7.3
			l10.6-41.6c1-5.3,4.3-8,9.4-7.2v-0.9h-19.8V17.7z M388.5,25.8c0.4-13.1,19.5-12.4,17.4,4.3c5.8,0.5,8.7-5.7,5-9.8
			c-5.4-6-19.1-5.3-24.8-0.9c-4.6,3.1-5.6,10.9-3.1,15.8c3.2,6.4,13.9,9.2,19.7,12.7c18,15.8-18,31.2-15.9,3.3
			c-5.9-0.2-7.6,8.1-3.8,11.8c6.1,6.2,20.4,5.5,26.7,0.7c4.8-3.2,6.1-11.8,3.6-17.2C409,36.3,388.6,38.5,388.5,25.8z M426.3,56.1
			c-3.9,5.2,1.1,15.3,7.5,9.5C437.7,60.4,432.7,50.3,426.3,56.1z"/>
	</g>
</g>
</svg>
