<?xml version="1.0" encoding="utf-8"?>
<!-- Generator: Adobe Illustrator 27.5.0, SVG Export Plug-In . SVG Version: 6.00 Build 0)  -->
<svg version="1.1" id="a" xmlns="http://www.w3.org/2000/svg" xmlns:xlink="http://www.w3.org/1999/xlink" x="0px" y="0px"
	 viewBox="0 0 325.5 34.3" style="enable-background:new 0 0 325.5 34.3;" xml:space="preserve">
<style type="text/css">
	.st0{fill:#111C3C;stroke:#111C3C;stroke-width:0.5;stroke-miterlimit:10;}
</style>
<g>
	<path class="st0" d="M7.6,34c-2.2,0-4-0.6-5.3-1.7c-1.3-1.1-2-2.7-2-4.8c0-2.2,0.8-3.9,2.5-5s4.2-1.7,7.5-1.8l3.6-0.1v-3.4
		c0-1.6-0.1-3-0.3-4s-0.6-1.8-1.1-2.3s-1.5-0.8-2.7-0.8c-1.7,0-2.8,0.5-3.3,1.6s-0.7,2.7-0.7,5c-1.2,0-2.2-0.2-2.8-0.6
		s-0.9-1.1-0.9-2c0-1.1,0.4-1.9,1.1-2.5s1.7-1.1,2.9-1.4S8.6,9.9,10,9.9c2.7,0,4.7,0.6,6,1.7s2,3.1,2,5.9v13.1
		c0,0.7,0.1,1.3,0.3,1.7c0.2,0.4,0.5,0.7,0.9,0.9s0.9,0.3,1.6,0.3h0.1v0.4h-6.5v-4.6h-0.1c-0.3,1.2-0.8,2.1-1.4,2.9
		c-0.6,0.8-1.4,1.3-2.3,1.6S8.7,34,7.6,34L7.6,34z M8.5,33.3c1.1,0,2-0.3,2.9-0.8c0.8-0.5,1.5-1.3,1.9-2.2c0.5-0.9,0.7-1.9,0.7-3V21
		l-2.8,0.1c-2.5,0.1-4.2,0.7-5.2,1.7S4.5,25.6,4.5,28c0,1.2,0.1,2.1,0.4,3c0.4,0.7,0.8,1.3,1.4,1.7S7.7,33.3,8.5,33.3L8.5,33.3z"/>
	<path class="st0" d="M34.3,33.5v-0.4h0.6c0.8,0,1.5-0.1,2-0.3s0.9-0.6,1.2-1c0.3-0.5,0.4-1,0.4-1.8V5.7c0-0.7-0.1-1.2-0.4-1.7
		s-0.7-0.8-1.2-1s-1.2-0.3-2-0.3h-0.6V2.2h13.4c3,0,5.6,0.6,7.7,1.8c2.1,1.2,3.8,3,4.9,5.3c1.1,2.3,1.7,5.2,1.7,8.5s-0.5,6-1.6,8.3
		s-2.7,4.2-4.8,5.5s-4.8,1.9-7.9,1.9L34.3,33.5L34.3,33.5z M46.8,33.2c2.5,0,4.5-0.5,6-1.6c1.5-1,2.7-2.7,3.4-4.9
		c0.7-2.2,1.1-5.2,1.1-8.7s-0.4-6.4-1.1-8.7c-0.8-2.3-1.9-3.9-3.4-5s-3.5-1.6-5.9-1.6h-3.9V33L46.8,33.2L46.8,33.2z"/>
	<path class="st0" d="M77.3,34c-3.3,0-5.8-1-7.7-3.2c-1.8-2.1-2.7-5-2.7-8.9c0-4.1,0.8-7.2,2.5-9.2s4.1-3.1,7.2-3.1
		c2.8,0,5.1,0.9,6.7,2.6s2.4,4.4,2.4,7.8v1H71.2c0,3,0.2,5.4,0.7,7.2s1.1,3.1,2,4c0.9,0.8,2.1,1.2,3.6,1.2c1.1,0,2.1-0.2,3-0.6
		s1.6-1,2.2-1.8s1-1.8,1.2-3c0.3,0.1,0.6,0.2,0.8,0.5c0.2,0.3,0.3,0.6,0.3,0.9c0,0.6-0.3,1.2-0.8,1.9c-0.6,0.7-1.4,1.3-2.5,1.8
		C80.4,33.8,79,34,77.3,34z M81.3,20.8c0-2.6-0.2-4.6-0.5-6.2s-0.8-2.7-1.5-3.4S77.8,10,76.5,10c-1.2,0-2.2,0.4-2.9,1.1
		s-1.3,1.9-1.7,3.4s-0.6,3.6-0.8,6.2C71.2,20.8,81.3,20.8,81.3,20.8z"/>
	<path class="st0" d="M89.2,33.5v-0.4h0.3c0.9,0,1.6-0.1,2.1-0.3s0.9-0.6,1.1-1.1c0.2-0.5,0.3-1.1,0.3-1.9V13.9c0-0.8-0.1-1.5-0.3-2
		c-0.2-0.5-0.6-0.9-1.1-1.1c-0.5-0.2-1.2-0.4-2.1-0.4h-0.1v-0.4h7.8v4.2h0.1c0.4-1.3,1-2.3,1.6-2.9c0.7-0.7,1.4-1.1,2.3-1.3
		s1.7-0.4,2.6-0.4c1.6,0,2.9,0.4,4.2,1.1c1.2,0.8,2.2,2.2,2.7,4.2h0.1c0.4-1.6,0.9-2.8,1.6-3.5c0.7-0.8,1.4-1.3,2.3-1.5
		s1.7-0.4,2.5-0.4c2.5,0,4.4,0.7,5.6,2.2c1.2,1.4,1.8,3.6,1.8,6.5v11.2c0,0.9,0.1,1.6,0.3,2.1c0.2,0.5,0.6,0.9,1.2,1.1
		s1.2,0.3,2.1,0.3h0.1v0.4h-7.8V17.5c0-2.4-0.3-4.2-1-5.3s-1.8-1.7-3.2-1.7c-1.1,0-2.1,0.3-2.8,0.9c-0.8,0.6-1.4,1.4-1.8,2.5
		s-0.6,2.4-0.6,3.9v11.7c0,0.9,0.1,1.6,0.3,2.1c0.2,0.5,0.6,0.9,1.2,1.1s1.2,0.3,2.1,0.3h0.1v0.4H107V17.5c0-2.4-0.3-4.2-1-5.3
		s-1.8-1.7-3.3-1.7c-1.2,0-2.2,0.3-2.9,0.9C99,12,98.4,12.9,98,14s-0.7,2.7-0.7,4.4v11.1c0,0.9,0.1,1.6,0.3,2.1
		c0.2,0.5,0.6,0.9,1.2,1.1s1.2,0.3,2.1,0.3h0.1v0.4L89.2,33.5L89.2,33.5z"/>
	<path class="st0" d="M142,34c-3.2,0-5.6-1-7.4-3c-1.8-2-2.7-5.1-2.7-9.2s0.9-7.1,2.6-9.1s4.3-3,7.7-3c3.2,0,5.6,1,7.4,3
		s2.7,5.1,2.7,9.1s-0.9,7.2-2.6,9.2C148,33,145.4,34,142,34z M142.1,33.5c1.4,0,2.6-0.4,3.5-1.2s1.5-2,1.9-3.8
		c0.4-1.7,0.6-4,0.6-6.8s-0.2-5.1-0.6-6.8s-1-3-1.9-3.8s-2-1.2-3.5-1.2s-2.6,0.4-3.5,1.2s-1.5,2-1.9,3.8s-0.6,4-0.6,6.8
		s0.2,5.1,0.6,6.8c0.4,1.7,1,3,1.9,3.8S140.7,33.5,142.1,33.5L142.1,33.5z"/>
	<path class="st0" d="M167.2,34c-2,0-3.7-0.4-5.3-1.2c-1.5-0.8-2.7-2.1-3.6-3.9s-1.3-4.2-1.3-7.1s0.4-5.4,1.3-7.2s2-3,3.5-3.8
		s3.1-1.1,4.9-1.1c1.2,0,2.4,0.2,3.6,0.5c1.2,0.3,2.1,0.8,2.9,1.5s1.1,1.5,1.1,2.6c0,0.6-0.1,1.2-0.5,1.6c-0.4,0.4-0.8,0.7-1.3,0.9
		c-0.6,0.2-1.3,0.3-2.1,0.3c0-1.6-0.1-2.8-0.3-3.8s-0.6-1.8-1.2-2.2s-1.3-0.7-2.4-0.7s-2,0.3-2.8,1s-1.4,1.8-1.9,3.5
		c-0.4,1.7-0.7,4.1-0.7,7.2c0,2.9,0.2,5.2,0.7,6.9c0.4,1.7,1.1,3,2.1,3.8c1,0.8,2.2,1.1,3.7,1.1c1,0,1.8-0.2,2.6-0.5s1.4-0.9,2-1.7
		s1-1.9,1.3-3.3c0.3,0.1,0.5,0.2,0.7,0.4c0.2,0.2,0.2,0.6,0.2,1c0,0.7-0.3,1.4-0.8,2.1c-0.6,0.7-1.4,1.3-2.5,1.7S168.9,34,167.2,34
		L167.2,34z"/>
	<path class="st0" d="M177.2,33.5v-0.4h0.6c0.9,0,1.6-0.1,2.1-0.3s0.9-0.6,1.1-1.1c0.2-0.5,0.4-1.1,0.4-1.9V13.9
		c0-0.8-0.1-1.5-0.4-2c-0.2-0.5-0.6-0.9-1.1-1.1c-0.5-0.2-1.2-0.4-2.1-0.4h-0.1v-0.4h7.8v4.4h0.1c0.2-0.8,0.5-1.5,0.9-2.2
		s1-1.3,1.9-1.8s1.9-0.8,3.4-0.8s2.6,0.3,3.4,0.9c0.8,0.6,1.2,1.4,1.2,2.4c0,0.9-0.3,1.6-0.9,2.2c-0.6,0.6-1.7,0.9-3.1,0.9
		c0-1.8-0.3-3.1-0.9-3.8s-1.3-1-2.1-1c-0.9,0-1.5,0.3-2,0.9c-0.5,0.6-0.9,1.4-1.1,2.3c-0.2,0.9-0.4,1.9-0.4,2.9s-0.1,1.9-0.1,2.8
		v9.4c0,0.9,0.1,1.6,0.4,2.1c0.2,0.5,0.6,0.9,1.2,1.1c0.5,0.2,1.2,0.3,2.1,0.3h0.6v0.4L177.2,33.5L177.2,33.5z"/>
	<path class="st0" d="M205.5,34c-2.2,0-4-0.6-5.3-1.7c-1.3-1.1-1.9-2.7-1.9-4.8c0-2.2,0.8-3.9,2.5-5s4.2-1.7,7.5-1.8l3.6-0.1v-3.4
		c0-1.6-0.1-3-0.3-4s-0.6-1.8-1.1-2.3s-1.5-0.8-2.7-0.8c-1.7,0-2.8,0.5-3.3,1.6s-0.7,2.7-0.7,5c-1.2,0-2.2-0.2-2.8-0.6
		s-0.9-1.1-0.9-2c0-1.1,0.4-1.9,1.1-2.5c0.7-0.6,1.7-1.1,2.9-1.4s2.5-0.4,3.9-0.4c2.7,0,4.7,0.6,6,1.7s2,3.1,2,5.9v13.1
		c0,0.7,0.1,1.3,0.3,1.7c0.2,0.4,0.5,0.7,0.9,0.9s0.9,0.3,1.6,0.3h0.1v0.4h-6.6v-4.6h-0.1c-0.3,1.2-0.8,2.1-1.4,2.9
		c-0.6,0.8-1.4,1.3-2.3,1.6S206.6,34,205.5,34L205.5,34z M206.4,33.3c1.1,0,2-0.3,2.9-0.8c0.8-0.5,1.5-1.3,1.9-2.2
		c0.5-0.9,0.7-1.9,0.7-3V21l-2.8,0.1c-2.5,0.1-4.2,0.7-5.1,1.7s-1.4,2.8-1.4,5.2c0,1.2,0.1,2.1,0.4,3c0.3,0.8,0.7,1.4,1.3,1.8
		C204.8,33.2,205.5,33.3,206.4,33.3L206.4,33.3z"/>
	<path class="st0" d="M231.2,34c-2.2,0-3.8-0.5-4.8-1.5s-1.5-2.8-1.5-5.3V10.4h-3.3v-0.4c1.1,0,2-0.1,2.7-0.3s1.4-0.5,2-0.9
		s1.1-1,1.4-1.7c0.4-0.7,0.6-1.6,0.9-2.5h0.4v5.4h6.1v0.4H229v18.3c0,1.5,0.3,2.7,0.9,3.4c0.6,0.8,1.4,1.1,2.6,1.1
		c0.4,0,0.8,0,1.3-0.1s0.9-0.2,1.4-0.4v0.5c-0.4,0.2-0.9,0.3-1.7,0.5S232,34,231.2,34L231.2,34z"/>
	<path class="st0" d="M255.5,34c-2.2,0-4-0.6-5.3-1.7c-1.3-1.1-1.9-2.7-1.9-4.8c0-2.2,0.8-3.9,2.5-5s4.2-1.7,7.5-1.8l3.6-0.1v-3.4
		c0-1.6-0.1-3-0.3-4s-0.6-1.8-1.1-2.3c-0.6-0.5-1.5-0.8-2.7-0.8c-1.7,0-2.8,0.5-3.3,1.6s-0.7,2.7-0.7,5c-1.2,0-2.2-0.2-2.8-0.6
		s-0.9-1.1-0.9-2c0-1.1,0.4-1.9,1.1-2.5c0.7-0.6,1.7-1.1,2.9-1.4s2.5-0.4,3.9-0.4c2.7,0,4.7,0.6,6,1.7s2,3.1,2,5.9v13.1
		c0,0.7,0.1,1.3,0.3,1.7c0.2,0.4,0.5,0.7,0.9,0.9s0.9,0.3,1.6,0.3h0.1v0.4h-6.6v-4.6h-0.1c-0.3,1.2-0.8,2.1-1.4,2.9
		s-1.4,1.3-2.3,1.6C257.5,33.8,256.6,34,255.5,34L255.5,34z M256.2,33.3c1.1,0,2-0.3,2.9-0.8c0.8-0.5,1.5-1.3,2-2.2
		c0.5-0.9,0.7-1.9,0.7-3V21l-2.8,0.1c-2.5,0.1-4.2,0.7-5.1,1.7s-1.4,2.8-1.4,5.2c0,1.2,0.1,2.1,0.4,3c0.3,0.8,0.7,1.4,1.3,1.8
		C254.8,33.2,255.5,33.3,256.2,33.3L256.2,33.3z"/>
	<path class="st0" d="M271.9,33.5v-0.4h0.4c0.9,0,1.6-0.1,2.1-0.4s0.9-0.7,1.1-1.2c0.2-0.6,0.3-1.4,0.3-2.4V14.4
		c0-1-0.1-1.8-0.3-2.3c-0.2-0.6-0.6-1-1.1-1.2s-1.2-0.4-2.1-0.4H272v-0.5h7.8v4.1h0.1c0.4-1.4,1-2.4,1.7-3s1.5-1.1,2.4-1.2
		c0.9-0.2,1.7-0.3,2.4-0.3c2.6,0,4.5,0.7,5.8,2s1.9,3.5,1.9,6.5V29c0,1,0.1,1.8,0.3,2.4c0.2,0.6,0.5,1,1,1.2s1.1,0.4,2,0.4h0.2v0.4
		H290V16.8c0-1.9-0.4-3.4-1-4.6s-1.9-1.8-3.6-1.8c-1.4,0-2.5,0.4-3.2,1.1c-0.8,0.7-1.4,1.7-1.7,2.8c-0.3,1.1-0.5,2.4-0.5,3.6v11.3
		c0,1,0.1,1.8,0.3,2.4s0.6,1,1.1,1.2c0.5,0.2,1.2,0.4,2.1,0.4h0.2v0.4L271.9,33.5L271.9,33.5z"/>
	<path class="st0" d="M310.1,34c-1.9,0-3.5-0.5-4.8-1.4c-1.3-0.9-2.3-2.3-3-4.1s-1-4.1-1-6.7s0.3-4.9,1-6.7s1.6-3.1,2.9-4.1
		c1.3-0.9,2.9-1.4,4.8-1.4s3.5,0.5,4.7,1.6c1.1,1.1,1.9,2.7,2.3,4.9h0.1c0-1.1,0-2.1-0.1-3.1c0-1,0-1.9,0-2.8V4.2
		c0-0.8-0.1-1.5-0.4-2s-0.6-0.9-1.1-1.1s-1.2-0.3-2.1-0.3h-0.1V0.2h7.8v29.5c0,0.8,0.1,1.4,0.4,1.9c0.3,0.5,0.6,0.9,1.2,1.1
		c0.5,0.2,1.2,0.3,2.1,0.3h0.4v0.4h-8v-6.2h-0.1c-0.4,2.2-1.1,3.9-2.3,5C313.6,33.5,312.1,34,310.1,34L310.1,34z M310.9,33.3
		c2.1,0,3.6-1,4.6-2.9s1.5-4.8,1.5-8.7c0-2.5-0.2-4.7-0.6-6.4s-1.1-3-2-3.8s-2-1.3-3.5-1.3c-1.3,0-2.3,0.4-3.1,1.1s-1.4,2-1.7,3.7
		s-0.5,3.9-0.5,6.6s0.2,5,0.5,6.7s0.9,3,1.7,3.7C308.6,33,309.6,33.3,310.9,33.3L310.9,33.3z"/>
</g>
</svg>
