<?xml version="1.0" encoding="utf-8"?>
<!-- Generator: Adobe Illustrator 27.5.0, SVG Export Plug-In . SVG Version: 6.00 Build 0)  -->
<svg version="1.1" id="a" xmlns="http://www.w3.org/2000/svg" xmlns:xlink="http://www.w3.org/1999/xlink" x="0px" y="0px"
	 viewBox="0 0 327.5 44.2" style="enable-background:new 0 0 327.5 44.2;" xml:space="preserve">
<style type="text/css">
	.st0{fill:#111C3C;stroke:#111C3C;stroke-width:0.5;stroke-miterlimit:10;}
</style>
<g>
	<path class="st0" d="M19.1,32.8c-0.4-0.2-0.7-0.5-0.9-0.9c-0.2-0.4-0.3-1-0.3-1.7v-13c0-2.8-0.7-4.7-2-5.9c-1.3-1.1-3.3-1.7-6-1.7
		c-1.4,0-2.7,0.1-3.9,0.4s-2.2,0.8-2.9,1.4c-0.7,0.6-1.1,1.5-1.1,2.5c0,0.9,0.3,1.6,0.9,2c0.6,0.4,1.5,0.6,2.8,0.6
		c0-2.2,0.2-3.9,0.7-5S8,9.9,9.8,9.9c1.2,0,2.1,0.3,2.7,0.8s1,1.3,1.1,2.3s0.3,2.4,0.3,4v3.3l-3.6,0.3c-3.4,0.1-5.9,0.7-7.5,1.8
		c-1.7,1.1-2.5,2.8-2.5,5.1c0,2,0.7,3.6,2,4.8C3.5,33.5,5.3,34,7.6,34l0,0c1.1,0,2.1-0.2,3-0.5c0.9-0.4,1.7-0.9,2.3-1.6
		c0.6-0.7,1.1-1.7,1.4-2.9l0,0v4.6h6.6v-0.4h-0.1C20,33.2,19.5,33,19.1,32.8z M13.9,27.2c0,1.1-0.2,2.1-0.7,3s-1.1,1.7-2,2.2
		c-0.8,0.5-1.8,0.8-2.9,0.8c-0.8,0-1.6-0.2-2.1-0.6c-0.6-0.4-1-1-1.3-1.8c-0.3-0.8-0.4-1.8-0.4-3c0-2.4,0.5-4.1,1.4-5.2
		s2.7-1.6,5.2-1.7l2.8-0.1V27.2z"/>
	<path class="st0" d="M47.7,32.8c-0.5-0.2-0.8-0.7-1-1.2c-0.2-0.6-0.3-1.4-0.3-2.4V18.2c0-3-0.6-5.2-1.9-6.5s-3.2-2-5.8-2
		c-0.7,0-1.5,0.1-2.4,0.3s-1.7,0.6-2.4,1.2c-0.7,0.6-1.3,1.7-1.7,3H32v-4.2h-7.8v0.4h0.2c0.9,0,1.6,0.1,2.1,0.4s0.8,0.7,1.1,1.2
		c0.2,0.6,0.3,1.4,0.3,2.3V29c0,1-0.1,1.8-0.3,2.4c-0.2,0.6-0.6,1-1.1,1.2S25.3,33,24.3,33H24v0.4l0,0h11.8V33h-0.2
		c-0.9,0-1.6-0.1-2.1-0.4c-0.5-0.2-0.9-0.7-1.1-1.2c-0.2-0.6-0.3-1.4-0.3-2.4V17.9c0-1.3,0.2-2.5,0.5-3.6c0.3-1.2,0.9-2.1,1.7-2.8
		s1.9-1.1,3.2-1.1c1.7,0,2.9,0.6,3.6,1.8s1,2.8,1,4.6v16.8h7.6v-0.4h-0.2C48.8,33.2,48.2,33,47.7,32.8z"/>
	<path class="st0" d="M62.5,2.7h0.6c0.8,0,1.4,0.1,2,0.3c0.5,0.2,1,0.5,1.2,1c0.3,0.4,0.4,1,0.4,1.7v24.3c0,0.7-0.1,1.3-0.4,1.8
		c-0.3,0.5-0.7,0.8-1.2,1s-1.2,0.3-2,0.3h-0.6v0.4h12.7V33h-0.6c-0.8,0-1.5-0.1-2-0.3s-1-0.6-1.2-1c-0.3-0.5-0.4-1-0.4-1.8V5.8
		c0-0.7,0.1-1.3,0.4-1.8s0.7-0.8,1.2-1.1c0.5-0.2,1.2-0.3,2-0.3h0.6V2.2H62.5V2.7z"/>
	<path class="st0" d="M101.8,32.8c-0.5-0.2-0.8-0.7-1-1.2c-0.2-0.6-0.3-1.4-0.3-2.4V18.2c0-3-0.6-5.2-1.9-6.5c-1.3-1.4-3.2-2-5.8-2
		c-0.7,0-1.5,0.1-2.4,0.3s-1.7,0.6-2.4,1.2c-0.7,0.6-1.3,1.7-1.7,3h-0.1v-4.2h-7.8v0.4h0.2c0.9,0,1.6,0.1,2.1,0.4
		c0.5,0.2,0.8,0.7,1.1,1.2c0.2,0.6,0.3,1.4,0.3,2.3V29c0,1-0.1,1.8-0.3,2.4c-0.2,0.6-0.6,1-1.1,1.2S79.5,33,78.6,33h-0.4v0.4l0,0H90
		V33h-0.2c-0.9,0-1.6-0.1-2.1-0.4c-0.5-0.2-0.9-0.7-1.1-1.2c-0.2-0.6-0.3-1.4-0.3-2.4V17.9c0-1.3,0.2-2.5,0.5-3.6
		c0.3-1.2,0.9-2.1,1.7-2.8c0.8-0.7,1.9-1.1,3.2-1.1c1.7,0,2.9,0.6,3.6,1.8s1,2.8,1,4.6v16.8h7.6v-0.4h-0.2
		C102.9,33.2,102.3,33,101.8,32.8z"/>
	<path class="st0" d="M128.9,32.8c-0.5-0.2-0.9-0.6-1.2-1.1c-0.2-0.5-0.3-1.1-0.3-1.9V0.2h-7.8v0.4h0.1c0.9,0,1.6,0.1,2.1,0.3
		s0.9,0.6,1.1,1.1s0.4,1.1,0.4,2v6.2c0,0.8,0,1.8,0,2.8s0,2,0.1,3.1h-0.2c-0.4-2.2-1.1-3.9-2.3-4.9c-1.1-1.1-2.8-1.6-4.7-1.6
		c-1.9,0-3.5,0.5-4.8,1.4s-2.3,2.2-2.9,4.1c-0.7,1.8-1,4.1-1,6.7s0.3,4.9,1,6.7c0.7,1.8,1.7,3.2,3,4.1c1.3,0.9,2.9,1.4,4.8,1.4l0,0
		c1.9,0,3.4-0.5,4.5-1.6c1.1-1.1,1.9-2.8,2.3-5h0.1v6.2h8v-0.4h-0.4C130.1,33.2,129.4,33,128.9,32.8z M121.8,30.5
		c-1,1.9-2.5,2.9-4.6,2.9l0,0c-1.3,0-2.3-0.4-3.1-1.2c-0.8-0.8-1.4-2-1.7-3.7c-0.4-1.7-0.5-4-0.5-6.7s0.2-5,0.5-6.6
		c0.3-1.7,0.9-2.9,1.7-3.7c0.8-0.8,1.8-1.1,3.1-1.1c1.4,0,2.6,0.4,3.5,1.3s1.5,2.1,2,3.8c0.4,1.7,0.6,3.8,0.6,6.3
		C123.2,25.6,122.8,28.5,121.8,30.5z"/>
	<path class="st0" d="M144.2,9.6c-3.1,0-5.5,1-7.2,3.1s-2.5,5.2-2.5,9.2c0,3.8,0.9,6.8,2.7,8.9s4.4,3.1,7.7,3.1l0,0
		c1.7,0,3.1-0.2,4.2-0.7c1.1-0.5,1.9-1.1,2.5-1.8c0.5-0.7,0.8-1.3,0.8-1.9c0-0.3-0.1-0.6-0.3-0.9s-0.4-0.5-0.8-0.5
		c-0.2,1.2-0.6,2.2-1.2,3c-0.6,0.8-1.3,1.4-2.2,1.8c-0.9,0.4-1.8,0.6-3,0.6c-1.5,0-2.7-0.4-3.6-1.2c-0.9-0.8-1.6-2.2-2-4
		s-0.6-4.2-0.7-7.2h14.6v-1c0-3.5-0.8-6.1-2.4-7.8S147.1,9.6,144.2,9.6z M138.8,20.8c0.1-2.6,0.4-4.6,0.8-6.2c0.4-1.6,1-2.7,1.7-3.4
		s1.7-1.1,2.9-1.1c1.1,0,2.1,0.4,2.8,1.1c0.7,0.7,1.2,1.8,1.5,3.4c0.3,1.5,0.5,3.6,0.5,6.2H138.8z"/>
	<path class="st0" d="M171.4,9.6c-2,0-3.5,0.5-4.6,1.6s-1.9,2.7-2.3,4.9h-0.1v-6.1h-8.2v0.4h0.6c0.9,0,1.6,0.1,2.1,0.4
		c0.5,0.2,0.9,0.6,1.1,1.1c0.2,0.5,0.4,1.2,0.4,2v26.3c0,0.8-0.1,1.4-0.4,1.9c-0.2,0.5-0.6,0.9-1.1,1.1c-0.5,0.2-1.2,0.3-2.1,0.3
		h-0.3V44h11.8v-0.4h-0.1c-0.9,0-1.6-0.1-2.1-0.3s-0.9-0.6-1.1-1.2c-0.2-0.5-0.3-1.2-0.3-2.1V29.5c0-0.7,0-1.5,0-2.2h0.1
		c0.4,2.2,1.2,3.9,2.3,5c1.1,1.1,2.6,1.6,4.5,1.6c2.9,0,5-1,6.5-3.1s2.3-5.1,2.3-9.1s-0.7-7-2.2-9.1C176.4,10.6,174.2,9.6,171.4,9.6
		z M175.2,28.5c-0.4,1.7-0.9,3-1.7,3.7c-0.8,0.8-1.8,1.2-3.1,1.2l0,0c-1.4,0-2.5-0.4-3.4-1.2s-1.6-2.1-2-3.8
		c-0.4-1.7-0.7-3.9-0.7-6.5c0-2.5,0.2-4.6,0.6-6.3c0.4-1.7,1.1-3,2-3.8c0.9-0.9,2-1.3,3.4-1.3c1.3,0,2.3,0.4,3.1,1.1
		c0.8,0.8,1.4,2,1.7,3.7s0.5,3.9,0.5,6.6C175.9,24.5,175.6,26.8,175.2,28.5z"/>
	<path class="st0" d="M156.4,44L156.4,44L156.4,44z"/>
	<path class="st0" d="M194.6,9.6c-3.1,0-5.5,1-7.2,3.1s-2.5,5.2-2.5,9.2c0,3.8,0.9,6.8,2.7,8.9s4.4,3.1,7.7,3.1l0,0
		c1.7,0,3.1-0.2,4.2-0.7c1.1-0.5,1.9-1.1,2.5-1.8c0.5-0.7,0.8-1.3,0.8-1.9c0-0.3-0.1-0.6-0.3-0.9s-0.4-0.5-0.8-0.5
		c-0.2,1.2-0.6,2.2-1.2,3c-0.6,0.8-1.3,1.4-2.2,1.8c-0.9,0.4-1.8,0.6-3,0.6c-1.5,0-2.7-0.4-3.6-1.2c-0.9-0.8-1.6-2.2-2-4
		s-0.6-4.2-0.7-7.2h14.6v-1c0-3.5-0.8-6.1-2.4-7.8S197.4,9.6,194.6,9.6z M189.1,20.8c0.1-2.6,0.4-4.6,0.8-6.2c0.4-1.6,1-2.7,1.7-3.4
		s1.7-1.1,2.9-1.1c1.1,0,2.1,0.4,2.8,1.1c0.7,0.7,1.2,1.8,1.5,3.4c0.3,1.5,0.5,3.6,0.5,6.2H189.1z"/>
	<path class="st0" d="M230.9,32.8c-0.5-0.2-0.8-0.7-1-1.2c-0.2-0.6-0.3-1.4-0.3-2.4V18.2c0-3-0.6-5.2-1.9-6.5s-3.2-2-5.8-2
		c-0.7,0-1.5,0.1-2.4,0.3s-1.7,0.6-2.4,1.2c-0.7,0.6-1.3,1.7-1.7,3h-0.1v-4.2h-7.8v0.4h0.2c0.9,0,1.6,0.1,2.1,0.4s0.8,0.7,1.1,1.2
		c0.2,0.6,0.3,1.4,0.3,2.3V29c0,1-0.1,1.8-0.3,2.4s-0.6,1-1.1,1.2s-1.2,0.4-2.2,0.4h-0.3v0.4l0,0h11.8V33h-0.2
		c-0.9,0-1.6-0.1-2.1-0.4c-0.5-0.2-0.9-0.7-1.1-1.2c-0.2-0.6-0.3-1.4-0.3-2.4V17.9c0-1.3,0.2-2.5,0.5-3.6c0.3-1.2,0.9-2.1,1.7-2.8
		s1.9-1.1,3.2-1.1c1.7,0,2.9,0.6,3.6,1.8s1,2.8,1,4.6v16.8h7.6v-0.4h-0.2C231.9,33.2,231.2,33,230.9,32.8z"/>
	<path class="st0" d="M257.9,32.8c-0.5-0.2-0.9-0.6-1.2-1.1c-0.2-0.5-0.3-1.1-0.3-1.9V0.2h-7.8v0.4h0.1c0.9,0,1.6,0.1,2.1,0.3
		s0.9,0.6,1.1,1.1c0.2,0.5,0.4,1.1,0.4,2v6.2c0,0.8,0,1.8,0,2.8s0,2,0.1,3.1h-0.1c-0.4-2.2-1.1-3.9-2.3-4.9
		c-1.1-1.1-2.8-1.6-4.7-1.6s-3.5,0.5-4.8,1.4s-2.3,2.2-2.9,4.1c-0.7,1.8-1,4.1-1,6.7s0.3,4.9,1,6.7c0.7,1.8,1.7,3.2,3,4.1
		c1.3,0.9,2.9,1.4,4.8,1.4l0,0c1.9,0,3.4-0.5,4.5-1.6c1.1-1.1,1.9-2.8,2.3-5h0.1v6.2h8v-0.4h-0.4C259.1,33.2,258.5,33,257.9,32.8z
		 M250.8,30.5c-1,1.9-2.5,2.9-4.6,2.9l0,0c-1.3,0-2.3-0.4-3.1-1.2s-1.4-2-1.7-3.7s-0.5-4-0.5-6.7s0.2-5,0.5-6.6
		c0.4-1.7,0.9-2.9,1.7-3.7s1.8-1.1,3.1-1.1c1.4,0,2.6,0.4,3.5,1.3s1.5,2.1,2,3.8c0.4,1.7,0.6,3.8,0.6,6.3
		C252.2,25.6,251.8,28.5,250.8,30.5z"/>
	<path class="st0" d="M273.2,9.6c-3.1,0-5.5,1-7.2,3.1s-2.5,5.2-2.5,9.2c0,3.8,0.9,6.8,2.7,8.9c1.8,2.1,4.4,3.1,7.6,3.1l0,0
		c1.7,0,3.1-0.2,4.2-0.7s1.9-1.1,2.5-1.8c0.5-0.7,0.8-1.3,0.8-1.9c0-0.3-0.1-0.6-0.3-0.9c-0.2-0.3-0.4-0.5-0.8-0.5
		c-0.2,1.2-0.6,2.2-1.2,3s-1.3,1.4-2.2,1.8c-0.9,0.4-1.9,0.6-3,0.6c-1.5,0-2.7-0.4-3.6-1.2s-1.6-2.2-2-4s-0.6-4.2-0.7-7.2h14.6v-1
		c0-3.5-0.8-6.1-2.4-7.8S276,9.6,273.2,9.6z M267.8,20.8c0.1-2.6,0.4-4.6,0.8-6.2s1-2.7,1.7-3.4s1.7-1.1,2.9-1.1
		c1.1,0,2.1,0.4,2.8,1.1c0.7,0.7,1.2,1.8,1.5,3.4c0.3,1.5,0.5,3.6,0.5,6.2H267.8z"/>
	<path class="st0" d="M309.5,32.8c-0.5-0.2-0.8-0.7-1-1.2c-0.2-0.6-0.3-1.4-0.3-2.4V18.2c0-3-0.6-5.2-1.9-6.5c-1.3-1.4-3.2-2-5.8-2
		c-0.7,0-1.5,0.1-2.4,0.3s-1.7,0.6-2.4,1.2c-0.7,0.6-1.3,1.7-1.7,3h-0.1v-4.2h-7.8v0.4h0.2c0.9,0,1.6,0.1,2.1,0.4
		c0.5,0.2,0.8,0.7,1.1,1.2c0.2,0.6,0.3,1.4,0.3,2.3V29c0,1-0.1,1.8-0.3,2.4c-0.2,0.6-0.6,1-1.1,1.2s-1.2,0.4-2.2,0.4h-0.3v0.4l0,0
		h11.8V33h-0.2c-0.9,0-1.6-0.1-2.1-0.4c-0.5-0.2-0.9-0.7-1.1-1.2c-0.2-0.6-0.3-1.4-0.3-2.4V17.9c0-1.3,0.2-2.5,0.5-3.6
		c0.3-1.2,0.9-2.1,1.7-2.8s1.9-1.1,3.2-1.1c1.7,0,2.9,0.6,3.6,1.8s1,2.8,1,4.6v16.8h7.6v-0.4h-0.2C310.5,33.2,310,33,309.5,32.8z"/>
	<path class="st0" d="M325.9,33.2c-0.4,0.1-0.9,0.1-1.3,0.1c-1.1,0-2-0.4-2.6-1.1c-0.6-0.8-0.9-1.9-0.9-3.4V10.4h6.1v-0.4h-6.1V4.7
		h-0.4c-0.2,1-0.5,1.8-0.8,2.5c-0.4,0.7-0.8,1.3-1.4,1.7c-0.5,0.4-1.2,0.7-2,0.9s-1.7,0.3-2.7,0.3v0.4h3.3v16.8
		c0,2.5,0.5,4.3,1.5,5.3s2.6,1.5,4.8,1.5l0,0c0.7,0,1.4-0.1,2.2-0.2c0.8-0.2,1.3-0.3,1.7-0.5v-0.4C326.8,33,326.2,33.2,325.9,33.2z"
		/>
</g>
</svg>
