<?xml version="1.0" encoding="utf-8"?>
<!-- Generator: Adobe Illustrator 27.5.0, SVG Export Plug-In . SVG Version: 6.00 Build 0)  -->
<svg version="1.1" id="a" xmlns="http://www.w3.org/2000/svg" xmlns:xlink="http://www.w3.org/1999/xlink" x="0px" y="0px"
	 viewBox="0 0 212.6 44.3" style="enable-background:new 0 0 212.6 44.3;" xml:space="preserve">
<style type="text/css">
	.st0{fill:#111C3C;stroke:#111C3C;stroke-width:0.5;stroke-miterlimit:10;}
</style>
<g>
	<path class="st0" d="M20.6,2.8h1.2c0.8,0,1.5,0.1,2,0.3s0.9,0.6,1.2,1c0.3,0.5,0.4,1.1,0.4,1.8v21.4L8.8,2.2H0.2v0.4h1.3
		c0.8,0,1.4,0.1,2,0.3c0.5,0.2,1,0.5,1.2,1c0.3,0.4,0.4,1,0.4,1.7v24.3c0,0.7-0.1,1.3-0.4,1.8c-0.3,0.5-0.7,0.8-1.2,1S2.3,33,1.5,33
		H0.2v0.4h10.1V33H9.1c-0.8,0-1.5-0.1-2-0.3c-0.6-0.2-1-0.6-1.2-1c-0.3-0.5-0.4-1-0.4-1.8V5l19,28.6h1.3V5.8c0-0.7,0.1-1.3,0.4-1.8
		s0.7-0.8,1.2-1s1.2-0.3,2-0.3h1.3V2.2H20.6V2.8z"/>
	<path class="st0" d="M44.8,9.6c-3.4,0-5.9,1-7.7,3c-1.7,2-2.6,5-2.6,9.1s0.9,7.2,2.7,9.2s4.3,3,7.4,3c3.4,0,6-1,7.7-3
		s2.6-5.1,2.6-9.2s-0.9-7.1-2.7-9.1S47.8,9.6,44.8,9.6z M50,28.6c-0.4,1.7-1,3-1.9,3.8c-0.9,0.8-2,1.2-3.5,1.2l0,0
		c-1.4,0-2.6-0.4-3.5-1.2s-1.5-2-1.9-3.8c-0.4-1.7-0.6-4-0.6-6.8s0.2-5.1,0.6-6.8c0.4-1.7,1-3,1.9-3.8s2-1.2,3.5-1.2
		s2.6,0.4,3.5,1.2s1.5,2,1.9,3.8c0.4,1.7,0.6,4,0.6,6.8C50.7,24.6,50.5,26.9,50,28.6z"/>
	<path class="st0" d="M69.1,33.3c-1.1,0-2-0.4-2.6-1.1c-0.6-0.8-0.9-1.9-0.9-3.4V10.4h6.1v-0.4h-6.1V4.7h-0.4
		c-0.2,1-0.5,1.8-0.9,2.5s-0.8,1.3-1.4,1.7c-0.5,0.4-1.2,0.7-2,0.9s-1.7,0.3-2.7,0.3v0.4h3.3v16.8c0,2.5,0.5,4.3,1.5,5.3
		s2.6,1.5,4.8,1.5c0.7,0,1.4-0.1,2.2-0.2c0.8-0.2,1.3-0.3,1.7-0.5v-0.4c-0.5,0.2-1,0.3-1.4,0.4C69.8,33.3,69.4,33.3,69.1,33.3z"/>
	<path class="st0" d="M103.8,32.8c-0.4-0.2-0.7-0.5-0.9-0.9c-0.2-0.4-0.3-1-0.3-1.7v-13c0-2.8-0.7-4.7-2-5.9c-1.3-1.1-3.3-1.7-6-1.7
		c-1.4,0-2.7,0.1-3.9,0.4c-1.2,0.3-2.1,0.8-2.9,1.4c-0.7,0.6-1.1,1.5-1.1,2.5c0,0.9,0.3,1.6,0.9,2s1.6,0.6,2.8,0.6
		c0-2.2,0.2-3.9,0.7-4.9c0.5-1.1,1.6-1.6,3.3-1.6c1.2,0,2.1,0.3,2.7,0.8s1,1.3,1.1,2.3c0.2,1,0.3,2.4,0.3,4v3.3l-3.6,0.1
		c-3.4,0.1-5.9,0.7-7.5,1.8c-1.7,1.1-2.5,2.8-2.5,5c0,2,0.7,3.6,2,4.8c1.3,1.1,3.1,1.7,5.3,1.7l0,0c1.1,0,2.1-0.2,3-0.5
		s1.7-0.9,2.3-1.6c0.6-0.7,1.1-1.7,1.4-2.9H99v4.6h6.6V33h-0.3C104.7,33.2,104.2,33,103.8,32.8z M98.4,27.2c0,1.1-0.2,2.1-0.7,3
		s-1.1,1.7-1.9,2.2s-1.8,0.8-2.9,0.8c-0.8,0-1.6-0.2-2.1-0.6c-0.6-0.4-1-1-1.3-1.8s-0.4-1.8-0.4-3c0-2.4,0.5-4.2,1.4-5.2
		c1-1,2.7-1.6,5.2-1.7l2.8-0.1L98.4,27.2L98.4,27.2z"/>
	<path class="st0" d="M123.8,5.8c0.5,0,1-0.2,1.4-0.5s0.6-1,0.6-1.9s-0.2-1.6-0.6-1.9c-0.4-0.4-0.8-0.5-1.4-0.5s-1,0.2-1.4,0.5
		s-0.5,1-0.5,1.9s0.2,1.5,0.5,1.9C122.7,5.7,123.2,5.8,123.8,5.8z"/>
	<path class="st0" d="M118.2,10.4L118.2,10.4c1,0,1.7,0.1,2.2,0.4c0.5,0.2,0.9,0.6,1.1,1.1s0.3,1.2,0.3,2v20c0,2.6-0.2,4.6-0.6,6
		s-0.9,2.4-1.7,2.9c-0.7,0.5-1.6,0.8-2.7,0.8h-0.3v0.4l0,0h0.7c1.7,0,3.2-0.3,4.5-0.9c1.3-0.6,2.3-1.6,3.1-3.1
		c0.8-1.5,1.1-3.5,1.1-6.1V10.1H118v0.4H118.2z"/>
	<path class="st0" d="M142.9,9.6c-3.4,0-6,1-7.7,3s-2.6,5-2.6,9.1s0.9,7.2,2.7,9.2s4.3,3,7.5,3c3.4,0,5.9-1,7.7-3
		c1.7-2,2.6-5.1,2.6-9.2s-0.9-7.1-2.7-9.1S146.1,9.6,142.9,9.6z M148.4,28.6c-0.4,1.7-1,3-1.9,3.8c-0.9,0.8-2,1.2-3.5,1.2l0,0
		c-1.4,0-2.6-0.4-3.5-1.2s-1.5-2-1.9-3.8c-0.4-1.7-0.6-4-0.6-6.8s0.2-5.1,0.6-6.8c0.4-1.7,1-3,1.9-3.8s2-1.2,3.5-1.2
		s2.6,0.4,3.5,1.2s1.5,2,1.9,3.8c0.4,1.7,0.6,4,0.6,6.8C148.9,24.6,148.8,26.9,148.4,28.6z"/>
	<path class="st0" d="M179.9,32.8c-0.4-0.2-0.8-0.5-1.4-1.2c-0.5-0.6-1.3-1.6-2.2-3l-6.8-10.4l3.4-3.9c1.1-1.3,2.1-2.2,2.7-2.7
		c0.7-0.5,1.3-0.9,1.9-1c0.6-0.2,1.2-0.2,1.9-0.2v-0.4h-9.7v0.4c1.3,0,2.3,0.1,3,0.3c0.6,0.2,1,0.5,1,1c0,0.2-0.1,0.5-0.2,0.9
		c-0.2,0.3-0.4,0.7-0.7,1.1c-0.3,0.4-0.7,0.9-1.2,1.4l-7.5,8.3c0-0.6,0-1.2,0.1-1.8c0-0.6,0-1.2,0-1.7V0.2h-7.8v0.4h0.1
		c0.9,0,1.6,0.1,2.1,0.3s0.9,0.6,1.1,1.1c0.2,0.5,0.4,1.1,0.4,2v25.6c0,0.8-0.1,1.4-0.4,1.9c-0.2,0.5-0.6,0.9-1.1,1.1
		s-1.2,0.3-2.1,0.3h-0.3v0.4h11.8V33h-0.1c-0.9,0-1.6-0.1-2.1-0.3s-0.9-0.6-1.1-1.1c-0.2-0.5-0.3-1.2-0.3-2.1v-5.2l2.6-2.9l5.6,8.9
		c0.4,0.6,0.8,1.2,1.2,1.6s0.9,0.8,1.4,1s1.1,0.4,1.8,0.5s1.4,0.2,2.3,0.2h1.9v-0.4h-0.1C180.8,33.2,180.4,33,179.9,32.8z"/>
	<path class="st0" d="M156.4,33.5L156.4,33.5L156.4,33.5z"/>
	<path class="st0" d="M192.4,9.6c-3.1,0-5.5,1-7.2,3.1s-2.5,5.2-2.5,9.2c0,3.8,0.9,6.8,2.7,8.9s4.4,3.2,7.6,3.2
		c1.7,0,3.1-0.2,4.2-0.7c1.1-0.5,1.9-1.1,2.5-1.8c0.5-0.7,0.8-1.3,0.8-1.9c0-0.3-0.1-0.6-0.3-0.9s-0.4-0.5-0.8-0.5
		c-0.2,1.2-0.6,2.2-1.2,3c-0.6,0.8-1.3,1.4-2.2,1.8c-0.9,0.4-1.9,0.6-3,0.6c-1.5,0-2.7-0.4-3.6-1.2c-0.9-0.8-1.6-2.2-2-4
		s-0.6-4.2-0.7-7.2h14.6v-1c0-3.5-0.8-6.1-2.4-7.8S195.2,9.6,192.4,9.6z M186.9,20.8c0.1-2.6,0.4-4.6,0.8-6.2c0.4-1.5,1-2.7,1.7-3.4
		s1.7-1.1,2.9-1.1c1.1,0,2.1,0.3,2.8,1.1c0.7,0.7,1.2,1.8,1.5,3.4s0.5,3.6,0.5,6.2H186.9z"/>
	<path class="st0" d="M211.2,28.9c-0.7-0.6-1.5-0.9-2.4-0.9c-0.8,0-1.5,0.2-2,0.7c-0.5,0.4-0.8,1.1-0.8,2c0,0.6,0.1,1,0.4,1.4
		c0.3,0.4,0.6,0.6,0.9,0.7c0.4,0.2,0.7,0.4,1.1,0.5c0.3,0.2,0.6,0.5,0.9,0.8c0.2,0.3,0.4,0.8,0.4,1.4c0,0.7-0.2,1.4-0.6,1.9
		c-0.4,0.6-0.9,1-1.6,1.5s-1.5,0.8-2.4,1l0,0v0.4c2.5-0.7,4.4-1.9,5.5-3.4c1.1-1.6,1.7-3.2,1.7-4.9
		C212.2,30.5,211.9,29.5,211.2,28.9z"/>
</g>
</svg>
