<?xml version="1.0" encoding="utf-8"?>
<!-- Generator: Adobe Illustrator 27.5.0, SVG Export Plug-In . SVG Version: 6.00 Build 0)  -->
<svg version="1.1" id="a" xmlns="http://www.w3.org/2000/svg" xmlns:xlink="http://www.w3.org/1999/xlink" x="0px" y="0px"
	 viewBox="0 0 350.4 43.7" style="enable-background:new 0 0 350.4 43.7;" xml:space="preserve">
<style type="text/css">
	.st0{fill:#111C3C;stroke:#111C3C;stroke-width:0.5;stroke-miterlimit:10;}
</style>
<g>
	<path class="st0" d="M1.8,9.8h0.1c0.9,0,1.6,0.1,2.1,0.4c0.5,0.2,0.9,0.6,1.1,1.1s0.4,1.2,0.4,2v20c0,2.6-0.2,4.6-0.6,6
		s-0.9,2.4-1.7,2.9C2.4,42.7,1.5,43,0.4,43H0.2v0.4h0.7c1.7,0,3.2-0.3,4.5-0.9c1.3-0.6,2.3-1.6,3.1-3.1c0.7-1.5,1.1-3.6,1.1-6.1V9.4
		H1.8V9.8z"/>
	<path class="st0" d="M7.3,5.2c0.5,0,1-0.2,1.4-0.5s0.5-1,0.5-1.9s-0.2-1.6-0.5-2C8.4,0.4,7.9,0.2,7.3,0.2c-0.5,0-1,0.2-1.4,0.5
		s-0.5,1-0.5,1.9s0.2,1.5,0.5,1.9C6.3,4.9,6.8,5.2,7.3,5.2z"/>
	<path class="st0" d="M38.5,32c-0.5-0.2-0.9-0.6-1.1-1.2c-0.2-0.6-0.3-1.3-0.3-2.3V9.4h-7.8v0.4h0c0.9,0,1.6,0.1,2.2,0.4
		c0.6,0.3,0.9,0.7,1.1,1.2c0.2,0.6,0.3,1.4,0.3,2.3v10.1c0,1.9-0.2,3.5-0.7,4.8c-0.4,1.3-1.1,2.3-1.9,3c-0.9,0.7-2,1-3.3,1
		c-1.1,0-1.9-0.3-2.5-0.8s-1.1-1.4-1.3-2.5c-0.3-1.1-0.4-2.6-0.4-4.5V9.4h-7.8v0.4h0.1c0.9,0,1.6,0.1,2.2,0.4
		c0.5,0.2,0.9,0.7,1.1,1.2c0.2,0.6,0.3,1.4,0.3,2.3v11c0,3,0.6,5.2,1.9,6.5s3.2,2,5.8,2l0,0c0.6,0,1.2-0.1,1.9-0.2s1.4-0.4,2-0.8
		c0.7-0.4,1.2-1,1.8-1.9c0.5-0.9,0.9-2,1.1-3.5h0.1v6h7.5v-0.4h-0.1C39.7,32.5,39,32.2,38.5,32z"/>
	<path class="st0" d="M57,21.1c-1-0.7-2.3-1.4-3.9-2c-1.3-0.5-2.4-1-3.2-1.5c-0.9-0.4-1.5-1-1.9-1.6s-0.6-1.4-0.6-2.5
		c0-0.9,0.2-1.7,0.5-2.3s0.8-1.1,1.5-1.4c0.7-0.3,1.5-0.5,2.5-0.5c1.3,0,2.2,0.5,2.8,1.4s0.9,2.5,0.9,4.8c1,0,1.8-0.2,2.3-0.7
		s0.8-1.1,0.8-1.9c0-0.7-0.3-1.4-0.8-2s-1.3-1.1-2.3-1.5S53.3,8.8,52,8.8c-2.5,0-4.4,0.5-5.8,1.6S44.1,13,44.1,15
		c0,1.1,0.2,2.1,0.6,2.9c0.4,0.8,1.1,1.6,2.1,2.3s2.3,1.4,3.9,2.1c1.4,0.6,2.5,1.2,3.3,1.6c0.8,0.5,1.4,1,1.7,1.6s0.5,1.4,0.5,2.4
		c0,1.6-0.5,2.8-1.4,3.6c-0.9,0.8-2.1,1.2-3.7,1.2c-1.2,0-2.1-0.3-2.8-0.8c-0.7-0.6-1.2-1.4-1.5-2.4c-0.3-1.1-0.4-2.4-0.4-4
		c-0.3,0-0.7,0.1-1.2,0.3c-0.4,0.2-0.8,0.5-1.1,0.9s-0.5,1-0.5,1.8c0,1,0.3,1.9,0.9,2.6c0.6,0.7,1.5,1.2,2.6,1.6
		c1.1,0.3,2.4,0.5,3.9,0.5l0,0c2.6,0,4.7-0.6,6.2-1.7c1.5-1.2,2.3-2.9,2.3-5.2c0-1.1-0.2-2.1-0.6-3C58.5,22.6,58,21.9,57,21.1z"/>
	<path class="st0" d="M73.2,32.7c-1.1,0-2-0.4-2.6-1.1c-0.6-0.8-0.9-1.9-0.9-3.4V9.8h6.1V9.4h-6.1V4h-0.4c-0.2,1-0.5,1.8-0.8,2.5
		c-0.4,0.7-0.8,1.3-1.4,1.7c-0.5,0.4-1.2,0.7-2,0.9s-1.7,0.3-2.7,0.3v0.4h3.3v16.7c0,2.5,0.5,4.3,1.5,5.3s2.6,1.5,4.8,1.5l0,0
		c0.7,0,1.4-0.1,2.2-0.2c0.8-0.2,1.3-0.3,1.7-0.5v-0.4c-0.5,0.2-1,0.3-1.4,0.4C74.1,32.7,73.7,32.7,73.2,32.7z"/>
	<path class="st0" d="M107.9,32.2c-0.4-0.2-0.7-0.5-0.9-0.9c-0.2-0.4-0.3-1-0.3-1.7v-13c0-2.8-0.7-4.7-2-5.9c-1.3-1.1-3.3-1.7-6-1.7
		c-1.4,0-2.7,0.2-3.9,0.4s-2.1,0.8-2.9,1.4c-0.7,0.6-1.1,1.5-1.1,2.5c0,0.9,0.3,1.6,0.9,2s1.5,0.6,2.8,0.6c0-2.2,0.2-3.9,0.7-5
		c0.5-1,1.6-1.6,3.3-1.6c1.2,0,2.1,0.3,2.7,0.8s1,1.3,1.1,2.3c0.2,1,0.3,2.4,0.3,4v3.3l-3.6,0.1c-3.4,0.1-5.9,0.7-7.5,1.8
		c-1.7,1.1-2.5,2.8-2.5,5c0,2,0.7,3.6,2,4.8c1.3,1.2,3,1.9,5.2,1.9l0,0c1.1,0,2.1-0.2,3-0.5c0.9-0.4,1.7-0.9,2.3-1.6
		c0.6-0.7,1.1-1.7,1.4-2.9h0.1v4.6h6.6v-0.4h-0.1C108.8,32.5,108.3,32.3,107.9,32.2z M102.7,26.5c0,1.1-0.2,2.1-0.7,3
		s-1.1,1.7-1.9,2.2s-1.8,0.8-2.9,0.8c-0.8,0-1.6-0.2-2.1-0.6c-0.6-0.4-1-1-1.3-1.8s-0.4-1.8-0.4-3c0-2.4,0.5-4.1,1.4-5.2
		s2.7-1.6,5.2-1.7l2.8-0.1L102.7,26.5L102.7,26.5z"/>
	<path class="st0" d="M136.6,21.1c-1-0.7-2.3-1.4-3.9-2c-1.3-0.5-2.4-1-3.2-1.5c-0.9-0.4-1.5-1-1.9-1.6s-0.6-1.4-0.6-2.5
		c0-0.9,0.2-1.7,0.5-2.3s0.8-1.1,1.5-1.4c0.7-0.3,1.5-0.5,2.5-0.5c1.3,0,2.2,0.5,2.8,1.4s0.9,2.5,0.9,4.8c1,0,1.8-0.2,2.3-0.7
		s0.8-1.1,0.8-1.9c0-0.7-0.3-1.4-0.8-2s-1.3-1.1-2.3-1.5s-2.2-0.6-3.6-0.6c-2.5,0-4.4,0.5-5.8,1.6s-2.1,2.6-2.1,4.6
		c0,1.1,0.2,2.1,0.6,2.9s1.1,1.6,2.1,2.3c1,0.7,2.3,1.4,3.9,2.1c1.4,0.6,2.5,1.2,3.3,1.6c0.8,0.5,1.4,1,1.7,1.6
		c0.4,0.6,0.5,1.4,0.5,2.4c0,1.6-0.5,2.8-1.4,3.6c-0.9,0.8-2.1,1.2-3.7,1.2c-1.2,0-2.1-0.3-2.8-0.8c-0.7-0.6-1.2-1.4-1.5-2.4
		c-0.3-1.1-0.4-2.4-0.4-4c-0.3,0-0.7,0.1-1.2,0.3c-0.4,0.2-0.8,0.5-1.1,0.9s-0.5,1-0.5,1.8c0,1,0.3,1.9,0.9,2.6s1.5,1.2,2.6,1.6
		c1.1,0.3,2.4,0.5,3.9,0.5l0,0c2.6,0,4.7-0.6,6.2-1.7c1.5-1.2,2.3-2.9,2.3-5.2c0-1.1-0.2-2.1-0.6-3
		C138.1,22.6,137.4,21.9,136.6,21.1z"/>
	<path class="st0" d="M165.6,32c-0.5-0.2-0.9-0.6-1.1-1.2c-0.2-0.6-0.3-1.3-0.3-2.3V9.4h-7.8v0.4h0.1c0.9,0,1.6,0.1,2.1,0.4
		c0.5,0.2,0.9,0.7,1.1,1.2c0.2,0.6,0.3,1.4,0.3,2.3v10.1c0,1.9-0.2,3.5-0.7,4.8c-0.4,1.3-1.1,2.3-2,3s-2,1-3.3,1
		c-1,0-1.9-0.3-2.5-0.8s-1.1-1.4-1.3-2.5s-0.4-2.6-0.4-4.5V9.4h-7.8v0.4h0.1c0.9,0,1.6,0.1,2.1,0.4c0.5,0.2,0.9,0.7,1.1,1.2
		c0.2,0.6,0.3,1.4,0.3,2.3v11c0,3,0.6,5.2,1.9,6.5c1.3,1.4,3.2,2,5.8,2l0,0c0.6,0,1.2-0.1,1.9-0.2s1.4-0.4,2-0.8
		c0.6-0.4,1.2-1,1.8-1.9c0.5-0.9,0.9-2,1.1-3.5h0.1v6h7.5v-0.4h-0.1C166.9,32.5,166.1,32.2,165.6,32z"/>
	<path class="st0" d="M189.4,8.1c-1,0-1.9,0.3-2.6,0.8c-0.7,0.5-1.3,1.1-1.8,1.5c-0.6-0.5-1.4-0.8-2.2-1.1s-1.7-0.4-2.8-0.4
		c-2.8,0-4.8,0.7-6.2,2.2s-2.1,3.4-2.1,5.9c0,1.8,0.4,3.2,1.2,4.4c0.8,1.2,2,2,3.4,2.5c-1.2,0.4-2.1,1-2.7,1.8
		c-0.6,0.8-0.9,1.6-0.9,2.4s0.3,1.7,0.9,2.5c0.6,0.8,1.4,1.4,2.6,1.7c-1.5,0-2.7,0.2-3.6,0.7c-1,0.4-1.7,1-2.2,1.8
		c-0.5,0.7-0.7,1.6-0.7,2.7c0,1.8,0.8,3.3,2.3,4.4c1.5,1.1,3.8,1.6,6.8,1.6l0,0c4,0,6.9-0.7,8.8-2.2c1.9-1.5,2.8-3.5,2.8-6
		c0-1.9-0.6-3.5-1.7-4.7c-1.1-1.2-3-1.8-5.6-1.8h-4.9c-1.1,0-1.9-0.2-2.4-0.5c-0.5-0.4-0.8-0.9-0.8-1.7c0-0.5,0.1-1,0.4-1.4
		c0.3-0.4,0.8-0.8,1.5-1.1c0.5,0.1,1,0.2,1.5,0.3s1,0.1,1.6,0.1c2.7,0,4.6-0.7,5.9-2.2c1.3-1.4,2-3.2,2-5.4c0-1.3-0.2-2.5-0.7-3.6
		c-0.4-1.1-1.1-2-1.9-2.7c0.5-0.4,0.9-0.7,1.2-0.8s0.7-0.2,1-0.2c0.7,0,1.2,0.2,1.5,0.7c0.3,0.4,0.5,1.1,0.5,2.1
		c0.8,0,1.4-0.2,1.8-0.6c0.4-0.4,0.5-0.9,0.5-1.5s-0.2-1.2-0.6-1.6C190.9,8.2,190.2,8.1,189.4,8.1z M182.6,32.5
		c1.7,0,2.9,0.4,3.7,1.1c0.8,0.7,1.2,1.8,1.2,3.3c0,2-0.7,3.4-2,4.5c-1.3,1-3.4,1.5-6.1,1.5c-1.3,0-2.4-0.2-3.3-0.6
		c-0.9-0.4-1.6-1-2.1-1.8s-0.8-1.8-0.8-3c0-1.3,0.2-2.3,0.7-3c0.4-0.7,1-1.2,1.8-1.5c0.7-0.3,1.5-0.4,2.3-0.4L182.6,32.5L182.6,32.5
		z M183.6,21c-0.2,1-0.7,1.8-1.2,2.3s-1.3,0.8-2.3,0.8l0,0c-0.9,0-1.7-0.2-2.3-0.8c-0.6-0.5-1-1.3-1.3-2.3s-0.4-2.3-0.4-4
		s0.1-3.1,0.4-4.2s0.7-2,1.3-2.5c0.6-0.6,1.3-0.9,2.3-0.9s1.7,0.3,2.3,0.8s1,1.4,1.2,2.5c0.3,1.1,0.4,2.5,0.4,4.2
		C183.9,18.5,183.8,19.9,183.6,21z"/>
	<path class="st0" d="M213.1,8.1c-1,0-1.9,0.3-2.6,0.8c-0.7,0.5-1.3,1.1-1.8,1.5c-0.6-0.5-1.4-0.8-2.2-1.1s-1.7-0.4-2.8-0.4
		c-2.8,0-4.8,0.7-6.2,2.2s-2.1,3.4-2.1,5.9c0,1.8,0.4,3.2,1.2,4.4c0.8,1.2,2,2,3.4,2.5c-1.2,0.4-2.1,1-2.7,1.8
		c-0.6,0.8-0.9,1.6-0.9,2.4s0.3,1.7,0.9,2.5c0.6,0.8,1.4,1.4,2.6,1.7c-1.5,0-2.7,0.2-3.6,0.7c-1,0.4-1.7,1-2.1,1.8
		c-0.5,0.7-0.7,1.6-0.7,2.7c0,1.8,0.8,3.3,2.3,4.4c1.5,1.1,3.8,1.6,6.8,1.6l0,0c4,0,6.9-0.7,8.8-2.2c1.9-1.5,2.8-3.5,2.8-6
		c0-1.9-0.6-3.5-1.7-4.7s-3-1.8-5.6-1.8h-5c-1.1,0-1.9-0.2-2.4-0.5c-0.5-0.4-0.8-0.9-0.8-1.7c0-0.5,0.1-1,0.4-1.4
		c0.3-0.4,0.8-0.8,1.5-1.1c0.5,0.1,1,0.2,1.5,0.3s1.1,0.1,1.6,0.1c2.7,0,4.6-0.7,5.9-2.2c1.3-1.4,2-3.2,2-5.4c0-1.3-0.2-2.5-0.7-3.6
		s-1.1-2-1.9-2.7c0.5-0.4,0.9-0.7,1.2-0.8s0.7-0.2,1.1-0.2c0.7,0,1.2,0.2,1.5,0.7s0.5,1.1,0.5,2.1c0.8,0,1.4-0.2,1.8-0.6
		c0.4-0.4,0.6-0.9,0.6-1.5s-0.2-1.2-0.6-1.6C214.4,8.2,213.9,8.1,213.1,8.1z M206.1,32.5c1.7,0,2.9,0.4,3.7,1.1s1.2,1.8,1.2,3.3
		c0,2-0.7,3.4-2,4.5c-1.3,1-3.4,1.5-6.1,1.5c-1.3,0-2.4-0.2-3.4-0.6c-0.9-0.4-1.6-1-2.1-1.8s-0.8-1.8-0.8-3c0-1.3,0.2-2.3,0.7-3
		s1-1.2,1.8-1.5c0.7-0.3,1.5-0.4,2.3-0.4L206.1,32.5L206.1,32.5z M207.1,21c-0.2,1-0.7,1.8-1.2,2.3s-1.3,0.8-2.3,0.8l0,0
		c-0.9,0-1.7-0.2-2.3-0.8c-0.6-0.5-1-1.3-1.3-2.3s-0.4-2.3-0.4-4s0.1-3.1,0.4-4.2s0.7-2,1.3-2.5c0.6-0.6,1.3-0.9,2.3-0.9
		s1.7,0.3,2.3,0.8s1,1.4,1.2,2.5c0.3,1.1,0.4,2.5,0.4,4.2C207.4,18.5,207.4,19.9,207.1,21z"/>
	<path class="st0" d="M228.2,8.9c-3.1,0-5.5,1-7.2,3.1s-2.5,5.2-2.5,9.2c0,3.8,0.9,6.8,2.7,8.9s4.4,3.2,7.6,3.2
		c1.7,0,3.1-0.2,4.2-0.7c1.1-0.5,1.9-1.1,2.5-1.8c0.5-0.7,0.8-1.3,0.8-1.9c0-0.3-0.1-0.6-0.3-0.9s-0.4-0.5-0.8-0.5
		c-0.2,1.2-0.6,2.2-1.2,3c-0.6,0.8-1.3,1.4-2.2,1.8c-0.9,0.4-1.9,0.6-3,0.6c-1.5,0-2.7-0.4-3.6-1.2c-0.9-0.8-1.6-2.2-2-4
		s-0.6-4.2-0.7-7.2h14.6v-1c0-3.5-0.8-6.1-2.4-7.8S231.1,8.9,228.2,8.9z M222.8,20c0.1-2.6,0.4-4.6,0.8-6.2c0.4-1.6,1-2.7,1.7-3.4
		s1.7-1.1,2.9-1.1c1.1,0,2.1,0.4,2.8,1.1c0.7,0.7,1.2,1.8,1.5,3.4c0.3,1.5,0.5,3.6,0.5,6.2H222.8z"/>
	<path class="st0" d="M254.8,21.1c-1-0.7-2.3-1.4-3.9-2c-1.3-0.5-2.4-1-3.2-1.5c-0.9-0.4-1.5-1-1.9-1.6s-0.6-1.4-0.6-2.5
		c0-0.9,0.2-1.7,0.5-2.3s0.8-1.1,1.5-1.4c0.7-0.3,1.5-0.5,2.5-0.5c1.3,0,2.2,0.5,2.8,1.4s0.9,2.5,0.9,4.8c1,0,1.8-0.2,2.3-0.7
		c0.5-0.5,0.8-1.1,0.8-1.9c0-0.7-0.3-1.4-0.8-2c-0.5-0.6-1.3-1.1-2.3-1.5s-2.2-0.6-3.6-0.6c-2.5,0-4.4,0.5-5.8,1.6
		c-1.4,1.1-2.1,2.6-2.1,4.6c0,1.1,0.2,2.1,0.6,2.9c0.4,0.8,1.1,1.6,2.1,2.3c1,0.7,2.3,1.4,3.9,2.1c1.4,0.6,2.6,1.2,3.4,1.6
		c0.8,0.5,1.4,1,1.7,1.6c0.4,0.6,0.5,1.4,0.5,2.4c0,1.6-0.5,2.8-1.4,3.6c-0.9,0.8-2.1,1.2-3.7,1.2c-1.2,0-2.1-0.3-2.8-0.8
		c-0.7-0.6-1.2-1.4-1.5-2.4c-0.3-1.1-0.4-2.4-0.4-4c-0.4,0-0.7,0.1-1.2,0.3c-0.4,0.2-0.8,0.5-1.1,0.9s-0.5,1-0.5,1.8
		c0,1,0.3,1.9,0.9,2.6s1.5,1.2,2.6,1.6c1.1,0.3,2.4,0.5,3.9,0.5l0,0c2.6,0,4.7-0.6,6.2-1.7c1.5-1.2,2.3-2.9,2.3-5.2
		c0-1.1-0.2-2.1-0.6-3C256.4,22.6,255.8,21.9,254.8,21.1z"/>
	<path class="st0" d="M271,32.7c-1.1,0-2-0.4-2.6-1.1c-0.6-0.8-0.9-1.9-0.9-3.4V9.8h6.1V9.4h-6.1V4h-0.4c-0.2,1-0.5,1.8-0.8,2.5
		c-0.4,0.7-0.8,1.3-1.4,1.7c-0.5,0.4-1.2,0.7-2,0.9s-1.7,0.3-2.7,0.3v0.4h3.3v16.7c0,2.5,0.5,4.3,1.5,5.3s2.6,1.5,4.8,1.5l0,0
		c0.7,0,1.4-0.1,2.2-0.2c0.8-0.2,1.3-0.3,1.7-0.5v-0.4c-0.5,0.2-1,0.3-1.4,0.4C271.9,32.7,271.5,32.7,271,32.7z"/>
	<path class="st0" d="M281.8,5.2c0.5,0,1-0.2,1.4-0.5s0.6-1,0.6-1.9s-0.2-1.6-0.6-1.9c-0.4-0.4-0.9-0.6-1.4-0.6
		c-0.6,0-1,0.2-1.4,0.5s-0.5,1-0.5,1.9s0.2,1.5,0.5,1.9C280.8,4.9,281.1,5.2,281.8,5.2z"/>
	<path class="st0" d="M285.5,32c-0.5-0.2-0.9-0.6-1.2-1.1c-0.2-0.5-0.4-1.2-0.4-2.1V9.4h-7.8v0.4h0.1c0.9,0,1.6,0.1,2.1,0.4
		c0.5,0.2,0.9,0.6,1.1,1.1s0.4,1.2,0.4,2V29c0,0.8-0.1,1.4-0.4,1.9c-0.2,0.5-0.6,0.9-1.1,1.1s-1.2,0.3-2.1,0.3h-0.6v0.4H288v-0.4
		h-0.6C286.8,32.5,286,32.2,285.5,32z"/>
	<path class="st0" d="M275.8,32.8L275.8,32.8L275.8,32.8z"/>
	<path class="st0" d="M301.5,8.9c-3.4,0-6,1-7.7,3s-2.6,5-2.6,9.1s0.9,7.2,2.7,9.2c1.8,2,4.3,3,7.5,3c3.4,0,6-1,7.7-3
		s2.6-5.1,2.6-9.2s-0.9-7.1-2.7-9.1S304.6,8.9,301.5,8.9z M306.8,28c-0.4,1.7-1,3-1.9,3.8s-2,1.2-3.5,1.2l0,0
		c-1.4,0-2.6-0.4-3.5-1.2s-1.5-2-1.9-3.8c-0.4-1.7-0.6-4-0.6-6.8s0.2-5.1,0.6-6.8s1-3,1.9-3.8s2-1.2,3.5-1.2s2.6,0.4,3.5,1.2
		s1.5,2,1.9,3.8c0.4,1.7,0.6,3.9,0.6,6.8S307.1,26.1,306.8,28z"/>
	<path class="st0" d="M339,32c-0.5-0.2-0.8-0.7-1-1.2c-0.2-0.6-0.3-1.4-0.3-2.4V17.5c0-3-0.6-5.2-1.9-6.5c-1.3-1.4-3.2-2-5.8-2
		c-0.7,0-1.5,0.1-2.4,0.3s-1.7,0.6-2.4,1.2c-0.7,0.6-1.3,1.7-1.7,3h-0.2V9.4h-7.8v0.4h0.2c0.9,0,1.6,0.1,2.1,0.4
		c0.5,0.2,0.9,0.7,1.1,1.2c0.2,0.6,0.3,1.4,0.3,2.3v14.6c0,1-0.1,1.8-0.3,2.4c-0.2,0.6-0.6,1-1.1,1.2c-0.5,0.2-1.2,0.4-2.1,0.4h-0.4
		v0.4l0,0H327v-0.4h-0.2c-0.9,0-1.6-0.1-2.1-0.4c-0.5-0.2-0.9-0.7-1.1-1.2c-0.2-0.6-0.3-1.4-0.3-2.4V17.1c0-1.3,0.2-2.5,0.5-3.6
		c0.3-1.2,0.9-2.1,1.7-2.8c0.8-0.7,1.9-1.1,3.2-1.1c1.7,0,2.9,0.6,3.6,1.8s1,2.8,1,4.6v16.8h7.6v-0.4h-0.2
		C340,32.5,339.5,32.3,339,32z"/>
	<path class="st0" d="M349.5,28c-0.4-0.5-1-0.8-1.8-0.8s-1.4,0.2-1.8,0.8c-0.4,0.5-0.6,1.2-0.6,2.2s0.2,1.7,0.6,2.2s1,0.8,1.8,0.8
		s1.4-0.2,1.8-0.8c0.4-0.5,0.6-1.2,0.6-2.2S350,28.5,349.5,28z"/>
</g>
</svg>
