<?xml version="1.0" encoding="utf-8"?>
<!-- Generator: Adobe Illustrator 27.5.0, SVG Export Plug-In . SVG Version: 6.00 Build 0)  -->
<svg version="1.1" id="a" xmlns="http://www.w3.org/2000/svg" xmlns:xlink="http://www.w3.org/1999/xlink" x="0px" y="0px"
	 viewBox="0 0 222 37.3" style="enable-background:new 0 0 222 37.3;" xml:space="preserve">
<style type="text/css">
	.st0{fill:#111C3C;}
	.st1{fill:none;stroke:#121C3D;stroke-width:0.5;stroke-miterlimit:10;}
</style>
<g>
	<g>
		<path class="st0" d="M3.7,8.7H0.4v0.4h3.3V25c0.2,2.2-1.5,3-3.4,2.8v0.4h11.2v-0.4c-2.2,0.2-4.6-0.2-4.3-3c0,0,0-15.7,0-15.7h5.1
			V8.7H7.1c0-2,0-5.8,0.6-6.8c2-3,5.1-0.6,4.5,2.9C23,2.1,1.9-5.8,3.7,8.7z M16.8,10.9C10.1,19.8,18.9,35,29.4,26
			C36.1,17.1,27.3,1.9,16.8,10.9z M20.2,27.2c-3-3.9-3-13.6,0-17.5C31.1,2.6,31,34.3,20.2,27.2z M41.3,12.4L41.3,12.4l-0.1-3.6h-6.4
			v0.4c1.9-0.1,3.2,0.8,3.1,2.8c0,0,0,13.1,0,13.1c0.2,2.2-1.5,3-3.4,2.8v0.4h10.3v-0.4c-5.5,0.9-2.9-7.9-3.4-10.8
			c0.1-2.1,0-4.9,1.3-6.7c2.1-2,4.5,0.3,4.1,3.2C56.3,11.8,43.6,3.4,41.3,12.4z M89.1,24.8c0,0,0-9.2,0-9.2
			c1.3-7.5-9.8-10.4-11.4-2.8h-0.1c-1-5.6-9.7-6.1-11.1-0.6h-0.1V8.7h-6.4v0.4c1.9-0.1,3.2,0.8,3.1,2.8c0,0,0,13.1,0,13.1
			c0.1,2.1-1.3,3-3.3,2.8v0.4h9.7v-0.4c-2,0.1-3.2-0.9-3.1-3c0,0,0-9.2,0-9.2c-0.8-4.4,3.8-9,7.2-5.1c1.6,2.3,0.6,14.7,0.9,17.7h6.5
			v-0.4c-2,0.1-3.2-0.9-3.1-3c0,0,0-9.7,0-9.7c-0.7-4.1,4-8.4,7-4.6c1.6,2.3,0.6,14.7,0.8,17.7h6.5v-0.4
			C90.1,27.9,88.9,26.9,89.1,24.8z M97.1,11c-5.4,6.9-0.5,21.3,9.9,17c1.7-0.6,4.1-3.2,1.9-4.2c-0.3,3.9-5.4,5.8-8.2,3.4
			c-2.2-2.3-2-5.5-2.2-9.2h12.1C112,9.7,102.3,5.1,97.1,11z M106.9,17.6h-8.4C98,5.9,107.8,5.7,106.9,17.6z M116.4,11
			c-5.4,6.9-0.5,21.3,9.9,17c1.7-0.6,4.1-3.2,1.9-4.2c-0.3,3.9-5.4,5.8-8.2,3.4c-2.2-2.3-2-5.5-2.2-9.2h12.1
			C131.4,9.7,121.7,5.1,116.4,11z M126.3,17.6h-8.4C117.4,5.9,127.2,5.7,126.3,17.6z M138.6,4.3h-0.4c-0.4,3.1-2.8,4.6-5.8,4.5v0.4
			h2.8v13.8c-0.3,4.8,2.9,6.2,7.1,5.4c0.6-0.1,1.1-0.3,1.4-0.4v-0.4c-2.7,1.2-5.3,0-5.1-3.3c0,0,0-15.2,0-15.2h5.1V8.7h-5.1V4.3z
			 M152.2,24.8c0,0,0-16.1,0-16.1h-6.5v0.4c1.9-0.1,3.2,0.8,3.1,2.8c0,0,0,13.1,0,13.1c0.2,2.2-1.5,3-3.4,2.8v0.4h10.3v-0.4
			C153.5,28,152,27.1,152.2,24.8z M151.4,4.8c1.4-1.5-0.2-4.9-2.3-3.2C147.8,3.1,149.3,6.6,151.4,4.8z M175.5,24.5c0,0,0-9,0-9
			c1.2-7.3-9.5-10.1-11.7-3.3h-0.1V8.7h-6.4v0.4c2.2-0.2,3.2,1.1,3.1,3.3c0,0,0,12.1,0,12.1c0.2,2.3-1,3.6-3.3,3.3v0.4h9.7v-0.4
			c-2.2,0.2-3.2-1.1-3.1-3.3c0,0,0-9.3,0-9.3c-0.7-4.3,4.3-8.8,7.5-4.7c1.7,2.2,0.6,15,0.9,17.8h6.3v-0.4
			C176.2,28,175.4,26.6,175.5,24.5z M192.8,9.6c-8.1-5.5-16,7.1-7.1,11.2c-3.7,1-3.8,6-0.1,7c-12.5,1.7-1.6,14.2,9.4,7.3
			c4.2-3.2,2.6-11-3.6-10.4c-1.3-0.1-5.1,0.3-6.1-0.4c-1.2-0.9-0.7-2.9,0.9-3.4c7.2,2.6,12.2-6.2,6.9-11.1c1.5-1.5,3.7-0.9,3.5,1.4
			C201.6,10,196.2,4.9,192.8,9.6z M194.8,31.6c0.2,4.8-5.7,5.7-9.5,4.4c-3.8-1.5-2.9-8.5,1.5-8.1C189.8,28,195.1,27.1,194.8,31.6z
			 M186.7,20.2c-2.1-2.5-1.9-8.3,0-10.8C193.7,4.8,193.9,24.7,186.7,20.2z M203.5,12.3c0.2-5.5,8-4.1,6.8,1.7c2.3,0.2,3.4-2.2,2-3.8
			c-4.2-4-14.1-0.7-10.9,5.8c1.2,2.5,5.4,3.6,7.7,5c7.2,6.5-7.4,11.8-6.2,1.3c-1.3,0-2.4,1-2.3,2.5c0.3,4.9,8.5,4.5,11.2,2.4
			C219.6,17,203.4,18.2,203.5,12.3z M218.3,24.1c-1.6,2,0.5,6,2.9,3.7C222.8,25.8,220.7,21.8,218.3,24.1z"/>
	</g>
	<g>
		<path class="st1" d="M3.7,8.7H0.4v0.4h3.3V25c0.2,2.2-1.5,3-3.4,2.8v0.4h11.2v-0.4c-2.2,0.2-4.6-0.2-4.3-3c0,0,0-15.7,0-15.7h5.1
			V8.7H7.1c0-2,0-5.8,0.6-6.8c2-3,5.1-0.6,4.5,2.9C23,2.1,1.9-5.8,3.7,8.7z M16.8,10.9C10.1,19.8,18.9,35,29.4,26
			C36.1,17.1,27.3,1.9,16.8,10.9z M20.2,27.2c-3-3.9-3-13.6,0-17.5C31.1,2.6,31,34.3,20.2,27.2z M41.3,12.4L41.3,12.4l-0.1-3.6h-6.4
			v0.4c1.9-0.1,3.2,0.8,3.1,2.8c0,0,0,13.1,0,13.1c0.2,2.2-1.5,3-3.4,2.8v0.4h10.3v-0.4c-5.5,0.9-2.9-7.9-3.4-10.8
			c0.1-2.1,0-4.9,1.3-6.7c2.1-2,4.5,0.3,4.1,3.2C56.3,11.8,43.6,3.4,41.3,12.4z M89.1,24.8c0,0,0-9.2,0-9.2
			c1.3-7.5-9.8-10.4-11.4-2.8h-0.1c-1-5.6-9.7-6.1-11.1-0.6h-0.1V8.7h-6.4v0.4c1.9-0.1,3.2,0.8,3.1,2.8c0,0,0,13.1,0,13.1
			c0.1,2.1-1.3,3-3.3,2.8v0.4h9.7v-0.4c-2,0.1-3.2-0.9-3.1-3c0,0,0-9.2,0-9.2c-0.8-4.4,3.8-9,7.2-5.1c1.6,2.3,0.6,14.7,0.9,17.7h6.5
			v-0.4c-2,0.1-3.2-0.9-3.1-3c0,0,0-9.7,0-9.7c-0.7-4.1,4-8.4,7-4.6c1.6,2.3,0.6,14.7,0.8,17.7h6.5v-0.4
			C90.1,27.9,88.9,26.9,89.1,24.8z M97.1,11c-5.4,6.9-0.5,21.3,9.9,17c1.7-0.6,4.1-3.2,1.9-4.2c-0.3,3.9-5.4,5.8-8.2,3.4
			c-2.2-2.3-2-5.5-2.2-9.2h12.1C112,9.7,102.3,5.1,97.1,11z M106.9,17.6h-8.4C98,5.9,107.8,5.7,106.9,17.6z M116.4,11
			c-5.4,6.9-0.5,21.3,9.9,17c1.7-0.6,4.1-3.2,1.9-4.2c-0.3,3.9-5.4,5.8-8.2,3.4c-2.2-2.3-2-5.5-2.2-9.2h12.1
			C131.4,9.7,121.7,5.1,116.4,11z M126.3,17.6h-8.4C117.4,5.9,127.2,5.7,126.3,17.6z M138.6,4.3h-0.4c-0.4,3.1-2.8,4.6-5.8,4.5v0.4
			h2.8v13.8c-0.3,4.8,2.9,6.2,7.1,5.4c0.6-0.1,1.1-0.3,1.4-0.4v-0.4c-2.7,1.2-5.3,0-5.1-3.3c0,0,0-15.2,0-15.2h5.1V8.7h-5.1V4.3z
			 M152.2,24.8c0,0,0-16.1,0-16.1h-6.5v0.4c1.9-0.1,3.2,0.8,3.1,2.8c0,0,0,13.1,0,13.1c0.2,2.2-1.5,3-3.4,2.8v0.4h10.3v-0.4
			C153.5,28,152,27.1,152.2,24.8z M151.4,4.8c1.4-1.5-0.2-4.9-2.3-3.2C147.8,3.1,149.3,6.6,151.4,4.8z M175.5,24.5c0,0,0-9,0-9
			c1.2-7.3-9.5-10.1-11.7-3.3h-0.1V8.7h-6.4v0.4c2.2-0.2,3.2,1.1,3.1,3.3c0,0,0,12.1,0,12.1c0.2,2.3-1,3.6-3.3,3.3v0.4h9.7v-0.4
			c-2.2,0.2-3.2-1.1-3.1-3.3c0,0,0-9.3,0-9.3c-0.7-4.3,4.3-8.8,7.5-4.7c1.7,2.2,0.6,15,0.9,17.8h6.3v-0.4
			C176.2,28,175.4,26.6,175.5,24.5z M192.8,9.6c-8.1-5.5-16,7.1-7.1,11.2c-3.7,1-3.8,6-0.1,7c-12.5,1.7-1.6,14.2,9.4,7.3
			c4.2-3.2,2.6-11-3.6-10.4c-1.3-0.1-5.1,0.3-6.1-0.4c-1.2-0.9-0.7-2.9,0.9-3.4c7.2,2.6,12.2-6.2,6.9-11.1c1.5-1.5,3.7-0.9,3.5,1.4
			C201.6,10,196.2,4.9,192.8,9.6z M194.8,31.6c0.2,4.8-5.7,5.7-9.5,4.4c-3.8-1.5-2.9-8.5,1.5-8.1C189.8,28,195.1,27.1,194.8,31.6z
			 M186.7,20.2c-2.1-2.5-1.9-8.3,0-10.8C193.7,4.8,193.9,24.7,186.7,20.2z M203.5,12.3c0.2-5.5,8-4.1,6.8,1.7c2.3,0.2,3.4-2.2,2-3.8
			c-4.2-4-14.1-0.7-10.9,5.8c1.2,2.5,5.4,3.6,7.7,5c7.2,6.5-7.4,11.8-6.2,1.3c-1.3,0-2.4,1-2.3,2.5c0.3,4.9,8.5,4.5,11.2,2.4
			C219.6,17,203.4,18.2,203.5,12.3z M218.3,24.1c-1.6,2,0.5,6,2.9,3.7C222.8,25.8,220.7,21.8,218.3,24.1z"/>
	</g>
</g>
</svg>
