<?xml version="1.0" encoding="utf-8"?>
<!-- Generator: Adobe Illustrator 27.5.0, SVG Export Plug-In . SVG Version: 6.00 Build 0)  -->
<svg version="1.1" id="a" xmlns="http://www.w3.org/2000/svg" xmlns:xlink="http://www.w3.org/1999/xlink" x="0px" y="0px"
	 viewBox="0 0 285.6 44.4" style="enable-background:new 0 0 285.6 44.4;" xml:space="preserve">
<style type="text/css">
	.st0{fill:#111C3C;stroke:#121C3D;stroke-width:0.5;stroke-miterlimit:10;}
</style>
<g>
	<path class="st0" d="M0.2,33.5v-0.4h1.3c0.6,0,1.2-0.1,1.6-0.3s0.8-0.5,1.1-1s0.6-1.2,0.9-2.1l9.6-27.5H17l11,28.5
		c0.2,0.6,0.5,1,0.7,1.4c0.2,0.3,0.5,0.6,0.8,0.7c0.3,0.2,0.7,0.2,1.1,0.2h0.6v0.4H19V33h1c1.1,0,1.9-0.1,2.4-0.4s0.8-0.7,0.8-1.4
		c0-0.2,0-0.4,0-0.5c0-0.2-0.1-0.4-0.1-0.6s-0.1-0.5-0.2-0.7l-2.7-7.2H8.4L6,29.1c-0.1,0.2-0.2,0.5-0.2,0.7
		c-0.1,0.2-0.1,0.5-0.1,0.6c0,0.2,0,0.4,0,0.5c0,0.8,0.3,1.3,1,1.7c0.7,0.3,1.8,0.5,3.4,0.5h1v0.4L0.2,33.5L0.2,33.5z M8.4,21.8H20
		l-3.2-8.5c-0.4-1-0.7-1.9-1.1-2.8c-0.3-0.9-0.6-1.8-0.9-2.6c-0.3-0.8-0.5-1.6-0.8-2.4c-0.2,0.6-0.4,1.2-0.6,1.8
		c-0.2,0.5-0.4,1.1-0.5,1.6c-0.2,0.5-0.4,1.1-0.6,1.7s-0.5,1.3-0.7,2.1L8.4,21.8L8.4,21.8z"/>
	<path class="st0" d="M42.7,33.5v-0.4h0.6c0.8,0,1.5-0.1,2-0.3s0.9-0.6,1.2-1c0.3-0.5,0.4-1,0.4-1.8V5.7c0-0.7-0.1-1.2-0.4-1.7
		S45.8,3.2,45.2,3s-1.2-0.3-2-0.3h-0.6V2.2h11.8c2.5,0,4.7,0.3,6.3,0.9c1.7,0.6,2.9,1.6,3.7,2.8c0.8,1.2,1.2,2.7,1.2,4.5
		s-0.3,3.1-1,4.2c-0.7,1.1-1.6,2-2.6,2.6c-1.1,0.6-2.2,1.1-3.3,1.4l6.2,9.6c0.6,0.9,1.2,1.7,1.6,2.3c0.4,0.6,0.9,1.1,1.2,1.5
		c0.4,0.4,0.7,0.6,1.1,0.8s0.7,0.2,1,0.2h0.1v0.4h-0.6c-1.4,0-2.5,0-3.4-0.2c-0.9-0.1-1.6-0.3-2.2-0.5s-1.1-0.6-1.6-1.2
		c-0.5-0.6-0.9-1.2-1.5-2l-6.8-10.7h-2.6v11c0,0.7,0.1,1.3,0.4,1.8c0.3,0.5,0.7,0.8,1.2,1s1.2,0.3,2,0.3h0.6v0.4L42.7,33.5
		L42.7,33.5z M54.3,18.5c1.6,0,2.9-0.3,3.9-0.8s1.7-1.3,2.1-2.5c0.4-1.1,0.7-2.6,0.7-4.5s-0.3-3.5-0.7-4.6c-0.5-1.2-1.2-2-2.2-2.6
		c-1-0.5-2.3-0.8-3.9-0.8h-3v15.8L54.3,18.5L54.3,18.5z"/>
	<path class="st0" d="M82.6,34c-3.3,0-5.8-1-7.7-3.2c-1.8-2.1-2.7-5-2.7-8.9c0-4.1,0.8-7.2,2.5-9.2c1.7-2.1,4.1-3.1,7.2-3.1
		c2.8,0,5.1,0.9,6.7,2.6S91,16.6,91,20v1H76.4c0,3,0.2,5.4,0.7,7.2c0.4,1.8,1.1,3.1,2,4c0.9,0.8,2.1,1.2,3.6,1.2
		c1.1,0,2.1-0.2,3-0.6s1.6-1,2.2-1.8s1-1.8,1.2-3c0.3,0.1,0.6,0.2,0.8,0.5c0.2,0.3,0.3,0.6,0.3,0.9c0,0.6-0.3,1.2-0.8,1.9
		c-0.6,0.7-1.4,1.3-2.5,1.8C85.7,33.8,84.2,34,82.6,34z M86.6,20.8c0-2.6-0.2-4.6-0.5-6.2s-0.8-2.7-1.5-3.4C83.9,10.4,83,10,81.8,10
		c-1.2,0-2.2,0.4-2.9,1.1c-0.8,0.7-1.3,1.9-1.7,3.4s-0.6,3.6-0.8,6.2C76.4,20.8,86.6,20.8,86.6,20.8z"/>
	<path class="st0" d="M93.9,44v-0.4h0.3c0.9,0,1.6-0.1,2.1-0.3s0.9-0.6,1.1-1.1s0.3-1.1,0.3-1.9V13.9c0-0.8-0.1-1.5-0.3-2
		c-0.2-0.5-0.6-0.9-1.1-1.1c-0.5-0.2-1.2-0.4-2.1-0.4h-0.6v-0.4h8.2v6.1h0.1c0.4-2.2,1.2-3.9,2.3-4.9s2.7-1.6,4.6-1.6
		c2.9,0,5,1,6.5,3.1s2.2,5.1,2.2,9.1s-0.8,7-2.3,9.1s-3.7,3.1-6.6,3.1c-1.9,0-3.4-0.5-4.5-1.6c-1.1-1.1-1.9-2.8-2.3-5h-0.1
		c0,0.7,0,1.5,0,2.2v10.5c0,0.8,0.1,1.5,0.3,2.1c0.2,0.5,0.6,0.9,1.1,1.2s1.2,0.3,2.1,0.3h0.1v0.4L93.9,44L93.9,44z M108.2,33.3
		c1.3,0,2.3-0.4,3.1-1.2c0.8-0.8,1.3-2,1.7-3.7s0.5-4,0.5-6.7s-0.2-5-0.5-6.6s-0.9-2.9-1.7-3.7s-1.8-1.1-3.1-1.1
		c-1.4,0-2.6,0.4-3.4,1.3s-1.6,2.1-2,3.8s-0.6,3.8-0.6,6.4s0.2,4.8,0.7,6.5c0.4,1.7,1.1,3,2,3.8C105.7,32.8,106.8,33.3,108.2,33.3
		L108.2,33.3z"/>
	<path class="st0" d="M132.6,34c-2.6,0-4.5-0.7-5.8-2c-1.3-1.4-1.9-3.5-1.9-6.5v-11c0-1-0.1-1.8-0.3-2.3c-0.2-0.6-0.6-1-1.1-1.2
		s-1.2-0.4-2.2-0.4h-0.1v-0.6h7.8v15.6c0,1.9,0.1,3.4,0.4,4.5c0.3,1.1,0.7,2,1.3,2.5s1.5,0.8,2.5,0.8c1.3,0,2.4-0.3,3.3-1
		c0.9-0.7,1.5-1.7,1.9-3s0.7-2.9,0.7-4.8V14.4c0-1-0.1-1.8-0.3-2.3c-0.2-0.6-0.6-1-1.1-1.2s-1.2-0.4-2.1-0.4h-0.1v-0.5h7.8v19.2
		c0,1,0.1,1.8,0.3,2.3s0.6,1,1.1,1.2s1.2,0.3,2.1,0.3h0.1v0.4h-7.5v-6h-0.1c-0.2,1.5-0.6,2.7-1.1,3.5s-1.1,1.5-1.8,1.9
		s-1.3,0.7-2,0.8S133.1,34,132.6,34L132.6,34z"/>
	<path class="st0" d="M163.6,34c-1.9,0-3.4-0.5-4.5-1.6c-1.1-1.1-1.9-2.8-2.3-5h-0.1v6.2h-8v-0.4h0.4c0.9,0,1.6-0.1,2.1-0.3
		s0.9-0.6,1.1-1.1s0.4-1.1,0.4-1.9V4.2c0-0.8-0.1-1.5-0.4-2c-0.2-0.5-0.6-0.9-1.1-1.1s-1.2-0.3-2.1-0.3H149V0.2h7.8v11.4
		c0,1.4,0,3-0.1,4.5h0.1c0.4-2.2,1.2-3.9,2.3-4.9c1.1-1.1,2.7-1.6,4.6-1.6c2.9,0,5,1,6.5,3.1s2.2,5.1,2.2,9.1c0,2.7-0.3,4.9-1,6.7
		s-1.7,3.2-3,4.1C167.1,33.5,165.6,34,163.6,34L163.6,34z M162.9,33.3c1.3,0,2.3-0.4,3.1-1.2s1.3-2,1.7-3.7s0.5-4,0.5-6.7
		s-0.2-5-0.5-6.6s-0.9-2.9-1.7-3.7s-1.8-1.1-3.1-1.1c-2.1,0-3.7,1-4.6,2.9s-1.4,4.8-1.4,8.6s0.5,6.8,1.5,8.7S160.9,33.3,162.9,33.3
		L162.9,33.3z"/>
	<path class="st0" d="M175.4,33.5v-0.4h0.6c0.9,0,1.6-0.1,2.1-0.3s0.9-0.6,1.1-1.1c0.2-0.5,0.4-1.1,0.4-1.9V4.2c0-0.8-0.1-1.5-0.4-2
		c-0.2-0.5-0.6-0.9-1.1-1.1s-1.2-0.3-2.1-0.3h-0.6V0.2h8.3v29.3c0,0.9,0.1,1.6,0.4,2.1c0.2,0.5,0.6,0.9,1.1,1.1s1.2,0.3,2.1,0.3h0.6
		v0.4L175.4,33.5L175.4,33.5z"/>
	<path class="st0" d="M189.4,33.5v-0.4h0.6c0.9,0,1.6-0.1,2.1-0.3s0.9-0.6,1.1-1.1c0.2-0.5,0.4-1.1,0.4-1.9V13.9
		c0-0.8-0.1-1.5-0.4-2c-0.2-0.5-0.6-0.9-1.1-1.1c-0.5-0.2-1.2-0.4-2.1-0.4h-0.1v-0.4h7.8v19.5c0,0.9,0.1,1.6,0.4,2.1
		c0.2,0.5,0.6,0.9,1.2,1.1c0.5,0.2,1.2,0.3,2.1,0.3h0.6v0.4L189.4,33.5L189.4,33.5z M195.4,5.8c-0.6,0-1-0.2-1.4-0.6s-0.6-1-0.6-1.9
		s0.2-1.6,0.6-1.9c0.4-0.4,0.8-0.5,1.4-0.5s1,0.2,1.4,0.5s0.6,1,0.6,1.9s-0.2,1.5-0.6,1.9S195.9,5.8,195.4,5.8z"/>
	<path class="st0" d="M214.9,34c-2,0-3.7-0.4-5.3-1.2c-1.5-0.8-2.7-2.1-3.6-3.9s-1.3-4.2-1.3-7.1s0.4-5.4,1.3-7.2s2-3,3.5-3.8
		s3.1-1.1,4.9-1.1c1.2,0,2.4,0.2,3.6,0.5c1.2,0.3,2.1,0.8,2.9,1.5c0.8,0.7,1.1,1.5,1.1,2.6c0,0.6-0.1,1.2-0.5,1.6
		c-0.4,0.4-0.8,0.7-1.3,0.9c-0.6,0.2-1.3,0.3-2.1,0.3c0-1.6-0.1-2.8-0.3-3.8s-0.6-1.8-1.2-2.2s-1.3-0.7-2.4-0.7s-2,0.3-2.8,1
		s-1.4,1.8-1.9,3.5c-0.4,1.7-0.7,4.1-0.7,7.2c0,2.9,0.2,5.2,0.7,6.9s1.1,3,2.1,3.8c1,0.8,2.2,1.1,3.7,1.1c1,0,1.8-0.2,2.6-0.5
		s1.4-0.9,2-1.7s1-1.9,1.3-3.3c0.3,0.1,0.5,0.2,0.7,0.4c0.2,0.2,0.2,0.6,0.2,1c0,0.7-0.3,1.4-0.8,2.1c-0.6,0.7-1.4,1.3-2.5,1.7
		S216.6,34,214.9,34L214.9,34z"/>
	<path class="st0" d="M233.4,34c-2.2,0-4-0.6-5.3-1.7c-1.3-1.1-1.9-2.7-1.9-4.8c0-2.2,0.8-3.9,2.5-5s4.2-1.7,7.5-1.8l3.6-0.1v-3.4
		c0-1.6-0.1-3-0.3-4s-0.6-1.8-1.1-2.3s-1.5-0.8-2.7-0.8c-1.7,0-2.8,0.5-3.3,1.6s-0.7,2.7-0.7,5c-1.2,0-2.2-0.2-2.8-0.6
		s-0.9-1.1-0.9-2c0-1.1,0.4-1.9,1.1-2.5c0.7-0.6,1.7-1.1,2.9-1.4s2.5-0.4,3.9-0.4c2.7,0,4.7,0.6,6,1.7s2,3.1,2,5.9v13.1
		c0,0.7,0.1,1.3,0.3,1.7c0.2,0.4,0.5,0.7,0.9,0.9s0.9,0.3,1.6,0.3h0.1v0.4h-6.6v-4.6h-0.1c-0.3,1.2-0.8,2.1-1.4,2.9
		s-1.4,1.3-2.3,1.6S234.6,34,233.4,34L233.4,34z M234.4,33.3c1.1,0,2-0.3,2.9-0.8c0.8-0.5,1.5-1.3,1.9-2.2c0.5-0.9,0.7-1.9,0.7-3V21
		l-2.8,0.1c-2.5,0.1-4.2,0.7-5.1,1.7s-1.4,2.8-1.4,5.2c0,1.2,0.1,2.2,0.4,3c0.3,0.8,0.7,1.4,1.3,1.8
		C232.8,33.2,233.4,33.3,234.4,33.3L234.4,33.3z"/>
	<path class="st0" d="M249.9,33.5v-0.4h0.4c0.9,0,1.6-0.1,2.1-0.4s0.9-0.7,1.1-1.2c0.2-0.6,0.3-1.4,0.3-2.4V14.4
		c0-1-0.1-1.8-0.3-2.3c-0.2-0.6-0.6-1-1.1-1.2s-1.2-0.4-2.1-0.4h-0.2v-0.5h7.8v4.1h0.1c0.4-1.4,1-2.4,1.7-3s1.5-1.1,2.4-1.2
		c0.9-0.2,1.7-0.3,2.4-0.3c2.6,0,4.5,0.7,5.8,2s1.9,3.6,1.9,6.6v10.9c0,1,0.1,1.8,0.3,2.4c0.2,0.6,0.5,1,1,1.2s1.1,0.4,2,0.4h0.2
		v0.4h-7.6V16.8c0-1.9-0.4-3.4-1-4.6c-0.7-1.2-1.9-1.8-3.6-1.8c-1.4,0-2.5,0.4-3.2,1.1c-0.8,0.7-1.4,1.7-1.7,2.8
		c-0.3,1.1-0.5,2.4-0.5,3.6v11.3c0,1,0.1,1.8,0.3,2.4s0.6,1,1.1,1.2c0.5,0.2,1.2,0.4,2.1,0.4h0.2v0.4L249.9,33.5L249.9,33.5z"/>
	<path class="st0" d="M278.2,39.8c0.9-0.3,1.7-0.6,2.4-1s1.2-0.9,1.6-1.5c0.4-0.5,0.6-1.2,0.6-1.9c0-0.6-0.1-1.1-0.4-1.4
		c-0.2-0.3-0.5-0.6-0.9-0.8s-0.7-0.4-1.1-0.5s-0.7-0.4-0.9-0.8c-0.2-0.3-0.4-0.8-0.4-1.4c0-0.9,0.3-1.5,0.8-2s1.2-0.7,2-0.7
		c0.9,0,1.7,0.3,2.4,0.9c0.7,0.6,1,1.7,1,3.1c0,1.7-0.6,3.3-1.7,4.9s-3,2.7-5.5,3.4L278.2,39.8L278.2,39.8z"/>
</g>
</svg>
