<?xml version="1.0" encoding="utf-8"?>
<!-- Generator: Adobe Illustrator 27.5.0, SVG Export Plug-In . SVG Version: 6.00 Build 0)  -->
<svg version="1.1" id="a" xmlns="http://www.w3.org/2000/svg" xmlns:xlink="http://www.w3.org/1999/xlink" x="0px" y="0px"
	 viewBox="0 0 312.4 34.3" style="enable-background:new 0 0 312.4 34.3;" xml:space="preserve">
<style type="text/css">
	.st0{fill:#111C3C;stroke:#111C3C;stroke-width:0.5;stroke-miterlimit:10;}
</style>
<g>
	<path class="st0" d="M28.5,10.6H30c1.2,0,2,0.1,2.5,0.4c0.5,0.2,0.7,0.7,0.7,1.4c0,0.3,0,0.6-0.1,1s-0.2,0.8-0.3,1.2l-2.8,11
		c-0.2,0.7-0.4,1.5-0.5,2.2c-0.2,0.7-0.4,1.5-0.5,2.2c-0.2,0.7-0.4,1.5-0.6,2.2h-0.2c-0.2-0.6-0.4-1.2-0.5-1.7s-0.4-1.1-0.6-1.7
		s-0.4-1.1-0.6-1.7s-0.4-1.1-0.6-1.7l-5-15h-2.7l-3.9,14.8c-0.2,0.8-0.4,1.5-0.6,2.2c-0.2,0.7-0.4,1.5-0.5,2.2
		c-0.2,0.7-0.4,1.5-0.6,2.2h-0.1c-0.2-0.7-0.4-1.5-0.6-2.2c-0.2-0.7-0.4-1.4-0.6-2.2c-0.2-0.7-0.4-1.5-0.6-2.2L7.8,14.2
		c-0.1-0.4-0.2-0.8-0.3-1.2c-0.1-0.3-0.1-0.7-0.1-0.9c0-0.6,0.2-1,0.6-1.2c0.4-0.2,1.1-0.4,2.1-0.4h1v-0.5H0.2v0.4h0.5
		c0.4,0,0.8,0.1,1.1,0.2c0.3,0.1,0.6,0.4,0.8,0.7s0.4,0.8,0.6,1.4l6,20.7h3.3L18,12.7l6.9,20.8h3.5l5-19.6c0.2-0.9,0.5-1.6,0.8-2.1
		s0.7-0.8,1.1-1c0.4-0.2,0.9-0.3,1.5-0.3h1.1v-0.4h-9.4v0.5H28.5z"/>
	<path class="st0" d="M59,32.8c-0.4-0.2-0.7-0.5-0.9-0.9s-0.3-1-0.3-1.7v-13c0-2.8-0.7-4.7-2-5.9c-1.3-1.1-3.3-1.7-6-1.7
		c-1.4,0-2.7,0.1-3.9,0.4c-1.2,0.3-2.1,0.8-2.9,1.4c-0.7,0.6-1.1,1.5-1.1,2.5c0,0.9,0.3,1.6,0.9,2c0.6,0.4,1.6,0.6,2.8,0.6
		c0-2.2,0.2-3.9,0.7-5c0.5-1,1.6-1.6,3.3-1.6c1.2,0,2.1,0.3,2.7,0.8c0.6,0.5,1,1.3,1.1,2.3c0.2,1,0.3,2.4,0.3,4v3.3l-3.6,0.1
		c-3.4,0.1-5.9,0.7-7.5,1.8c-1.7,1.1-2.5,2.8-2.5,5c0,2,0.7,3.6,2,4.8c1.3,1.1,3.1,1.7,5.3,1.7l0,0c1.1,0,2.1-0.2,3-0.5
		s1.7-0.9,2.3-1.6c0.6-0.7,1.1-1.7,1.4-2.9h0.1v4.6h6.6v-0.4h-0.1C60,33.2,59.5,33,59,32.8z M53.8,27.2c0,1.1-0.2,2.1-0.7,3
		S52,32,51.1,32.5c-0.8,0.5-1.8,0.8-2.9,0.8c-0.8,0-1.6-0.2-2.1-0.6c-0.6-0.4-1-1-1.3-1.8s-0.4-1.8-0.4-3c0-2.4,0.5-4.2,1.4-5.2
		c1-1,2.7-1.6,5.2-1.7l2.8-0.1L53.8,27.2L53.8,27.2z"/>
	<path class="st0" d="M72.9,32.8c-0.5-0.2-0.9-0.6-1.1-1.1c-0.2-0.5-0.3-1.2-0.3-2.1V0.2h-8.3v0.4h0.6c0.9,0,1.6,0.1,2.1,0.3
		s0.9,0.6,1.1,1.1s0.3,1.1,0.3,2v25.6c0,0.8-0.1,1.4-0.3,1.9c-0.2,0.5-0.6,0.9-1.1,1.1S64.8,33,63.8,33h-0.6v0.4h12.4V33h-0.6
		C74.2,33.2,73.6,33,72.9,32.8z"/>
	<path class="st0" d="M63.2,33.5L63.2,33.5L63.2,33.5z"/>
	<path class="st0" d="M77.1,33.5L77.1,33.5L77.1,33.5z"/>
	<path class="st0" d="M100.7,32.8c-0.4-0.2-0.8-0.5-1.4-1.2c-0.5-0.6-1.3-1.6-2.2-3l-6.8-10.4l3.4-3.9c1.1-1.3,2.1-2.2,2.7-2.7
		c0.7-0.6,1.3-0.9,1.9-1.1c0.6-0.1,1.2-0.2,2-0.2v-0.3h-9.7v0.4c1.3,0,2.3,0.1,3,0.3s1,0.5,1,1c0,0.2-0.1,0.5-0.2,0.9
		c-0.2,0.3-0.4,0.7-0.7,1.1c-0.3,0.4-0.7,0.9-1.2,1.4L85,23.5c0-0.6,0-1.2,0.1-1.8c0-0.6,0-1.2,0-1.7V0.2h-7.8v0.4h0.1
		c0.9,0,1.6,0.1,2.1,0.3s0.9,0.6,1.1,1.1s0.3,1.1,0.3,2v25.6c0,0.8-0.1,1.4-0.3,1.9c-0.2,0.5-0.6,0.9-1.1,1.1S78.2,33,77.3,33H77
		v0.4h11.8V33h-0.1c-0.9,0-1.6-0.1-2.1-0.3s-0.9-0.6-1.1-1.1c-0.2-0.5-0.3-1.2-0.3-2.1v-5.2l2.6-2.9l5.4,8.9
		c0.4,0.6,0.8,1.2,1.2,1.6c0.4,0.4,0.9,0.8,1.4,1s1.1,0.4,1.8,0.5c0.7,0.1,1.4,0.2,2.3,0.2h1.9v-0.4h-0.1
		C101.4,33.2,101.1,33,100.7,32.8z"/>
	<path class="st0" d="M118.8,5.8c0.5,0,1-0.2,1.4-0.5s0.6-1,0.6-1.9s-0.2-1.6-0.6-1.9S119.3,1,118.8,1s-1,0.2-1.4,0.5
		c-0.4,0.4-0.5,1-0.5,1.9s0.2,1.5,0.5,1.9C117.8,5.7,118.2,5.8,118.8,5.8z"/>
	<path class="st0" d="M112.8,33.5L112.8,33.5L112.8,33.5z"/>
	<path class="st0" d="M122.6,32.8c-0.5-0.2-0.9-0.6-1.2-1.1c-0.2-0.5-0.3-1.2-0.3-2.1V10.1h-7.8v0.4h0.1c0.9,0,1.6,0.1,2.1,0.3
		s0.9,0.6,1.1,1.1s0.3,1.1,0.3,2v15.8c0,0.8-0.1,1.4-0.3,1.9c-0.2,0.5-0.6,0.9-1.1,1.1s-1.2,0.3-2.1,0.3h-0.6v0.4h12.4V33h-0.6
		C123.8,33.2,123.1,33,122.6,32.8z"/>
	<path class="st0" d="M150.6,32.8c-0.5-0.2-0.8-0.7-1-1.2c-0.2-0.6-0.3-1.4-0.3-2.4V18.2c0-3-0.6-5.2-1.9-6.5s-3.2-2-5.8-2
		c-0.7,0-1.5,0.1-2.4,0.3s-1.7,0.6-2.4,1.2c-0.7,0.6-1.3,1.7-1.7,3h-0.1v-4.2h-7.8v0.4h0.2c0.9,0,1.6,0.1,2.1,0.4s0.9,0.7,1.1,1.2
		c0.2,0.6,0.3,1.4,0.3,2.3V29c0,1-0.1,1.8-0.3,2.4s-0.6,1-1.1,1.2s-1.2,0.4-2.1,0.4h-0.4v0.4l0,0h11.8V33h-0.2
		c-0.9,0-1.6-0.1-2.1-0.4c-0.5-0.2-0.9-0.7-1.1-1.2c-0.2-0.6-0.3-1.4-0.3-2.4V17.9c0-1.3,0.2-2.5,0.5-3.6c0.3-1.2,0.9-2.1,1.7-2.8
		s1.9-1.1,3.2-1.1c1.7,0,2.9,0.6,3.6,1.8s1,2.8,1,4.6v16.8h7.6v-0.4h-0.2C151.8,33.2,151.1,33,150.6,32.8z"/>
	<path class="st0" d="M165.8,33.3c-1.1,0-2-0.4-2.6-1.1c-0.6-0.8-0.9-1.9-0.9-3.4V10.4h6.1v-0.4h-6.1V4.7h-0.4
		c-0.2,1-0.5,1.8-0.9,2.5s-0.8,1.3-1.4,1.7c-0.5,0.4-1.2,0.7-2,0.9s-1.7,0.3-2.7,0.3v0.4h3.3v16.8c0,2.5,0.5,4.3,1.5,5.3
		s2.6,1.5,4.8,1.5l0,0c0.7,0,1.4-0.1,2.2-0.2c0.8-0.1,1.3-0.3,1.7-0.5v-0.4c-0.5,0.2-1,0.3-1.4,0.4S166.1,33.3,165.8,33.3z"/>
	<path class="st0" d="M182.1,9.6c-3.4,0-6,1-7.7,3s-2.6,5-2.6,9.1s0.9,7.2,2.7,9.2s4.3,3,7.5,3c3.4,0,5.9-1,7.7-3
		c1.7-2,2.6-5.1,2.6-9.2s-0.9-7.1-2.7-9.1S185.4,9.6,182.1,9.6z M187.4,28.6c-0.4,1.7-1,3-1.9,3.8c-0.9,0.8-2,1.2-3.5,1.2l0,0
		c-1.4,0-2.6-0.4-3.5-1.2s-1.5-2-1.9-3.8c-0.4-1.7-0.6-4-0.6-6.8s0.2-5.1,0.6-6.8c0.4-1.7,1-3,1.9-3.8s2-1.2,3.5-1.2
		s2.6,0.4,3.5,1.2s1.5,2,1.9,3.8c0.4,1.7,0.6,4,0.6,6.8S187.9,26.9,187.4,28.6z"/>
	<path class="st0" d="M225.8,32.8c-0.4-0.2-0.7-0.5-0.9-0.9s-0.3-1-0.3-1.7v-13c0-2.8-0.7-4.7-2-5.9c-1.3-1.1-3.3-1.7-6-1.7
		c-1.4,0-2.7,0.1-3.9,0.4c-1.2,0.3-2.2,0.8-2.9,1.4c-0.7,0.6-1.1,1.5-1.1,2.5c0,0.9,0.3,1.6,0.9,2c0.6,0.4,1.5,0.6,2.8,0.6
		c0-2.2,0.2-3.9,0.7-5c0.5-1,1.6-1.6,3.3-1.6c1.2,0,2.1,0.3,2.7,0.8c0.6,0.5,1,1.3,1.1,2.3c0.2,1,0.3,2.4,0.3,4v3.3l-3.6,0.1
		c-3.4,0.1-5.9,0.7-7.5,1.8c-1.7,1.1-2.5,2.8-2.5,5c0,2,0.6,3.6,1.9,4.8c1.3,1.1,3.1,1.7,5.3,1.7l0,0c1.1,0,2.1-0.2,3-0.5
		s1.7-0.9,2.3-1.6c0.6-0.7,1.1-1.7,1.4-2.9h0.1v4.6h6.6v-0.4h-0.2C226.6,33.2,226.1,33,225.8,32.8z M220.4,27.2c0,1.1-0.2,2.1-0.7,3
		s-1.1,1.7-2,2.2c-0.8,0.5-1.8,0.8-2.9,0.8c-0.8,0-1.6-0.2-2.1-0.6c-0.6-0.4-1-1-1.3-1.8s-0.4-1.8-0.4-3c0-2.4,0.5-4.2,1.4-5.2
		s2.7-1.6,5.1-1.7l2.8-0.1L220.4,27.2L220.4,27.2z"/>
	<path class="st0" d="M254.9,34L254.9,34L254.9,34z"/>
	<path class="st0" d="M254.9,9.6c-2,0-3.5,0.5-4.6,1.6s-1.9,2.7-2.3,4.9h-0.1c0.1-1.6,0.1-3.1,0.1-4.5V0.2h-7.8v0.4h0.1
		c0.9,0,1.6,0.1,2.1,0.3s0.9,0.6,1.1,1.1c0.2,0.5,0.4,1.1,0.4,2v25.6c0,0.8-0.1,1.4-0.4,1.9c-0.2,0.5-0.6,0.9-1.1,1.1
		s-1.2,0.3-2.1,0.3H240v0.4h8v-6.2h0.1c0.4,2.2,1.2,3.9,2.3,5c1.1,1.1,2.6,1.6,4.5,1.6c1.9,0,3.5-0.5,4.8-1.4c1.3-0.9,2.3-2.3,3-4.1
		c0.7-1.8,1-4.1,1-6.7c0-4-0.7-7-2.2-9.1S257.8,9.6,254.9,9.6z M258.9,28.5c-0.4,1.7-0.9,2.9-1.7,3.7c-0.8,0.8-1.8,1.2-3.1,1.2
		c-2,0-3.6-1-4.6-2.8c-1-1.9-1.5-4.9-1.5-8.7s0.5-6.7,1.4-8.6s2.5-2.9,4.6-2.9c1.3,0,2.3,0.4,3.1,1.1s1.4,2,1.7,3.7
		c0.3,1.7,0.5,3.9,0.5,6.6C259.4,24.5,259.2,26.8,258.9,28.5z"/>
	<path class="st0" d="M287.1,32.8c-0.4-0.2-0.7-0.5-0.9-0.9c-0.2-0.4-0.3-1-0.3-1.7v-13c0-2.8-0.7-4.7-2-5.9c-1.3-1.1-3.3-1.7-6-1.7
		c-1.4,0-2.7,0.1-3.9,0.4c-1.2,0.3-2.2,0.8-2.9,1.4c-0.7,0.6-1.1,1.5-1.1,2.5c0,0.9,0.3,1.6,0.9,2c0.6,0.4,1.5,0.6,2.8,0.6
		c0-2.2,0.2-3.9,0.7-5c0.5-1,1.6-1.6,3.3-1.6c1.2,0,2.1,0.3,2.7,0.8s1,1.3,1.1,2.3c0.2,1,0.3,2.4,0.3,4v3.3l-3.6,0.1
		c-3.4,0.1-5.9,0.7-7.5,1.8c-1.7,1.1-2.5,2.8-2.5,5c0,2,0.7,3.6,2,4.8c1.3,1.1,3.1,1.7,5.3,1.7l0,0c1.1,0,2.1-0.2,3-0.5
		s1.7-0.9,2.3-1.6c0.6-0.7,1.1-1.7,1.4-2.9h0.1v4.6h6.6v-0.4h-0.1C288,33.2,287.5,33,287.1,32.8z M281.9,27.2c0,1.1-0.2,2.1-0.7,3
		s-1.1,1.7-2,2.2c-0.8,0.5-1.8,0.8-2.9,0.8c-0.8,0-1.6-0.2-2.1-0.6c-0.6-0.4-1-1-1.3-1.8s-0.4-1.8-0.4-3c0-2.4,0.5-4.2,1.4-5.2
		c1-1,2.7-1.6,5.2-1.7l2.8-0.1V27.2z"/>
	<path class="st0" d="M310.6,12.9c0-1-0.4-1.8-1.2-2.4c-0.8-0.6-2-0.9-3.4-0.9s-2.5,0.2-3.3,0.8c-0.8,0.5-1.5,1.1-1.9,1.8
		s-0.7,1.5-0.9,2.2h-0.1v-4.3h-7.8v0.4h0.1c0.9,0,1.6,0.1,2.1,0.3s0.9,0.6,1.1,1.1s0.4,1.1,0.4,2v15.8c0,0.8-0.1,1.4-0.4,1.9
		c-0.2,0.5-0.6,0.9-1.1,1.1s-1.2,0.3-2.1,0.3h-0.6v0.4H304V33h-0.6c-0.8,0-1.5-0.1-2.1-0.4c-0.5-0.2-0.9-0.6-1.2-1.1
		c-0.2-0.5-0.4-1.2-0.4-2.1v-9.4c0-0.8,0-1.8,0.1-2.8s0.2-2,0.4-2.9c0.2-1,0.6-1.7,1.1-2.3s1.2-0.9,2-0.9s1.5,0.3,2.1,1
		s0.9,1.9,0.9,3.8c1.5,0,2.5-0.3,3.1-0.9C310.4,14.4,310.6,13.8,310.6,12.9z"/>
	<path class="st0" d="M291.8,33.5L291.8,33.5L291.8,33.5z"/>
	<path class="st0" d="M311.5,28.6c-0.4-0.5-1-0.8-1.8-0.8s-1.4,0.2-1.8,0.8s-0.6,1.2-0.6,2.2s0.2,1.7,0.6,2.2s1,0.8,1.8,0.8
		s1.4-0.2,1.8-0.8c0.4-0.5,0.6-1.2,0.6-2.2S312,29.1,311.5,28.6z"/>
</g>
</svg>
