<svg viewBox="0 0 476.05 64.28" xmlns="http://www.w3.org/2000/svg"><g fill="#939392"><path d="m13.88 0v51.46h30.77v11.67h-44.65v-63.13z"/><path d="m64.55 52.17c1.89 1.83 4.6 2.74 8.13 2.74 2.53 0 4.72-.63 6.54-1.9 1.83-1.27 2.95-2.61 3.36-4.02h11.05c-1.77 5.48-4.48 9.4-8.13 11.76-3.66 2.36-8.08 3.54-13.26 3.54-3.6 0-6.84-.57-9.73-1.72s-5.34-2.79-7.34-4.91-3.55-4.66-4.64-7.6c-1.09-2.95-1.64-6.19-1.64-9.73s.56-6.6 1.68-9.55 2.71-5.5 4.77-7.65 4.52-3.85 7.38-5.08c2.86-1.24 6.03-1.86 9.51-1.86 3.89 0 7.28.75 10.17 2.25s5.26 3.52 7.12 6.06 3.2 5.42 4.02 8.67c.82 3.24 1.12 6.63.88 10.17h-32.97c.18 4.07 1.21 7.02 3.09 8.84zm14.19-24.05c-1.5-1.65-3.79-2.48-6.85-2.48-2 0-3.67.34-5 1.02s-2.39 1.52-3.18 2.52c-.8 1-1.36 2.06-1.68 3.18s-.52 2.12-.57 3.01h20.43c-.59-3.18-1.64-5.6-3.14-7.25z"/><path d="m101.33 31.48c.18-2.95.91-5.39 2.21-7.34s2.95-3.51 4.95-4.69 4.26-2.02 6.76-2.52 5.02-.75 7.56-.75c2.3 0 4.63.16 6.99.49 2.36.32 4.51.96 6.45 1.9 1.95.94 3.54 2.25 4.77 3.93s1.86 3.91 1.86 6.68v23.79c0 2.06.12 4.04.35 5.92.23 1.89.65 3.3 1.24 4.24h-12.73c-.24-.71-.43-1.43-.57-2.17-.15-.74-.25-1.49-.31-2.25-2 2.06-4.36 3.51-7.07 4.33s-5.48 1.24-8.31 1.24c-2.18 0-4.22-.27-6.1-.8-1.89-.53-3.54-1.35-4.95-2.48-1.41-1.12-2.52-2.53-3.32-4.24s-1.19-3.74-1.19-6.1c0-2.59.46-4.73 1.37-6.41s2.09-3.02 3.54-4.02c1.44-1 3.09-1.75 4.95-2.25s3.73-.9 5.61-1.19c1.89-.29 3.74-.53 5.57-.71s3.45-.44 4.86-.8 2.53-.87 3.36-1.55c.82-.68 1.21-1.67 1.15-2.96 0-1.36-.22-2.43-.66-3.23s-1.03-1.41-1.77-1.86c-.74-.44-1.59-.74-2.56-.88-.97-.15-2.02-.22-3.14-.22-2.48 0-4.42.53-5.84 1.59s-2.24 2.83-2.48 5.31h-12.56zm29 9.28c-.53.47-1.19.84-1.99 1.11s-1.65.49-2.56.66c-.91.18-1.87.32-2.87.44s-2 .27-3.01.44c-.94.18-1.87.41-2.79.71-.91.3-1.71.69-2.39 1.19s-1.22 1.14-1.64 1.9c-.41.77-.62 1.74-.62 2.92s.21 2.06.62 2.83.97 1.37 1.68 1.81 1.53.75 2.48.93c.94.18 1.91.27 2.92.27 2.48 0 4.39-.41 5.75-1.24 1.36-.82 2.36-1.81 3.01-2.96s1.05-2.31 1.19-3.49c.15-1.18.22-2.12.22-2.83z"/><path d="m164.55 17.42v8.49h.18c.59-1.42 1.38-2.73 2.39-3.94 1-1.21 2.15-2.24 3.45-3.09s2.68-1.52 4.16-1.99c1.47-.47 3.01-.71 4.6-.71.82 0 1.74.15 2.74.44v11.67c-.59-.12-1.3-.22-2.12-.31-.83-.09-1.62-.13-2.39-.13-2.3 0-4.24.38-5.84 1.15-1.59.77-2.87 1.81-3.85 3.14-.97 1.33-1.67 2.87-2.08 4.64s-.62 3.69-.62 5.75v20.6h-12.56v-45.71z"/><path d="m200.54 17.42v6.37h.27c1.59-2.65 3.65-4.58 6.19-5.79s5.13-1.81 7.78-1.81c3.36 0 6.12.46 8.27 1.37s3.85 2.18 5.08 3.8c1.24 1.62 2.11 3.6 2.61 5.92.5 2.33.75 4.91.75 7.74v28.12h-12.56v-25.82c0-3.77-.59-6.59-1.77-8.44-1.18-1.86-3.27-2.79-6.28-2.79-3.42 0-5.89 1.02-7.43 3.05-1.53 2.03-2.3 5.38-2.3 10.04v23.96h-12.56v-45.72h11.94z"/><path d="m286.48 0 14.77 43.41h.18l13.97-43.41h19.54v63.13h-13v-44.74h-.18l-15.47 44.74h-10.7l-15.47-44.3h-.18v44.3h-13v-63.13z"/><path d="m346.08 30.37c1.12-2.98 2.71-5.51 4.77-7.6s4.54-3.71 7.43-4.86 6.13-1.72 9.73-1.72 6.85.57 9.77 1.72 5.41 2.77 7.47 4.86 3.65 4.63 4.78 7.6c1.12 2.98 1.68 6.29 1.68 9.95s-.56 6.96-1.68 9.9c-1.12 2.95-2.71 5.47-4.78 7.56-2.06 2.09-4.55 3.7-7.47 4.82s-6.18 1.68-9.77 1.68-6.84-.56-9.73-1.68-5.37-2.73-7.43-4.82-3.66-4.61-4.77-7.56c-1.12-2.95-1.68-6.25-1.68-9.9s.56-6.97 1.68-9.95zm11.41 15.3c.35 1.74.96 3.3 1.81 4.69s1.99 2.49 3.4 3.32c1.42.83 3.18 1.24 5.31 1.24s3.9-.41 5.35-1.24c1.44-.82 2.59-1.93 3.45-3.32.85-1.38 1.46-2.95 1.81-4.69s.53-3.52.53-5.35-.18-3.63-.53-5.39c-.35-1.77-.96-3.33-1.81-4.69-.86-1.36-2-2.46-3.45-3.32-1.44-.85-3.23-1.28-5.35-1.28s-3.89.43-5.31 1.28c-1.42.86-2.55 1.96-3.4 3.32-.86 1.36-1.46 2.92-1.81 4.69s-.53 3.57-.53 5.39.18 3.61.53 5.35z"/><path d="m411.78 17.42v8.49h.18c.59-1.42 1.38-2.73 2.39-3.94 1-1.21 2.15-2.24 3.45-3.09s2.68-1.52 4.16-1.99c1.47-.47 3.01-.71 4.6-.71.83 0 1.74.15 2.74.44v11.67c-.59-.12-1.3-.22-2.12-.31-.83-.09-1.62-.13-2.39-.13-2.3 0-4.24.38-5.83 1.15s-2.87 1.81-3.85 3.14c-.97 1.33-1.67 2.87-2.08 4.64s-.62 3.69-.62 5.75v20.6h-12.56v-45.71h11.94z"/><path d="m446.08 52.17c1.89 1.83 4.6 2.74 8.13 2.74 2.53 0 4.71-.63 6.54-1.9s2.95-2.61 3.36-4.02h11.05c-1.77 5.48-4.48 9.4-8.13 11.76-3.66 2.36-8.08 3.54-13.26 3.54-3.6 0-6.84-.57-9.73-1.72s-5.33-2.79-7.34-4.91-3.55-4.66-4.64-7.6c-1.09-2.95-1.64-6.19-1.64-9.73s.56-6.6 1.68-9.55 2.71-5.5 4.77-7.65 4.52-3.85 7.38-5.08c2.86-1.24 6.03-1.86 9.5-1.86 3.89 0 7.28.75 10.17 2.25s5.26 3.52 7.12 6.06 3.2 5.42 4.02 8.67c.83 3.24 1.12 6.63.88 10.17h-32.98c.18 4.07 1.21 7.02 3.09 8.84zm14.19-24.05c-1.5-1.65-3.79-2.48-6.85-2.48-2 0-3.67.34-5 1.02s-2.39 1.52-3.18 2.52c-.8 1-1.36 2.06-1.68 3.18s-.52 2.12-.57 3.01h20.42c-.59-3.18-1.64-5.6-3.14-7.25z"/></g></svg>