<?xml version="1.0" encoding="utf-8"?>
<!-- Generator: Adobe Illustrator 27.5.0, SVG Export Plug-In . SVG Version: 6.00 Build 0)  -->
<svg version="1.1" id="a" xmlns="http://www.w3.org/2000/svg" xmlns:xlink="http://www.w3.org/1999/xlink" x="0px" y="0px"
	 viewBox="0 0 209.8 37" style="enable-background:new 0 0 209.8 37;" xml:space="preserve">
<style type="text/css">
	.st0{fill:#111C3C;}
	.st1{fill:none;stroke:#121C3D;stroke-width:0.5;stroke-miterlimit:10;}
</style>
<g>
	<g>
		<path class="st0" d="M15.8,27.4v0.4h10v-0.4c-1.4,0.2-2.2-0.6-2.6-1.9c0,0-9.1-23.6-9.1-23.6h-1.8L4.3,24.6
			c-0.5,2.2-2,3.1-4.1,2.8v0.4h8.8v-0.4c-7.6,0.9-3.1-5.2-2.2-9h9.8C17.3,21.3,22.4,28.4,15.8,27.4z M7,18.1l2.7-7.7
			c0.7-2.1,1.3-3.8,2-5.9c1.1,3.9,3.5,9.7,4.9,13.6H7z M38.4,9.2c-8.1-5.5-16,7.1-7.1,11.2c-3.7,1-3.8,6-0.1,7
			c-12.5,1.7-1.6,14.2,9.4,7.3c4.2-3.2,2.6-11-3.6-10.4c-1.3-0.1-5.1,0.3-6.1-0.4c-1.2-0.9-0.7-2.9,0.9-3.4
			C39,23.1,44,14.4,38.7,9.4c1.5-1.5,3.7-0.9,3.5,1.4C47.2,9.6,41.8,4.5,38.4,9.2z M40.4,31.2c0.2,4.8-5.7,5.7-9.5,4.4
			c-3.8-1.5-2.9-8.5,1.5-8.1C35.5,27.6,40.7,26.7,40.4,31.2z M32.3,19.9c-2.1-2.5-1.9-8.3,0-10.8C39.3,4.4,39.6,24.3,32.3,19.9z
			 M48.6,10.6c-5.4,6.9-0.5,21.3,9.9,17c1.7-0.6,4.1-3.2,1.9-4.2c-0.3,3.9-5.4,5.8-8.2,3.4c-2.2-2.3-2-5.5-2.2-9.2h12.1
			C63.5,9.3,53.9,4.7,48.6,10.6z M58.5,17.2h-8.4C49.6,5.5,59.4,5.3,58.5,17.2z M83.4,24.1c0,0,0-9,0-9c1.2-7.3-9.5-10.1-11.7-3.3
			h-0.1V8.4h-6.4v0.4c2.2-0.2,3.2,1.1,3.1,3.3c0,0,0,12.1,0,12.1c0.2,2.3-1,3.6-3.3,3.3v0.4h9.7v-0.4c-2.2,0.2-3.2-1.1-3.1-3.3
			c0,0,0-9.3,0-9.3c-0.7-4.3,4.3-8.8,7.5-4.7c1.7,2.2,0.6,15,0.9,17.8h6.3v-0.4C84.1,27.6,83.3,26.2,83.4,24.1z M105.6,24.6
			c0,0,0-24.4,0-24.4h-6.5v0.4c3.8-0.5,3,3.9,3.1,6.3c0,2,0,4.4,0.1,6.5h-0.1c-0.4-7-10.3-7.1-12.1-0.9c-3,6.7,1.3,20.3,10.2,14.3
			c0.9-0.9,1.6-2.3,1.9-4.1h0.1v5.1h6.6v-0.4C107,27.6,105.5,26.7,105.6,24.6z M94.6,26.7c-2.7-4-2.7-13.2,0-17.2
			C105.2,3.1,105,33.3,94.6,26.7z M124.4,9.4c-6-4.8-17.3,2.8-8.4,4.4c-1-5.4,5-7.8,6.4-2.8c0.3,1.4,0.2,4.4,0.2,6.1
			c-15.4-1.6-14,13.5-2.8,10.7c1.6-0.6,2.6-2,3.1-3.7h0.1v3.8h5.5v-0.4C123,28,128.5,11.7,124.4,9.4z M116.3,27.2
			c-2.1-1.6-1.7-6.7-0.2-8.2c1-1.3,4.6-1.5,6.6-1.5C123,21.5,122.6,29.8,116.3,27.2z M134.5,11.9c0.2-5.5,8-4.1,6.8,1.7
			c2.3,0.2,3.4-2.2,2-3.8c-4.2-4-14.1-0.7-10.9,5.8c1.2,2.5,5.4,3.6,7.7,5c7.2,6.5-7.4,11.8-6.2,1.3c-1.3,0-2.4,1-2.3,2.5
			c0.3,4.9,8.5,4.5,11.2,2.4C150.6,16.6,134.4,17.9,134.5,11.9z M169.2,9.4c-6-4.8-17.3,2.8-8.4,4.4c-1-5.4,5-7.8,6.4-2.8
			c0.3,1.4,0.2,4.4,0.2,6.1c-15.4-1.6-14,13.5-2.8,10.7c1.6-0.6,2.6-2,3.1-3.7h0.1v3.8h5.5v-0.4C167.9,28,173.4,11.7,169.2,9.4z
			 M161.1,27.2c-2.1-1.6-1.6-6.7-0.2-8.2c1-1.3,4.6-1.5,6.6-1.5C167.9,21.5,167.4,29.8,161.1,27.2z M182.5,12L182.5,12l-0.1-3.6H176
			v0.4c1.9-0.1,3.2,0.8,3.1,2.8c0,0,0,13.1,0,13.1c0.2,2.2-1.5,3-3.4,2.8v0.4h10.3v-0.4c-5.5,0.9-2.9-7.9-3.4-10.8
			c0.1-2.1,0-4.9,1.3-6.7c2.1-2,4.5,0.3,4.1,3.2C197.6,11.5,184.8,3,182.5,12z M196,10.6c-5.4,6.9-0.5,21.3,9.9,17
			c1.7-0.6,4.1-3.2,1.9-4.2c-0.3,3.9-5.4,5.8-8.2,3.4c-2.2-2.3-2-5.5-2.2-9.2h12.1C210.9,9.3,201.2,4.7,196,10.6z M205.8,17.2h-8.4
			C196.9,5.5,206.7,5.3,205.8,17.2z"/>
	</g>
	<g>
		<path class="st1" d="M15.8,27.4v0.4h10v-0.4c-1.4,0.2-2.2-0.6-2.6-1.9c0,0-9.1-23.6-9.1-23.6h-1.8L4.3,24.6
			c-0.5,2.2-2,3.1-4.1,2.8v0.4h8.8v-0.4c-7.6,0.9-3.1-5.2-2.2-9h9.8C17.3,21.3,22.4,28.4,15.8,27.4z M7,18.1l2.7-7.7
			c0.7-2.1,1.3-3.8,2-5.9c1.1,3.9,3.5,9.7,4.9,13.6H7z M38.4,9.2c-8.1-5.5-16,7.1-7.1,11.2c-3.7,1-3.8,6-0.1,7
			c-12.5,1.7-1.6,14.2,9.4,7.3c4.2-3.2,2.6-11-3.6-10.4c-1.3-0.1-5.1,0.3-6.1-0.4c-1.2-0.9-0.7-2.9,0.9-3.4
			C39,23.1,44,14.4,38.7,9.4c1.5-1.5,3.7-0.9,3.5,1.4C47.2,9.6,41.8,4.5,38.4,9.2z M40.4,31.2c0.2,4.8-5.7,5.7-9.5,4.4
			c-3.8-1.5-2.9-8.5,1.5-8.1C35.5,27.6,40.7,26.7,40.4,31.2z M32.3,19.9c-2.1-2.5-1.9-8.3,0-10.8C39.3,4.4,39.6,24.3,32.3,19.9z
			 M48.6,10.6c-5.4,6.9-0.5,21.3,9.9,17c1.7-0.6,4.1-3.2,1.9-4.2c-0.3,3.9-5.4,5.8-8.2,3.4c-2.2-2.3-2-5.5-2.2-9.2h12.1
			C63.5,9.3,53.9,4.7,48.6,10.6z M58.5,17.2h-8.4C49.6,5.5,59.4,5.3,58.5,17.2z M83.4,24.1c0,0,0-9,0-9c1.2-7.3-9.5-10.1-11.7-3.3
			h-0.1V8.4h-6.4v0.4c2.2-0.2,3.2,1.1,3.1,3.3c0,0,0,12.1,0,12.1c0.2,2.3-1,3.6-3.3,3.3v0.4h9.7v-0.4c-2.2,0.2-3.2-1.1-3.1-3.3
			c0,0,0-9.3,0-9.3c-0.7-4.3,4.3-8.8,7.5-4.7c1.7,2.2,0.6,15,0.9,17.8h6.3v-0.4C84.1,27.6,83.3,26.2,83.4,24.1z M105.6,24.6
			c0,0,0-24.4,0-24.4h-6.5v0.4c3.8-0.5,3,3.9,3.1,6.3c0,2,0,4.4,0.1,6.5h-0.1c-0.4-7-10.3-7.1-12.1-0.9c-3,6.7,1.3,20.3,10.2,14.3
			c0.9-0.9,1.6-2.3,1.9-4.1h0.1v5.1h6.6v-0.4C107,27.6,105.5,26.7,105.6,24.6z M94.6,26.7c-2.7-4-2.7-13.2,0-17.2
			C105.2,3.1,105,33.3,94.6,26.7z M124.4,9.4c-6-4.8-17.3,2.8-8.4,4.4c-1-5.4,5-7.8,6.4-2.8c0.3,1.4,0.2,4.4,0.2,6.1
			c-15.4-1.6-14,13.5-2.8,10.7c1.6-0.6,2.6-2,3.1-3.7h0.1v3.8h5.5v-0.4C123,28,128.5,11.7,124.4,9.4z M116.3,27.2
			c-2.1-1.6-1.7-6.7-0.2-8.2c1-1.3,4.6-1.5,6.6-1.5C123,21.5,122.6,29.8,116.3,27.2z M134.5,11.9c0.2-5.5,8-4.1,6.8,1.7
			c2.3,0.2,3.4-2.2,2-3.8c-4.2-4-14.1-0.7-10.9,5.8c1.2,2.5,5.4,3.6,7.7,5c7.2,6.5-7.4,11.8-6.2,1.3c-1.3,0-2.4,1-2.3,2.5
			c0.3,4.9,8.5,4.5,11.2,2.4C150.6,16.6,134.4,17.9,134.5,11.9z M169.2,9.4c-6-4.8-17.3,2.8-8.4,4.4c-1-5.4,5-7.8,6.4-2.8
			c0.3,1.4,0.2,4.4,0.2,6.1c-15.4-1.6-14,13.5-2.8,10.7c1.6-0.6,2.6-2,3.1-3.7h0.1v3.8h5.5v-0.4C167.9,28,173.4,11.7,169.2,9.4z
			 M161.1,27.2c-2.1-1.6-1.6-6.7-0.2-8.2c1-1.3,4.6-1.5,6.6-1.5C167.9,21.5,167.4,29.8,161.1,27.2z M182.5,12L182.5,12l-0.1-3.6H176
			v0.4c1.9-0.1,3.2,0.8,3.1,2.8c0,0,0,13.1,0,13.1c0.2,2.2-1.5,3-3.4,2.8v0.4h10.3v-0.4c-5.5,0.9-2.9-7.9-3.4-10.8
			c0.1-2.1,0-4.9,1.3-6.7c2.1-2,4.5,0.3,4.1,3.2C197.6,11.5,184.8,3,182.5,12z M196,10.6c-5.4,6.9-0.5,21.3,9.9,17
			c1.7-0.6,4.1-3.2,1.9-4.2c-0.3,3.9-5.4,5.8-8.2,3.4c-2.2-2.3-2-5.5-2.2-9.2h12.1C210.9,9.3,201.2,4.7,196,10.6z M205.8,17.2h-8.4
			C196.9,5.5,206.7,5.3,205.8,17.2z"/>
	</g>
</g>
</svg>
