<?xml version="1.0" encoding="utf-8"?>
<!-- Generator: Adobe Illustrator 27.5.0, SVG Export Plug-In . SVG Version: 6.00 Build 0)  -->
<svg version="1.1" id="a" xmlns="http://www.w3.org/2000/svg" xmlns:xlink="http://www.w3.org/1999/xlink" x="0px" y="0px"
	 viewBox="0 0 237.3 35.1" style="enable-background:new 0 0 237.3 35.1;" xml:space="preserve">
<style type="text/css">
	.st0{fill:#111C3C;}
	.st1{fill:none;stroke:#121C3D;stroke-width:0.5;stroke-miterlimit:10;}
</style>
<g>
	<g>
		<path class="st0" d="M17.1,0.6c1.9-0.2,4.1,0.3,4,2.6c0,0,0,17.7,0,17.7L7.3,0.2H0.2v0.4c1.8-0.1,4.2,0.2,4,2.5c0,0,0,20.1,0,20.1
			c0.2,2.3-2.1,2.8-4,2.6v0.4h8.4v-0.4c-1.9,0.2-4.1-0.3-4-2.6c0,0,0-20.7,0-20.7l15.8,23.6h1.1V3.2c-0.1-2.3,2.1-2.8,4-2.6V0.2
			h-8.4V0.6z M30.7,8.8C23.9,17.7,32.8,33,43.3,24C50,15.1,41.2-0.1,30.7,8.8z M34.1,25.2c-3-3.9-3-13.6,0-17.5
			C44.9,0.6,44.9,32.3,34.1,25.2z M54.3,2.2h-0.4c-0.4,3.1-2.8,4.6-5.8,4.5v0.4h2.8v13.8c-0.3,4.8,2.9,6.2,7.1,5.4
			c0.6-0.1,1.1-0.3,1.4-0.4v-0.4c-2.7,1.2-5.3,0-5.1-3.3c0,0,0-15.2,0-15.2h5.1V6.7h-5.1V2.2z M76,10.3L76,10.3L76,6.7h-6.4v0.4
			c1.9-0.1,3.2,0.8,3.1,2.8c0,0,0,13.1,0,13.1c0.2,2.2-1.5,3-3.4,2.8v0.4h10.3v-0.4C74,26.7,76.6,17.9,76,15c0.1-2.1,0-4.9,1.3-6.7
			c2.1-2,4.5,0.3,4.1,3.2C91.1,9.8,78.3,1.3,76,10.3z M89.5,8.9c-5.4,6.9-0.5,21.3,9.9,17c1.7-0.6,4.1-3.2,1.9-4.2
			c-0.3,3.9-5.4,5.8-8.2,3.4c-2.2-2.3-2-5.5-2.2-9.2h12.1C104.4,7.6,94.7,3.1,89.5,8.9z M99.3,15.5h-8.4
			C90.4,3.8,100.2,3.6,99.3,15.5z M112.1,11.7L112.1,11.7l-0.1-5h-6.8v0.4c2-0.2,3.6,0.6,3.4,2.8c0,0,0,21.8,0,21.8
			c0.1,2.1-1.3,3-3.3,2.8v0.4h9.7v-0.4c-5.3,0.9-2.3-10.3-3.1-13.5h0.1c1.9,10.3,14.6,4.6,12.9-4.6C126.8,7.1,114.1,1.6,112.1,11.7z
			 M114.3,24.9c-3.1-4.1-4.2-17.3,2.8-18C124.2,6.4,123.1,31.8,114.3,24.9z M131.1,8.8c-6.7,8.9,2.1,24.1,12.6,15.2
			C150.5,15.1,141.7-0.1,131.1,8.8z M134.6,25.2c-3-3.9-3-13.6,0-17.5C145.4,0.6,145.4,32.3,134.6,25.2z M155.6,10.3L155.6,10.3
			l-0.1-3.6h-6.4v0.4c1.9-0.1,3.2,0.8,3.1,2.8c0,0,0,13.1,0,13.1c0.2,2.2-1.5,3-3.4,2.8v0.4H159v-0.4c-5.5,0.9-2.9-7.9-3.4-10.8
			c0.1-2.1,0-4.9,1.3-6.7c2.1-2,4.5,0.3,4.1,3.2C170.7,9.8,157.9,1.3,155.6,10.3z M171.8,2.2h-0.4c-0.4,3.1-2.8,4.6-5.8,4.5v0.4h2.8
			v13.8c-0.3,4.8,2.9,6.2,7.1,5.4c0.6-0.1,1.1-0.3,1.4-0.4v-0.4c-2.7,1.2-5.3,0-5.1-3.3c0,0,0-15.2,0-15.2h5.1V6.7h-5.1V2.2z
			 M181.8,8.9c-5.4,6.9-0.5,21.3,9.9,17c1.7-0.6,4.1-3.2,1.9-4.2c-0.3,3.9-5.4,5.8-8.2,3.4c-2.2-2.3-2-5.5-2.2-9.2h12.1
			C196.7,7.6,187,3.1,181.8,8.9z M191.6,15.5h-8.4C182.7,3.8,192.6,3.6,191.6,15.5z M204.8,10.3L204.8,10.3l-0.1-3.6h-6.4v0.4
			c1.9-0.1,3.2,0.8,3.1,2.8c0,0,0,13.1,0,13.1c0.2,2.2-1.5,3-3.4,2.8v0.4h10.3v-0.4c-5.5,0.9-2.9-7.9-3.4-10.8
			c0.1-2.1,0-4.9,1.3-6.7c2.1-2,4.5,0.3,4.1,3.2C219.8,9.8,207.1,1.3,204.8,10.3z M218.7,10.2c0.2-5.5,8-4.1,6.8,1.7
			c2.3,0.2,3.4-2.2,2-3.8c-4.2-4-14.1-0.7-10.9,5.8c1.2,2.5,5.4,3.6,7.7,5c7.2,6.5-7.4,11.8-6.2,1.3c-1.3,0-2.4,1-2.3,2.5
			c0.3,4.9,8.5,4.5,11.2,2.4C234.8,14.9,218.6,16.2,218.7,10.2z M233.5,22.1c-1.6,2,0.5,6,2.9,3.7C238,23.8,236,19.8,233.5,22.1z"/>
	</g>
	<g>
		<path class="st1" d="M17.1,0.6c1.9-0.2,4.1,0.3,4,2.6c0,0,0,17.7,0,17.7L7.3,0.2H0.2v0.4c1.8-0.1,4.2,0.2,4,2.5c0,0,0,20.1,0,20.1
			c0.2,2.3-2.1,2.8-4,2.6v0.4h8.4v-0.4c-1.9,0.2-4.1-0.3-4-2.6c0,0,0-20.7,0-20.7l15.8,23.6h1.1V3.2c-0.1-2.3,2.1-2.8,4-2.6V0.2
			h-8.4V0.6z M30.7,8.8C23.9,17.7,32.8,33,43.3,24C50,15.1,41.2-0.1,30.7,8.8z M34.1,25.2c-3-3.9-3-13.6,0-17.5
			C44.9,0.6,44.9,32.3,34.1,25.2z M54.3,2.2h-0.4c-0.4,3.1-2.8,4.6-5.8,4.5v0.4h2.8v13.8c-0.3,4.8,2.9,6.2,7.1,5.4
			c0.6-0.1,1.1-0.3,1.4-0.4v-0.4c-2.7,1.2-5.3,0-5.1-3.3c0,0,0-15.2,0-15.2h5.1V6.7h-5.1V2.2z M76,10.3L76,10.3L76,6.7h-6.4v0.4
			c1.9-0.1,3.2,0.8,3.1,2.8c0,0,0,13.1,0,13.1c0.2,2.2-1.5,3-3.4,2.8v0.4h10.3v-0.4C74,26.7,76.6,17.9,76,15c0.1-2.1,0-4.9,1.3-6.7
			c2.1-2,4.5,0.3,4.1,3.2C91.1,9.8,78.3,1.3,76,10.3z M89.5,8.9c-5.4,6.9-0.5,21.3,9.9,17c1.7-0.6,4.1-3.2,1.9-4.2
			c-0.3,3.9-5.4,5.8-8.2,3.4c-2.2-2.3-2-5.5-2.2-9.2h12.1C104.4,7.6,94.7,3.1,89.5,8.9z M99.3,15.5h-8.4
			C90.4,3.8,100.2,3.6,99.3,15.5z M112.1,11.7L112.1,11.7l-0.1-5h-6.8v0.4c2-0.2,3.6,0.6,3.4,2.8c0,0,0,21.8,0,21.8
			c0.1,2.1-1.3,3-3.3,2.8v0.4h9.7v-0.4c-5.3,0.9-2.3-10.3-3.1-13.5h0.1c1.9,10.3,14.6,4.6,12.9-4.6C126.8,7.1,114.1,1.6,112.1,11.7z
			 M114.3,24.9c-3.1-4.1-4.2-17.3,2.8-18C124.2,6.4,123.1,31.8,114.3,24.9z M131.1,8.8c-6.7,8.9,2.1,24.1,12.6,15.2
			C150.5,15.1,141.7-0.1,131.1,8.8z M134.6,25.2c-3-3.9-3-13.6,0-17.5C145.4,0.6,145.4,32.3,134.6,25.2z M155.6,10.3L155.6,10.3
			l-0.1-3.6h-6.4v0.4c1.9-0.1,3.2,0.8,3.1,2.8c0,0,0,13.1,0,13.1c0.2,2.2-1.5,3-3.4,2.8v0.4H159v-0.4c-5.5,0.9-2.9-7.9-3.4-10.8
			c0.1-2.1,0-4.9,1.3-6.7c2.1-2,4.5,0.3,4.1,3.2C170.7,9.8,157.9,1.3,155.6,10.3z M171.8,2.2h-0.4c-0.4,3.1-2.8,4.6-5.8,4.5v0.4h2.8
			v13.8c-0.3,4.8,2.9,6.2,7.1,5.4c0.6-0.1,1.1-0.3,1.4-0.4v-0.4c-2.7,1.2-5.3,0-5.1-3.3c0,0,0-15.2,0-15.2h5.1V6.7h-5.1V2.2z
			 M181.8,8.9c-5.4,6.9-0.5,21.3,9.9,17c1.7-0.6,4.1-3.2,1.9-4.2c-0.3,3.9-5.4,5.8-8.2,3.4c-2.2-2.3-2-5.5-2.2-9.2h12.1
			C196.7,7.6,187,3.1,181.8,8.9z M191.6,15.5h-8.4C182.7,3.8,192.6,3.6,191.6,15.5z M204.8,10.3L204.8,10.3l-0.1-3.6h-6.4v0.4
			c1.9-0.1,3.2,0.8,3.1,2.8c0,0,0,13.1,0,13.1c0.2,2.2-1.5,3-3.4,2.8v0.4h10.3v-0.4c-5.5,0.9-2.9-7.9-3.4-10.8
			c0.1-2.1,0-4.9,1.3-6.7c2.1-2,4.5,0.3,4.1,3.2C219.8,9.8,207.1,1.3,204.8,10.3z M218.7,10.2c0.2-5.5,8-4.1,6.8,1.7
			c2.3,0.2,3.4-2.2,2-3.8c-4.2-4-14.1-0.7-10.9,5.8c1.2,2.5,5.4,3.6,7.7,5c7.2,6.5-7.4,11.8-6.2,1.3c-1.3,0-2.4,1-2.3,2.5
			c0.3,4.9,8.5,4.5,11.2,2.4C234.8,14.9,218.6,16.2,218.7,10.2z M233.5,22.1c-1.6,2,0.5,6,2.9,3.7C238,23.8,236,19.8,233.5,22.1z"/>
	</g>
</g>
</svg>
