<?xml version="1.0" encoding="UTF-8"?><svg id="a" xmlns="http://www.w3.org/2000/svg" viewBox="0 0 604.28 78.45"><defs><style>.b{fill:#121c3d;}</style></defs><g><path class="b" d="M0,11.39V0H50.49V11.39h-18.47V61.62h-13.55V11.39H0Z"/><path class="b" d="M66.63,0V23.22h.26c1.55-2.59,3.54-4.47,5.96-5.65,2.42-1.18,4.77-1.77,7.08-1.77,3.28,0,5.97,.45,8.07,1.34,2.1,.89,3.75,2.13,4.96,3.71,1.21,1.58,2.06,3.51,2.55,5.78,.49,2.27,.73,4.79,.73,7.55v27.45h-12.26v-25.2c0-3.68-.58-6.43-1.73-8.24-1.15-1.81-3.19-2.72-6.13-2.72-3.34,0-5.75,.99-7.25,2.98-1.5,1.98-2.24,5.25-2.24,9.8v23.39h-12.26V0h12.26Z"/><path class="b" d="M116.77,50.92c1.84,1.78,4.49,2.68,7.94,2.68,2.47,0,4.6-.62,6.39-1.86,1.78-1.24,2.88-2.55,3.28-3.93h10.79c-1.73,5.35-4.37,9.18-7.94,11.48-3.57,2.3-7.88,3.45-12.95,3.45-3.51,0-6.68-.56-9.49-1.68-2.82-1.12-5.21-2.72-7.16-4.79-1.96-2.07-3.47-4.54-4.53-7.42-1.07-2.88-1.6-6.04-1.6-9.49s.55-6.44,1.64-9.32c1.09-2.88,2.65-5.36,4.66-7.47,2.01-2.1,4.42-3.75,7.21-4.96,2.79-1.21,5.88-1.81,9.28-1.81,3.8,0,7.11,.73,9.93,2.2,2.82,1.47,5.13,3.44,6.95,5.91,1.81,2.47,3.12,5.29,3.93,8.46,.8,3.17,1.09,6.47,.86,9.93h-32.19c.17,3.97,1.18,6.85,3.02,8.63Zm13.85-23.48c-1.47-1.61-3.7-2.42-6.69-2.42-1.96,0-3.58,.33-4.88,.99-1.29,.66-2.33,1.48-3.11,2.46-.78,.98-1.32,2.01-1.64,3.11-.32,1.09-.5,2.07-.56,2.93h19.94c-.58-3.11-1.6-5.47-3.06-7.08Z"/><path class="b" d="M171.66,0l14.41,42.38h.17L199.89,0h19.07V61.62h-12.69V17.95h-.17l-15.1,43.67h-10.44l-15.1-43.24h-.17V61.62h-12.69V0h19.07Z"/><path class="b" d="M240.8,50.92c1.84,1.78,4.49,2.68,7.94,2.68,2.47,0,4.6-.62,6.39-1.86,1.78-1.24,2.88-2.55,3.28-3.93h10.79c-1.73,5.35-4.37,9.18-7.94,11.48-3.57,2.3-7.88,3.45-12.95,3.45-3.51,0-6.68-.56-9.49-1.68-2.82-1.12-5.21-2.72-7.16-4.79s-3.47-4.54-4.53-7.42c-1.07-2.88-1.6-6.04-1.6-9.49s.55-6.44,1.64-9.32c1.09-2.88,2.65-5.36,4.66-7.47,2.01-2.1,4.42-3.75,7.21-4.96,2.79-1.21,5.88-1.81,9.28-1.81,3.8,0,7.11,.73,9.92,2.2,2.82,1.47,5.14,3.44,6.95,5.91,1.81,2.47,3.12,5.29,3.93,8.46,.81,3.17,1.09,6.47,.86,9.93h-32.19c.17,3.97,1.18,6.85,3.02,8.63Zm13.85-23.48c-1.47-1.61-3.7-2.42-6.69-2.42-1.96,0-3.58,.33-4.88,.99-1.29,.66-2.33,1.48-3.11,2.46-.78,.98-1.32,2.01-1.64,3.11-.32,1.09-.5,2.07-.56,2.93h19.94c-.58-3.11-1.6-5.47-3.06-7.08Z"/><path class="b" d="M285.63,50.53c.55,.95,1.25,1.73,2.11,2.33s1.86,1.05,2.98,1.34c1.12,.29,2.29,.43,3.5,.43,.86,0,1.77-.1,2.72-.3,.95-.2,1.81-.52,2.59-.95,.78-.43,1.42-1.01,1.94-1.73,.52-.72,.78-1.62,.78-2.72,0-1.84-1.22-3.22-3.67-4.14-2.45-.92-5.86-1.84-10.23-2.76-1.78-.4-3.53-.88-5.22-1.42-1.7-.55-3.21-1.27-4.53-2.16-1.32-.89-2.39-2.01-3.19-3.37-.81-1.35-1.21-3.01-1.21-4.96,0-2.88,.56-5.24,1.68-7.08,1.12-1.84,2.6-3.29,4.44-4.36,1.84-1.06,3.91-1.81,6.21-2.24,2.3-.43,4.66-.65,7.08-.65s4.76,.23,7.03,.69c2.27,.46,4.3,1.24,6.08,2.33,1.78,1.09,3.26,2.55,4.44,4.36,1.18,1.81,1.88,4.1,2.11,6.86h-11.65c-.17-2.36-1.07-3.96-2.68-4.79-1.61-.83-3.51-1.25-5.7-1.25-.69,0-1.44,.04-2.24,.13s-1.54,.27-2.2,.56c-.66,.29-1.22,.71-1.68,1.25-.46,.55-.69,1.28-.69,2.2,0,1.09,.4,1.99,1.21,2.68,.8,.69,1.86,1.25,3.15,1.68,1.29,.43,2.78,.82,4.45,1.17,1.67,.35,3.37,.72,5.09,1.12,1.78,.4,3.52,.89,5.22,1.47,1.7,.58,3.21,1.34,4.53,2.29,1.32,.95,2.39,2.13,3.19,3.54,.81,1.41,1.21,3.15,1.21,5.22,0,2.93-.59,5.39-1.77,7.38-1.18,1.98-2.72,3.58-4.62,4.79-1.9,1.21-4.07,2.06-6.52,2.55-2.45,.49-4.93,.73-7.47,.73s-5.12-.26-7.59-.78c-2.47-.52-4.68-1.38-6.6-2.59-1.93-1.21-3.51-2.8-4.75-4.79-1.24-1.98-1.91-4.47-2.03-7.47h11.65c0,1.32,.27,2.46,.82,3.41Z"/><path class="b" d="M330.08,50.53c.55,.95,1.25,1.73,2.11,2.33s1.86,1.05,2.98,1.34c1.12,.29,2.29,.43,3.5,.43,.86,0,1.77-.1,2.72-.3,.95-.2,1.81-.52,2.59-.95,.78-.43,1.42-1.01,1.94-1.73,.52-.72,.78-1.62,.78-2.72,0-1.84-1.22-3.22-3.67-4.14-2.45-.92-5.86-1.84-10.23-2.76-1.78-.4-3.53-.88-5.22-1.42-1.7-.55-3.21-1.27-4.53-2.16-1.32-.89-2.39-2.01-3.19-3.37-.81-1.35-1.21-3.01-1.21-4.96,0-2.88,.56-5.24,1.68-7.08,1.12-1.84,2.6-3.29,4.44-4.36,1.84-1.06,3.91-1.81,6.21-2.24,2.3-.43,4.66-.65,7.08-.65s4.76,.23,7.03,.69c2.27,.46,4.3,1.24,6.08,2.33,1.78,1.09,3.26,2.55,4.44,4.36,1.18,1.81,1.88,4.1,2.11,6.86h-11.65c-.17-2.36-1.07-3.96-2.68-4.79-1.61-.83-3.51-1.25-5.7-1.25-.69,0-1.44,.04-2.24,.13s-1.54,.27-2.2,.56c-.66,.29-1.22,.71-1.68,1.25-.46,.55-.69,1.28-.69,2.2,0,1.09,.4,1.99,1.21,2.68,.8,.69,1.86,1.25,3.15,1.68,1.29,.43,2.78,.82,4.45,1.17,1.67,.35,3.37,.72,5.09,1.12,1.78,.4,3.52,.89,5.22,1.47,1.7,.58,3.21,1.34,4.53,2.29,1.32,.95,2.39,2.13,3.19,3.54,.81,1.41,1.21,3.15,1.21,5.22,0,2.93-.59,5.39-1.77,7.38-1.18,1.98-2.72,3.58-4.62,4.79-1.9,1.21-4.07,2.06-6.52,2.55-2.45,.49-4.93,.73-7.47,.73s-5.12-.26-7.59-.78c-2.47-.52-4.68-1.38-6.6-2.59-1.93-1.21-3.51-2.8-4.75-4.79-1.24-1.98-1.91-4.47-2.03-7.47h11.65c0,1.32,.27,2.46,.82,3.41Z"/><path class="b" d="M377.33,50.92c1.84,1.78,4.49,2.68,7.94,2.68,2.47,0,4.6-.62,6.39-1.86,1.78-1.24,2.88-2.55,3.28-3.93h10.79c-1.73,5.35-4.37,9.18-7.94,11.48-3.57,2.3-7.88,3.45-12.95,3.45-3.51,0-6.68-.56-9.49-1.68-2.82-1.12-5.21-2.72-7.16-4.79s-3.47-4.54-4.53-7.42c-1.07-2.88-1.6-6.04-1.6-9.49s.55-6.44,1.64-9.32c1.09-2.88,2.65-5.36,4.66-7.47,2.01-2.1,4.42-3.75,7.21-4.96,2.79-1.21,5.88-1.81,9.28-1.81,3.8,0,7.11,.73,9.92,2.2,2.82,1.47,5.14,3.44,6.95,5.91,1.81,2.47,3.12,5.29,3.93,8.46,.81,3.17,1.09,6.47,.86,9.93h-32.19c.17,3.97,1.18,6.85,3.02,8.63Zm13.85-23.48c-1.47-1.61-3.7-2.42-6.69-2.42-1.96,0-3.58,.33-4.88,.99-1.29,.66-2.33,1.48-3.11,2.46-.78,.98-1.32,2.01-1.64,3.11-.32,1.09-.5,2.07-.56,2.93h19.94c-.58-3.11-1.6-5.47-3.06-7.08Z"/><path class="b" d="M423.51,17v6.21h.26c1.55-2.59,3.57-4.47,6.04-5.65,2.47-1.18,5.01-1.77,7.6-1.77,3.28,0,5.97,.45,8.07,1.34,2.1,.89,3.75,2.13,4.96,3.71,1.21,1.58,2.06,3.51,2.55,5.78,.49,2.27,.73,4.79,.73,7.55v27.45h-12.26v-25.2c0-3.68-.58-6.43-1.73-8.24-1.15-1.81-3.19-2.72-6.13-2.72-3.34,0-5.75,.99-7.25,2.98-1.5,1.98-2.24,5.25-2.24,9.8v23.39h-12.26V17h11.65Z"/><path class="b" d="M503.3,64.9c-.49,2.3-1.54,4.44-3.15,6.43-1.61,1.98-3.94,3.67-6.99,5.05s-7.13,2.07-12.26,2.07c-2.19,0-4.42-.27-6.69-.82-2.27-.55-4.35-1.4-6.21-2.55-1.87-1.15-3.42-2.63-4.66-4.45-1.24-1.81-1.94-3.98-2.11-6.52h12.17c.57,2.3,1.7,3.9,3.37,4.79,1.67,.89,3.6,1.34,5.78,1.34,3.45,0,5.97-1.04,7.55-3.11,1.58-2.07,2.34-4.69,2.29-7.85v-5.87h-.17c-1.32,2.36-3.21,4.1-5.65,5.22-2.45,1.12-5.02,1.68-7.72,1.68-3.34,0-6.21-.59-8.63-1.77-2.42-1.18-4.4-2.79-5.96-4.83-1.55-2.04-2.69-4.43-3.41-7.16-.72-2.73-1.08-5.62-1.08-8.67,0-2.88,.42-5.65,1.25-8.33,.83-2.68,2.06-5.03,3.67-7.08,1.61-2.04,3.61-3.67,6-4.88,2.39-1.21,5.14-1.81,8.24-1.81,2.93,0,5.51,.55,7.72,1.64,2.21,1.09,4.07,2.93,5.57,5.52h.17v-5.96h11.65V58.78c0,1.78-.25,3.83-.73,6.13Zm-16.79-14.85c1.32-.69,2.42-1.61,3.28-2.76,.86-1.15,1.51-2.46,1.94-3.93s.65-3.01,.65-4.62c0-1.84-.17-3.58-.52-5.22-.35-1.64-.92-3.09-1.73-4.36-.81-1.26-1.87-2.27-3.19-3.02-1.32-.75-2.99-1.12-5.01-1.12-1.73,0-3.21,.35-4.45,1.04s-2.27,1.63-3.11,2.81c-.83,1.18-1.44,2.53-1.81,4.06-.38,1.53-.56,3.12-.56,4.79s.16,3.21,.47,4.79c.32,1.58,.86,3.01,1.64,4.27,.78,1.27,1.8,2.3,3.06,3.11,1.26,.81,2.85,1.21,4.75,1.21,1.73,0,3.25-.35,4.57-1.04Z"/><path class="b" d="M525.09,50.92c1.84,1.78,4.49,2.68,7.94,2.68,2.47,0,4.6-.62,6.39-1.86,1.78-1.24,2.88-2.55,3.28-3.93h10.79c-1.73,5.35-4.37,9.18-7.94,11.48-3.57,2.3-7.88,3.45-12.95,3.45-3.51,0-6.68-.56-9.49-1.68-2.82-1.12-5.21-2.72-7.16-4.79-1.96-2.07-3.47-4.54-4.53-7.42-1.07-2.88-1.6-6.04-1.6-9.49s.55-6.44,1.64-9.32c1.09-2.88,2.65-5.36,4.66-7.47,2.01-2.1,4.42-3.75,7.21-4.96,2.79-1.21,5.88-1.81,9.28-1.81,3.8,0,7.11,.73,9.93,2.2,2.82,1.47,5.13,3.44,6.95,5.91,1.81,2.47,3.12,5.29,3.93,8.46,.8,3.17,1.09,6.47,.86,9.93h-32.19c.17,3.97,1.18,6.85,3.02,8.63Zm13.85-23.48c-1.47-1.61-3.7-2.42-6.69-2.42-1.96,0-3.58,.33-4.88,.99-1.29,.66-2.33,1.48-3.11,2.46-.78,.98-1.32,2.01-1.64,3.11-.32,1.09-.5,2.07-.56,2.93h19.94c-.58-3.11-1.6-5.47-3.06-7.08Z"/><path class="b" d="M571.27,17v8.29h.17c.57-1.38,1.35-2.66,2.33-3.84,.98-1.18,2.1-2.19,3.37-3.02,1.26-.83,2.62-1.48,4.06-1.94,1.44-.46,2.93-.69,4.49-.69,.8,0,1.7,.14,2.67,.43v11.39c-.58-.11-1.27-.22-2.07-.3-.81-.09-1.58-.13-2.33-.13-2.24,0-4.14,.38-5.7,1.12-1.55,.75-2.81,1.77-3.75,3.06-.95,1.29-1.63,2.8-2.03,4.53-.4,1.73-.6,3.6-.6,5.61v20.11h-12.26V17h11.65Z"/></g><circle class="b" cx="595.64" cy="53.94" r="8.64"/></svg>