<?xml version="1.0" encoding="utf-8"?>
<!-- Generator: Adobe Illustrator 27.5.0, SVG Export Plug-In . SVG Version: 6.00 Build 0)  -->
<svg version="1.1" id="a" xmlns="http://www.w3.org/2000/svg" xmlns:xlink="http://www.w3.org/1999/xlink" x="0px" y="0px"
	 viewBox="0 0 204.2 31.5" style="enable-background:new 0 0 204.2 31.5;" xml:space="preserve">
<style type="text/css">
	.st0{fill:#111C3C;stroke:#111C3C;stroke-width:0.5;stroke-miterlimit:10;}
</style>
<g>
	<g>
		<path class="st0" d="M0.5,2L0.3,9.1h0.4l0.1-1.3c0.1-1.3,0.3-2.4,0.7-3.2s1-1.3,1.8-1.6s1.9-0.5,3.2-0.5h3.3v24.9
			c0,0.6-0.1,1.2-0.4,1.6c-0.2,0.4-0.6,0.7-1.1,1c-0.6,0.1-1.2,0.2-1.9,0.2H5.9v0.4h11.6v-0.4H17c-0.7,0-1.3-0.1-1.8-0.3
			c-0.5-0.2-0.9-0.5-1.1-1c-0.2-0.4-0.4-1-0.4-1.6V2.5h3.4c1.4,0,2.4,0.2,3.2,0.5c0.8,0.3,1.4,0.9,1.7,1.6c0.4,0.8,0.6,1.8,0.7,3.2
			l0.1,1.3h0.4l-0.2-7C23,2.1,0.5,2.1,0.5,2z M46.2,30c-0.4-0.2-0.8-0.6-0.9-1.1c-0.2-0.5-0.3-1.3-0.3-2.2v-9.9c0-2.8-0.6-4.7-1.7-6
			c-1.2-1.2-2.9-1.9-5.3-1.9c-0.7,0-1.4,0.1-2.2,0.3c-0.8,0.1-1.5,0.5-2.2,1.1s-1.2,1.5-1.6,2.8h-0.1c0-0.5,0-1.1,0-1.6s0-1,0-1.5
			s0-1,0-1.5V0.2h-7.1v0.4H25c0.8,0,1.5,0.1,1.9,0.3c0.5,0.2,0.8,0.6,1,1.1c0.3,0.6,0.4,1.3,0.4,2.2v22.4c0,0.9-0.1,1.7-0.3,2.2
			c-0.2,0.5-0.5,0.9-1,1.1s-1.1,0.3-2,0.3h-0.3v0.4h10.7v-0.4h-0.2c-0.8,0-1.4-0.1-1.9-0.3c-0.5-0.2-0.8-0.6-1-1.1S32,27.6,32,26.6
			V16.4c0-1.1,0.2-2.2,0.5-3.3s0.8-1.9,1.5-2.6s1.7-1,3-1c1.6,0,2.7,0.5,3.3,1.6s1,2.5,1,4.2v15.4h6.9v-0.4H48
			C47.2,30.2,46.6,30.1,46.2,30z M60.3,8.9c-2.8,0-5,0.9-6.5,2.8s-2.3,4.7-2.3,8.5c0,3.5,0.8,6.2,2.5,8.1s4,2.9,7,2.9
			c1.5,0,2.8-0.2,3.8-0.7c1-0.4,1.7-1,2.3-1.6c0.5-0.6,0.8-1.2,0.8-1.7c0-0.3-0.1-0.6-0.2-0.8c-0.2-0.3-0.4-0.4-0.7-0.5
			c-0.2,1.1-0.5,2-1.1,2.7c-0.5,0.7-1.2,1.3-2,1.7c-0.8,0.4-1.7,0.6-2.7,0.6c-1.4,0-2.5-0.4-3.3-1.1c-0.8-0.8-1.4-2-1.8-3.6
			c-0.4-1.7-0.6-3.8-0.6-6.6h13.3v-1c0-3.2-0.7-5.6-2.2-7.2C64.9,9.6,62.9,8.9,60.3,8.9z M55.4,19c0.1-2.3,0.3-4.2,0.7-5.6
			c0.3-1.4,0.9-2.5,1.6-3.1c0.6-0.7,1.5-1,2.6-1c1,0,1.9,0.3,2.5,1s1.1,1.7,1.4,3.1s0.4,3.3,0.4,5.6H55.4z M93.4,20
			c-0.9-0.6-2.1-1.2-3.6-1.9c-1.2-0.5-2.1-1-2.9-1.4s-1.4-0.9-1.7-1.4c-0.4-0.6-0.6-1.3-0.6-2.2s0.2-1.6,0.5-2.1
			c0.3-0.6,0.8-1,1.4-1.3c0.5-0.3,1.3-0.5,2.2-0.5c1.2,0,2,0.4,2.6,1.3c0.6,0.9,0.8,2.3,0.8,4.4c0.9,0,1.6-0.2,2.1-0.7
			c0.5-0.4,0.7-1,0.7-1.7s-0.2-1.3-0.7-1.8c-0.5-0.6-1.2-1-2.1-1.3S90.1,9,88.8,9c-2.3,0-4,0.5-5.3,1.5s-1.9,2.4-1.9,4.2
			c0,1,0.2,1.9,0.6,2.6c0.4,0.7,1,1.4,1.9,2.1c0.9,0.6,2.1,1.3,3.6,1.9c1.3,0.6,2.3,1.1,3.1,1.5c0.7,0.4,1.3,0.9,1.6,1.5
			c0.3,0.5,0.5,1.3,0.5,2.2c0,1.4-0.4,2.5-1.2,3.3c-0.8,0.7-1.9,1.1-3.4,1.1c-1.1,0-1.9-0.3-2.6-0.8c-0.6-0.5-1.1-1.2-1.4-2.2
			s-0.4-2.2-0.4-3.6c-0.3,0-0.7,0.1-1.1,0.2c-0.4,0.2-0.7,0.4-1,0.8s-0.4,1-0.4,1.7c0,0.9,0.3,1.7,0.9,2.3c0.6,0.6,1.4,1.1,2.4,1.4
			s2.2,0.5,3.5,0.5c2.4,0,4.2-0.5,5.6-1.6s2.1-2.6,2.1-4.7c0-1-0.2-1.9-0.5-2.7C94.9,21.4,94.3,20.6,93.4,20z M105.1,4.2h-0.4
			c-0.2,0.9-0.4,1.7-0.8,2.3c-0.3,0.6-0.8,1.1-1.3,1.5c-0.5,0.4-1.1,0.6-1.8,0.8c-0.7,0.3-1.5,0.4-2.4,0.4v0.4h3V25
			c0,2.3,0.5,3.9,1.4,4.8s2.4,1.4,4.4,1.4c0.6,0,1.3-0.1,2-0.2s1.2-0.3,1.6-0.4v-0.4c-0.5,0.2-0.9,0.3-1.3,0.4s-0.8,0.1-1.2,0.1
			c-1,0-1.8-0.3-2.4-1c-0.5-0.7-0.8-1.7-0.8-3.1V9.6h5.6V9.2h-5.6C105.1,9.2,105.1,4.2,105.1,4.2z M123.2,8.9c-3.1,0-5.4,0.9-7,2.7
			s-2.4,4.6-2.4,8.4s0.8,6.6,2.5,8.4c1.6,1.8,3.9,2.8,6.8,2.8c3.1,0,5.4-0.9,7-2.8c1.6-1.8,2.4-4.6,2.4-8.4c0-3.7-0.8-6.5-2.5-8.4
			C128.3,9.8,126.1,8.9,123.2,8.9z M128.1,26.1c-0.4,1.6-0.9,2.7-1.7,3.4c-0.8,0.7-1.8,1.1-3.2,1.1c-1.3,0-2.4-0.4-3.2-1.1
			c-0.8-0.7-1.4-1.9-1.8-3.4c-0.4-1.6-0.5-3.7-0.5-6.2c0-2.6,0.2-4.6,0.5-6.2c0.4-1.6,0.9-2.7,1.7-3.4c0.8-0.7,1.8-1.1,3.2-1.1
			c1.3,0,2.4,0.4,3.2,1.1c0.8,0.7,1.4,1.8,1.7,3.4c0.4,1.6,0.5,3.6,0.5,6.2C128.6,22.5,128.4,24.5,128.1,26.1z M151.8,9.6
			c-0.7-0.5-1.7-0.8-3.1-0.8c-1.3,0-2.3,0.2-3.1,0.7s-1.3,1-1.7,1.7s-0.7,1.3-0.8,2H143v-4h-7.1v0.4h0.1c0.8,0,1.4,0.1,1.9,0.3
			s0.8,0.5,1,1s0.3,1.1,0.3,1.8v14.5c0,0.7-0.1,1.3-0.3,1.8s-0.6,0.8-1,1c-0.5,0.2-1.1,0.3-1.9,0.3h-0.5v0.4h11.3v-0.5h-0.5
			c-0.8,0-1.4-0.1-1.9-0.3c-0.5-0.2-0.8-0.6-1.1-1c-0.2-0.5-0.3-1.1-0.3-1.9v-8.6c0-0.8,0-1.6,0.1-2.5s0.2-1.8,0.4-2.7
			s0.5-1.6,1-2.1c0.5-0.5,1.1-0.8,1.8-0.8s1.3,0.3,1.9,0.9c0.6,0.6,0.8,1.8,0.8,3.4c1.3,0,2.3-0.3,2.9-0.8c0.6-0.5,0.9-1.2,0.9-2
			C152.8,10.9,152.5,10.1,151.8,9.6z M159.8,5.3c0.5,0,0.9-0.2,1.2-0.5s0.5-0.9,0.5-1.7c0-0.9-0.2-1.4-0.5-1.8
			c-0.3-0.3-0.8-0.5-1.2-0.5c-0.5,0-0.9,0.2-1.3,0.5c-0.3,0.3-0.5,0.9-0.5,1.8c0,0.8,0.2,1.4,0.5,1.7C158.9,5.2,159.3,5.3,159.8,5.3
			z M163.3,30c-0.5-0.2-0.8-0.6-1.1-1c-0.2-0.5-0.3-1.1-0.3-1.9V9.2h-7.1v0.4h0.1c0.8,0,1.4,0.1,1.9,0.3s0.8,0.5,1,1
			s0.3,1.1,0.3,1.8v14.5c0,0.7-0.1,1.3-0.3,1.8s-0.6,0.8-1,1c-0.5,0.2-1.1,0.3-1.9,0.3h-0.5v0.4h11.3v-0.5h-0.5
			C164.4,30.2,163.8,30.1,163.3,30z M177.3,8.9c-2.8,0-5,0.9-6.5,2.8s-2.3,4.7-2.3,8.5c0,3.5,0.8,6.2,2.5,8.1s4,2.9,7,2.9
			c1.5,0,2.8-0.2,3.8-0.7c1-0.4,1.7-1,2.3-1.6c0.5-0.6,0.8-1.2,0.8-1.7c0-0.3-0.1-0.6-0.2-0.8c-0.2-0.3-0.4-0.4-0.7-0.5
			c-0.2,1.1-0.5,2-1.1,2.7c-0.5,0.7-1.2,1.3-2,1.7c-0.8,0.4-1.7,0.6-2.7,0.6c-1.4,0-2.5-0.4-3.3-1.1c-0.8-0.8-1.4-2-1.8-3.6
			c-0.4-1.7-0.6-3.8-0.6-6.6h13.3v-1c0-3.2-0.7-5.6-2.2-7.2C181.9,9.6,179.8,8.9,177.3,8.9z M172.3,19c0.1-2.3,0.3-4.2,0.7-5.6
			c0.3-1.4,0.9-2.5,1.6-3.1c0.7-0.7,1.6-1,2.7-1c1,0,1.9,0.3,2.5,1s1.1,1.7,1.4,3.1c0.3,1.4,0.4,3.3,0.4,5.6H172.3z M203.3,22.1
			c-0.4-0.8-1-1.5-1.9-2.1s-2.1-1.2-3.6-1.9c-1.2-0.5-2.1-1-2.9-1.4c-0.8-0.4-1.4-0.9-1.7-1.4c-0.4-0.6-0.6-1.3-0.6-2.2
			s0.2-1.6,0.5-2.1c0.3-0.6,0.8-1,1.4-1.3c0.6-0.3,1.3-0.4,2.3-0.4c1.2,0,2,0.4,2.6,1.3c0.6,0.9,0.8,2.3,0.8,4.4
			c0.9,0,1.6-0.2,2.1-0.7c0.5-0.4,0.7-1,0.7-1.7s-0.2-1.3-0.7-1.8c-0.5-0.6-1.2-1-2.1-1.3c-0.9-0.3-2-0.5-3.3-0.5
			c-2.3,0-4,0.5-5.3,1.5s-1.9,2.4-1.9,4.2c0,1,0.2,1.9,0.6,2.6c0.4,0.7,1,1.4,1.9,2.1c0.9,0.6,2.1,1.3,3.6,1.9
			c1.3,0.6,2.3,1.1,3.1,1.5c0.7,0.4,1.3,0.9,1.6,1.5c0.3,0.5,0.5,1.3,0.5,2.2c0,1.4-0.4,2.5-1.2,3.3c-0.8,0.7-1.9,1.1-3.4,1.1
			c-1.1,0-1.9-0.3-2.6-0.8c-0.6-0.5-1.1-1.2-1.4-2.2c-0.3-1-0.4-2.2-0.4-3.6c-0.3,0-0.7,0.1-1.1,0.2c-0.4,0.2-0.7,0.4-1,0.8
			s-0.4,1-0.4,1.7c0,0.9,0.3,1.7,0.9,2.3c0.6,0.6,1.4,1.1,2.4,1.4s2.2,0.5,3.5,0.5c2.4,0,4.2-0.5,5.6-1.6c1.4-1.1,2.1-2.6,2.1-4.7
			C203.8,23.8,203.6,22.9,203.3,22.1z"/>
	</g>
</g>
</svg>
