<?xml version="1.0" encoding="utf-8"?>
<!-- Generator: Adobe Illustrator 27.5.0, SVG Export Plug-In . SVG Version: 6.00 Build 0)  -->
<svg version="1.1" id="a" xmlns="http://www.w3.org/2000/svg" xmlns:xlink="http://www.w3.org/1999/xlink" x="0px" y="0px"
	 viewBox="0 0 133.2 31.3" style="enable-background:new 0 0 133.2 31.3;" xml:space="preserve">
<style type="text/css">
	.st0{fill:#111C3C;}
	.st1{fill:none;stroke:#111C3C;stroke-width:0.5;stroke-miterlimit:10;}
</style>
<g>
	<g>
		<path class="st0" d="M13.9,8.8c-1.8,0-3.2,0.5-4.2,1.5c-1,1-1.7,2.5-2.1,4.5H7.5c0.1-1.4,0.1-2.8,0.1-4.1c0-1.3,0-2.3,0-3V0.2H0.4
			v0.4h0.1C1.4,0.7,2,0.8,2.5,1c0.5,0.2,0.8,0.5,1,1C3.7,2.4,3.8,3,3.8,3.8v23.4c0,0.7-0.1,1.3-0.3,1.8c-0.2,0.5-0.6,0.8-1,1
			c-0.5,0.2-1.1,0.3-1.9,0.3H0.2v0.4h7.3V25h0.1c0.4,2.1,1.1,3.6,2.1,4.6c1,1,2.4,1.5,4.1,1.5c1.8,0,3.2-0.4,4.4-1.3
			c1.2-0.8,2.1-2.1,2.7-3.8c0.6-1.7,0.9-3.7,0.9-6.1c0-3.7-0.7-6.4-2-8.3C18.5,9.8,16.5,8.8,13.9,8.8z M17.5,26
			c-0.3,1.6-0.8,2.7-1.5,3.4c-0.7,0.7-1.6,1.1-2.8,1.1c-1.9,0-3.3-0.9-4.2-2.6c-0.9-1.7-1.4-4.4-1.4-8c0-3.5,0.4-6.1,1.3-7.9
			c0.9-1.8,2.3-2.6,4.2-2.6c1.2,0,2.1,0.3,2.8,1c0.7,0.7,1.2,1.8,1.6,3.3c0.3,1.5,0.5,3.6,0.5,6.1C18,22.4,17.8,24.5,17.5,26z
			 M35.1,8.8c-2.8,0-5,0.9-6.5,2.8c-1.5,1.9-2.3,4.7-2.3,8.5c0,3.5,0.8,6.2,2.5,8.1c1.7,1.9,4,2.9,7,2.9c1.5,0,2.8-0.2,3.8-0.7
			c1-0.4,1.7-1,2.3-1.6c0.5-0.6,0.8-1.2,0.8-1.7c0-0.3-0.1-0.6-0.2-0.8c-0.2-0.3-0.4-0.4-0.7-0.5c-0.2,1.1-0.5,2-1.1,2.7
			c-0.5,0.7-1.2,1.3-2,1.7c-0.8,0.4-1.7,0.6-2.7,0.6c-1.4,0-2.5-0.4-3.3-1.1c-0.8-0.8-1.4-2-1.8-3.6c-0.4-1.7-0.6-3.8-0.6-6.6h13.3
			v-1c0-3.2-0.7-5.6-2.2-7.2C39.7,9.6,37.7,8.8,35.1,8.8z M30.1,19c0.1-2.3,0.3-4.2,0.7-5.6c0.3-1.4,0.9-2.5,1.6-3.1
			c0.7-0.7,1.6-1,2.7-1c1,0,1.9,0.3,2.5,1c0.6,0.7,1.1,1.7,1.4,3.1c0.3,1.4,0.4,3.3,0.4,5.6H30.1z M67.6,30
			c-0.4-0.2-0.8-0.6-0.9-1.1c-0.2-0.5-0.3-1.3-0.3-2.2v-9.9c0-2.8-0.6-4.7-1.7-6c-1.2-1.2-2.9-1.9-5.3-1.9c-0.7,0-1.4,0.1-2.2,0.3
			c-0.8,0.2-1.5,0.6-2.2,1.1c-0.7,0.6-1.2,1.5-1.6,2.8h-0.1c0-0.5,0-1.1,0-1.6c0-0.5,0-1,0-1.5s0-1,0-1.5V0.2h-7.1v0.4h0.2
			c0.8,0,1.5,0.1,1.9,0.3c0.5,0.2,0.8,0.6,1,1.1c0.2,0.5,0.3,1.2,0.3,2.1v22.4c0,0.9-0.1,1.7-0.3,2.2c-0.2,0.5-0.5,0.9-1,1.1
			c-0.5,0.2-1.1,0.3-2,0.3h-0.3v0.4h10.7v-0.4h-0.2c-0.8,0-1.4-0.1-1.9-0.3c-0.5-0.2-0.8-0.6-1-1.1c-0.2-0.5-0.3-1.3-0.3-2.2V16.3
			c0-1.1,0.2-2.2,0.5-3.3c0.3-1.1,0.8-1.9,1.5-2.6c0.7-0.7,1.7-1,3-1c1.6,0,2.7,0.5,3.3,1.6c0.6,1.1,1,2.5,1,4.2v15.4h6.9v-0.4h-0.2
			C68.6,30.3,68,30.2,67.6,30z M77.1,5.4c0.5,0,0.9-0.2,1.2-0.5c0.3-0.3,0.5-0.9,0.5-1.7c0-0.9-0.2-1.4-0.5-1.8
			c-0.3-0.3-0.8-0.5-1.2-0.5c-0.5,0-0.9,0.2-1.3,0.5c-0.3,0.3-0.5,0.9-0.5,1.8c0,0.8,0.2,1.4,0.5,1.7C76.2,5.2,76.6,5.4,77.1,5.4z
			 M80.5,30c-0.5-0.2-0.8-0.6-1.1-1c-0.2-0.5-0.3-1.1-0.3-1.9V9.2H72v0.4h0.1c0.8,0,1.4,0.1,1.9,0.3c0.5,0.2,0.8,0.5,1,1
			c0.2,0.5,0.3,1.1,0.3,1.8v14.5c0,0.7-0.1,1.3-0.3,1.8c-0.2,0.5-0.6,0.8-1,1c-0.5,0.2-1.1,0.3-1.9,0.3h-0.5v0.4h11.3v-0.4h-0.5
			C81.7,30.3,81,30.2,80.5,30z M106.1,30c-0.4-0.2-0.8-0.6-0.9-1.1c-0.2-0.5-0.3-1.3-0.3-2.2v-9.9c0-2.8-0.6-4.7-1.7-6
			c-1.2-1.2-2.9-1.9-5.3-1.9c-0.7,0-1.4,0.1-2.2,0.3c-0.8,0.2-1.5,0.6-2.2,1.1c-0.7,0.6-1.2,1.5-1.6,2.8h-0.1V9.2h-7.1v0.4H85
			c0.8,0,1.5,0.1,1.9,0.3c0.5,0.2,0.8,0.6,1,1.1c0.2,0.5,0.3,1.2,0.3,2.1v13.4c0,0.9-0.1,1.7-0.3,2.2c-0.2,0.5-0.5,0.9-1,1.1
			c-0.5,0.2-1.1,0.3-2,0.3h-0.3v0.4h10.7v-0.4h-0.2c-0.8,0-1.4-0.1-1.9-0.3c-0.5-0.2-0.8-0.6-1-1.1c-0.2-0.5-0.3-1.3-0.3-2.2V16.3
			c0-1.1,0.2-2.2,0.5-3.3c0.3-1.1,0.8-1.9,1.5-2.6c0.7-0.7,1.7-1,3-1c1.6,0,2.7,0.5,3.3,1.6c0.6,1.1,1,2.5,1,4.2v15.4h6.9v-0.4h-0.2
			C107.1,30.3,106.5,30.2,106.1,30z M132.7,30.3c-0.8,0-1.4-0.1-1.9-0.3c-0.5-0.2-0.8-0.5-1.1-1c-0.2-0.5-0.3-1-0.3-1.8v-27h-7.1
			v0.4h0.1c0.8,0,1.4,0.1,1.9,0.3c0.5,0.2,0.8,0.5,1,1c0.2,0.5,0.3,1.1,0.3,1.8v3.8c0,0.5,0,1.1,0,1.8c0,0.8,0,1.6,0,2.5
			c0,0.9,0,1.9,0.1,2.8h-0.1c-0.3-2-1-3.5-2.1-4.5c-1-1-2.4-1.5-4.2-1.5c-1.7,0-3.2,0.4-4.4,1.2c-1.2,0.8-2.1,2.1-2.7,3.7
			s-0.9,3.7-0.9,6.1c0,2.4,0.3,4.5,0.9,6.1c0.6,1.7,1.5,2.9,2.7,3.8c1.2,0.8,2.7,1.3,4.4,1.3c1.7,0,3.1-0.5,4.1-1.5
			c1-1,1.7-2.5,2.1-4.6h0.1v5.6h7.3v-0.4H132.7z M124.3,27.9c-0.9,1.7-2.3,2.6-4.2,2.6c-1.1,0-2.1-0.4-2.8-1.1
			c-0.7-0.7-1.2-1.8-1.6-3.4c-0.3-1.6-0.5-3.6-0.5-6.1c0-2.5,0.2-4.5,0.5-6.1c0.3-1.5,0.8-2.7,1.6-3.3c0.7-0.7,1.7-1,2.8-1
			c1.3,0,2.4,0.4,3.2,1.2c0.8,0.8,1.4,2,1.8,3.5c0.4,1.5,0.6,3.5,0.6,5.8C125.6,23.5,125.2,26.2,124.3,27.9z"/>
	</g>
	<g>
		<path class="st1" d="M13.9,8.8c-1.8,0-3.2,0.5-4.2,1.5c-1,1-1.7,2.5-2.1,4.5H7.5c0.1-1.4,0.1-2.8,0.1-4.1c0-1.3,0-2.3,0-3V0.2H0.4
			v0.4h0.1C1.4,0.7,2,0.8,2.5,1c0.5,0.2,0.8,0.5,1,1C3.7,2.4,3.8,3,3.8,3.8v23.4c0,0.7-0.1,1.3-0.3,1.8c-0.2,0.5-0.6,0.8-1,1
			c-0.5,0.2-1.1,0.3-1.9,0.3H0.2v0.4h7.3V25h0.1c0.4,2.1,1.1,3.6,2.1,4.6c1,1,2.4,1.5,4.1,1.5c1.8,0,3.2-0.4,4.4-1.3
			c1.2-0.8,2.1-2.1,2.7-3.8c0.6-1.7,0.9-3.7,0.9-6.1c0-3.7-0.7-6.4-2-8.3C18.5,9.8,16.5,8.8,13.9,8.8z M17.5,26
			c-0.3,1.6-0.8,2.7-1.5,3.4c-0.7,0.7-1.6,1.1-2.8,1.1c-1.9,0-3.3-0.9-4.2-2.6c-0.9-1.7-1.4-4.4-1.4-8c0-3.5,0.4-6.1,1.3-7.9
			c0.9-1.8,2.3-2.6,4.2-2.6c1.2,0,2.1,0.3,2.8,1c0.7,0.7,1.2,1.8,1.6,3.3c0.3,1.5,0.5,3.6,0.5,6.1C18,22.4,17.8,24.5,17.5,26z
			 M35.1,8.8c-2.8,0-5,0.9-6.5,2.8c-1.5,1.9-2.3,4.7-2.3,8.5c0,3.5,0.8,6.2,2.5,8.1c1.7,1.9,4,2.9,7,2.9c1.5,0,2.8-0.2,3.8-0.7
			c1-0.4,1.7-1,2.3-1.6c0.5-0.6,0.8-1.2,0.8-1.7c0-0.3-0.1-0.6-0.2-0.8c-0.2-0.3-0.4-0.4-0.7-0.5c-0.2,1.1-0.5,2-1.1,2.7
			c-0.5,0.7-1.2,1.3-2,1.7c-0.8,0.4-1.7,0.6-2.7,0.6c-1.4,0-2.5-0.4-3.3-1.1c-0.8-0.8-1.4-2-1.8-3.6c-0.4-1.7-0.6-3.8-0.6-6.6h13.3
			v-1c0-3.2-0.7-5.6-2.2-7.2C39.7,9.6,37.7,8.8,35.1,8.8z M30.1,19c0.1-2.3,0.3-4.2,0.7-5.6c0.3-1.4,0.9-2.5,1.6-3.1
			c0.7-0.7,1.6-1,2.7-1c1,0,1.9,0.3,2.5,1c0.6,0.7,1.1,1.7,1.4,3.1c0.3,1.4,0.4,3.3,0.4,5.6H30.1z M67.6,30
			c-0.4-0.2-0.8-0.6-0.9-1.1c-0.2-0.5-0.3-1.3-0.3-2.2v-9.9c0-2.8-0.6-4.7-1.7-6c-1.2-1.2-2.9-1.9-5.3-1.9c-0.7,0-1.4,0.1-2.2,0.3
			c-0.8,0.2-1.5,0.6-2.2,1.1c-0.7,0.6-1.2,1.5-1.6,2.8h-0.1c0-0.5,0-1.1,0-1.6c0-0.5,0-1,0-1.5s0-1,0-1.5V0.2h-7.1v0.4h0.2
			c0.8,0,1.5,0.1,1.9,0.3c0.5,0.2,0.8,0.6,1,1.1c0.2,0.5,0.3,1.2,0.3,2.1v22.4c0,0.9-0.1,1.7-0.3,2.2c-0.2,0.5-0.5,0.9-1,1.1
			c-0.5,0.2-1.1,0.3-2,0.3h-0.3v0.4h10.7v-0.4h-0.2c-0.8,0-1.4-0.1-1.9-0.3c-0.5-0.2-0.8-0.6-1-1.1c-0.2-0.5-0.3-1.3-0.3-2.2V16.3
			c0-1.1,0.2-2.2,0.5-3.3c0.3-1.1,0.8-1.9,1.5-2.6c0.7-0.7,1.7-1,3-1c1.6,0,2.7,0.5,3.3,1.6c0.6,1.1,1,2.5,1,4.2v15.4h6.9v-0.4h-0.2
			C68.6,30.3,68,30.2,67.6,30z M77.1,5.4c0.5,0,0.9-0.2,1.2-0.5c0.3-0.3,0.5-0.9,0.5-1.7c0-0.9-0.2-1.4-0.5-1.8
			c-0.3-0.3-0.8-0.5-1.2-0.5c-0.5,0-0.9,0.2-1.3,0.5c-0.3,0.3-0.5,0.9-0.5,1.8c0,0.8,0.2,1.4,0.5,1.7C76.2,5.2,76.6,5.4,77.1,5.4z
			 M80.5,30c-0.5-0.2-0.8-0.6-1.1-1c-0.2-0.5-0.3-1.1-0.3-1.9V9.2H72v0.4h0.1c0.8,0,1.4,0.1,1.9,0.3c0.5,0.2,0.8,0.5,1,1
			c0.2,0.5,0.3,1.1,0.3,1.8v14.5c0,0.7-0.1,1.3-0.3,1.8c-0.2,0.5-0.6,0.8-1,1c-0.5,0.2-1.1,0.3-1.9,0.3h-0.5v0.4h11.3v-0.4h-0.5
			C81.7,30.3,81,30.2,80.5,30z M106.1,30c-0.4-0.2-0.8-0.6-0.9-1.1c-0.2-0.5-0.3-1.3-0.3-2.2v-9.9c0-2.8-0.6-4.7-1.7-6
			c-1.2-1.2-2.9-1.9-5.3-1.9c-0.7,0-1.4,0.1-2.2,0.3c-0.8,0.2-1.5,0.6-2.2,1.1c-0.7,0.6-1.2,1.5-1.6,2.8h-0.1V9.2h-7.1v0.4H85
			c0.8,0,1.5,0.1,1.9,0.3c0.5,0.2,0.8,0.6,1,1.1c0.2,0.5,0.3,1.2,0.3,2.1v13.4c0,0.9-0.1,1.7-0.3,2.2c-0.2,0.5-0.5,0.9-1,1.1
			c-0.5,0.2-1.1,0.3-2,0.3h-0.3v0.4h10.7v-0.4h-0.2c-0.8,0-1.4-0.1-1.9-0.3c-0.5-0.2-0.8-0.6-1-1.1c-0.2-0.5-0.3-1.3-0.3-2.2V16.3
			c0-1.1,0.2-2.2,0.5-3.3c0.3-1.1,0.8-1.9,1.5-2.6c0.7-0.7,1.7-1,3-1c1.6,0,2.7,0.5,3.3,1.6c0.6,1.1,1,2.5,1,4.2v15.4h6.9v-0.4h-0.2
			C107.1,30.3,106.5,30.2,106.1,30z M132.7,30.3c-0.8,0-1.4-0.1-1.9-0.3c-0.5-0.2-0.8-0.5-1.1-1c-0.2-0.5-0.3-1-0.3-1.8v-27h-7.1
			v0.4h0.1c0.8,0,1.4,0.1,1.9,0.3c0.5,0.2,0.8,0.5,1,1c0.2,0.5,0.3,1.1,0.3,1.8v3.8c0,0.5,0,1.1,0,1.8c0,0.8,0,1.6,0,2.5
			c0,0.9,0,1.9,0.1,2.8h-0.1c-0.3-2-1-3.5-2.1-4.5c-1-1-2.4-1.5-4.2-1.5c-1.7,0-3.2,0.4-4.4,1.2c-1.2,0.8-2.1,2.1-2.7,3.7
			s-0.9,3.7-0.9,6.1c0,2.4,0.3,4.5,0.9,6.1c0.6,1.7,1.5,2.9,2.7,3.8c1.2,0.8,2.7,1.3,4.4,1.3c1.7,0,3.1-0.5,4.1-1.5
			c1-1,1.7-2.5,2.1-4.6h0.1v5.6h7.3v-0.4H132.7z M124.3,27.9c-0.9,1.7-2.3,2.6-4.2,2.6c-1.1,0-2.1-0.4-2.8-1.1
			c-0.7-0.7-1.2-1.8-1.6-3.4c-0.3-1.6-0.5-3.6-0.5-6.1c0-2.5,0.2-4.5,0.5-6.1c0.3-1.5,0.8-2.7,1.6-3.3c0.7-0.7,1.7-1,2.8-1
			c1.3,0,2.4,0.4,3.2,1.2c0.8,0.8,1.4,2,1.8,3.5c0.4,1.5,0.6,3.5,0.6,5.8C125.6,23.5,125.2,26.2,124.3,27.9z"/>
	</g>
</g>
</svg>
