<?xml version="1.0" encoding="utf-8"?>
<!-- Generator: Adobe Illustrator 27.5.0, SVG Export Plug-In . SVG Version: 6.00 Build 0)  -->
<svg version="1.1" id="a" xmlns="http://www.w3.org/2000/svg" xmlns:xlink="http://www.w3.org/1999/xlink" x="0px" y="0px"
	 viewBox="0 0 209 31.3" style="enable-background:new 0 0 209 31.3;" xml:space="preserve">
<style type="text/css">
	.st0{fill:#111C3C;}
	.st1{fill:none;stroke:#111C3C;stroke-width:0.5;stroke-miterlimit:10;}
</style>
<g>
	<g>
		<path class="st0" d="M7,4.3H6.6C6.4,5.2,6.2,6,5.9,6.6C5.5,7.3,5.1,7.8,4.6,8.1C4.1,8.5,3.4,8.8,2.7,9C2,9.1,1.2,9.2,0.2,9.2v0.4
			h3v15.3c0,2.3,0.5,3.9,1.4,4.8c0.9,0.9,2.4,1.4,4.4,1.4c0.6,0,1.3-0.1,2-0.2c0.7-0.1,1.2-0.3,1.6-0.4v-0.4
			c-0.5,0.2-0.9,0.3-1.3,0.4c-0.4,0.1-0.8,0.1-1.2,0.1c-1,0-1.8-0.3-2.4-1C7.3,28.8,7,27.8,7,26.4V9.6h5.6V9.2H7V4.3z M35.8,30
			c-0.4-0.2-0.8-0.6-0.9-1.1c-0.2-0.5-0.3-1.3-0.3-2.2v-9.9c0-2.8-0.6-4.7-1.7-6c-1.2-1.2-2.9-1.9-5.3-1.9c-0.7,0-1.4,0.1-2.2,0.3
			c-0.8,0.2-1.5,0.6-2.2,1.1c-0.7,0.6-1.2,1.5-1.6,2.8h-0.1c0-0.5,0-1.1,0-1.6c0-0.5,0-1,0-1.5s0-1,0-1.5V0.2h-7.1v0.4h0.2
			c0.8,0,1.5,0.1,1.9,0.3c0.5,0.2,0.8,0.6,1,1.1c0.2,0.5,0.3,1.2,0.3,2.1v22.4c0,0.9-0.1,1.7-0.3,2.2c-0.2,0.5-0.5,0.9-1,1.1
			c-0.5,0.2-1.1,0.3-2,0.3h-0.3v0.4H25v-0.4h-0.2c-0.8,0-1.4-0.1-1.9-0.3c-0.5-0.2-0.8-0.6-1-1.1c-0.2-0.5-0.3-1.3-0.3-2.2V16.3
			c0-1.1,0.2-2.2,0.5-3.3c0.3-1.1,0.8-1.9,1.5-2.6c0.7-0.7,1.7-1,3-1c1.6,0,2.7,0.5,3.3,1.6c0.6,1.1,1,2.5,1,4.2v15.4h6.9v-0.4h-0.2
			C36.8,30.3,36.2,30.2,35.8,30z M49.9,8.8c-2.8,0-5,0.9-6.5,2.8c-1.5,1.9-2.3,4.7-2.3,8.5c0,3.5,0.8,6.2,2.5,8.1
			c1.7,1.9,4,2.9,7,2.9c1.5,0,2.8-0.2,3.8-0.7c1-0.4,1.7-1,2.3-1.6c0.5-0.6,0.8-1.2,0.8-1.7c0-0.3-0.1-0.6-0.2-0.8
			c-0.2-0.3-0.4-0.4-0.7-0.5c-0.2,1.1-0.5,2-1.1,2.7c-0.5,0.7-1.2,1.3-2,1.7c-0.8,0.4-1.7,0.6-2.7,0.6c-1.4,0-2.5-0.4-3.3-1.1
			c-0.8-0.8-1.4-2-1.8-3.6c-0.4-1.7-0.6-3.8-0.6-6.6h13.3v-1c0-3.2-0.7-5.6-2.2-7.2C54.5,9.6,52.5,8.8,49.9,8.8z M44.9,19
			c0.1-2.3,0.3-4.2,0.7-5.6c0.3-1.4,0.9-2.4,1.6-3.1c0.7-0.7,1.6-1,2.7-1c1,0,1.9,0.3,2.5,1c0.6,0.7,1.1,1.7,1.4,3.1
			c0.3,1.4,0.4,3.3,0.4,5.6H44.9z M83,20c-0.9-0.6-2.1-1.2-3.6-1.9c-1.2-0.5-2.1-1-2.9-1.4c-0.8-0.4-1.4-0.9-1.7-1.4
			c-0.4-0.6-0.6-1.3-0.6-2.2c0-0.9,0.2-1.6,0.5-2.1c0.3-0.6,0.8-1,1.4-1.3c0.6-0.3,1.3-0.4,2.3-0.4c1.2,0,2,0.4,2.6,1.3
			c0.6,0.9,0.8,2.3,0.8,4.4c0.9,0,1.6-0.2,2.1-0.7c0.5-0.4,0.7-1,0.7-1.7c0-0.7-0.2-1.3-0.7-1.8c-0.5-0.6-1.2-1-2.1-1.3
			c-0.9-0.3-2-0.5-3.3-0.5c-2.3,0-4,0.5-5.3,1.5c-1.3,1-1.9,2.4-1.9,4.2c0,1,0.2,1.9,0.6,2.6c0.4,0.7,1,1.4,1.9,2.1
			c0.9,0.6,2.1,1.3,3.6,1.9c1.3,0.6,2.3,1.1,3.1,1.5c0.7,0.4,1.3,0.9,1.6,1.5c0.3,0.5,0.5,1.3,0.5,2.2c0,1.4-0.4,2.5-1.2,3.3
			c-0.8,0.7-1.9,1.1-3.4,1.1c-1.1,0-1.9-0.3-2.6-0.8c-0.6-0.5-1.1-1.2-1.4-2.2c-0.3-1-0.4-2.2-0.4-3.6c-0.3,0-0.7,0.1-1.1,0.2
			c-0.4,0.2-0.7,0.4-1,0.8c-0.3,0.4-0.4,1-0.4,1.7c0,0.9,0.3,1.7,0.9,2.3c0.6,0.6,1.4,1.1,2.4,1.4c1,0.3,2.2,0.5,3.5,0.5
			c2.4,0,4.2-0.5,5.6-1.6c1.4-1.1,2.1-2.6,2.1-4.7c0-1-0.2-1.9-0.5-2.7C84.5,21.3,83.9,20.6,83,20z M94.7,4.3h-0.4
			c-0.2,0.9-0.4,1.7-0.8,2.3c-0.3,0.6-0.8,1.1-1.3,1.5c-0.5,0.4-1.1,0.6-1.8,0.8c-0.7,0.2-1.5,0.3-2.5,0.3v0.4h3v15.3
			c0,2.3,0.5,3.9,1.4,4.8c0.9,0.9,2.4,1.4,4.4,1.4c0.6,0,1.3-0.1,2-0.2c0.7-0.1,1.2-0.3,1.6-0.4v-0.4c-0.5,0.2-0.9,0.3-1.3,0.4
			c-0.4,0.1-0.8,0.1-1.2,0.1c-1,0-1.8-0.3-2.4-1c-0.5-0.7-0.8-1.7-0.8-3.1V9.6h5.6V9.2h-5.6V4.3z M112.8,8.8c-3.1,0-5.4,0.9-7,2.7
			c-1.6,1.8-2.4,4.6-2.4,8.4c0,3.8,0.8,6.6,2.5,8.4c1.6,1.8,3.9,2.8,6.8,2.8c3.1,0,5.4-0.9,7-2.8c1.6-1.8,2.4-4.6,2.4-8.4
			c0-3.7-0.8-6.5-2.5-8.4C117.9,9.7,115.7,8.8,112.8,8.8z M117.6,26.2c-0.4,1.6-0.9,2.7-1.7,3.4c-0.8,0.7-1.8,1.1-3.2,1.1
			c-1.3,0-2.4-0.4-3.2-1.1c-0.8-0.7-1.4-1.9-1.8-3.4c-0.4-1.6-0.5-3.7-0.5-6.2c0-2.6,0.2-4.6,0.5-6.2c0.4-1.6,0.9-2.7,1.7-3.4
			c0.8-0.7,1.8-1.1,3.2-1.1c1.3,0,2.4,0.4,3.2,1.1c0.8,0.7,1.4,1.8,1.7,3.4c0.4,1.6,0.5,3.6,0.5,6.2C118.2,22.5,118,24.6,117.6,26.2
			z M141.4,9.6c-0.7-0.5-1.7-0.8-3.1-0.8c-1.3,0-2.3,0.2-3.1,0.7c-0.8,0.5-1.3,1-1.7,1.7c-0.4,0.7-0.7,1.3-0.8,2h-0.1v-4h-7.1v0.4
			h0.1c0.8,0,1.4,0.1,1.9,0.3c0.5,0.2,0.8,0.5,1,1c0.2,0.5,0.3,1.1,0.3,1.8v14.5c0,0.7-0.1,1.3-0.3,1.8c-0.2,0.5-0.6,0.8-1,1
			c-0.5,0.2-1.1,0.3-1.9,0.3h-0.5v0.4h11.3v-0.4H136c-0.8,0-1.4-0.1-1.9-0.3c-0.5-0.2-0.8-0.6-1.1-1c-0.2-0.5-0.3-1.1-0.3-1.9v-8.6
			c0-0.8,0-1.6,0.1-2.5c0.1-0.9,0.2-1.8,0.4-2.7c0.2-0.9,0.5-1.6,1-2.1c0.5-0.5,1.1-0.8,1.8-0.8c0.7,0,1.3,0.3,1.9,0.9
			c0.6,0.6,0.8,1.8,0.8,3.4c1.3,0,2.3-0.3,2.9-0.8c0.6-0.5,0.9-1.2,0.9-2C142.4,10.9,142.1,10.1,141.4,9.6z M149.4,5.4
			c0.5,0,0.9-0.2,1.2-0.5c0.3-0.3,0.5-0.9,0.5-1.7c0-0.9-0.2-1.4-0.5-1.8c-0.3-0.3-0.8-0.5-1.2-0.5c-0.5,0-0.9,0.2-1.3,0.5
			c-0.3,0.3-0.5,0.9-0.5,1.8c0,0.8,0.2,1.4,0.5,1.7C148.5,5.2,148.9,5.4,149.4,5.4z M152.9,30c-0.5-0.2-0.8-0.6-1.1-1
			c-0.2-0.5-0.3-1.1-0.3-1.9V9.2h-7.1v0.4h0.1c0.8,0,1.4,0.1,1.9,0.3c0.5,0.2,0.8,0.5,1,1c0.2,0.5,0.3,1.1,0.3,1.8v14.5
			c0,0.7-0.1,1.3-0.3,1.8c-0.2,0.5-0.6,0.8-1,1c-0.5,0.2-1.1,0.3-1.9,0.3h-0.5v0.4h11.3v-0.4h-0.5C154,30.3,153.4,30.2,152.9,30z
			 M166.8,8.8c-2.8,0-5,0.9-6.5,2.8c-1.5,1.9-2.3,4.7-2.3,8.5c0,3.5,0.8,6.2,2.5,8.1c1.7,1.9,4,2.9,7,2.9c1.5,0,2.8-0.2,3.8-0.7
			c1-0.4,1.7-1,2.3-1.6c0.5-0.6,0.8-1.2,0.8-1.7c0-0.3-0.1-0.6-0.2-0.8c-0.2-0.3-0.4-0.4-0.7-0.5c-0.2,1.1-0.5,2-1.1,2.7
			c-0.5,0.7-1.2,1.3-2,1.7c-0.8,0.4-1.7,0.6-2.7,0.6c-1.4,0-2.5-0.4-3.3-1.1c-0.8-0.8-1.4-2-1.8-3.6c-0.4-1.7-0.6-3.8-0.6-6.6h13.3
			v-1c0-3.2-0.7-5.6-2.2-7.2C171.4,9.6,169.4,8.8,166.8,8.8z M161.9,19c0.1-2.3,0.3-4.2,0.7-5.6c0.3-1.4,0.9-2.4,1.6-3.1
			c0.7-0.7,1.6-1,2.7-1c1,0,1.9,0.3,2.5,1c0.6,0.7,1.1,1.7,1.4,3.1c0.3,1.4,0.4,3.3,0.4,5.6H161.9z M198.7,30
			c-0.5-0.2-0.8-0.5-1.1-1c-0.2-0.5-0.3-1-0.3-1.8v-27h-7.1v0.4h0.1c0.8,0,1.4,0.1,1.9,0.3c0.5,0.2,0.8,0.5,1,1
			c0.2,0.5,0.3,1.1,0.3,1.8v3.8c0,0.5,0,1.1,0,1.8c0,0.8,0,1.6,0,2.5c0,0.9,0,1.9,0.1,2.8h-0.1c-0.3-2-1-3.5-2.1-4.5
			c-1-1-2.4-1.5-4.2-1.5c-1.7,0-3.2,0.4-4.4,1.2c-1.2,0.8-2.1,2.1-2.7,3.7c-0.6,1.6-0.9,3.7-0.9,6.1c0,2.4,0.3,4.5,0.9,6.1
			c0.6,1.7,1.5,2.9,2.7,3.8c1.2,0.8,2.7,1.3,4.4,1.3c1.7,0,3.1-0.5,4.1-1.5c1-1,1.7-2.5,2.1-4.6h0.1v5.6h7.3v-0.4h-0.3
			C199.8,30.3,199.2,30.2,198.7,30z M192.2,27.9c-0.9,1.7-2.3,2.6-4.2,2.6c-1.1,0-2.1-0.4-2.8-1.1c-0.7-0.7-1.2-1.8-1.6-3.4
			c-0.3-1.6-0.5-3.6-0.5-6.1c0-2.5,0.2-4.5,0.5-6.1c0.3-1.5,0.8-2.7,1.6-3.3c0.7-0.7,1.7-1,2.8-1c1.3,0,2.4,0.4,3.2,1.2
			c0.8,0.8,1.4,2,1.8,3.5c0.4,1.5,0.6,3.5,0.6,5.8C193.6,23.5,193.1,26.2,192.2,27.9z M208.2,26.2c-0.4-0.5-0.9-0.7-1.6-0.7
			s-1.3,0.2-1.6,0.7c-0.4,0.5-0.5,1.1-0.5,2c0,0.9,0.2,1.6,0.5,2s0.9,0.7,1.6,0.7s1.3-0.2,1.6-0.7c0.4-0.5,0.5-1.1,0.5-2
			C208.8,27.3,208.6,26.7,208.2,26.2z"/>
	</g>
	<g>
		<path class="st1" d="M7,4.3H6.6C6.4,5.2,6.2,6,5.9,6.6C5.5,7.3,5.1,7.8,4.6,8.1C4.1,8.5,3.4,8.8,2.7,9C2,9.1,1.2,9.2,0.2,9.2v0.4
			h3v15.3c0,2.3,0.5,3.9,1.4,4.8c0.9,0.9,2.4,1.4,4.4,1.4c0.6,0,1.3-0.1,2-0.2c0.7-0.1,1.2-0.3,1.6-0.4v-0.4
			c-0.5,0.2-0.9,0.3-1.3,0.4c-0.4,0.1-0.8,0.1-1.2,0.1c-1,0-1.8-0.3-2.4-1C7.3,28.8,7,27.8,7,26.4V9.6h5.6V9.2H7V4.3z M35.8,30
			c-0.4-0.2-0.8-0.6-0.9-1.1c-0.2-0.5-0.3-1.3-0.3-2.2v-9.9c0-2.8-0.6-4.7-1.7-6c-1.2-1.2-2.9-1.9-5.3-1.9c-0.7,0-1.4,0.1-2.2,0.3
			c-0.8,0.2-1.5,0.6-2.2,1.1c-0.7,0.6-1.2,1.5-1.6,2.8h-0.1c0-0.5,0-1.1,0-1.6c0-0.5,0-1,0-1.5s0-1,0-1.5V0.2h-7.1v0.4h0.2
			c0.8,0,1.5,0.1,1.9,0.3c0.5,0.2,0.8,0.6,1,1.1c0.2,0.5,0.3,1.2,0.3,2.1v22.4c0,0.9-0.1,1.7-0.3,2.2c-0.2,0.5-0.5,0.9-1,1.1
			c-0.5,0.2-1.1,0.3-2,0.3h-0.3v0.4H25v-0.4h-0.2c-0.8,0-1.4-0.1-1.9-0.3c-0.5-0.2-0.8-0.6-1-1.1c-0.2-0.5-0.3-1.3-0.3-2.2V16.3
			c0-1.1,0.2-2.2,0.5-3.3c0.3-1.1,0.8-1.9,1.5-2.6c0.7-0.7,1.7-1,3-1c1.6,0,2.7,0.5,3.3,1.6c0.6,1.1,1,2.5,1,4.2v15.4h6.9v-0.4h-0.2
			C36.8,30.3,36.2,30.2,35.8,30z M49.9,8.8c-2.8,0-5,0.9-6.5,2.8c-1.5,1.9-2.3,4.7-2.3,8.5c0,3.5,0.8,6.2,2.5,8.1
			c1.7,1.9,4,2.9,7,2.9c1.5,0,2.8-0.2,3.8-0.7c1-0.4,1.7-1,2.3-1.6c0.5-0.6,0.8-1.2,0.8-1.7c0-0.3-0.1-0.6-0.2-0.8
			c-0.2-0.3-0.4-0.4-0.7-0.5c-0.2,1.1-0.5,2-1.1,2.7c-0.5,0.7-1.2,1.3-2,1.7c-0.8,0.4-1.7,0.6-2.7,0.6c-1.4,0-2.5-0.4-3.3-1.1
			c-0.8-0.8-1.4-2-1.8-3.6c-0.4-1.7-0.6-3.8-0.6-6.6h13.3v-1c0-3.2-0.7-5.6-2.2-7.2C54.5,9.6,52.5,8.8,49.9,8.8z M44.9,19
			c0.1-2.3,0.3-4.2,0.7-5.6c0.3-1.4,0.9-2.4,1.6-3.1c0.7-0.7,1.6-1,2.7-1c1,0,1.9,0.3,2.5,1c0.6,0.7,1.1,1.7,1.4,3.1
			c0.3,1.4,0.4,3.3,0.4,5.6H44.9z M83,20c-0.9-0.6-2.1-1.2-3.6-1.9c-1.2-0.5-2.1-1-2.9-1.4c-0.8-0.4-1.4-0.9-1.7-1.4
			c-0.4-0.6-0.6-1.3-0.6-2.2c0-0.9,0.2-1.6,0.5-2.1c0.3-0.6,0.8-1,1.4-1.3c0.6-0.3,1.3-0.4,2.3-0.4c1.2,0,2,0.4,2.6,1.3
			c0.6,0.9,0.8,2.3,0.8,4.4c0.9,0,1.6-0.2,2.1-0.7c0.5-0.4,0.7-1,0.7-1.7c0-0.7-0.2-1.3-0.7-1.8c-0.5-0.6-1.2-1-2.1-1.3
			c-0.9-0.3-2-0.5-3.3-0.5c-2.3,0-4,0.5-5.3,1.5c-1.3,1-1.9,2.4-1.9,4.2c0,1,0.2,1.9,0.6,2.6c0.4,0.7,1,1.4,1.9,2.1
			c0.9,0.6,2.1,1.3,3.6,1.9c1.3,0.6,2.3,1.1,3.1,1.5c0.7,0.4,1.3,0.9,1.6,1.5c0.3,0.5,0.5,1.3,0.5,2.2c0,1.4-0.4,2.5-1.2,3.3
			c-0.8,0.7-1.9,1.1-3.4,1.1c-1.1,0-1.9-0.3-2.6-0.8c-0.6-0.5-1.1-1.2-1.4-2.2c-0.3-1-0.4-2.2-0.4-3.6c-0.3,0-0.7,0.1-1.1,0.2
			c-0.4,0.2-0.7,0.4-1,0.8c-0.3,0.4-0.4,1-0.4,1.7c0,0.9,0.3,1.7,0.9,2.3c0.6,0.6,1.4,1.1,2.4,1.4c1,0.3,2.2,0.5,3.5,0.5
			c2.4,0,4.2-0.5,5.6-1.6c1.4-1.1,2.1-2.6,2.1-4.7c0-1-0.2-1.9-0.5-2.7C84.5,21.3,83.9,20.6,83,20z M94.7,4.3h-0.4
			c-0.2,0.9-0.4,1.7-0.8,2.3c-0.3,0.6-0.8,1.1-1.3,1.5c-0.5,0.4-1.1,0.6-1.8,0.8c-0.7,0.2-1.5,0.3-2.5,0.3v0.4h3v15.3
			c0,2.3,0.5,3.9,1.4,4.8c0.9,0.9,2.4,1.4,4.4,1.4c0.6,0,1.3-0.1,2-0.2c0.7-0.1,1.2-0.3,1.6-0.4v-0.4c-0.5,0.2-0.9,0.3-1.3,0.4
			c-0.4,0.1-0.8,0.1-1.2,0.1c-1,0-1.8-0.3-2.4-1c-0.5-0.7-0.8-1.7-0.8-3.1V9.6h5.6V9.2h-5.6V4.3z M112.8,8.8c-3.1,0-5.4,0.9-7,2.7
			c-1.6,1.8-2.4,4.6-2.4,8.4c0,3.8,0.8,6.6,2.5,8.4c1.6,1.8,3.9,2.8,6.8,2.8c3.1,0,5.4-0.9,7-2.8c1.6-1.8,2.4-4.6,2.4-8.4
			c0-3.7-0.8-6.5-2.5-8.4C117.9,9.7,115.7,8.8,112.8,8.8z M117.6,26.2c-0.4,1.6-0.9,2.7-1.7,3.4c-0.8,0.7-1.8,1.1-3.2,1.1
			c-1.3,0-2.4-0.4-3.2-1.1c-0.8-0.7-1.4-1.9-1.8-3.4c-0.4-1.6-0.5-3.7-0.5-6.2c0-2.6,0.2-4.6,0.5-6.2c0.4-1.6,0.9-2.7,1.7-3.4
			c0.8-0.7,1.8-1.1,3.2-1.1c1.3,0,2.4,0.4,3.2,1.1c0.8,0.7,1.4,1.8,1.7,3.4c0.4,1.6,0.5,3.6,0.5,6.2C118.2,22.5,118,24.6,117.6,26.2
			z M141.4,9.6c-0.7-0.5-1.7-0.8-3.1-0.8c-1.3,0-2.3,0.2-3.1,0.7c-0.8,0.5-1.3,1-1.7,1.7c-0.4,0.7-0.7,1.3-0.8,2h-0.1v-4h-7.1v0.4
			h0.1c0.8,0,1.4,0.1,1.9,0.3c0.5,0.2,0.8,0.5,1,1c0.2,0.5,0.3,1.1,0.3,1.8v14.5c0,0.7-0.1,1.3-0.3,1.8c-0.2,0.5-0.6,0.8-1,1
			c-0.5,0.2-1.1,0.3-1.9,0.3h-0.5v0.4h11.3v-0.4H136c-0.8,0-1.4-0.1-1.9-0.3c-0.5-0.2-0.8-0.6-1.1-1c-0.2-0.5-0.3-1.1-0.3-1.9v-8.6
			c0-0.8,0-1.6,0.1-2.5c0.1-0.9,0.2-1.8,0.4-2.7c0.2-0.9,0.5-1.6,1-2.1c0.5-0.5,1.1-0.8,1.8-0.8c0.7,0,1.3,0.3,1.9,0.9
			c0.6,0.6,0.8,1.8,0.8,3.4c1.3,0,2.3-0.3,2.9-0.8c0.6-0.5,0.9-1.2,0.9-2C142.4,10.9,142.1,10.1,141.4,9.6z M149.4,5.4
			c0.5,0,0.9-0.2,1.2-0.5c0.3-0.3,0.5-0.9,0.5-1.7c0-0.9-0.2-1.4-0.5-1.8c-0.3-0.3-0.8-0.5-1.2-0.5c-0.5,0-0.9,0.2-1.3,0.5
			c-0.3,0.3-0.5,0.9-0.5,1.8c0,0.8,0.2,1.4,0.5,1.7C148.5,5.2,148.9,5.4,149.4,5.4z M152.9,30c-0.5-0.2-0.8-0.6-1.1-1
			c-0.2-0.5-0.3-1.1-0.3-1.9V9.2h-7.1v0.4h0.1c0.8,0,1.4,0.1,1.9,0.3c0.5,0.2,0.8,0.5,1,1c0.2,0.5,0.3,1.1,0.3,1.8v14.5
			c0,0.7-0.1,1.3-0.3,1.8c-0.2,0.5-0.6,0.8-1,1c-0.5,0.2-1.1,0.3-1.9,0.3h-0.5v0.4h11.3v-0.4h-0.5C154,30.3,153.4,30.2,152.9,30z
			 M166.8,8.8c-2.8,0-5,0.9-6.5,2.8c-1.5,1.9-2.3,4.7-2.3,8.5c0,3.5,0.8,6.2,2.5,8.1c1.7,1.9,4,2.9,7,2.9c1.5,0,2.8-0.2,3.8-0.7
			c1-0.4,1.7-1,2.3-1.6c0.5-0.6,0.8-1.2,0.8-1.7c0-0.3-0.1-0.6-0.2-0.8c-0.2-0.3-0.4-0.4-0.7-0.5c-0.2,1.1-0.5,2-1.1,2.7
			c-0.5,0.7-1.2,1.3-2,1.7c-0.8,0.4-1.7,0.6-2.7,0.6c-1.4,0-2.5-0.4-3.3-1.1c-0.8-0.8-1.4-2-1.8-3.6c-0.4-1.7-0.6-3.8-0.6-6.6h13.3
			v-1c0-3.2-0.7-5.6-2.2-7.2C171.4,9.6,169.4,8.8,166.8,8.8z M161.9,19c0.1-2.3,0.3-4.2,0.7-5.6c0.3-1.4,0.9-2.4,1.6-3.1
			c0.7-0.7,1.6-1,2.7-1c1,0,1.9,0.3,2.5,1c0.6,0.7,1.1,1.7,1.4,3.1c0.3,1.4,0.4,3.3,0.4,5.6H161.9z M198.7,30
			c-0.5-0.2-0.8-0.5-1.1-1c-0.2-0.5-0.3-1-0.3-1.8v-27h-7.1v0.4h0.1c0.8,0,1.4,0.1,1.9,0.3c0.5,0.2,0.8,0.5,1,1
			c0.2,0.5,0.3,1.1,0.3,1.8v3.8c0,0.5,0,1.1,0,1.8c0,0.8,0,1.6,0,2.5c0,0.9,0,1.9,0.1,2.8h-0.1c-0.3-2-1-3.5-2.1-4.5
			c-1-1-2.4-1.5-4.2-1.5c-1.7,0-3.2,0.4-4.4,1.2c-1.2,0.8-2.1,2.1-2.7,3.7c-0.6,1.6-0.9,3.7-0.9,6.1c0,2.4,0.3,4.5,0.9,6.1
			c0.6,1.7,1.5,2.9,2.7,3.8c1.2,0.8,2.7,1.3,4.4,1.3c1.7,0,3.1-0.5,4.1-1.5c1-1,1.7-2.5,2.1-4.6h0.1v5.6h7.3v-0.4h-0.3
			C199.8,30.3,199.2,30.2,198.7,30z M192.2,27.9c-0.9,1.7-2.3,2.6-4.2,2.6c-1.1,0-2.1-0.4-2.8-1.1c-0.7-0.7-1.2-1.8-1.6-3.4
			c-0.3-1.6-0.5-3.6-0.5-6.1c0-2.5,0.2-4.5,0.5-6.1c0.3-1.5,0.8-2.7,1.6-3.3c0.7-0.7,1.7-1,2.8-1c1.3,0,2.4,0.4,3.2,1.2
			c0.8,0.8,1.4,2,1.8,3.5c0.4,1.5,0.6,3.5,0.6,5.8C193.6,23.5,193.1,26.2,192.2,27.9z M208.2,26.2c-0.4-0.5-0.9-0.7-1.6-0.7
			s-1.3,0.2-1.6,0.7c-0.4,0.5-0.5,1.1-0.5,2c0,0.9,0.2,1.6,0.5,2s0.9,0.7,1.6,0.7s1.3-0.2,1.6-0.7c0.4-0.5,0.5-1.1,0.5-2
			C208.8,27.3,208.6,26.7,208.2,26.2z"/>
	</g>
</g>
</svg>
