<?xml version="1.0" encoding="utf-8"?>
<!-- Generator: Adobe Illustrator 27.5.0, SVG Export Plug-In . SVG Version: 6.00 Build 0)  -->
<svg version="1.1" id="a" xmlns="http://www.w3.org/2000/svg" xmlns:xlink="http://www.w3.org/1999/xlink" x="0px" y="0px"
	 viewBox="0 0 139.9 35.7" style="enable-background:new 0 0 139.9 35.7;" xml:space="preserve">
<style type="text/css">
	.st0{fill:#111C3C;}
	.st1{fill:none;stroke:#121C3D;stroke-width:0.5;stroke-miterlimit:10;}
</style>
<g>
	<g>
		<path class="st0" d="M15.3,26.5v0.4h9.6v-0.4c-1.3,0.2-2.1-0.6-2.5-1.9c0,0-8.8-22.8-8.8-22.8h-1.8L4.2,23.8
			c-0.5,2.1-1.9,3-3.9,2.7v0.4h8.5v-0.4c-7.4,0.9-3-5-2.1-8.7h9.5C16.7,20.5,21.6,27.5,15.3,26.5z M6.8,17.4L9.4,10
			c0.7-2,1.3-3.7,1.9-5.7c1.1,3.7,3.3,9.4,4.7,13.1H6.8z M37.1,8.9c-7.6-5.5-15.5,7-6.8,10.8c-3.6,0.9-3.7,5.8-0.1,6.7
			c-12.1,1.7-1.4,13.7,9.1,7.1c4.1-3.1,2.5-10.6-3.5-10c-1.2-0.1-4.9,0.3-5.9-0.4c-1.2-0.9-0.7-2.8,0.8-3.3
			c6.9,2.5,11.8-5.9,6.7-10.7c1.4-1.4,3.6-0.9,3.4,1.4C45.5,9.3,40.3,4.4,37.1,8.9z M39,30.1c0.2,4.6-5.5,5.5-9.1,4.3
			c-3.7-1.4-2.8-8.2,1.4-7.8C34.2,26.7,39.3,25.8,39,30.1z M31.2,19.2c-2.6-2.7-2-13.8,3.6-10.4C37.2,11.5,37,22.5,31.2,19.2z
			 M46.9,10.2c-5.2,6.6-0.5,20.6,9.6,16.4c1.6-0.5,3.9-3.1,1.8-4.1c-0.3,3.7-5.2,5.6-7.9,3.3c-2.1-2.2-1.9-5.3-2.1-8.9h11.6
			C61.3,9,51.9,4.6,46.9,10.2z M56.4,16.6h-8.1C47.7,5.4,57.4,5.2,56.4,16.6z M80.4,14.6c1.2-7.1-9.2-9.8-11.3-3.2H69V8.1h-6.2v0.3
			c2.1-0.2,3.1,1,3,3.1c0,0,0,11.7,0,11.7c0.2,2.2-0.9,3.4-3.1,3.2v0.4H72v-0.4c-2.2,0.2-3.1-1.1-3-3.2c0,0,0-9,0-9
			c-0.7-4.1,4.2-8.5,7.2-4.6c1.6,2.1,0.6,14.5,0.8,17.1h6.1v-0.4C78.5,27.4,81,17.1,80.4,14.6z M101.8,23.8c0,0,0-23.6,0-23.6h-6.3
			v0.3c3.7-0.5,2.9,3.8,3,6.1c0,1.9,0,4.2,0.1,6.3h-0.1c-0.3-5-5.7-6.5-9.3-4.1c-6.7,5.1-2.5,23.7,7.5,17.1c0.9-0.9,1.5-2.2,1.8-4
			h0.1v4.9h6.4v-0.4C103.1,26.6,101.7,25.8,101.8,23.8z M91.2,25.7c-3.1-4-3.4-21.7,5.2-16.4C100.2,13.5,99.7,30.6,91.2,25.7z
			 M119.9,9.1c-2.2-1.9-7.8-1.9-10.2,0.1c-1.8,1.7-0.6,4.5,2.1,4.1c-1-5.1,4.8-7.6,6.2-2.7c0.3,1.3,0.2,4.2,0.2,5.8
			c-14.7-1.6-13.6,13-2.7,10.4c1.6-0.6,2.5-1.9,3-3.6h0.1v3.7h5.3v-0.4C118.6,27.1,123.9,11.3,119.9,9.1z M112.1,26.2
			c-2.1-1.5-1.6-6.5-0.2-7.9c0.9-1.3,4.4-1.4,6.3-1.5C118.6,20.8,118.2,28.8,112.1,26.2z M129.7,11.5c0.2-5.3,7.8-4,6.6,1.6
			c2.2,0.2,3.3-2.1,1.9-3.7c-4-3.9-13.6-0.7-10.5,5.6c1.2,2.4,5.2,3.5,7.5,4.8c6.9,6.3-7.2,11.4-6,1.3c-1.2,0-2.3,1-2.2,2.4
			c0.3,4.7,8.2,4.4,10.8,2.3C145.1,16.1,129.6,17.3,129.7,11.5z"/>
	</g>
	<g>
		<path class="st1" d="M15.3,26.5v0.4h9.6v-0.4c-1.3,0.2-2.1-0.6-2.5-1.9c0,0-8.8-22.8-8.8-22.8h-1.8L4.2,23.8
			c-0.5,2.1-1.9,3-3.9,2.7v0.4h8.5v-0.4c-7.4,0.9-3-5-2.1-8.7h9.5C16.7,20.5,21.6,27.5,15.3,26.5z M6.8,17.4L9.4,10
			c0.7-2,1.3-3.7,1.9-5.7c1.1,3.7,3.3,9.4,4.7,13.1H6.8z M37.1,8.9c-7.6-5.5-15.5,7-6.8,10.8c-3.6,0.9-3.7,5.8-0.1,6.7
			c-12.1,1.7-1.4,13.7,9.1,7.1c4.1-3.1,2.5-10.6-3.5-10c-1.2-0.1-4.9,0.3-5.9-0.4c-1.2-0.9-0.7-2.8,0.8-3.3
			c6.9,2.5,11.8-5.9,6.7-10.7c1.4-1.4,3.6-0.9,3.4,1.4C45.5,9.3,40.3,4.4,37.1,8.9z M39,30.1c0.2,4.6-5.5,5.5-9.1,4.3
			c-3.7-1.4-2.8-8.2,1.4-7.8C34.2,26.7,39.3,25.8,39,30.1z M31.2,19.2c-2.6-2.7-2-13.8,3.6-10.4C37.2,11.5,37,22.5,31.2,19.2z
			 M46.9,10.2c-5.2,6.6-0.5,20.6,9.6,16.4c1.6-0.5,3.9-3.1,1.8-4.1c-0.3,3.7-5.2,5.6-7.9,3.3c-2.1-2.2-1.9-5.3-2.1-8.9h11.6
			C61.3,9,51.9,4.6,46.9,10.2z M56.4,16.6h-8.1C47.7,5.4,57.4,5.2,56.4,16.6z M80.4,14.6c1.2-7.1-9.2-9.8-11.3-3.2H69V8.1h-6.2v0.3
			c2.1-0.2,3.1,1,3,3.1c0,0,0,11.7,0,11.7c0.2,2.2-0.9,3.4-3.1,3.2v0.4H72v-0.4c-2.2,0.2-3.1-1.1-3-3.2c0,0,0-9,0-9
			c-0.7-4.1,4.2-8.5,7.2-4.6c1.6,2.1,0.6,14.5,0.8,17.1h6.1v-0.4C78.5,27.4,81,17.1,80.4,14.6z M101.8,23.8c0,0,0-23.6,0-23.6h-6.3
			v0.3c3.7-0.5,2.9,3.8,3,6.1c0,1.9,0,4.2,0.1,6.3h-0.1c-0.3-5-5.7-6.5-9.3-4.1c-6.7,5.1-2.5,23.7,7.5,17.1c0.9-0.9,1.5-2.2,1.8-4
			h0.1v4.9h6.4v-0.4C103.1,26.6,101.7,25.8,101.8,23.8z M91.2,25.7c-3.1-4-3.4-21.7,5.2-16.4C100.2,13.5,99.7,30.6,91.2,25.7z
			 M119.9,9.1c-2.2-1.9-7.8-1.9-10.2,0.1c-1.8,1.7-0.6,4.5,2.1,4.1c-1-5.1,4.8-7.6,6.2-2.7c0.3,1.3,0.2,4.2,0.2,5.8
			c-14.7-1.6-13.6,13-2.7,10.4c1.6-0.6,2.5-1.9,3-3.6h0.1v3.7h5.3v-0.4C118.6,27.1,123.9,11.3,119.9,9.1z M112.1,26.2
			c-2.1-1.5-1.6-6.5-0.2-7.9c0.9-1.3,4.4-1.4,6.3-1.5C118.6,20.8,118.2,28.8,112.1,26.2z M129.7,11.5c0.2-5.3,7.8-4,6.6,1.6
			c2.2,0.2,3.3-2.1,1.9-3.7c-4-3.9-13.6-0.7-10.5,5.6c1.2,2.4,5.2,3.5,7.5,4.8c6.9,6.3-7.2,11.4-6,1.3c-1.2,0-2.3,1-2.2,2.4
			c0.3,4.7,8.2,4.4,10.8,2.3C145.1,16.1,129.6,17.3,129.7,11.5z"/>
	</g>
</g>
</svg>
