<?xml version="1.0" encoding="utf-8"?>
<!-- Generator: Adobe Illustrator 27.5.0, SVG Export Plug-In . SVG Version: 6.00 Build 0)  -->
<svg version="1.1" id="a" xmlns="http://www.w3.org/2000/svg" xmlns:xlink="http://www.w3.org/1999/xlink" x="0px" y="0px"
	 viewBox="0 0 110.6 28" style="enable-background:new 0 0 110.6 28;" xml:space="preserve">
<style type="text/css">
	.st0{fill:#111C3C;}
	.st1{fill:none;stroke:#121C3D;stroke-width:0.5;stroke-miterlimit:10;}
</style>
<g>
	<g>
		<path class="st0" d="M12.9,9.4C10.7,7.6,5.1,7.6,2.7,9.5c-1.8,1.7-0.6,4.5,2.1,4.1C3.8,8.5,9.6,6,11,10.9c0.3,1.3,0.2,4.2,0.2,5.8
			c-14.7-1.6-13.6,13-2.7,10.4c1.6-0.6,2.5-1.9,3-3.6h0.1v3.7h5.3v-0.4C11.6,27.4,16.9,11.7,12.9,9.4z M5.1,26.6
			c-2.1-1.5-1.6-6.5-0.2-7.9c0.9-1.3,4.4-1.4,6.3-1.5C11.6,21.1,11.2,29.2,5.1,26.6z M25.7,11.9L25.7,11.9l-0.1-3.5h-6.2v0.3
			c1.9-0.1,3.1,0.8,3,2.7c0,0,0,12.6,0,12.6c0.2,2.1-1.4,2.9-3.3,2.7v0.4H29v-0.4c-5.3,1-2.8-7.7-3.3-10.4c0.1-2,0-4.8,1.3-6.4
			c2-1.9,4.3,0.3,4,3.1C40.3,11.3,27.8,3.4,25.7,11.9z M38.7,10.6c-5.2,6.6-0.5,20.6,9.6,16.4c1.6-0.5,3.9-3.1,1.8-4.1
			c-0.3,3.7-5.2,5.6-7.9,3.3c-2.1-2.2-1.9-5.3-2.1-8.9h11.6C53,9.3,43.7,4.9,38.7,10.6z M48.1,16.9H40C39.4,5.8,49.2,5.6,48.1,16.9z
			 M65.5,8.4h-3.2v0.3h3.2v15.4c0.2,2.1-1.4,2.9-3.3,2.7v0.4H73v-0.4c-2.1,0.2-4.5-0.2-4.2-2.9c0,0,0-15.2,0-15.2h4.9V8.4h-4.9
			c0-1.9,0-5.6,0.6-6.6c1.9-2.9,4.9-0.6,4.3,2.8C84.2,1.9,63.7-5.4,65.5,8.4z M78.1,10.5c-6.5,8.6,2,23.3,12.2,14.6
			C96.8,16.5,88.3,1.9,78.1,10.5z M81.5,26.2c-2.9-3.8-2.9-13.1,0-16.9C91.9,2.5,91.9,33.1,81.5,26.2z M101.7,11.9L101.7,11.9
			l-0.1-3.5h-6.2v0.3c1.9-0.1,3.1,0.8,3,2.7c0,0,0,12.6,0,12.6c0.2,2.1-1.4,2.9-3.3,2.7v0.4h9.9v-0.4c-5.3,1-2.8-7.7-3.3-10.4
			c0.1-2,0-4.8,1.3-6.4c2-1.9,4.3,0.3,4,3.1C116.3,11.3,103.8,3.4,101.7,11.9z"/>
	</g>
	<g>
		<path class="st1" d="M12.9,9.4C10.7,7.6,5.1,7.6,2.7,9.5c-1.8,1.7-0.6,4.5,2.1,4.1C3.8,8.5,9.6,6,11,10.9c0.3,1.3,0.2,4.2,0.2,5.8
			c-14.7-1.6-13.6,13-2.7,10.4c1.6-0.6,2.5-1.9,3-3.6h0.1v3.7h5.3v-0.4C11.6,27.4,16.9,11.7,12.9,9.4z M5.1,26.6
			c-2.1-1.5-1.6-6.5-0.2-7.9c0.9-1.3,4.4-1.4,6.3-1.5C11.6,21.1,11.2,29.2,5.1,26.6z M25.7,11.9L25.7,11.9l-0.1-3.5h-6.2v0.3
			c1.9-0.1,3.1,0.8,3,2.7c0,0,0,12.6,0,12.6c0.2,2.1-1.4,2.9-3.3,2.7v0.4H29v-0.4c-5.3,1-2.8-7.7-3.3-10.4c0.1-2,0-4.8,1.3-6.4
			c2-1.9,4.3,0.3,4,3.1C40.3,11.3,27.8,3.4,25.7,11.9z M38.7,10.6c-5.2,6.6-0.5,20.6,9.6,16.4c1.6-0.5,3.9-3.1,1.8-4.1
			c-0.3,3.7-5.2,5.6-7.9,3.3c-2.1-2.2-1.9-5.3-2.1-8.9h11.6C53,9.3,43.7,4.9,38.7,10.6z M48.1,16.9H40C39.4,5.8,49.2,5.6,48.1,16.9z
			 M65.5,8.4h-3.2v0.3h3.2v15.4c0.2,2.1-1.4,2.9-3.3,2.7v0.4H73v-0.4c-2.1,0.2-4.5-0.2-4.2-2.9c0,0,0-15.2,0-15.2h4.9V8.4h-4.9
			c0-1.9,0-5.6,0.6-6.6c1.9-2.9,4.9-0.6,4.3,2.8C84.2,1.9,63.7-5.4,65.5,8.4z M78.1,10.5c-6.5,8.6,2,23.3,12.2,14.6
			C96.8,16.5,88.3,1.9,78.1,10.5z M81.5,26.2c-2.9-3.8-2.9-13.1,0-16.9C91.9,2.5,91.9,33.1,81.5,26.2z M101.7,11.9L101.7,11.9
			l-0.1-3.5h-6.2v0.3c1.9-0.1,3.1,0.8,3,2.7c0,0,0,12.6,0,12.6c0.2,2.1-1.4,2.9-3.3,2.7v0.4h9.9v-0.4c-5.3,1-2.8-7.7-3.3-10.4
			c0.1-2,0-4.8,1.3-6.4c2-1.9,4.3,0.3,4,3.1C116.3,11.3,103.8,3.4,101.7,11.9z"/>
	</g>
</g>
</svg>
