<?xml version="1.0" encoding="utf-8"?>
<!-- Generator: Adobe Illustrator 27.5.0, SVG Export Plug-In . SVG Version: 6.00 Build 0)  -->
<svg version="1.1" id="a" xmlns="http://www.w3.org/2000/svg" xmlns:xlink="http://www.w3.org/1999/xlink" x="0px" y="0px"
	 viewBox="0 0 156.7 35.2" style="enable-background:new 0 0 156.7 35.2;" xml:space="preserve">
<style type="text/css">
	.st0{fill:#111C3C;}
	.st1{fill:none;stroke:#121C3D;stroke-width:0.5;stroke-miterlimit:10;}
</style>
<g>
	<g>
		<path class="st0" d="M28.5,14.2c1.2-7.3-9.5-10-11-2.7h-0.1c-1-5.4-9.3-5.9-10.7-0.6H6.6V7.6H0.4v0.4c1.9-0.1,3.1,0.8,3,2.7
			c0,0,0,12.6,0,12.6c0.1,2-1.3,2.9-3.1,2.7v0.3h9.4V26c-4.9,0.8-2.4-9.2-3-11.8c-0.7-4.2,3.6-8.7,6.9-5c1.6,2.2,0.5,14.2,0.8,17.1
			h6.3V26c-1.9,0.1-3.1-0.9-3-2.9c0,0,0-9.4,0-9.4c-0.7-4,3.8-8.1,6.7-4.5c1.5,2.2,0.5,14.2,0.8,17.1h6.3V26
			C26.5,26.8,29.1,16.8,28.5,14.2z M36.2,9.7c-5.2,6.6-0.5,20.6,9.6,16.4c1.6-0.5,3.9-3.1,1.8-4.1c-0.3,3.7-5.2,5.6-7.9,3.3
			c-2.1-2.2-1.9-5.3-2.1-8.9h11.6C50.6,8.5,41.3,4.1,36.2,9.7z M45.7,16.1h-8.1C37,4.9,46.7,4.7,45.7,16.1z M54.9,9.7
			c-5.2,6.6-0.5,20.6,9.6,16.4c1.6-0.5,3.9-3.1,1.8-4.1c-0.3,3.7-5.2,5.6-7.9,3.3c-2.1-2.2-1.9-5.3-2.1-8.9h11.6
			C69.3,8.5,59.9,4.1,54.9,9.7z M64.4,16.1h-8.1C55.7,4.9,65.4,4.7,64.4,16.1z M76.2,3.3h-0.3c-0.4,3-2.7,4.5-5.6,4.3v0.4h2.7v13.3
			c-0.3,4.6,2.8,6,6.8,5.2c0.6-0.1,1.1-0.2,1.4-0.4v-0.4c-2.6,1.1-5.1,0-4.9-3.2c0,0,0-14.6,0-14.6h4.9V7.6h-4.9V3.3z M89.3,23.1
			c0,0,0-15.5,0-15.5h-6.3v0.4c1.9-0.1,3.1,0.8,3,2.7c0,0,0,12.6,0,12.6c0.2,2.1-1.4,2.9-3.3,2.7v0.3h9.9V26
			C90.6,26.2,89.1,25.3,89.3,23.1z M88.6,3.8c1.3-1.4-0.2-4.8-2.2-3.1C85.2,2.1,86.6,5.5,88.6,3.8z M111.8,14.1
			c1.2-7.1-9.2-9.8-11.3-3.2h-0.1V7.6h-6.2v0.4c2.1-0.2,3.1,1,3,3.1c0,0,0,11.7,0,11.7c0.2,2.2-0.9,3.4-3.1,3.2v0.3h9.4V26
			c-2.2,0.2-3.1-1.1-3-3.2c0,0,0-9,0-9c-0.7-4.1,4.2-8.5,7.2-4.6c1.6,2.1,0.6,14.5,0.8,17.1h6.1V26C110,26.8,112.4,16.6,111.8,14.1z
			 M128.5,8.4c-7.6-5.5-15.5,7-6.8,10.8c-3.6,0.9-3.7,5.8-0.1,6.7c-12.1,1.7-1.4,13.7,9.1,7.1c4.1-3.1,2.5-10.6-3.5-10
			c-1.2-0.1-4.9,0.3-5.9-0.4c-1.2-0.9-0.7-2.8,0.8-3.3c6.9,2.5,11.8-5.9,6.7-10.7c1.4-1.4,3.6-0.9,3.4,1.4
			C137,8.8,131.7,3.9,128.5,8.4z M130.4,29.6c0.2,4.6-5.5,5.5-9.1,4.3c-3.7-1.4-2.8-8.2,1.4-7.8C125.6,26.2,130.7,25.3,130.4,29.6z
			 M122.6,18.7c-2.6-2.7-2-13.8,3.6-10.4C128.6,11,128.5,21.9,122.6,18.7z M138.8,11c0.2-5.3,7.8-4,6.6,1.6c2.2,0.2,3.3-2.1,1.9-3.7
			c-4-3.9-13.6-0.7-10.5,5.6c1.2,2.4,5.2,3.5,7.5,4.8c6.9,6.3-7.2,11.4-6,1.3c-1.2,0-2.3,1-2.2,2.4c0.3,4.7,8.2,4.4,10.8,2.3
			C154.3,15.5,138.8,16.8,138.8,11z M153.1,22.4c-1.5,1.9,0.5,5.8,2.8,3.6C157.4,24.1,155.4,20.2,153.1,22.4z"/>
	</g>
	<g>
		<path class="st1" d="M28.5,14.2c1.2-7.3-9.5-10-11-2.7h-0.1c-1-5.4-9.3-5.9-10.7-0.6H6.6V7.6H0.4v0.4c1.9-0.1,3.1,0.8,3,2.7
			c0,0,0,12.6,0,12.6c0.1,2-1.3,2.9-3.1,2.7v0.3h9.4V26c-4.9,0.8-2.4-9.2-3-11.8c-0.7-4.2,3.6-8.7,6.9-5c1.6,2.2,0.5,14.2,0.8,17.1
			h6.3V26c-1.9,0.1-3.1-0.9-3-2.9c0,0,0-9.4,0-9.4c-0.7-4,3.8-8.1,6.7-4.5c1.5,2.2,0.5,14.2,0.8,17.1h6.3V26
			C26.5,26.8,29.1,16.8,28.5,14.2z M36.2,9.7c-5.2,6.6-0.5,20.6,9.6,16.4c1.6-0.5,3.9-3.1,1.8-4.1c-0.3,3.7-5.2,5.6-7.9,3.3
			c-2.1-2.2-1.9-5.3-2.1-8.9h11.6C50.6,8.5,41.3,4.1,36.2,9.7z M45.7,16.1h-8.1C37,4.9,46.7,4.7,45.7,16.1z M54.9,9.7
			c-5.2,6.6-0.5,20.6,9.6,16.4c1.6-0.5,3.9-3.1,1.8-4.1c-0.3,3.7-5.2,5.6-7.9,3.3c-2.1-2.2-1.9-5.3-2.1-8.9h11.6
			C69.3,8.5,59.9,4.1,54.9,9.7z M64.4,16.1h-8.1C55.7,4.9,65.4,4.7,64.4,16.1z M76.2,3.3h-0.3c-0.4,3-2.7,4.5-5.6,4.3v0.4h2.7v13.3
			c-0.3,4.6,2.8,6,6.8,5.2c0.6-0.1,1.1-0.2,1.4-0.4v-0.4c-2.6,1.1-5.1,0-4.9-3.2c0,0,0-14.6,0-14.6h4.9V7.6h-4.9V3.3z M89.3,23.1
			c0,0,0-15.5,0-15.5h-6.3v0.4c1.9-0.1,3.1,0.8,3,2.7c0,0,0,12.6,0,12.6c0.2,2.1-1.4,2.9-3.3,2.7v0.3h9.9V26
			C90.6,26.2,89.1,25.3,89.3,23.1z M88.6,3.8c1.3-1.4-0.2-4.8-2.2-3.1C85.2,2.1,86.6,5.5,88.6,3.8z M111.8,14.1
			c1.2-7.1-9.2-9.8-11.3-3.2h-0.1V7.6h-6.2v0.4c2.1-0.2,3.1,1,3,3.1c0,0,0,11.7,0,11.7c0.2,2.2-0.9,3.4-3.1,3.2v0.3h9.4V26
			c-2.2,0.2-3.1-1.1-3-3.2c0,0,0-9,0-9c-0.7-4.1,4.2-8.5,7.2-4.6c1.6,2.1,0.6,14.5,0.8,17.1h6.1V26C110,26.8,112.4,16.6,111.8,14.1z
			 M128.5,8.4c-7.6-5.5-15.5,7-6.8,10.8c-3.6,0.9-3.7,5.8-0.1,6.7c-12.1,1.7-1.4,13.7,9.1,7.1c4.1-3.1,2.5-10.6-3.5-10
			c-1.2-0.1-4.9,0.3-5.9-0.4c-1.2-0.9-0.7-2.8,0.8-3.3c6.9,2.5,11.8-5.9,6.7-10.7c1.4-1.4,3.6-0.9,3.4,1.4
			C137,8.8,131.7,3.9,128.5,8.4z M130.4,29.6c0.2,4.6-5.5,5.5-9.1,4.3c-3.7-1.4-2.8-8.2,1.4-7.8C125.6,26.2,130.7,25.3,130.4,29.6z
			 M122.6,18.7c-2.6-2.7-2-13.8,3.6-10.4C128.6,11,128.5,21.9,122.6,18.7z M138.8,11c0.2-5.3,7.8-4,6.6,1.6c2.2,0.2,3.3-2.1,1.9-3.7
			c-4-3.9-13.6-0.7-10.5,5.6c1.2,2.4,5.2,3.5,7.5,4.8c6.9,6.3-7.2,11.4-6,1.3c-1.2,0-2.3,1-2.2,2.4c0.3,4.7,8.2,4.4,10.8,2.3
			C154.3,15.5,138.8,16.8,138.8,11z M153.1,22.4c-1.5,1.9,0.5,5.8,2.8,3.6C157.4,24.1,155.4,20.2,153.1,22.4z"/>
	</g>
</g>
</svg>
