<?xml version="1.0" encoding="utf-8"?>
<!-- Generator: Adobe Illustrator 27.5.0, SVG Export Plug-In . SVG Version: 6.00 Build 0)  -->
<svg version="1.1" id="a" xmlns="http://www.w3.org/2000/svg" xmlns:xlink="http://www.w3.org/1999/xlink" x="0px" y="0px"
	 viewBox="0 0 228.7 33.9" style="enable-background:new 0 0 228.7 33.9;" xml:space="preserve">
<style type="text/css">
	.st0{fill:#111C3C;}
	.st1{fill:none;stroke:#121C3D;stroke-width:0.5;stroke-miterlimit:10;}
</style>
<g>
	<g>
		<path class="st0" d="M16.5,0.6c1.8-0.2,4,0.3,3.8,2.5c0,0,0,17.1,0,17.1L7.1,0.2H0.2v0.4C2,0.5,4.3,0.8,4.1,3c0,0,0,19.4,0,19.4
			c0.1,2.2-2.1,2.7-3.9,2.5v0.3h8.1v-0.3c-1.8,0.2-4-0.3-3.8-2.5c0,0,0-19.9,0-19.9l15.2,22.8h1V3.1c-0.1-2.2,2.1-2.7,3.9-2.5V0.2
			h-8.1V0.6z M29.6,8.5c-6.5,8.6,2,23.3,12.2,14.6C48.2,14.6,39.7-0.1,29.6,8.5z M32.9,24.3c-2.9-3.8-2.9-13.1,0-16.9
			C43.3,0.6,43.3,31.2,32.9,24.3z M52.3,2.2H52c-0.4,3-2.7,4.5-5.6,4.3v0.4H49v13.3c-0.3,4.6,2.8,6,6.8,5.2c0.6-0.1,1.1-0.2,1.4-0.4
			v-0.4c-2.6,1.1-5.1,0-4.9-3.2c0,0,0-14.6,0-14.6h4.9V6.5h-4.9V2.2z M73.3,10L73.3,10l-0.1-3.5H67v0.4c1.9-0.1,3.1,0.8,3,2.7
			c0,0,0,12.6,0,12.6c0.2,2.1-1.4,2.9-3.3,2.7v0.3h9.9v-0.3c-5.3,1-2.8-7.7-3.3-10.4c0.1-2,0-4.8,1.3-6.4c2-1.9,4.3,0.3,4,3.1
			C87.9,9.3,75.4,1.4,73.3,10z M86.2,8.6c-5.2,6.6-0.5,20.6,9.6,16.4c1.6-0.5,3.9-3.1,1.8-4.1c-0.3,3.7-5.2,5.6-7.9,3.3
			c-2.1-2.2-1.9-5.3-2.1-8.9h11.6C100.6,7.4,91.3,3,86.2,8.6z M95.7,15h-8.1C87,3.8,96.8,3.6,95.7,15z M108,11.3L108,11.3L108,6.5
			h-6.5v0.4c1.9-0.2,3.5,0.6,3.3,2.7c0,0,0,21,0,21c0.1,2-1.3,2.9-3.1,2.7v0.3h9.4v-0.3c-5.1,0.8-2.2-9.9-3-13h0.1
			c1.9,9.9,14.1,4.4,12.4-4.5C122.2,6.9,110,1.6,108,11.3z M110.2,24.1c-3-3.9-4-16.7,2.7-17.4C119.8,6.4,118.7,30.6,110.2,24.1z
			 M126.4,8.5c-6.5,8.6,2,23.3,12.2,14.6C145,14.6,136.6-0.1,126.4,8.5z M129.7,24.3c-2.9-3.8-2.9-13.1,0-16.9
			C140.2,0.6,140.2,31.2,129.7,24.3z M150,10L150,10l-0.1-3.5h-6.2v0.4c1.9-0.1,3.1,0.8,3,2.7c0,0,0,12.6,0,12.6
			c0.2,2.1-1.4,2.9-3.3,2.7v0.3h9.9v-0.3c-5.3,1-2.8-7.7-3.3-10.4c0.1-2,0-4.8,1.3-6.4c2-1.9,4.3,0.3,4,3.1
			C164.6,9.3,152.1,1.4,150,10z M165.6,2.2h-0.3c-0.4,3-2.7,4.5-5.6,4.3v0.4h2.7v13.3c-0.3,4.6,2.8,6,6.8,5.2
			c0.6-0.1,1.1-0.2,1.4-0.4v-0.4c-2.6,1.1-5.1,0-4.9-3.2c0,0,0-14.6,0-14.6h4.9V6.5h-4.9V2.2z M175.3,8.6
			c-5.2,6.6-0.5,20.6,9.6,16.4c1.6-0.5,3.9-3.1,1.8-4.1c-0.3,3.7-5.2,5.6-7.9,3.3c-2.1-2.2-1.9-5.3-2.1-8.9h11.6
			C189.6,7.4,180.3,3,175.3,8.6z M184.7,15h-8.1C176,3.8,185.8,3.6,184.7,15z M197.4,10L197.4,10l-0.1-3.5h-6.2v0.4
			c1.9-0.1,3.1,0.8,3,2.7c0,0,0,12.6,0,12.6c0.2,2.1-1.4,2.9-3.3,2.7v0.3h9.9v-0.3c-5.3,1-2.8-7.7-3.3-10.4c0.1-2,0-4.8,1.3-6.4
			c2-1.9,4.3,0.3,4,3.1C212,9.3,199.5,1.4,197.4,10z M210.8,9.9c0.2-5.3,7.8-4,6.6,1.6c2.2,0.2,3.3-2.1,1.9-3.7
			c-4-3.9-13.6-0.7-10.5,5.6c1.2,2.4,5.2,3.5,7.5,4.8c6.9,6.3-7.2,11.4-6,1.3c-1.2,0-2.3,1-2.2,2.4c0.3,4.7,8.2,4.4,10.8,2.3
			C226.3,14.4,210.8,15.7,210.8,9.9z M225.1,21.3c-1.5,1.9,0.5,5.8,2.8,3.6C229.5,23,227.5,19.1,225.1,21.3z"/>
	</g>
	<g>
		<path class="st1" d="M16.5,0.6c1.8-0.2,4,0.3,3.8,2.5c0,0,0,17.1,0,17.1L7.1,0.2H0.2v0.4C2,0.5,4.3,0.8,4.1,3c0,0,0,19.4,0,19.4
			c0.1,2.2-2.1,2.7-3.9,2.5v0.3h8.1v-0.3c-1.8,0.2-4-0.3-3.8-2.5c0,0,0-19.9,0-19.9l15.2,22.8h1V3.1c-0.1-2.2,2.1-2.7,3.9-2.5V0.2
			h-8.1V0.6z M29.6,8.5c-6.5,8.6,2,23.3,12.2,14.6C48.2,14.6,39.7-0.1,29.6,8.5z M32.9,24.3c-2.9-3.8-2.9-13.1,0-16.9
			C43.3,0.6,43.3,31.2,32.9,24.3z M52.3,2.2H52c-0.4,3-2.7,4.5-5.6,4.3v0.4H49v13.3c-0.3,4.6,2.8,6,6.8,5.2c0.6-0.1,1.1-0.2,1.4-0.4
			v-0.4c-2.6,1.1-5.1,0-4.9-3.2c0,0,0-14.6,0-14.6h4.9V6.5h-4.9V2.2z M73.3,10L73.3,10l-0.1-3.5H67v0.4c1.9-0.1,3.1,0.8,3,2.7
			c0,0,0,12.6,0,12.6c0.2,2.1-1.4,2.9-3.3,2.7v0.3h9.9v-0.3c-5.3,1-2.8-7.7-3.3-10.4c0.1-2,0-4.8,1.3-6.4c2-1.9,4.3,0.3,4,3.1
			C87.9,9.3,75.4,1.4,73.3,10z M86.2,8.6c-5.2,6.6-0.5,20.6,9.6,16.4c1.6-0.5,3.9-3.1,1.8-4.1c-0.3,3.7-5.2,5.6-7.9,3.3
			c-2.1-2.2-1.9-5.3-2.1-8.9h11.6C100.6,7.4,91.3,3,86.2,8.6z M95.7,15h-8.1C87,3.8,96.8,3.6,95.7,15z M108,11.3L108,11.3L108,6.5
			h-6.5v0.4c1.9-0.2,3.5,0.6,3.3,2.7c0,0,0,21,0,21c0.1,2-1.3,2.9-3.1,2.7v0.3h9.4v-0.3c-5.1,0.8-2.2-9.9-3-13h0.1
			c1.9,9.9,14.1,4.4,12.4-4.5C122.2,6.9,110,1.6,108,11.3z M110.2,24.1c-3-3.9-4-16.7,2.7-17.4C119.8,6.4,118.7,30.6,110.2,24.1z
			 M126.4,8.5c-6.5,8.6,2,23.3,12.2,14.6C145,14.6,136.6-0.1,126.4,8.5z M129.7,24.3c-2.9-3.8-2.9-13.1,0-16.9
			C140.2,0.6,140.2,31.2,129.7,24.3z M150,10L150,10l-0.1-3.5h-6.2v0.4c1.9-0.1,3.1,0.8,3,2.7c0,0,0,12.6,0,12.6
			c0.2,2.1-1.4,2.9-3.3,2.7v0.3h9.9v-0.3c-5.3,1-2.8-7.7-3.3-10.4c0.1-2,0-4.8,1.3-6.4c2-1.9,4.3,0.3,4,3.1
			C164.6,9.3,152.1,1.4,150,10z M165.6,2.2h-0.3c-0.4,3-2.7,4.5-5.6,4.3v0.4h2.7v13.3c-0.3,4.6,2.8,6,6.8,5.2
			c0.6-0.1,1.1-0.2,1.4-0.4v-0.4c-2.6,1.1-5.1,0-4.9-3.2c0,0,0-14.6,0-14.6h4.9V6.5h-4.9V2.2z M175.3,8.6
			c-5.2,6.6-0.5,20.6,9.6,16.4c1.6-0.5,3.9-3.1,1.8-4.1c-0.3,3.7-5.2,5.6-7.9,3.3c-2.1-2.2-1.9-5.3-2.1-8.9h11.6
			C189.6,7.4,180.3,3,175.3,8.6z M184.7,15h-8.1C176,3.8,185.8,3.6,184.7,15z M197.4,10L197.4,10l-0.1-3.5h-6.2v0.4
			c1.9-0.1,3.1,0.8,3,2.7c0,0,0,12.6,0,12.6c0.2,2.1-1.4,2.9-3.3,2.7v0.3h9.9v-0.3c-5.3,1-2.8-7.7-3.3-10.4c0.1-2,0-4.8,1.3-6.4
			c2-1.9,4.3,0.3,4,3.1C212,9.3,199.5,1.4,197.4,10z M210.8,9.9c0.2-5.3,7.8-4,6.6,1.6c2.2,0.2,3.3-2.1,1.9-3.7
			c-4-3.9-13.6-0.7-10.5,5.6c1.2,2.4,5.2,3.5,7.5,4.8c6.9,6.3-7.2,11.4-6,1.3c-1.2,0-2.3,1-2.2,2.4c0.3,4.7,8.2,4.4,10.8,2.3
			C226.3,14.4,210.8,15.7,210.8,9.9z M225.1,21.3c-1.5,1.9,0.5,5.8,2.8,3.6C229.5,23,227.5,19.1,225.1,21.3z"/>
	</g>
</g>
</svg>
