<?xml version="1.0" encoding="utf-8"?>
<!-- Generator: Adobe Illustrator 27.5.0, SVG Export Plug-In . SVG Version: 6.00 Build 0)  -->
<svg version="1.1" id="a" xmlns="http://www.w3.org/2000/svg" xmlns:xlink="http://www.w3.org/1999/xlink" x="0px" y="0px"
	 viewBox="0 0 380 50.2" style="enable-background:new 0 0 380 50.2;" xml:space="preserve">
<style type="text/css">
	.st0{fill:#111C3C;}
	.st1{fill:none;stroke:#111C3C;stroke-width:0.5;stroke-miterlimit:10;}
</style>
<g>
	<g>
		<path class="st0" d="M23.5,3h1.4c0.9,0,1.7,0.1,2.3,0.4c0.6,0.3,1,0.7,1.3,1.2c0.3,0.5,0.4,1.2,0.4,2v24.3L10,2.5H0.2V3h1.4
			C2.6,3,3.4,3.2,4,3.4C4.6,3.7,5,4,5.3,4.5C5.6,5,5.8,5.6,5.8,6.4v27.5c0,0.8-0.1,1.5-0.4,2C5,36.4,4.6,36.8,4,37.1
			c-0.6,0.3-1.4,0.4-2.3,0.4H0.2V38h11.5v-0.5h-1.4c-0.9,0-1.7-0.1-2.3-0.4c-0.6-0.3-1.1-0.7-1.4-1.2c-0.3-0.5-0.4-1.2-0.4-2V5.6
			L28,38h1.5V6.6c0-0.8,0.2-1.5,0.5-2c0.3-0.5,0.8-0.9,1.4-1.2C32,3.2,32.7,3,33.6,3H35V2.5H23.5V3z M50.9,10.9
			c-3.9,0-6.8,1.1-8.8,3.4c-2,2.3-3,5.7-3,10.4c0,4.7,1,8.1,3.1,10.4c2.1,2.3,4.9,3.4,8.5,3.4c3.9,0,6.8-1.1,8.8-3.4
			c2-2.3,3-5.8,3-10.4c0-4.6-1-8.1-3.1-10.4C57.3,12,54.5,10.9,50.9,10.9z M57,32.4c-0.4,2-1.2,3.4-2.2,4.3c-1,0.9-2.3,1.3-3.9,1.3
			c-1.6,0-3-0.4-4-1.3c-1-0.9-1.7-2.3-2.2-4.3c-0.4-2-0.7-4.5-0.7-7.7c0-3.2,0.2-5.7,0.7-7.7c0.4-2,1.2-3.4,2.2-4.2
			c1-0.9,2.3-1.3,3.9-1.3c1.7,0,3,0.4,4,1.3c1,0.9,1.7,2.3,2.2,4.2c0.4,2,0.7,4.5,0.7,7.7C57.7,27.8,57.4,30.4,57,32.4z M74.7,5.3
			h-0.5c-0.2,1.1-0.6,2.1-1,2.9c-0.4,0.8-1,1.4-1.6,1.9c-0.6,0.5-1.4,0.8-2.3,1c-0.9,0.2-1.9,0.3-3.1,0.3v0.5H70v18.9
			c0,2.8,0.6,4.8,1.7,6s3,1.7,5.5,1.7c0.8,0,1.6-0.1,2.5-0.2c0.9-0.2,1.5-0.3,1.9-0.5v-0.5c-0.6,0.2-1.1,0.3-1.6,0.4
			c-0.5,0.1-1,0.1-1.4,0.1c-1.3,0-2.3-0.4-2.9-1.3c-0.7-0.9-1-2.2-1-3.9V11.9h7v-0.5h-7V5.3z M118.1,37.2c-0.5-0.2-0.8-0.5-1-1
			c-0.2-0.5-0.3-1.1-0.3-1.9V19.5c0-3.1-0.8-5.4-2.3-6.7c-1.5-1.3-3.8-1.9-6.9-1.9c-1.6,0-3.1,0.2-4.5,0.5c-1.4,0.3-2.5,0.9-3.3,1.6
			c-0.8,0.7-1.2,1.7-1.2,2.9c0,1.1,0.4,1.8,1.1,2.3c0.7,0.5,1.8,0.7,3.2,0.7c0-2.5,0.3-4.4,0.8-5.6c0.5-1.2,1.8-1.8,3.7-1.8
			c1.4,0,2.4,0.3,3,0.9c0.7,0.6,1.1,1.5,1.3,2.7c0.2,1.2,0.3,2.7,0.3,4.6v3.7l-4.1,0.1c-3.8,0.1-6.7,0.8-8.6,2.1
			c-1.9,1.3-2.8,3.2-2.8,5.7c0,2.3,0.7,4.1,2.2,5.4c1.5,1.3,3.5,2,6,2c1.2,0,2.4-0.2,3.4-0.6c1-0.4,1.9-1,2.6-1.9
			c0.7-0.8,1.3-1.9,1.6-3.3h0.1V38h7.5v-0.5h-0.1C119.1,37.5,118.5,37.4,118.1,37.2z M112.1,30.9c0,1.2-0.3,2.4-0.8,3.4
			c-0.5,1.1-1.3,1.9-2.2,2.5c-0.9,0.6-2,0.9-3.3,0.9c-1,0-1.8-0.2-2.4-0.7c-0.7-0.5-1.2-1.1-1.5-2.1c-0.3-0.9-0.5-2-0.5-3.4
			c0-2.7,0.5-4.7,1.6-5.9c1.1-1.2,3-1.8,5.9-1.9l3.2-0.1V30.9z M140.9,6.6c0.6,0,1.1-0.2,1.5-0.6c0.4-0.4,0.6-1.1,0.6-2.2
			c0-1.1-0.2-1.8-0.6-2.2C142,1.2,141.5,1,140.9,1c-0.6,0-1.2,0.2-1.6,0.6c-0.4,0.4-0.6,1.1-0.6,2.2c0,1,0.2,1.7,0.6,2.2
			C139.7,6.4,140.3,6.6,140.9,6.6z M134.5,11.9h0.1c1,0,1.8,0.1,2.4,0.4c0.6,0.3,1,0.7,1.3,1.2c0.3,0.6,0.4,1.3,0.4,2.2v22.7
			c0,2.9-0.2,5.2-0.6,6.8c-0.4,1.6-1.1,2.7-1.9,3.3c-0.8,0.6-1.9,0.9-3.1,0.9h-0.3v0.5h0.8c1.9,0,3.6-0.3,5.1-1
			c1.5-0.7,2.6-1.9,3.5-3.6c0.8-1.7,1.3-4,1.3-7v-27h-8.9V11.9z M162.9,10.9c-3.9,0-6.8,1.1-8.8,3.4c-2,2.3-3,5.7-3,10.4
			c0,4.7,1,8.1,3.1,10.4c2.1,2.3,4.9,3.4,8.5,3.4c3.9,0,6.8-1.1,8.8-3.4c2-2.3,3-5.8,3-10.4c0-4.6-1-8.1-3.1-10.4
			C169.3,12,166.5,10.9,162.9,10.9z M168.9,32.4c-0.4,2-1.2,3.4-2.2,4.3c-1,0.9-2.3,1.3-3.9,1.3c-1.6,0-3-0.4-4-1.3
			c-1-0.9-1.7-2.3-2.2-4.3c-0.4-2-0.7-4.5-0.7-7.7c0-3.2,0.2-5.7,0.7-7.7c0.4-2,1.2-3.4,2.2-4.2c1-0.9,2.3-1.3,3.9-1.3
			c1.7,0,3,0.4,4,1.3c1,0.9,1.7,2.3,2.2,4.2c0.4,2,0.7,4.5,0.7,7.7C169.6,27.8,169.4,30.4,168.9,32.4z M205,37.2
			c-0.4-0.2-1-0.6-1.6-1.3c-0.6-0.7-1.4-1.8-2.5-3.4l-7.7-11.8l3.9-4.4c1.3-1.4,2.3-2.4,3.1-3.1c0.8-0.6,1.5-1,2.1-1.2
			c0.6-0.2,1.4-0.2,2.2-0.2v-0.5h-11v0.5c1.5,0,2.7,0.1,3.4,0.3c0.7,0.2,1.1,0.6,1.1,1.2c0,0.3-0.1,0.6-0.3,1
			c-0.2,0.4-0.5,0.8-0.8,1.3c-0.4,0.5-0.8,1-1.3,1.6l-8.5,9.4c0-0.7,0.1-1.3,0.1-2c0-0.7,0-1.3,0-2s0-1.3,0-2V0.2h-8.9v0.5h0.1
			c1,0,1.8,0.1,2.4,0.4c0.6,0.3,1,0.7,1.3,1.2c0.3,0.6,0.4,1.3,0.4,2.2v29c0,0.9-0.1,1.6-0.4,2.2c-0.3,0.6-0.7,1-1.3,1.2
			c-0.6,0.3-1.4,0.4-2.4,0.4h-0.4V38h13.4v-0.5h-0.1c-1,0-1.8-0.1-2.4-0.4c-0.6-0.3-1-0.7-1.3-1.3c-0.3-0.6-0.4-1.4-0.4-2.4v-6
			l2.9-3.3l6.4,10c0.5,0.7,0.9,1.3,1.4,1.8c0.5,0.5,1,0.9,1.6,1.1c0.6,0.3,1.2,0.5,2,0.6c0.7,0.1,1.6,0.2,2.6,0.2h2.2v-0.5h-0.1
			C205.9,37.5,205.4,37.4,205,37.2z M219.2,10.9c-3.5,0-6.3,1.2-8.2,3.5c-1.9,2.4-2.9,5.8-2.9,10.5c0,4.3,1,7.6,3.1,10
			c2.1,2.4,5,3.6,8.7,3.6c1.9,0,3.5-0.3,4.8-0.8c1.2-0.5,2.2-1.2,2.8-2c0.6-0.8,0.9-1.5,0.9-2.2c0-0.4-0.1-0.7-0.3-1
			c-0.2-0.3-0.5-0.5-0.9-0.6c-0.2,1.3-0.7,2.4-1.3,3.4c-0.7,0.9-1.5,1.6-2.5,2.1c-1,0.5-2.1,0.7-3.4,0.7c-1.7,0-3.1-0.5-4.1-1.4
			c-1-0.9-1.8-2.4-2.3-4.5c-0.5-2.1-0.7-4.8-0.7-8.1h16.6v-1.2c0-3.9-0.9-6.9-2.8-8.9C225,11.9,222.5,10.9,219.2,10.9z M213,23.4
			c0.1-2.9,0.4-5.2,0.8-7c0.4-1.8,1.1-3,1.9-3.8c0.9-0.8,2-1.2,3.3-1.2c1.3,0,2.3,0.4,3.1,1.2c0.8,0.8,1.4,2.1,1.7,3.8
			c0.4,1.8,0.5,4.1,0.5,7H213z M237.9,31.6c-0.9,0-1.7,0.3-2.3,0.8c-0.6,0.5-0.9,1.3-0.9,2.3c0,0.7,0.1,1.2,0.4,1.5
			c0.3,0.4,0.6,0.6,1,0.8c0.4,0.2,0.8,0.4,1.2,0.6c0.4,0.2,0.7,0.5,1,0.9c0.3,0.4,0.4,0.9,0.4,1.6c0,0.8-0.2,1.6-0.7,2.2
			c-0.4,0.6-1.1,1.2-1.8,1.6c-0.8,0.5-1.7,0.9-2.7,1.2v0.5c2.9-0.8,5-2.1,6.3-3.9c1.3-1.8,1.9-3.6,1.9-5.5c0-1.7-0.4-2.8-1.1-3.6
			C239.9,31.9,239,31.6,237.9,31.6z M257,11.9h0.1c1,0,1.8,0.1,2.4,0.4c0.6,0.3,1,0.7,1.3,1.2c0.3,0.6,0.4,1.3,0.4,2.2v22.7
			c0,2.9-0.2,5.2-0.6,6.8c-0.4,1.6-1.1,2.7-1.9,3.3s-1.9,0.9-3.1,0.9h-0.3v0.5h0.8c1.9,0,3.6-0.3,5.1-1c1.5-0.7,2.6-1.9,3.5-3.6
			c0.8-1.7,1.3-4,1.3-7v-27H257V11.9z M263.3,6.6c0.6,0,1.1-0.2,1.5-0.6c0.4-0.4,0.6-1.1,0.6-2.2c0-1.1-0.2-1.8-0.6-2.2
			c-0.4-0.4-0.9-0.6-1.5-0.6c-0.6,0-1.2,0.2-1.6,0.6c-0.4,0.4-0.6,1.1-0.6,2.2c0,1,0.2,1.7,0.6,2.2C262.1,6.4,262.7,6.6,263.3,6.6z
			 M298.8,37.1c-0.6-0.3-1-0.7-1.3-1.4c-0.2-0.6-0.4-1.5-0.4-2.7V11.4h-8.9v0.5h0.1c1,0,1.8,0.1,2.4,0.4c0.6,0.3,1,0.7,1.3,1.4
			c0.2,0.6,0.4,1.5,0.4,2.7v11.4c0,2.1-0.2,3.9-0.7,5.4c-0.5,1.5-1.2,2.6-2.2,3.4c-1,0.8-2.2,1.2-3.7,1.2c-1.2,0-2.2-0.3-2.9-0.9
			c-0.7-0.6-1.2-1.5-1.5-2.8c-0.3-1.3-0.4-3-0.4-5.1V11.4h-8.9v0.5h0.1c1,0,1.8,0.1,2.4,0.4c0.6,0.3,1,0.7,1.3,1.4
			c0.2,0.6,0.4,1.5,0.4,2.7v12.4c0,3.4,0.7,5.9,2.2,7.4c1.4,1.5,3.6,2.3,6.6,2.3c0.7,0,1.4-0.1,2.2-0.2c0.8-0.1,1.5-0.5,2.3-0.9
			c0.7-0.5,1.4-1.2,2-2.2c0.6-1,1-2.3,1.3-4h0.1V38h8.6v-0.5h-0.1C300.2,37.5,299.4,37.4,298.8,37.1z M319.8,24.8
			c-1.1-0.8-2.6-1.5-4.5-2.3c-1.5-0.6-2.7-1.2-3.7-1.7c-1-0.5-1.7-1.1-2.2-1.8c-0.5-0.7-0.7-1.6-0.7-2.8c0-1.1,0.2-1.9,0.6-2.6
			c0.4-0.7,0.9-1.2,1.7-1.6c0.7-0.4,1.7-0.5,2.8-0.5c1.5,0,2.5,0.5,3.2,1.6c0.7,1.1,1,2.9,1,5.4c1.2,0,2.1-0.3,2.7-0.8
			c0.6-0.5,0.9-1.3,0.9-2.2c0-0.8-0.3-1.6-0.9-2.3s-1.5-1.2-2.6-1.7c-1.1-0.4-2.5-0.6-4.1-0.6c-2.8,0-5,0.6-6.6,1.8
			c-1.6,1.2-2.4,2.9-2.4,5.2c0,1.3,0.2,2.4,0.7,3.3c0.5,0.9,1.2,1.8,2.3,2.6c1.1,0.8,2.6,1.6,4.5,2.4c1.6,0.7,2.9,1.3,3.8,1.8
			c0.9,0.5,1.6,1.1,2,1.8c0.4,0.7,0.6,1.6,0.6,2.8c0,1.8-0.5,3.1-1.5,4c-1,0.9-2.4,1.4-4.2,1.4c-1.3,0-2.4-0.3-3.2-0.9
			c-0.8-0.6-1.4-1.5-1.7-2.8c-0.3-1.2-0.5-2.7-0.5-4.5c-0.4,0-0.8,0.1-1.3,0.3c-0.5,0.2-0.9,0.5-1.3,1c-0.4,0.5-0.5,1.2-0.5,2.1
			c0,1.2,0.4,2.1,1.1,2.9c0.7,0.8,1.7,1.4,3,1.8c1.3,0.4,2.7,0.6,4.4,0.6c3,0,5.3-0.7,7-2c1.7-1.3,2.6-3.3,2.6-5.8
			c0-1.3-0.2-2.4-0.7-3.4C321.7,26.4,320.9,25.5,319.8,24.8z M334.4,5.3H334c-0.2,1.1-0.6,2.1-1,2.9c-0.4,0.8-1,1.4-1.6,1.9
			c-0.6,0.5-1.4,0.8-2.3,1c-0.9,0.2-1.9,0.3-3.1,0.3v0.5h3.8v18.9c0,2.8,0.6,4.8,1.7,6c1.1,1.1,3,1.7,5.5,1.7c0.8,0,1.6-0.1,2.5-0.2
			c0.9-0.2,1.5-0.3,1.9-0.5v-0.5c-0.6,0.2-1.1,0.3-1.6,0.4c-0.5,0.1-1,0.1-1.4,0.1c-1.3,0-2.3-0.4-2.9-1.3c-0.7-0.9-1-2.2-1-3.9
			V11.9h7v-0.5h-7V5.3z M379.6,37.5c-0.7,0-1.3-0.1-1.8-0.3c-0.5-0.2-0.8-0.5-1-1c-0.2-0.5-0.3-1.1-0.3-1.9V19.5
			c0-3.1-0.8-5.4-2.3-6.7c-1.5-1.3-3.8-1.9-6.9-1.9c-1.6,0-3.1,0.2-4.5,0.5c-1.4,0.3-2.5,0.9-3.3,1.6c-0.8,0.7-1.2,1.7-1.2,2.9
			c0,1.1,0.4,1.8,1.1,2.3c0.7,0.5,1.8,0.7,3.2,0.7c0-2.5,0.3-4.4,0.8-5.6c0.5-1.2,1.8-1.8,3.7-1.8c1.4,0,2.4,0.3,3,0.9
			c0.7,0.6,1.1,1.5,1.3,2.7c0.2,1.2,0.3,2.7,0.3,4.6v3.7l-4.1,0.1c-3.8,0.1-6.7,0.8-8.6,2.1c-1.9,1.3-2.8,3.2-2.8,5.7
			c0,2.3,0.7,4.1,2.2,5.4c1.5,1.3,3.5,2,6,2c1.2,0,2.4-0.2,3.4-0.6c1-0.4,1.9-1,2.6-1.9c0.7-0.8,1.3-1.9,1.6-3.3h0.1V38h7.5v-0.5
			H379.6z M371.8,30.9c0,1.2-0.3,2.4-0.8,3.4c-0.5,1.1-1.3,1.9-2.2,2.5c-0.9,0.6-2,0.9-3.3,0.9c-1,0-1.8-0.2-2.4-0.7
			c-0.7-0.5-1.2-1.1-1.5-2.1c-0.3-0.9-0.5-2-0.5-3.4c0-2.7,0.5-4.7,1.6-5.9c1.1-1.2,3-1.8,5.9-1.9l3.2-0.1V30.9z"/>
	</g>
	<g>
		<path class="st1" d="M23.5,3h1.4c0.9,0,1.7,0.1,2.3,0.4c0.6,0.3,1,0.7,1.3,1.2c0.3,0.5,0.4,1.2,0.4,2v24.3L10,2.5H0.2V3h1.4
			C2.6,3,3.4,3.2,4,3.4C4.6,3.7,5,4,5.3,4.5C5.6,5,5.8,5.6,5.8,6.4v27.5c0,0.8-0.1,1.5-0.4,2C5,36.4,4.6,36.8,4,37.1
			c-0.6,0.3-1.4,0.4-2.3,0.4H0.2V38h11.5v-0.5h-1.4c-0.9,0-1.7-0.1-2.3-0.4c-0.6-0.3-1.1-0.7-1.4-1.2c-0.3-0.5-0.4-1.2-0.4-2V5.6
			L28,38h1.5V6.6c0-0.8,0.2-1.5,0.5-2c0.3-0.5,0.8-0.9,1.4-1.2C32,3.2,32.7,3,33.6,3H35V2.5H23.5V3z M50.9,10.9
			c-3.9,0-6.8,1.1-8.8,3.4c-2,2.3-3,5.7-3,10.4c0,4.7,1,8.1,3.1,10.4c2.1,2.3,4.9,3.4,8.5,3.4c3.9,0,6.8-1.1,8.8-3.4
			c2-2.3,3-5.8,3-10.4c0-4.6-1-8.1-3.1-10.4C57.3,12,54.5,10.9,50.9,10.9z M57,32.4c-0.4,2-1.2,3.4-2.2,4.3c-1,0.9-2.3,1.3-3.9,1.3
			c-1.6,0-3-0.4-4-1.3c-1-0.9-1.7-2.3-2.2-4.3c-0.4-2-0.7-4.5-0.7-7.7c0-3.2,0.2-5.7,0.7-7.7c0.4-2,1.2-3.4,2.2-4.2
			c1-0.9,2.3-1.3,3.9-1.3c1.7,0,3,0.4,4,1.3c1,0.9,1.7,2.3,2.2,4.2c0.4,2,0.7,4.5,0.7,7.7C57.7,27.8,57.4,30.4,57,32.4z M74.7,5.3
			h-0.5c-0.2,1.1-0.6,2.1-1,2.9c-0.4,0.8-1,1.4-1.6,1.9c-0.6,0.5-1.4,0.8-2.3,1c-0.9,0.2-1.9,0.3-3.1,0.3v0.5H70v18.9
			c0,2.8,0.6,4.8,1.7,6s3,1.7,5.5,1.7c0.8,0,1.6-0.1,2.5-0.2c0.9-0.2,1.5-0.3,1.9-0.5v-0.5c-0.6,0.2-1.1,0.3-1.6,0.4
			c-0.5,0.1-1,0.1-1.4,0.1c-1.3,0-2.3-0.4-2.9-1.3c-0.7-0.9-1-2.2-1-3.9V11.9h7v-0.5h-7V5.3z M118.1,37.2c-0.5-0.2-0.8-0.5-1-1
			c-0.2-0.5-0.3-1.1-0.3-1.9V19.5c0-3.1-0.8-5.4-2.3-6.7c-1.5-1.3-3.8-1.9-6.9-1.9c-1.6,0-3.1,0.2-4.5,0.5c-1.4,0.3-2.5,0.9-3.3,1.6
			c-0.8,0.7-1.2,1.7-1.2,2.9c0,1.1,0.4,1.8,1.1,2.3c0.7,0.5,1.8,0.7,3.2,0.7c0-2.5,0.3-4.4,0.8-5.6c0.5-1.2,1.8-1.8,3.7-1.8
			c1.4,0,2.4,0.3,3,0.9c0.7,0.6,1.1,1.5,1.3,2.7c0.2,1.2,0.3,2.7,0.3,4.6v3.7l-4.1,0.1c-3.8,0.1-6.7,0.8-8.6,2.1
			c-1.9,1.3-2.8,3.2-2.8,5.7c0,2.3,0.7,4.1,2.2,5.4c1.5,1.3,3.5,2,6,2c1.2,0,2.4-0.2,3.4-0.6c1-0.4,1.9-1,2.6-1.9
			c0.7-0.8,1.3-1.9,1.6-3.3h0.1V38h7.5v-0.5h-0.1C119.1,37.5,118.5,37.4,118.1,37.2z M112.1,30.9c0,1.2-0.3,2.4-0.8,3.4
			c-0.5,1.1-1.3,1.9-2.2,2.5c-0.9,0.6-2,0.9-3.3,0.9c-1,0-1.8-0.2-2.4-0.7c-0.7-0.5-1.2-1.1-1.5-2.1c-0.3-0.9-0.5-2-0.5-3.4
			c0-2.7,0.5-4.7,1.6-5.9c1.1-1.2,3-1.8,5.9-1.9l3.2-0.1V30.9z M140.9,6.6c0.6,0,1.1-0.2,1.5-0.6c0.4-0.4,0.6-1.1,0.6-2.2
			c0-1.1-0.2-1.8-0.6-2.2C142,1.2,141.5,1,140.9,1c-0.6,0-1.2,0.2-1.6,0.6c-0.4,0.4-0.6,1.1-0.6,2.2c0,1,0.2,1.7,0.6,2.2
			C139.7,6.4,140.3,6.6,140.9,6.6z M134.5,11.9h0.1c1,0,1.8,0.1,2.4,0.4c0.6,0.3,1,0.7,1.3,1.2c0.3,0.6,0.4,1.3,0.4,2.2v22.7
			c0,2.9-0.2,5.2-0.6,6.8c-0.4,1.6-1.1,2.7-1.9,3.3c-0.8,0.6-1.9,0.9-3.1,0.9h-0.3v0.5h0.8c1.9,0,3.6-0.3,5.1-1
			c1.5-0.7,2.6-1.9,3.5-3.6c0.8-1.7,1.3-4,1.3-7v-27h-8.9V11.9z M162.9,10.9c-3.9,0-6.8,1.1-8.8,3.4c-2,2.3-3,5.7-3,10.4
			c0,4.7,1,8.1,3.1,10.4c2.1,2.3,4.9,3.4,8.5,3.4c3.9,0,6.8-1.1,8.8-3.4c2-2.3,3-5.8,3-10.4c0-4.6-1-8.1-3.1-10.4
			C169.3,12,166.5,10.9,162.9,10.9z M168.9,32.4c-0.4,2-1.2,3.4-2.2,4.3c-1,0.9-2.3,1.3-3.9,1.3c-1.6,0-3-0.4-4-1.3
			c-1-0.9-1.7-2.3-2.2-4.3c-0.4-2-0.7-4.5-0.7-7.7c0-3.2,0.2-5.7,0.7-7.7c0.4-2,1.2-3.4,2.2-4.2c1-0.9,2.3-1.3,3.9-1.3
			c1.7,0,3,0.4,4,1.3c1,0.9,1.7,2.3,2.2,4.2c0.4,2,0.7,4.5,0.7,7.7C169.6,27.8,169.4,30.4,168.9,32.4z M205,37.2
			c-0.4-0.2-1-0.6-1.6-1.3c-0.6-0.7-1.4-1.8-2.5-3.4l-7.7-11.8l3.9-4.4c1.3-1.4,2.3-2.4,3.1-3.1c0.8-0.6,1.5-1,2.1-1.2
			c0.6-0.2,1.4-0.2,2.2-0.2v-0.5h-11v0.5c1.5,0,2.7,0.1,3.4,0.3c0.7,0.2,1.1,0.6,1.1,1.2c0,0.3-0.1,0.6-0.3,1
			c-0.2,0.4-0.5,0.8-0.8,1.3c-0.4,0.5-0.8,1-1.3,1.6l-8.5,9.4c0-0.7,0.1-1.3,0.1-2c0-0.7,0-1.3,0-2s0-1.3,0-2V0.2h-8.9v0.5h0.1
			c1,0,1.8,0.1,2.4,0.4c0.6,0.3,1,0.7,1.3,1.2c0.3,0.6,0.4,1.3,0.4,2.2v29c0,0.9-0.1,1.6-0.4,2.2c-0.3,0.6-0.7,1-1.3,1.2
			c-0.6,0.3-1.4,0.4-2.4,0.4h-0.4V38h13.4v-0.5h-0.1c-1,0-1.8-0.1-2.4-0.4c-0.6-0.3-1-0.7-1.3-1.3c-0.3-0.6-0.4-1.4-0.4-2.4v-6
			l2.9-3.3l6.4,10c0.5,0.7,0.9,1.3,1.4,1.8c0.5,0.5,1,0.9,1.6,1.1c0.6,0.3,1.2,0.5,2,0.6c0.7,0.1,1.6,0.2,2.6,0.2h2.2v-0.5h-0.1
			C205.9,37.5,205.4,37.4,205,37.2z M219.2,10.9c-3.5,0-6.3,1.2-8.2,3.5c-1.9,2.4-2.9,5.8-2.9,10.5c0,4.3,1,7.6,3.1,10
			c2.1,2.4,5,3.6,8.7,3.6c1.9,0,3.5-0.3,4.8-0.8c1.2-0.5,2.2-1.2,2.8-2c0.6-0.8,0.9-1.5,0.9-2.2c0-0.4-0.1-0.7-0.3-1
			c-0.2-0.3-0.5-0.5-0.9-0.6c-0.2,1.3-0.7,2.4-1.3,3.4c-0.7,0.9-1.5,1.6-2.5,2.1c-1,0.5-2.1,0.7-3.4,0.7c-1.7,0-3.1-0.5-4.1-1.4
			c-1-0.9-1.8-2.4-2.3-4.5c-0.5-2.1-0.7-4.8-0.7-8.1h16.6v-1.2c0-3.9-0.9-6.9-2.8-8.9C225,11.9,222.5,10.9,219.2,10.9z M213,23.4
			c0.1-2.9,0.4-5.2,0.8-7c0.4-1.8,1.1-3,1.9-3.8c0.9-0.8,2-1.2,3.3-1.2c1.3,0,2.3,0.4,3.1,1.2c0.8,0.8,1.4,2.1,1.7,3.8
			c0.4,1.8,0.5,4.1,0.5,7H213z M237.9,31.6c-0.9,0-1.7,0.3-2.3,0.8c-0.6,0.5-0.9,1.3-0.9,2.3c0,0.7,0.1,1.2,0.4,1.5
			c0.3,0.4,0.6,0.6,1,0.8c0.4,0.2,0.8,0.4,1.2,0.6c0.4,0.2,0.7,0.5,1,0.9c0.3,0.4,0.4,0.9,0.4,1.6c0,0.8-0.2,1.6-0.7,2.2
			c-0.4,0.6-1.1,1.2-1.8,1.6c-0.8,0.5-1.7,0.9-2.7,1.2v0.5c2.9-0.8,5-2.1,6.3-3.9c1.3-1.8,1.9-3.6,1.9-5.5c0-1.7-0.4-2.8-1.1-3.6
			C239.9,31.9,239,31.6,237.9,31.6z M257,11.9h0.1c1,0,1.8,0.1,2.4,0.4c0.6,0.3,1,0.7,1.3,1.2c0.3,0.6,0.4,1.3,0.4,2.2v22.7
			c0,2.9-0.2,5.2-0.6,6.8c-0.4,1.6-1.1,2.7-1.9,3.3s-1.9,0.9-3.1,0.9h-0.3v0.5h0.8c1.9,0,3.6-0.3,5.1-1c1.5-0.7,2.6-1.9,3.5-3.6
			c0.8-1.7,1.3-4,1.3-7v-27H257V11.9z M263.3,6.6c0.6,0,1.1-0.2,1.5-0.6c0.4-0.4,0.6-1.1,0.6-2.2c0-1.1-0.2-1.8-0.6-2.2
			c-0.4-0.4-0.9-0.6-1.5-0.6c-0.6,0-1.2,0.2-1.6,0.6c-0.4,0.4-0.6,1.1-0.6,2.2c0,1,0.2,1.7,0.6,2.2C262.1,6.4,262.7,6.6,263.3,6.6z
			 M298.8,37.1c-0.6-0.3-1-0.7-1.3-1.4c-0.2-0.6-0.4-1.5-0.4-2.7V11.4h-8.9v0.5h0.1c1,0,1.8,0.1,2.4,0.4c0.6,0.3,1,0.7,1.3,1.4
			c0.2,0.6,0.4,1.5,0.4,2.7v11.4c0,2.1-0.2,3.9-0.7,5.4c-0.5,1.5-1.2,2.6-2.2,3.4c-1,0.8-2.2,1.2-3.7,1.2c-1.2,0-2.2-0.3-2.9-0.9
			c-0.7-0.6-1.2-1.5-1.5-2.8c-0.3-1.3-0.4-3-0.4-5.1V11.4h-8.9v0.5h0.1c1,0,1.8,0.1,2.4,0.4c0.6,0.3,1,0.7,1.3,1.4
			c0.2,0.6,0.4,1.5,0.4,2.7v12.4c0,3.4,0.7,5.9,2.2,7.4c1.4,1.5,3.6,2.3,6.6,2.3c0.7,0,1.4-0.1,2.2-0.2c0.8-0.1,1.5-0.5,2.3-0.9
			c0.7-0.5,1.4-1.2,2-2.2c0.6-1,1-2.3,1.3-4h0.1V38h8.6v-0.5h-0.1C300.2,37.5,299.4,37.4,298.8,37.1z M319.8,24.8
			c-1.1-0.8-2.6-1.5-4.5-2.3c-1.5-0.6-2.7-1.2-3.7-1.7c-1-0.5-1.7-1.1-2.2-1.8c-0.5-0.7-0.7-1.6-0.7-2.8c0-1.1,0.2-1.9,0.6-2.6
			c0.4-0.7,0.9-1.2,1.7-1.6c0.7-0.4,1.7-0.5,2.8-0.5c1.5,0,2.5,0.5,3.2,1.6c0.7,1.1,1,2.9,1,5.4c1.2,0,2.1-0.3,2.7-0.8
			c0.6-0.5,0.9-1.3,0.9-2.2c0-0.8-0.3-1.6-0.9-2.3s-1.5-1.2-2.6-1.7c-1.1-0.4-2.5-0.6-4.1-0.6c-2.8,0-5,0.6-6.6,1.8
			c-1.6,1.2-2.4,2.9-2.4,5.2c0,1.3,0.2,2.4,0.7,3.3c0.5,0.9,1.2,1.8,2.3,2.6c1.1,0.8,2.6,1.6,4.5,2.4c1.6,0.7,2.9,1.3,3.8,1.8
			c0.9,0.5,1.6,1.1,2,1.8c0.4,0.7,0.6,1.6,0.6,2.8c0,1.8-0.5,3.1-1.5,4c-1,0.9-2.4,1.4-4.2,1.4c-1.3,0-2.4-0.3-3.2-0.9
			c-0.8-0.6-1.4-1.5-1.7-2.8c-0.3-1.2-0.5-2.7-0.5-4.5c-0.4,0-0.8,0.1-1.3,0.3c-0.5,0.2-0.9,0.5-1.3,1c-0.4,0.5-0.5,1.2-0.5,2.1
			c0,1.2,0.4,2.1,1.1,2.9c0.7,0.8,1.7,1.4,3,1.8c1.3,0.4,2.7,0.6,4.4,0.6c3,0,5.3-0.7,7-2c1.7-1.3,2.6-3.3,2.6-5.8
			c0-1.3-0.2-2.4-0.7-3.4C321.7,26.4,320.9,25.5,319.8,24.8z M334.4,5.3H334c-0.2,1.1-0.6,2.1-1,2.9c-0.4,0.8-1,1.4-1.6,1.9
			c-0.6,0.5-1.4,0.8-2.3,1c-0.9,0.2-1.9,0.3-3.1,0.3v0.5h3.8v18.9c0,2.8,0.6,4.8,1.7,6c1.1,1.1,3,1.7,5.5,1.7c0.8,0,1.6-0.1,2.5-0.2
			c0.9-0.2,1.5-0.3,1.9-0.5v-0.5c-0.6,0.2-1.1,0.3-1.6,0.4c-0.5,0.1-1,0.1-1.4,0.1c-1.3,0-2.3-0.4-2.9-1.3c-0.7-0.9-1-2.2-1-3.9
			V11.9h7v-0.5h-7V5.3z M379.6,37.5c-0.7,0-1.3-0.1-1.8-0.3c-0.5-0.2-0.8-0.5-1-1c-0.2-0.5-0.3-1.1-0.3-1.9V19.5
			c0-3.1-0.8-5.4-2.3-6.7c-1.5-1.3-3.8-1.9-6.9-1.9c-1.6,0-3.1,0.2-4.5,0.5c-1.4,0.3-2.5,0.9-3.3,1.6c-0.8,0.7-1.2,1.7-1.2,2.9
			c0,1.1,0.4,1.8,1.1,2.3c0.7,0.5,1.8,0.7,3.2,0.7c0-2.5,0.3-4.4,0.8-5.6c0.5-1.2,1.8-1.8,3.7-1.8c1.4,0,2.4,0.3,3,0.9
			c0.7,0.6,1.1,1.5,1.3,2.7c0.2,1.2,0.3,2.7,0.3,4.6v3.7l-4.1,0.1c-3.8,0.1-6.7,0.8-8.6,2.1c-1.9,1.3-2.8,3.2-2.8,5.7
			c0,2.3,0.7,4.1,2.2,5.4c1.5,1.3,3.5,2,6,2c1.2,0,2.4-0.2,3.4-0.6c1-0.4,1.9-1,2.6-1.9c0.7-0.8,1.3-1.9,1.6-3.3h0.1V38h7.5v-0.5
			H379.6z M371.8,30.9c0,1.2-0.3,2.4-0.8,3.4c-0.5,1.1-1.3,1.9-2.2,2.5c-0.9,0.6-2,0.9-3.3,0.9c-1,0-1.8-0.2-2.4-0.7
			c-0.7-0.5-1.2-1.1-1.5-2.1c-0.3-0.9-0.5-2-0.5-3.4c0-2.7,0.5-4.7,1.6-5.9c1.1-1.2,3-1.8,5.9-1.9l3.2-0.1V30.9z"/>
	</g>
</g>
</svg>
