<?xml version="1.0" encoding="utf-8"?>
<!-- Generator: Adobe Illustrator 27.5.0, SVG Export Plug-In . SVG Version: 6.00 Build 0)  -->
<svg version="1.1" id="a" xmlns="http://www.w3.org/2000/svg" xmlns:xlink="http://www.w3.org/1999/xlink" x="0px" y="0px"
	 viewBox="0 0 227.4 43.7" style="enable-background:new 0 0 227.4 43.7;" xml:space="preserve">
<style type="text/css">
	.st0{fill:#111C3C;stroke:#111C3C;stroke-width:0.5;stroke-miterlimit:10;}
</style>
<g>
	<path class="st0" d="M13.7,21.1c-1-0.7-2.3-1.4-3.9-2c-1.3-0.5-2.4-1-3.2-1.5c-0.9-0.4-1.5-1-1.9-1.6s-0.6-1.4-0.6-2.5
		c0-0.9,0.2-1.7,0.5-2.3S5.4,10,6.1,9.8s1.5-0.5,2.5-0.5c1.3,0,2.2,0.5,2.8,1.4s0.9,2.5,0.9,4.8c1,0,1.8-0.2,2.3-0.7
		s0.8-1.1,0.8-1.9c0-0.7-0.3-1.4-0.8-2s-1.3-1.1-2.3-1.5s-2.2-0.6-3.6-0.6c-2.5,0-4.4,0.5-5.8,1.6S0.8,13,0.8,15
		c0,1.1,0.2,2.1,0.6,2.9s1.1,1.6,2.1,2.3c1,0.7,2.3,1.4,3.9,2.1c1.4,0.6,2.5,1.2,3.3,1.6c0.8,0.5,1.4,1,1.7,1.6
		c0.4,0.6,0.5,1.4,0.5,2.4c0,1.6-0.5,2.8-1.4,3.6c-0.9,0.8-2.1,1.2-3.7,1.2c-1.2,0-2.1-0.3-2.8-0.8c-0.7-0.6-1.2-1.4-1.5-2.4
		c-0.3-1.1-0.4-2.4-0.4-4c-0.3,0-0.7,0.1-1.2,0.3C1.4,26,1,26.3,0.8,26.7s-0.5,1-0.5,1.8c0,1,0.3,1.9,0.9,2.6s1.5,1.2,2.6,1.6
		c1.1,0.3,2.4,0.5,3.9,0.5l0,0c2.6,0,4.7-0.6,6.2-1.7c1.5-1.2,2.3-2.9,2.3-5.2c0-1.1-0.2-2.1-0.6-3C15.2,22.6,14.4,21.9,13.7,21.1z"
		/>
	<path class="st0" d="M42.7,32c-0.5-0.2-0.9-0.6-1.1-1.2s-0.3-1.3-0.3-2.3V9.4h-7.8v0.4h0.1c0.9,0,1.6,0.1,2.1,0.4
		c0.5,0.2,0.9,0.7,1.1,1.2c0.2,0.6,0.3,1.4,0.3,2.3v10.1c0,1.9-0.2,3.5-0.7,4.8c-0.4,1.3-1.1,2.3-2,3s-2,1-3.3,1
		c-1,0-1.9-0.3-2.5-0.8s-1.1-1.4-1.3-2.5s-0.4-2.6-0.4-4.5V9.4H19v0.4h0.1c0.9,0,1.6,0.1,2.1,0.4c0.5,0.2,0.9,0.7,1.1,1.2
		c0.2,0.6,0.3,1.4,0.3,2.3v11c0,3,0.6,5.2,1.9,6.5c1.3,1.4,3.2,2,5.8,2l0,0c0.6,0,1.2-0.1,1.9-0.2s1.4-0.4,2-0.8
		c0.6-0.4,1.2-1,1.8-1.9c0.5-0.9,0.9-2,1.1-3.5h0.1v6h7.5v-0.4h-0.1C43.9,32.5,43.2,32.2,42.7,32z"/>
	<path class="st0" d="M66.4,8.1c-1,0-1.9,0.3-2.6,0.8c-0.7,0.5-1.3,1.1-1.8,1.5c-0.6-0.5-1.4-0.8-2.2-1.1C59,9,58.1,8.9,57,8.9
		c-2.8,0-4.8,0.7-6.2,2.2s-2.1,3.4-2.1,5.9c0,1.8,0.4,3.2,1.2,4.4c0.8,1.2,2,2,3.4,2.5c-1.2,0.4-2.1,1-2.7,1.8s-0.9,1.6-0.9,2.4
		s0.3,1.7,0.9,2.5s1.4,1.4,2.6,1.7c-1.5,0-2.7,0.2-3.6,0.7c-1,0.4-1.7,1-2.2,1.8c-0.5,0.7-0.7,1.6-0.7,2.7c0,1.8,0.8,3.3,2.3,4.4
		c1.5,1.1,3.8,1.6,6.8,1.6l0,0c4,0,6.9-0.7,8.8-2.2c1.9-1.5,2.8-3.5,2.8-6c0-1.9-0.6-3.5-1.7-4.7c-1.1-1.2-3-1.8-5.6-1.8h-4.9
		c-1.1,0-1.9-0.2-2.4-0.5c-0.5-0.4-0.8-0.9-0.8-1.7c0-0.5,0.1-1,0.4-1.4s0.8-0.8,1.5-1.1c0.5,0.1,1,0.2,1.5,0.3s1,0.1,1.6,0.1
		c2.7,0,4.6-0.7,5.9-2.2c1.3-1.4,2-3.2,2-5.4c0-1.3-0.2-2.5-0.7-3.6c-0.4-1.1-1.1-2-1.9-2.7c0.5-0.4,0.9-0.7,1.2-0.8s0.7-0.2,1-0.2
		c0.7,0,1.2,0.2,1.5,0.7c0.3,0.4,0.5,1.1,0.5,2.1c0.8,0,1.4-0.2,1.8-0.6c0.4-0.4,0.5-0.9,0.5-1.5S68.6,9,68.2,8.6
		C67.9,8.1,67.2,8.1,66.4,8.1z M59.7,32.5c1.7,0,2.9,0.4,3.7,1.1c0.8,0.7,1.2,1.8,1.2,3.3c0,2-0.7,3.4-2,4.5c-1.3,1-3.4,1.5-6.1,1.5
		c-1.3,0-2.4-0.2-3.3-0.6c-0.9-0.4-1.6-1-2.1-1.8s-0.8-1.8-0.8-3c0-1.3,0.2-2.3,0.7-3c0.4-0.7,1-1.2,1.8-1.5
		c0.7-0.3,1.5-0.4,2.3-0.4L59.7,32.5L59.7,32.5z M60.7,21c-0.2,1-0.7,1.8-1.2,2.3S58.2,24,57.2,24l0,0c-0.9,0-1.7-0.2-2.3-0.8
		c-0.6-0.5-1-1.3-1.3-2.3s-0.4-2.3-0.4-4s0.1-3.1,0.4-4.2s0.7-2,1.3-2.5c0.6-0.6,1.3-0.9,2.3-0.9s1.7,0.3,2.3,0.8s1,1.4,1.2,2.5
		c0.3,1.1,0.4,2.5,0.4,4.2C60.9,18.5,60.9,19.9,60.7,21z"/>
	<path class="st0" d="M90.2,8.1c-1,0-1.9,0.3-2.6,0.8s-1.3,1.1-1.8,1.5c-0.6-0.5-1.4-0.8-2.2-1.1c-0.8-0.3-1.7-0.4-2.8-0.4
		c-2.8,0-4.8,0.7-6.2,2.2s-2.1,3.4-2.1,5.9c0,1.8,0.4,3.2,1.2,4.4c0.8,1.2,2,2,3.4,2.5c-1.2,0.4-2.1,1-2.7,1.8
		c-0.6,0.8-0.9,1.6-0.9,2.4s0.3,1.7,0.9,2.5c0.6,0.8,1.4,1.4,2.6,1.7c-1.5,0-2.7,0.2-3.6,0.7c-1,0.4-1.7,1-2.1,1.8
		c-0.5,0.7-0.7,1.6-0.7,2.7c0,1.8,0.8,3.3,2.3,4.4c1.5,1.1,3.8,1.6,6.8,1.6l0,0c4,0,6.9-0.7,8.8-2.2c1.9-1.5,2.8-3.5,2.8-6
		c0-1.9-0.6-3.5-1.7-4.7c-1.1-1.2-3-1.8-5.6-1.8h-5c-1.1,0-1.9-0.2-2.4-0.5c-0.5-0.4-0.8-0.9-0.8-1.7c0-0.5,0.1-1,0.4-1.4
		s0.8-0.8,1.5-1.1c0.5,0.1,1,0.2,1.5,0.3s1.1,0.1,1.6,0.1c2.7,0,4.6-0.7,5.9-2.2c1.3-1.4,2-3.2,2-5.4c0-1.3-0.2-2.5-0.7-3.6
		s-1.1-2-1.9-2.7c0.5-0.4,0.9-0.7,1.2-0.8c0.3-0.1,0.7-0.2,1.1-0.2c0.7,0,1.2,0.2,1.5,0.7s0.5,1.1,0.5,2.1c0.8,0,1.4-0.2,1.8-0.6
		c0.4-0.4,0.6-0.9,0.6-1.5S92.6,9,92.2,8.6C91.4,8.1,90.9,8.1,90.2,8.1z M83.2,32.5c1.7,0,2.9,0.4,3.7,1.1c0.8,0.7,1.2,1.8,1.2,3.3
		c0,2-0.7,3.4-2,4.5c-1.3,1-3.4,1.5-6.1,1.5c-1.3,0-2.4-0.2-3.4-0.6c-0.9-0.4-1.6-1-2.1-1.8s-0.8-1.8-0.8-3c0-1.3,0.2-2.3,0.7-3
		s1-1.2,1.8-1.5c0.7-0.3,1.5-0.4,2.3-0.4L83.2,32.5L83.2,32.5z M84.2,21c-0.2,1-0.7,1.8-1.2,2.3S81.7,24,80.7,24l0,0
		c-0.9,0-1.7-0.2-2.3-0.8c-0.6-0.5-1-1.3-1.3-2.3s-0.4-2.3-0.4-4s0.1-3.1,0.4-4.2s0.7-2,1.3-2.5c0.6-0.6,1.3-0.9,2.3-0.9
		s1.7,0.3,2.3,0.8s1,1.4,1.2,2.5c0.3,1.1,0.4,2.5,0.4,4.2C84.4,18.5,84.4,19.9,84.2,21z"/>
	<path class="st0" d="M105.1,8.9c-3.1,0-5.5,1-7.2,3.1s-2.5,5.2-2.5,9.2c0,3.8,0.9,6.8,2.7,8.9s4.4,3.2,7.6,3.2
		c1.7,0,3.1-0.2,4.2-0.7c1.1-0.5,1.9-1.1,2.5-1.8c0.5-0.7,0.8-1.3,0.8-1.9c0-0.3-0.1-0.6-0.3-0.9s-0.4-0.5-0.8-0.5
		c-0.2,1.2-0.6,2.2-1.2,3c-0.6,0.8-1.3,1.4-2.2,1.8c-0.9,0.4-1.9,0.6-3,0.6c-1.5,0-2.7-0.4-3.6-1.2c-0.9-0.8-1.6-2.2-2-4
		s-0.6-4.2-0.7-7.2h14.6v-1c0-3.5-0.8-6.1-2.4-7.8C110.1,9.9,108.1,8.9,105.1,8.9z M99.9,20c0.1-2.6,0.4-4.6,0.8-6.2
		c0.4-1.6,1-2.7,1.7-3.4s1.7-1.1,2.9-1.1c1.1,0,2.1,0.4,2.8,1.1c0.7,0.7,1.2,1.8,1.5,3.4c0.3,1.5,0.5,3.6,0.5,6.2H99.9z"/>
	<path class="st0" d="M131.9,21.1c-1-0.7-2.3-1.4-3.9-2c-1.3-0.5-2.4-1-3.2-1.5c-0.9-0.4-1.5-1-1.9-1.6s-0.6-1.4-0.6-2.5
		c0-0.9,0.2-1.7,0.5-2.3s0.8-1.1,1.5-1.4s1.5-0.5,2.5-0.5c1.3,0,2.2,0.5,2.8,1.4s0.9,2.5,0.9,4.8c1,0,1.8-0.2,2.3-0.7
		s0.8-1.1,0.8-1.9c0-0.7-0.3-1.4-0.8-2s-1.3-1.1-2.3-1.5s-2.2-0.6-3.6-0.6c-2.5,0-4.4,0.5-5.8,1.6c-1.4,1.1-2.1,2.6-2.1,4.6
		c0,1.1,0.2,2.1,0.6,2.9c0.4,0.8,1.1,1.6,2.1,2.3c1,0.7,2.3,1.4,3.9,2.1c1.4,0.6,2.6,1.2,3.4,1.6c0.8,0.5,1.4,1,1.7,1.6
		c0.4,0.6,0.5,1.4,0.5,2.4c0,1.6-0.5,2.8-1.4,3.6c-0.9,0.8-2.1,1.2-3.7,1.2c-1.2,0-2.1-0.3-2.8-0.8c-0.7-0.6-1.2-1.4-1.5-2.4
		c-0.3-1.1-0.4-2.4-0.4-4c-0.4,0-0.7,0.1-1.2,0.3c-0.4,0.2-0.8,0.5-1.1,0.9s-0.5,1-0.5,1.8c0,1,0.3,1.9,0.9,2.6s1.5,1.2,2.6,1.6
		c1.1,0.3,2.4,0.5,3.9,0.5l0,0c2.6,0,4.7-0.6,6.2-1.7c1.5-1.2,2.3-2.9,2.3-5.2c0-1.1-0.2-2.1-0.6-3
		C133.4,22.6,132.9,21.9,131.9,21.1z"/>
	<path class="st0" d="M147.9,32.7c-1.1,0-2-0.4-2.6-1.1c-0.6-0.8-0.9-1.9-0.9-3.4V9.8h6.1V9.4h-6.1V4h-0.4c-0.2,1-0.5,1.8-0.8,2.5
		c-0.4,0.7-0.8,1.3-1.4,1.7c-0.5,0.4-1.2,0.7-2,0.9c-0.8,0.2-1.7,0.3-2.7,0.3v0.4h3.3v16.7c0,2.5,0.5,4.3,1.5,5.3s2.6,1.5,4.8,1.5
		l0,0c0.7,0,1.4-0.1,2.2-0.2c0.8-0.2,1.3-0.3,1.7-0.5v-0.4c-0.5,0.2-1,0.3-1.4,0.4C148.9,32.7,148.6,32.7,147.9,32.7z"/>
	<path class="st0" d="M158.8,5.2c0.5,0,1-0.2,1.4-0.5s0.6-1,0.6-1.9s-0.2-1.6-0.6-1.9c-0.4-0.4-0.9-0.6-1.4-0.6
		c-0.6,0-1,0.2-1.4,0.5s-0.5,1-0.5,1.9s0.2,1.5,0.5,1.9C157.8,4.9,158.1,5.2,158.8,5.2z"/>
	<path class="st0" d="M162.6,32c-0.5-0.2-0.9-0.6-1.2-1.1c-0.2-0.5-0.4-1.2-0.4-2.1V9.4h-7.8v0.4h0.1c0.9,0,1.6,0.1,2.1,0.4
		c0.5,0.2,0.9,0.6,1.1,1.1s0.4,1.2,0.4,2V29c0,0.8-0.1,1.4-0.4,1.9c-0.2,0.5-0.6,0.9-1.1,1.1s-1.2,0.3-2.1,0.3h-0.6v0.4h12.4v-0.4
		h-0.6C163.8,32.5,162.9,32.2,162.6,32z"/>
	<path class="st0" d="M152.8,32.8L152.8,32.8L152.8,32.8z"/>
	<path class="st0" d="M178.6,8.9c-3.4,0-6,1-7.7,3s-2.6,5-2.6,9.1s0.9,7.2,2.7,9.2s4.3,3,7.5,3c3.4,0,6-1,7.7-3s2.6-5.1,2.6-9.2
		s-0.9-7.1-2.7-9.1S181.6,8.9,178.6,8.9z M183.8,28c-0.4,1.7-1,3-1.9,3.8s-2,1.2-3.5,1.2l0,0c-1.4,0-2.6-0.4-3.5-1.2s-1.5-2-1.9-3.8
		c-0.4-1.7-0.6-4-0.6-6.8s0.2-5.1,0.6-6.8c0.4-1.7,1-3,1.9-3.8c0.9-0.8,2-1.2,3.5-1.2s2.6,0.4,3.5,1.2c0.9,0.8,1.5,2,1.9,3.8
		c0.4,1.7,0.6,3.9,0.6,6.8S184.1,26.1,183.8,28z"/>
	<path class="st0" d="M215.9,32c-0.5-0.2-0.8-0.7-1-1.2c-0.2-0.6-0.3-1.4-0.3-2.4V17.5c0-3-0.6-5.2-1.9-6.5c-1.3-1.4-3.2-2-5.8-2
		c-0.7,0-1.5,0.1-2.4,0.3c-0.9,0.2-1.7,0.6-2.4,1.2s-1.3,1.7-1.7,3h-0.2V9.4h-7.8v0.4h0.2c0.9,0,1.6,0.1,2.1,0.4
		c0.5,0.2,0.9,0.7,1.1,1.2c0.2,0.6,0.3,1.4,0.3,2.3v14.6c0,1-0.1,1.8-0.3,2.4s-0.6,1-1.1,1.2c-0.5,0.2-1.2,0.4-2.1,0.4h-0.4v0.4l0,0
		H204v-0.4h-0.2c-0.9,0-1.6-0.1-2.1-0.4c-0.5-0.2-0.9-0.7-1.1-1.2c-0.2-0.6-0.3-1.4-0.3-2.4V17.1c0-1.3,0.2-2.5,0.5-3.6
		c0.3-1.2,0.9-2.1,1.7-2.8c0.8-0.7,1.9-1.1,3.2-1.1c1.7,0,2.9,0.6,3.6,1.8c0.7,1.2,1,2.8,1,4.6v16.8h7.6v-0.4h-0.1
		C216.9,32.5,216.6,32.2,215.9,32z"/>
	<path class="st0" d="M226.5,28c-0.4-0.5-1-0.8-1.8-0.8s-1.4,0.2-1.8,0.8c-0.4,0.5-0.6,1.2-0.6,2.2s0.2,1.7,0.6,2.2s1,0.8,1.8,0.8
		s1.4-0.2,1.8-0.8c0.4-0.5,0.6-1.2,0.6-2.2S227,28.5,226.5,28z"/>
</g>
</svg>
