<?xml version="1.0" encoding="utf-8"?>
<!-- Generator: Adobe Illustrator 27.5.0, SVG Export Plug-In . SVG Version: 6.00 Build 0)  -->
<svg version="1.1" id="a" xmlns="http://www.w3.org/2000/svg" xmlns:xlink="http://www.w3.org/1999/xlink" x="0px" y="0px"
	 viewBox="0 0 111.3 16.2" style="enable-background:new 0 0 111.3 16.2;" xml:space="preserve">
<style type="text/css">
	.st0{fill:#111C3C;}
	.st1{fill:none;stroke:#121C3D;stroke-width:0.5;stroke-miterlimit:10;}
</style>
<g>
	<g>
		<path class="st0" d="M8,4.7C6.6,3.6,3.2,3.6,1.7,4.8C0.6,5.8,1.3,7.5,3,7.3c0-1.1,0.1-1.9,0.4-2.4c0.6-1.3,3.4-1,3.5,0.8
			C7,6.4,6.9,8.2,6.9,9.2c-1.7,0-4.4,0.1-5.4,1c-3.2,2.4,0.3,7,3.8,5.4c1-0.4,1.5-1.3,1.9-2.2v2.3h3.2v-0.2C7.2,15.9,10.4,6.1,8,4.7
			z M3.2,15.2c-1.3-0.9-1-4-0.1-4.9c0.6-0.8,2.7-0.9,3.9-0.9C7.1,12,7.1,16.7,3.2,15.2z M22.6,0.3c0,0-6.5,0-6.5,0v0.2
			c1-0.1,2.1,0.3,2,1.5c0,0,0,11.9,0,11.9c0.1,1.2-1,1.6-2,1.5v0.2h6.5C32,16.2,31.9-0.4,22.6,0.3z M20.2,15.4V0.5
			c5.3-0.6,7.1,2.3,7,7.4C27.3,13.1,25.6,16,20.2,15.4z M32.8,5.4c-3.2,4.1-0.3,12.6,5.9,10c1-0.3,2.4-1.9,1.1-2.5
			c-0.2,2.3-3.2,3.5-4.8,2c-1.3-1.4-1.2-3.2-1.3-5.5h7.1C41.6,4.6,35.9,1.9,32.8,5.4z M38.6,9.3h-5C33.3,2.4,39.1,2.3,38.6,9.3z
			 M59.3,13.6c0,0,0-5.5,0-5.5c0.7-4.5-5.8-6.1-6.8-1.7c-0.7-3.4-5.7-3.5-6.6-0.4v-2h-3.8v0.2C43.2,4.2,44,4.8,43.9,6
			c0,0,0,7.7,0,7.7c0.1,1.2-0.8,1.7-1.9,1.7v0.2h5.8v-0.2c-1.2,0.1-1.9-0.5-1.8-1.8c0,0,0-5.4,0-5.4c-0.5-2.6,2.2-5.3,4.2-3
			c1,1.4,0.3,8.7,0.5,10.5h3.8v-0.2c-1.2,0.1-1.9-0.5-1.8-1.8c0,0,0-5.7,0-5.7c-0.4-2.4,2.3-5,4.1-2.7c0.9,1.4,0.3,8.7,0.5,10.5h3.8
			v-0.2C59.9,15.4,59.2,14.8,59.3,13.6z M63.6,5.3c-3.9,5.4,1.1,14.2,7.4,9C75,8.9,70,0.1,63.6,5.3z M65.7,15c-1.8-2.3-1.8-8,0-10.3
			c3.5-2.2,4.9,2,4.6,5.2C70.6,13,69.1,17.2,65.7,15z M82.4,12.9c-0.2,2.4-2.9,3.4-4.7,2.1c-1.9-1.7-1.4-6.5-1-8.7
			c1-3.7,4.7-2.5,4.2,1.1C85,7.1,81.7,3.4,79,3.9c-7.8,0-5.5,15,2.2,11.6C82.3,15.1,83.6,13.6,82.4,12.9z M87.7,6.2V4.1h-3.8v0.2
			c1.1-0.1,1.9,0.5,1.8,1.7c0,0,0,7.7,0,7.7c0.1,1.3-0.9,1.8-2,1.7v0.2h6.1v-0.2c-1.2,0.1-2.1-0.4-2-1.8c0,0,0-4.6,0-4.6
			c0-1.2,0-2.9,0.8-3.9C89.8,3.9,91.2,5.2,91,7c1.7,0.2,2.7-1.6,1.4-2.7C90.7,3.2,88.1,4.2,87.7,6.2z M101.2,4.7
			c-1.3-1.2-4.8-1.1-6.3,0.1c-1.1,1.1-0.4,2.8,1.3,2.5c0-1.1,0.1-1.9,0.4-2.4c0.6-1.3,3.4-1,3.5,0.8c0.2,0.8,0.1,2.6,0.1,3.6
			c-1.7,0-4.4,0.1-5.4,1c-3.2,2.4,0.3,7,3.8,5.4c1-0.4,1.5-1.3,1.9-2.2v2.3h3.2v-0.2C100.4,15.9,103.6,6.1,101.2,4.7z M96.4,15.2
			c-1.3-0.9-1-4-0.1-4.9c0.6-0.8,2.7-0.9,3.9-0.9C100.3,12,100.3,16.7,96.4,15.2z M111.1,4.1h-3V1.4h-0.2c-0.2,1.8-1.6,2.7-3.4,2.6
			v0.2h1.6v8.2c-0.2,2.8,1.7,3.7,4.2,3.2c0.4-0.1,0.9-0.1,0.8-0.5c-1.6,0.7-3.2,0-3-2c0,0,0-9,0-9h3V4.1z"/>
	</g>
	<g>
		<path class="st1" d="M8,4.7C6.6,3.6,3.2,3.6,1.7,4.8C0.6,5.8,1.3,7.5,3,7.3c0-1.1,0.1-1.9,0.4-2.4c0.6-1.3,3.4-1,3.5,0.8
			C7,6.4,6.9,8.2,6.9,9.2c-1.7,0-4.4,0.1-5.4,1c-3.2,2.4,0.3,7,3.8,5.4c1-0.4,1.5-1.3,1.9-2.2v2.3h3.2v-0.2C7.2,15.9,10.4,6.1,8,4.7
			z M3.2,15.2c-1.3-0.9-1-4-0.1-4.9c0.6-0.8,2.7-0.9,3.9-0.9C7.1,12,7.1,16.7,3.2,15.2z M22.6,0.3c0,0-6.5,0-6.5,0v0.2
			c1-0.1,2.1,0.3,2,1.5c0,0,0,11.9,0,11.9c0.1,1.2-1,1.6-2,1.5v0.2h6.5C32,16.2,31.9-0.4,22.6,0.3z M20.2,15.4V0.5
			c5.3-0.6,7.1,2.3,7,7.4C27.3,13.1,25.6,16,20.2,15.4z M32.8,5.4c-3.2,4.1-0.3,12.6,5.9,10c1-0.3,2.4-1.9,1.1-2.5
			c-0.2,2.3-3.2,3.5-4.8,2c-1.3-1.4-1.2-3.2-1.3-5.5h7.1C41.6,4.6,35.9,1.9,32.8,5.4z M38.6,9.3h-5C33.3,2.4,39.1,2.3,38.6,9.3z
			 M59.3,13.6c0,0,0-5.5,0-5.5c0.7-4.5-5.8-6.1-6.8-1.7c-0.7-3.4-5.7-3.5-6.6-0.4v-2h-3.8v0.2C43.2,4.2,44,4.8,43.9,6
			c0,0,0,7.7,0,7.7c0.1,1.2-0.8,1.7-1.9,1.7v0.2h5.8v-0.2c-1.2,0.1-1.9-0.5-1.8-1.8c0,0,0-5.4,0-5.4c-0.5-2.6,2.2-5.3,4.2-3
			c1,1.4,0.3,8.7,0.5,10.5h3.8v-0.2c-1.2,0.1-1.9-0.5-1.8-1.8c0,0,0-5.7,0-5.7c-0.4-2.4,2.3-5,4.1-2.7c0.9,1.4,0.3,8.7,0.5,10.5h3.8
			v-0.2C59.9,15.4,59.2,14.8,59.3,13.6z M63.6,5.3c-3.9,5.4,1.1,14.2,7.4,9C75,8.9,70,0.1,63.6,5.3z M65.7,15c-1.8-2.3-1.8-8,0-10.3
			c3.5-2.2,4.9,2,4.6,5.2C70.6,13,69.1,17.2,65.7,15z M82.4,12.9c-0.2,2.4-2.9,3.4-4.7,2.1c-1.9-1.7-1.4-6.5-1-8.7
			c1-3.7,4.7-2.5,4.2,1.1C85,7.1,81.7,3.4,79,3.9c-7.8,0-5.5,15,2.2,11.6C82.3,15.1,83.6,13.6,82.4,12.9z M87.7,6.2V4.1h-3.8v0.2
			c1.1-0.1,1.9,0.5,1.8,1.7c0,0,0,7.7,0,7.7c0.1,1.3-0.9,1.8-2,1.7v0.2h6.1v-0.2c-1.2,0.1-2.1-0.4-2-1.8c0,0,0-4.6,0-4.6
			c0-1.2,0-2.9,0.8-3.9C89.8,3.9,91.2,5.2,91,7c1.7,0.2,2.7-1.6,1.4-2.7C90.7,3.2,88.1,4.2,87.7,6.2z M101.2,4.7
			c-1.3-1.2-4.8-1.1-6.3,0.1c-1.1,1.1-0.4,2.8,1.3,2.5c0-1.1,0.1-1.9,0.4-2.4c0.6-1.3,3.4-1,3.5,0.8c0.2,0.8,0.1,2.6,0.1,3.6
			c-1.7,0-4.4,0.1-5.4,1c-3.2,2.4,0.3,7,3.8,5.4c1-0.4,1.5-1.3,1.9-2.2v2.3h3.2v-0.2C100.4,15.9,103.6,6.1,101.2,4.7z M96.4,15.2
			c-1.3-0.9-1-4-0.1-4.9c0.6-0.8,2.7-0.9,3.9-0.9C100.3,12,100.3,16.7,96.4,15.2z M111.1,4.1h-3V1.4h-0.2c-0.2,1.8-1.6,2.7-3.4,2.6
			v0.2h1.6v8.2c-0.2,2.8,1.7,3.7,4.2,3.2c0.4-0.1,0.9-0.1,0.8-0.5c-1.6,0.7-3.2,0-3-2c0,0,0-9,0-9h3V4.1z"/>
	</g>
</g>
</svg>
