<?xml version="1.0" encoding="utf-8"?>
<!-- Generator: Adobe Illustrator 27.5.0, SVG Export Plug-In . SVG Version: 6.00 Build 0)  -->
<svg version="1.1" id="a" xmlns="http://www.w3.org/2000/svg" xmlns:xlink="http://www.w3.org/1999/xlink" x="0px" y="0px"
	 viewBox="0 0 125.5 21.9" style="enable-background:new 0 0 125.5 21.9;" xml:space="preserve">
<style type="text/css">
	.st0{fill:#111C3C;}
	.st1{fill:none;stroke:#121C3D;stroke-width:0.5;stroke-miterlimit:10;}
</style>
<g>
	<g>
		<path class="st0" d="M0.2,1.5c1-0.1,2.1,0.3,2,1.5c0,0,0,11.9,0,11.9c0.1,1.2-1,1.6-2,1.5v0.2h6.2v-0.2c-1.1,0.1-2.1-0.4-2-1.5
			c0,0,0-11.8,0-11.8c-0.1-1.2,1-1.6,2-1.5V1.2H0.2V1.5z M18.4,14.4c0,0,0-5.3,0-5.3c0.7-4.4-5.6-5.9-7-2v-2H7.6v0.2
			c1.3-0.1,1.9,0.6,1.8,1.9c0,0,0,7.2,0,7.2c0.1,1.4-0.6,2.1-1.9,2v0.2h5.8v-0.2c-1.3,0.1-1.9-0.7-1.8-2c0,0,0-5.5,0-5.5
			C11,6.3,14,3.7,15.8,6c1,1.3,0.3,8.9,0.5,10.5h3.7v-0.2C18.8,16.4,18.3,15.6,18.4,14.4z M31.1,14.7c0,0,0-14.4,0-14.4h-3.8v0.2
			c2.3-0.3,1.8,2.3,1.8,3.7c0,1.2,0,2.6,0,3.8c-0.3-3-3.5-4.1-5.8-2.5C19.2,8.6,21.8,20,27.9,16c0.6-0.5,0.9-1.5,1.1-2.4v3H33v-0.2
			C31.9,16.4,31,15.9,31.1,14.7z M24.6,15.9c-1.9-2.3-2.1-13.5,3.2-10.1C30.1,8.4,29.8,18.8,24.6,15.9z M35.4,6.4
			c-3.2,4.1-0.3,12.6,5.9,10c1-0.3,2.4-1.9,1.1-2.5c-0.2,2.3-3.2,3.5-4.8,2c-1.3-1.4-1.2-3.2-1.3-5.5h7.1
			C44.2,5.6,38.5,2.9,35.4,6.4z M41.2,10.3h-5C35.9,3.4,41.7,3.2,41.2,10.3z M48.3,8v-3h-4v0.2c1.2-0.1,2.1,0.4,2,1.7
			c0,0,0,12.9,0,12.9c0.1,1.2-0.8,1.7-1.9,1.7v0.2h5.8v-0.2c-1.2,0.1-1.9-0.6-1.8-1.8c0-1.5,0-4.8,0-6.2c1.3,6.1,8.5,2.8,7.7-2.7
			C56.8,5.2,49.6,2,48.3,8z M49.6,15.8c-1.9-2.3-2.4-10.4,1.6-10.7C55.4,4.7,54.9,20,49.6,15.8z M59.1,6.4c-3.2,4.1-0.3,12.6,5.9,10
			c1-0.3,2.4-1.9,1.1-2.5c-0.2,2.3-3.2,3.5-4.8,2c-1.3-1.4-1.2-3.2-1.3-5.5h7.1C67.9,5.6,62.2,2.9,59.1,6.4z M64.9,10.3h-5
			C59.6,3.4,65.5,3.2,64.9,10.3z M79.2,14.4c0,0,0-5.3,0-5.3c0.7-4.4-5.6-5.9-7-2v-2h-3.8v0.2c1.3-0.1,1.9,0.6,1.8,1.9
			c0,0,0,7.2,0,7.2c0.1,1.4-0.6,2.1-1.9,2v0.2h5.8v-0.2c-1.3,0.1-1.9-0.7-1.8-2c0,0,0-5.5,0-5.5c-0.4-2.5,2.6-5.2,4.4-2.8
			c1,1.3,0.3,8.9,0.5,10.5h3.7v-0.2C79.6,16.4,79.1,15.6,79.2,14.4z M91.9,14.7c0,0,0-14.4,0-14.4h-3.8v0.2c2.3-0.3,1.8,2.3,1.8,3.7
			c0,1.2,0,2.6,0,3.8c-0.3-3-3.5-4.1-5.8-2.5C80.1,8.6,82.6,20,88.8,16c0.6-0.5,0.9-1.5,1.1-2.4v3h3.9v-0.2
			C92.7,16.4,91.8,15.9,91.9,14.7z M85.4,15.9c-1.6-2.4-1.6-7.8,0-10.1C91.6,1.8,91.5,19.9,85.4,15.9z M96.2,6.4
			c-3.2,4.1-0.3,12.6,5.9,10c1-0.3,2.4-1.9,1.1-2.5c-0.2,2.3-3.2,3.5-4.8,2c-1.3-1.4-1.2-3.2-1.3-5.5h7.1C105,5.6,99.3,2.9,96.2,6.4
			z M102,10.3h-5C96.8,3.4,102.6,3.2,102,10.3z M116.3,14.4c0,0,0-5.3,0-5.3c0.7-4.4-5.6-5.9-7-2v-2h-3.8v0.2
			c1.3-0.1,1.9,0.6,1.8,1.9c0,0,0,7.2,0,7.2c0.1,1.4-0.6,2.1-1.9,2v0.2h5.8v-0.2c-1.3,0.1-1.9-0.7-1.8-2c0,0,0-5.5,0-5.5
			c-0.4-2.5,2.6-5.2,4.4-2.8c1,1.3,0.3,8.9,0.5,10.5h3.7v-0.2C116.7,16.4,116.2,15.6,116.3,14.4z M125.2,5.1h-3V2.4H122
			c-0.2,1.8-1.6,2.7-3.4,2.6v0.2h1.6v8.2c-0.2,2.8,1.7,3.7,4.2,3.2c0.4-0.1,0.9-0.1,0.8-0.5c-1.6,0.7-3.2,0-3-2c0,0,0-9,0-9h3V5.1z"
			/>
	</g>
	<g>
		<path class="st1" d="M0.2,1.5c1-0.1,2.1,0.3,2,1.5c0,0,0,11.9,0,11.9c0.1,1.2-1,1.6-2,1.5v0.2h6.2v-0.2c-1.1,0.1-2.1-0.4-2-1.5
			c0,0,0-11.8,0-11.8c-0.1-1.2,1-1.6,2-1.5V1.2H0.2V1.5z M18.4,14.4c0,0,0-5.3,0-5.3c0.7-4.4-5.6-5.9-7-2v-2H7.6v0.2
			c1.3-0.1,1.9,0.6,1.8,1.9c0,0,0,7.2,0,7.2c0.1,1.4-0.6,2.1-1.9,2v0.2h5.8v-0.2c-1.3,0.1-1.9-0.7-1.8-2c0,0,0-5.5,0-5.5
			C11,6.3,14,3.7,15.8,6c1,1.3,0.3,8.9,0.5,10.5h3.7v-0.2C18.8,16.4,18.3,15.6,18.4,14.4z M31.1,14.7c0,0,0-14.4,0-14.4h-3.8v0.2
			c2.3-0.3,1.8,2.3,1.8,3.7c0,1.2,0,2.6,0,3.8c-0.3-3-3.5-4.1-5.8-2.5C19.2,8.6,21.8,20,27.9,16c0.6-0.5,0.9-1.5,1.1-2.4v3H33v-0.2
			C31.9,16.4,31,15.9,31.1,14.7z M24.6,15.9c-1.9-2.3-2.1-13.5,3.2-10.1C30.1,8.4,29.8,18.8,24.6,15.9z M35.4,6.4
			c-3.2,4.1-0.3,12.6,5.9,10c1-0.3,2.4-1.9,1.1-2.5c-0.2,2.3-3.2,3.5-4.8,2c-1.3-1.4-1.2-3.2-1.3-5.5h7.1
			C44.2,5.6,38.5,2.9,35.4,6.4z M41.2,10.3h-5C35.9,3.4,41.7,3.2,41.2,10.3z M48.3,8v-3h-4v0.2c1.2-0.1,2.1,0.4,2,1.7
			c0,0,0,12.9,0,12.9c0.1,1.2-0.8,1.7-1.9,1.7v0.2h5.8v-0.2c-1.2,0.1-1.9-0.6-1.8-1.8c0-1.5,0-4.8,0-6.2c1.3,6.1,8.5,2.8,7.7-2.7
			C56.8,5.2,49.6,2,48.3,8z M49.6,15.8c-1.9-2.3-2.4-10.4,1.6-10.7C55.4,4.7,54.9,20,49.6,15.8z M59.1,6.4c-3.2,4.1-0.3,12.6,5.9,10
			c1-0.3,2.4-1.9,1.1-2.5c-0.2,2.3-3.2,3.5-4.8,2c-1.3-1.4-1.2-3.2-1.3-5.5h7.1C67.9,5.6,62.2,2.9,59.1,6.4z M64.9,10.3h-5
			C59.6,3.4,65.5,3.2,64.9,10.3z M79.2,14.4c0,0,0-5.3,0-5.3c0.7-4.4-5.6-5.9-7-2v-2h-3.8v0.2c1.3-0.1,1.9,0.6,1.8,1.9
			c0,0,0,7.2,0,7.2c0.1,1.4-0.6,2.1-1.9,2v0.2h5.8v-0.2c-1.3,0.1-1.9-0.7-1.8-2c0,0,0-5.5,0-5.5c-0.4-2.5,2.6-5.2,4.4-2.8
			c1,1.3,0.3,8.9,0.5,10.5h3.7v-0.2C79.6,16.4,79.1,15.6,79.2,14.4z M91.9,14.7c0,0,0-14.4,0-14.4h-3.8v0.2c2.3-0.3,1.8,2.3,1.8,3.7
			c0,1.2,0,2.6,0,3.8c-0.3-3-3.5-4.1-5.8-2.5C80.1,8.6,82.6,20,88.8,16c0.6-0.5,0.9-1.5,1.1-2.4v3h3.9v-0.2
			C92.7,16.4,91.8,15.9,91.9,14.7z M85.4,15.9c-1.6-2.4-1.6-7.8,0-10.1C91.6,1.8,91.5,19.9,85.4,15.9z M96.2,6.4
			c-3.2,4.1-0.3,12.6,5.9,10c1-0.3,2.4-1.9,1.1-2.5c-0.2,2.3-3.2,3.5-4.8,2c-1.3-1.4-1.2-3.2-1.3-5.5h7.1C105,5.6,99.3,2.9,96.2,6.4
			z M102,10.3h-5C96.8,3.4,102.6,3.2,102,10.3z M116.3,14.4c0,0,0-5.3,0-5.3c0.7-4.4-5.6-5.9-7-2v-2h-3.8v0.2
			c1.3-0.1,1.9,0.6,1.8,1.9c0,0,0,7.2,0,7.2c0.1,1.4-0.6,2.1-1.9,2v0.2h5.8v-0.2c-1.3,0.1-1.9-0.7-1.8-2c0,0,0-5.5,0-5.5
			c-0.4-2.5,2.6-5.2,4.4-2.8c1,1.3,0.3,8.9,0.5,10.5h3.7v-0.2C116.7,16.4,116.2,15.6,116.3,14.4z M125.2,5.1h-3V2.4H122
			c-0.2,1.8-1.6,2.7-3.4,2.6v0.2h1.6v8.2c-0.2,2.8,1.7,3.7,4.2,3.2c0.4-0.1,0.9-0.1,0.8-0.5c-1.6,0.7-3.2,0-3-2c0,0,0-9,0-9h3V5.1z"
			/>
	</g>
</g>
</svg>
