<?xml version="1.0" encoding="utf-8"?>
<!-- Generator: Adobe Illustrator 27.5.0, SVG Export Plug-In . SVG Version: 6.00 Build 0)  -->
<svg version="1.1" id="a" xmlns="http://www.w3.org/2000/svg" xmlns:xlink="http://www.w3.org/1999/xlink" x="0px" y="0px"
	 viewBox="0 0 99.8 21.9" style="enable-background:new 0 0 99.8 21.9;" xml:space="preserve">
<style type="text/css">
	.st0{fill:#111C3C;}
	.st1{fill:none;stroke:#121C3D;stroke-width:0.5;stroke-miterlimit:10;}
</style>
<g>
	<g>
		<path class="st0" d="M10.2,1.5c1.1-0.1,2.4,0.2,2.4,1.5c0,0,0,10.5,0,10.5L4.4,1.2H0.2v0.2c1.1-0.1,2.5,0.1,2.4,1.5
			c0,0,0,11.9,0,11.9c0.1,1.4-1.3,1.6-2.4,1.5v0.2h4.9v-0.2c-1.1,0.1-2.4-0.2-2.4-1.5c0,0,0-12.2,0-12.2l9.3,14h0.6V3
			c-0.1-1.4,1.3-1.6,2.4-1.5V1.2h-4.9V1.5z M17.8,6.3c-3.9,5.4,1.1,14.2,7.4,9C29.2,9.9,24.1,1.1,17.8,6.3z M19.8,16
			c-1.8-2.3-1.8-8,0-10.3c3.5-2.2,4.9,2,4.6,5.2C24.8,13.9,23.3,18.2,19.8,16z M31.3,2.4h-0.2c-0.2,1.8-1.6,2.7-3.4,2.6v0.2h1.6v8.2
			c-0.2,2.8,1.7,3.7,4.2,3.2c0.4-0.1,0.9-0.1,0.8-0.5c-1.6,0.7-3.2,0-3-2c0,0,0-9,0-9h3V5.1h-3V2.4z M47.5,5.7
			c-1.3-1.2-4.8-1.1-6.3,0.1c-1.1,1.1-0.4,2.8,1.3,2.5c0-1.1,0.1-1.9,0.4-2.4c0.6-1.3,3.4-1,3.5,0.8c0.2,0.8,0.1,2.6,0.1,3.6
			c-1.7,0-4.4,0.1-5.4,1c-3.2,2.4,0.3,7,3.8,5.4c1-0.4,1.5-1.3,1.9-2.2v2.3h3.2v-0.2C46.8,16.9,49.9,7,47.5,5.7z M42.7,16.2
			c-1.3-0.9-1-4-0.1-4.9c0.6-0.8,2.7-0.9,3.9-0.9C46.7,12.9,46.6,17.7,42.7,16.2z M58.6,2.7c0.8-0.9-0.1-2.9-1.3-1.9
			C56.5,1.7,57.4,3.8,58.6,2.7z M55.3,5.3c1.1-0.1,1.9,0.5,1.8,1.7c0,0,0,9.8,0,9.8c-0.1,2.3,0,4.8-2.6,4.7v0.2h0.3
			c2.9,0.1,4.4-2,4.2-5c0,0,0-11.7,0-11.7h-3.8V5.3z M63.2,6.3c-3.9,5.4,1.1,14.2,7.4,9C74.6,9.9,69.5,1.1,63.2,6.3z M65.2,16
			c-1.8-2.3-1.8-8,0-10.3c3.5-2.2,4.9,2,4.6,5.2C70.2,13.9,68.7,18.2,65.2,16z M82.9,14.2c0,0-3.3-5.1-3.3-5.1
			c1.4-1.4,2.8-4,4.9-3.8V5.1h-4.7v0.2c2.4-0.1,2.3,0.9,0.9,2.3c0,0-3.6,4.1-3.6,4.1c0.1-1.8,0-9.5,0-11.4h-3.8v0.2
			C74.3,0.4,75.1,1,75,2.1c0,0,0,12.5,0,12.5c0.1,1.2-0.8,1.7-1.9,1.7v0.2h5.8v-0.2c-2.5,0.3-1.7-2.9-1.8-4.3c0,0,1.3-1.4,1.3-1.4
			c0.4,0.6,2.9,4.7,3.3,5.1c0.9,1,2.4,0.8,3.6,0.8v-0.2C84,16.3,83.7,15.3,82.9,14.2z M86.8,6.4c-3.2,4.1-0.3,12.6,5.9,10
			c1-0.3,2.4-1.9,1.1-2.5c-0.2,2.3-3.2,3.5-4.8,2c-1.3-1.4-1.2-3.2-1.3-5.5h7.1C95.6,5.6,89.8,2.9,86.8,6.4z M92.6,10.3h-5
			C87.3,3.4,93.1,3.2,92.6,10.3z M99,14.2c-1.8-1.6-3.9,1.3-1.4,2.1c1.1,0.6,0.6,2.3-0.5,2.7c-0.3,0.3-1.2,0.3-1.2,0.7
			C98.6,19.3,100.5,16.3,99,14.2z"/>
	</g>
	<g>
		<path class="st1" d="M10.2,1.5c1.1-0.1,2.4,0.2,2.4,1.5c0,0,0,10.5,0,10.5L4.4,1.2H0.2v0.2c1.1-0.1,2.5,0.1,2.4,1.5
			c0,0,0,11.9,0,11.9c0.1,1.4-1.3,1.6-2.4,1.5v0.2h4.9v-0.2c-1.1,0.1-2.4-0.2-2.4-1.5c0,0,0-12.2,0-12.2l9.3,14h0.6V3
			c-0.1-1.4,1.3-1.6,2.4-1.5V1.2h-4.9V1.5z M17.8,6.3c-3.9,5.4,1.1,14.2,7.4,9C29.2,9.9,24.1,1.1,17.8,6.3z M19.8,16
			c-1.8-2.3-1.8-8,0-10.3c3.5-2.2,4.9,2,4.6,5.2C24.8,13.9,23.3,18.2,19.8,16z M31.3,2.4h-0.2c-0.2,1.8-1.6,2.7-3.4,2.6v0.2h1.6v8.2
			c-0.2,2.8,1.7,3.7,4.2,3.2c0.4-0.1,0.9-0.1,0.8-0.5c-1.6,0.7-3.2,0-3-2c0,0,0-9,0-9h3V5.1h-3V2.4z M47.5,5.7
			c-1.3-1.2-4.8-1.1-6.3,0.1c-1.1,1.1-0.4,2.8,1.3,2.5c0-1.1,0.1-1.9,0.4-2.4c0.6-1.3,3.4-1,3.5,0.8c0.2,0.8,0.1,2.6,0.1,3.6
			c-1.7,0-4.4,0.1-5.4,1c-3.2,2.4,0.3,7,3.8,5.4c1-0.4,1.5-1.3,1.9-2.2v2.3h3.2v-0.2C46.8,16.9,49.9,7,47.5,5.7z M42.7,16.2
			c-1.3-0.9-1-4-0.1-4.9c0.6-0.8,2.7-0.9,3.9-0.9C46.7,12.9,46.6,17.7,42.7,16.2z M58.6,2.7c0.8-0.9-0.1-2.9-1.3-1.9
			C56.5,1.7,57.4,3.8,58.6,2.7z M55.3,5.3c1.1-0.1,1.9,0.5,1.8,1.7c0,0,0,9.8,0,9.8c-0.1,2.3,0,4.8-2.6,4.7v0.2h0.3
			c2.9,0.1,4.4-2,4.2-5c0,0,0-11.7,0-11.7h-3.8V5.3z M63.2,6.3c-3.9,5.4,1.1,14.2,7.4,9C74.6,9.9,69.5,1.1,63.2,6.3z M65.2,16
			c-1.8-2.3-1.8-8,0-10.3c3.5-2.2,4.9,2,4.6,5.2C70.2,13.9,68.7,18.2,65.2,16z M82.9,14.2c0,0-3.3-5.1-3.3-5.1
			c1.4-1.4,2.8-4,4.9-3.8V5.1h-4.7v0.2c2.4-0.1,2.3,0.9,0.9,2.3c0,0-3.6,4.1-3.6,4.1c0.1-1.8,0-9.5,0-11.4h-3.8v0.2
			C74.3,0.4,75.1,1,75,2.1c0,0,0,12.5,0,12.5c0.1,1.2-0.8,1.7-1.9,1.7v0.2h5.8v-0.2c-2.5,0.3-1.7-2.9-1.8-4.3c0,0,1.3-1.4,1.3-1.4
			c0.4,0.6,2.9,4.7,3.3,5.1c0.9,1,2.4,0.8,3.6,0.8v-0.2C84,16.3,83.7,15.3,82.9,14.2z M86.8,6.4c-3.2,4.1-0.3,12.6,5.9,10
			c1-0.3,2.4-1.9,1.1-2.5c-0.2,2.3-3.2,3.5-4.8,2c-1.3-1.4-1.2-3.2-1.3-5.5h7.1C95.6,5.6,89.8,2.9,86.8,6.4z M92.6,10.3h-5
			C87.3,3.4,93.1,3.2,92.6,10.3z M99,14.2c-1.8-1.6-3.9,1.3-1.4,2.1c1.1,0.6,0.6,2.3-0.5,2.7c-0.3,0.3-1.2,0.3-1.2,0.7
			C98.6,19.3,100.5,16.3,99,14.2z"/>
	</g>
</g>
</svg>
