<?xml version="1.0" encoding="utf-8"?>
<!-- Generator: Adobe Illustrator 27.5.0, SVG Export Plug-In . SVG Version: 6.00 Build 0)  -->
<svg version="1.1" id="a" xmlns="http://www.w3.org/2000/svg" xmlns:xlink="http://www.w3.org/1999/xlink" x="0px" y="0px"
	 viewBox="0 0 107 21.6" style="enable-background:new 0 0 107 21.6;" xml:space="preserve">
<style type="text/css">
	.st0{fill:#111C3C;}
	.st1{fill:none;stroke:#121C3D;stroke-width:0.5;stroke-miterlimit:10;}
</style>
<g>
	<g>
		<path class="st0" d="M6.7,10.5C5.3,9.3,1.9,9.2,2,6.8c0.2-3.3,4.7-2.5,4,1c1.3,0.1,2-1.3,1.2-2.3C5.9,4.2,2.7,4.3,1.4,5.3
			c-3.2,3.2,1.1,5.5,3.8,6.6c4.2,3.8-4.3,7-3.7,0.8c-0.8,0-1.4,0.6-1.3,1.5c0.2,2.9,5,2.7,6.6,1.4C8.4,14.5,8.4,11.6,6.7,10.5z
			 M19.8,14.1c0,0,0-9.4,0-9.4H16V5c1.3-0.1,1.9,0.6,1.8,1.9c0,0,0,4.9,0,4.9c0.6,3.2-3.3,6.5-4.8,2.7c-0.4-1.3-0.1-8.3-0.2-9.8H9V5
			c4.9-0.2-2.3,12.8,6.5,11.4c1.5-0.3,2.2-1.5,2.4-3.1h0v2.9h3.7V16C20.3,16.1,19.7,15.4,19.8,14.1z M29.6,5.2
			c-4.8-3.3-9.5,4.2-4.2,6.6c-2.2,0.6-2.2,3.6,0,4.1c-2.8-0.4-4.4,3-2.1,4.6c1.6,1.3,6.3,1,7.6-0.3c2.5-1.9,1.5-6.5-2.2-6.1
			c0,0-2.4,0-2.4,0c-1.2,0.1-2-0.7-1.4-1.7c0.4-0.8,1.5-0.3,2.2-0.3c1.3,0,2.3-0.4,2.9-1.1c1.4-1.5,1.3-4.4-0.3-5.7
			c0.9-0.9,2.2-0.6,2.1,0.8C34.6,5.6,31.8,2.4,29.6,5.2z M30.8,18.2c0.1,2.8-3.3,3.4-5.6,2.6c-2.2-0.9-1.7-5,0.9-4.8
			C27.8,16.1,30.9,15.6,30.8,18.2z M26,11.5c-1.2-1.5-1.1-4.9,0-6.4C30.1,2.4,30.2,14.2,26,11.5z M40.7,5.2
			c-4.8-3.3-9.5,4.2-4.2,6.6c-2.2,0.6-2.2,3.6,0,4.1c-2.8-0.4-4.4,3-2.1,4.6c1.6,1.3,6.3,1,7.6-0.3c2.5-1.9,1.5-6.5-2.2-6.1
			c0,0-2.4,0-2.4,0c-1.2,0.1-2-0.7-1.4-1.7c0.4-0.8,1.5-0.3,2.2-0.3c1.3,0,2.3-0.4,2.9-1.1c1.4-1.5,1.3-4.4-0.3-5.7
			c0.9-0.9,2.2-0.6,2.1,0.8C45.7,5.6,42.9,2.4,40.7,5.2z M41.8,18.2c0.1,2.8-3.3,3.4-5.6,2.6c-2.2-0.9-1.7-5,0.9-4.8
			C38.9,16.1,42,15.6,41.8,18.2z M37.1,11.5c-1.2-1.5-1.1-4.9,0-6.4C41.2,2.4,41.3,14.2,37.1,11.5z M46.3,6
			c-3.2,4.1-0.3,12.6,5.9,10c1-0.3,2.4-1.9,1.1-2.5c-0.2,2.3-3.2,3.5-4.8,2c-1.3-1.4-1.2-3.2-1.3-5.5h7.1C55.1,5.3,49.4,2.6,46.3,6z
			 M52.1,9.9h-5C46.8,3.1,52.6,2.9,52.1,9.9z M62.3,10.5c-1.4-1.2-4.8-1.3-4.7-3.7c0.2-3.3,4.7-2.5,4,1c1.3,0.1,2-1.3,1.2-2.3
			c-1.3-1.4-4.4-1.2-5.7-0.2c-3.2,3.2,1.1,5.5,3.8,6.6c4.2,3.8-4.3,7-3.7,0.8c-0.8,0-1.4,0.6-1.3,1.5c0.2,2.9,5,2.7,6.6,1.4
			C64,14.5,64,11.6,62.3,10.5z M68.1,2.1h-0.2c-0.2,1.8-1.6,2.7-3.4,2.6V5h1.6v8.2c-0.2,2.8,1.7,3.7,4.2,3.2
			c0.4-0.1,0.9-0.1,0.8-0.5c-1.6,0.7-3.2,0-3-2c0,0,0-9,0-9h3V4.7h-3V2.1z M75.7,14.3c0,0,0-9.5,0-9.5h-3.8V5
			c1.1-0.1,1.9,0.5,1.8,1.7c0,0,0,7.7,0,7.7c0.1,1.3-0.9,1.8-2,1.7v0.2h6.1V16C76.5,16.1,75.6,15.6,75.7,14.3z M75.3,2.4
			c0.8-0.9-0.1-2.9-1.3-1.9C73.2,1.4,74.1,3.5,75.3,2.4z M80.1,6c-3.9,5.4,1.1,14.2,7.4,9C91.4,9.6,86.4,0.8,80.1,6z M82.1,15.6
			c-1.8-2.3-1.8-8,0-10.3c3.5-2.2,4.9,2,4.6,5.2C87,13.6,85.6,17.9,82.1,15.6z M101,14c0,0,0-5.3,0-5.3c0.7-4.4-5.6-5.9-7-2v-2h-3.8
			V5c1.3-0.1,1.9,0.6,1.8,1.9c0,0,0,7.2,0,7.2c0.1,1.4-0.6,2.1-1.9,2v0.2h5.8V16c-1.3,0.1-1.9-0.7-1.8-2c0,0,0-5.5,0-5.5
			c-0.4-2.5,2.6-5.2,4.4-2.8c1,1.3,0.3,8.9,0.5,10.5h3.7V16C101.4,16.1,101,15.3,101,14z M104.7,13.8c-0.9,1.2,0.3,3.5,1.7,2.2
			C107.4,14.8,106.2,12.5,104.7,13.8z"/>
	</g>
	<g>
		<path class="st1" d="M6.7,10.5C5.3,9.3,1.9,9.2,2,6.8c0.2-3.3,4.7-2.5,4,1c1.3,0.1,2-1.3,1.2-2.3C5.9,4.2,2.7,4.3,1.4,5.3
			c-3.2,3.2,1.1,5.5,3.8,6.6c4.2,3.8-4.3,7-3.7,0.8c-0.8,0-1.4,0.6-1.3,1.5c0.2,2.9,5,2.7,6.6,1.4C8.4,14.5,8.4,11.6,6.7,10.5z
			 M19.8,14.1c0,0,0-9.4,0-9.4H16V5c1.3-0.1,1.9,0.6,1.8,1.9c0,0,0,4.9,0,4.9c0.6,3.2-3.3,6.5-4.8,2.7c-0.4-1.3-0.1-8.3-0.2-9.8H9V5
			c4.9-0.2-2.3,12.8,6.5,11.4c1.5-0.3,2.2-1.5,2.4-3.1h0v2.9h3.7V16C20.3,16.1,19.7,15.4,19.8,14.1z M29.6,5.2
			c-4.8-3.3-9.5,4.2-4.2,6.6c-2.2,0.6-2.2,3.6,0,4.1c-2.8-0.4-4.4,3-2.1,4.6c1.6,1.3,6.3,1,7.6-0.3c2.5-1.9,1.5-6.5-2.2-6.1
			c0,0-2.4,0-2.4,0c-1.2,0.1-2-0.7-1.4-1.7c0.4-0.8,1.5-0.3,2.2-0.3c1.3,0,2.3-0.4,2.9-1.1c1.4-1.5,1.3-4.4-0.3-5.7
			c0.9-0.9,2.2-0.6,2.1,0.8C34.6,5.6,31.8,2.4,29.6,5.2z M30.8,18.2c0.1,2.8-3.3,3.4-5.6,2.6c-2.2-0.9-1.7-5,0.9-4.8
			C27.8,16.1,30.9,15.6,30.8,18.2z M26,11.5c-1.2-1.5-1.1-4.9,0-6.4C30.1,2.4,30.2,14.2,26,11.5z M40.7,5.2
			c-4.8-3.3-9.5,4.2-4.2,6.6c-2.2,0.6-2.2,3.6,0,4.1c-2.8-0.4-4.4,3-2.1,4.6c1.6,1.3,6.3,1,7.6-0.3c2.5-1.9,1.5-6.5-2.2-6.1
			c0,0-2.4,0-2.4,0c-1.2,0.1-2-0.7-1.4-1.7c0.4-0.8,1.5-0.3,2.2-0.3c1.3,0,2.3-0.4,2.9-1.1c1.4-1.5,1.3-4.4-0.3-5.7
			c0.9-0.9,2.2-0.6,2.1,0.8C45.7,5.6,42.9,2.4,40.7,5.2z M41.8,18.2c0.1,2.8-3.3,3.4-5.6,2.6c-2.2-0.9-1.7-5,0.9-4.8
			C38.9,16.1,42,15.6,41.8,18.2z M37.1,11.5c-1.2-1.5-1.1-4.9,0-6.4C41.2,2.4,41.3,14.2,37.1,11.5z M46.3,6
			c-3.2,4.1-0.3,12.6,5.9,10c1-0.3,2.4-1.9,1.1-2.5c-0.2,2.3-3.2,3.5-4.8,2c-1.3-1.4-1.2-3.2-1.3-5.5h7.1C55.1,5.3,49.4,2.6,46.3,6z
			 M52.1,9.9h-5C46.8,3.1,52.6,2.9,52.1,9.9z M62.3,10.5c-1.4-1.2-4.8-1.3-4.7-3.7c0.2-3.3,4.7-2.5,4,1c1.3,0.1,2-1.3,1.2-2.3
			c-1.3-1.4-4.4-1.2-5.7-0.2c-3.2,3.2,1.1,5.5,3.8,6.6c4.2,3.8-4.3,7-3.7,0.8c-0.8,0-1.4,0.6-1.3,1.5c0.2,2.9,5,2.7,6.6,1.4
			C64,14.5,64,11.6,62.3,10.5z M68.1,2.1h-0.2c-0.2,1.8-1.6,2.7-3.4,2.6V5h1.6v8.2c-0.2,2.8,1.7,3.7,4.2,3.2
			c0.4-0.1,0.9-0.1,0.8-0.5c-1.6,0.7-3.2,0-3-2c0,0,0-9,0-9h3V4.7h-3V2.1z M75.7,14.3c0,0,0-9.5,0-9.5h-3.8V5
			c1.1-0.1,1.9,0.5,1.8,1.7c0,0,0,7.7,0,7.7c0.1,1.3-0.9,1.8-2,1.7v0.2h6.1V16C76.5,16.1,75.6,15.6,75.7,14.3z M75.3,2.4
			c0.8-0.9-0.1-2.9-1.3-1.9C73.2,1.4,74.1,3.5,75.3,2.4z M80.1,6c-3.9,5.4,1.1,14.2,7.4,9C91.4,9.6,86.4,0.8,80.1,6z M82.1,15.6
			c-1.8-2.3-1.8-8,0-10.3c3.5-2.2,4.9,2,4.6,5.2C87,13.6,85.6,17.9,82.1,15.6z M101,14c0,0,0-5.3,0-5.3c0.7-4.4-5.6-5.9-7-2v-2h-3.8
			V5c1.3-0.1,1.9,0.6,1.8,1.9c0,0,0,7.2,0,7.2c0.1,1.4-0.6,2.1-1.9,2v0.2h5.8V16c-1.3,0.1-1.9-0.7-1.8-2c0,0,0-5.5,0-5.5
			c-0.4-2.5,2.6-5.2,4.4-2.8c1,1.3,0.3,8.9,0.5,10.5h3.7V16C101.4,16.1,101,15.3,101,14z M104.7,13.8c-0.9,1.2,0.3,3.5,1.7,2.2
			C107.4,14.8,106.2,12.5,104.7,13.8z"/>
	</g>
</g>
</svg>
